<svg width="150" height="150" viewBox="0 0 150 150" fill="none" xmlns="http://www.w3.org/2000/svg">
<path d="M140 118.333C140 130.293 130.207 140 118.333 140H31.6667C19.7067 140 10 130.207 10 118.333V31.6667C10 19.7933 19.7933 10 31.6667 10H118.333C130.293 10 140 19.7933 140 31.6667V118.333Z" fill="#4B4B4B"/>
<path d="M45.36 38.2533H82.1933C88.9533 38.2533 94.4133 39.8133 98.5733 42.9333C102.647 46.0533 104.727 50.7333 104.727 57.06C104.727 60.8733 103.773 64.1667 101.953 66.8533C100.047 69.54 97.4467 71.7067 93.8933 73.18V73.3533C98.5733 74.3933 102.127 76.56 104.553 79.94C106.98 83.4067 108.193 87.6533 108.193 92.8533C108.193 95.8 107.673 98.5733 106.633 101.173C105.593 103.773 103.947 106.027 101.607 107.847C99.3533 109.753 96.4067 111.227 92.94 112.267C89.4733 113.307 85.2267 113.913 80.2867 113.913H45.36V38.2533ZM58.62 69.9733H80.2867C83.4933 69.9733 86.0933 69.1067 88.26 67.2867C90.4267 65.4667 91.4667 62.8667 91.4667 59.4867C91.4667 55.6733 90.5133 52.9867 88.6067 51.4267C86.7 49.8667 83.9267 49.0867 80.2867 49.0867H58.62V69.9733ZM58.62 103.253H82.1067C86.18 103.253 89.3 102.213 91.4667 100.133C93.72 98.0533 94.8467 95.1067 94.8467 91.2933C94.8467 87.5667 93.72 84.7067 91.4667 82.6267C89.2133 80.5467 86.0933 79.5933 82.1067 79.5933H58.62V103.253Z" fill="white"/>
</svg>
