<svg width="150" height="150" viewBox="0 0 150 150" fill="none" xmlns="http://www.w3.org/2000/svg">
<path d="M125 108.333C125 117.533 117.467 125 108.333 125H41.6667C32.4667 125 25 117.467 25 108.333V41.6667C25 32.5333 32.5333 25 41.6667 25H108.333C117.533 25 125 32.5333 125 41.6667V108.333Z" fill="#4B4B4B"/>
<path d="M52.2 46.7333H80.5333C85.7333 46.7333 89.9333 47.9333 93.1333 50.3333C96.2666 52.7333 97.8666 56.3333 97.8666 61.2C97.8666 64.1333 97.1333 66.6667 95.7333 68.7333C94.2666 70.8 92.2666 72.4667 89.5333 73.6V73.7333C93.1333 74.5333 95.8666 76.2 97.7333 78.8C99.6 81.4667 100.533 84.7333 100.533 88.7333C100.533 91 100.133 93.1333 99.3333 95.1333C98.5333 97.1333 97.2666 98.8667 95.4666 100.267C93.7333 101.733 91.4666 102.867 88.8 103.667C86.1333 104.467 82.8666 104.933 79.0666 104.933H52.2V46.7333ZM62.4 71.1333H79.0666C81.5333 71.1333 83.5333 70.4667 85.2 69.0667C86.8666 67.6667 87.6666 65.6667 87.6666 63.0667C87.6666 60.1333 86.9333 58.0667 85.4666 56.8667C84 55.6667 81.8666 55.0667 79.0666 55.0667H62.4V71.1333ZM62.4 96.7333H80.4666C83.6 96.7333 86 95.9333 87.6666 94.3333C89.4 92.7333 90.2666 90.4667 90.2666 87.5333C90.2666 84.6667 89.4 82.4667 87.6666 80.8667C85.9333 79.2667 83.5333 78.5333 80.4666 78.5333H62.4V96.7333Z" fill="white"/>
</svg>
