<svg width="150" height="150" viewBox="0 0 150 150" fill="none" xmlns="http://www.w3.org/2000/svg">
<path d="M42.4 0.0444489C49 0.0444489 55.5 0.0444489 62.1 0.0444489C62.1 2.14445 62.1 4.14445 62.1 6.24445C57.5 6.24445 53 6.24445 48.4 6.24445C48.4 9.24445 48.3 12.2444 48.3 15.2444C52.9 15.2444 57.4 15.3444 62 15.3444C62.1 17.0444 62 18.7444 62 20.4444C55.4 20.4444 48.9 20.4444 42.3 20.4444C42.4 13.5444 42.4 6.84445 42.4 0.0444489Z" fill="black"/>
<path d="M64.5 0.0444444C71.2 0.0444444 77.8 -0.0555556 84.5 0.0444444C84.5 1.94444 84.5 3.94444 84.5 5.84444C79.7 5.84444 74.8 5.84444 70 5.94444C70 6.74444 70 7.44444 70 8.24444C74.8 8.34444 79.7 8.34444 84.5 8.34444C84.5 12.3444 84.5 16.3444 84.5 20.2444C77.8 20.2444 71.2 20.2444 64.5 20.2444C64.5 18.6444 64.5 17.0444 64.5 15.4444C69.1 15.4444 73.7 15.4444 78.3 15.4444C78.3 14.4444 78.3 13.3444 78.3 12.3444C73.7 12.3444 69 12.3444 64.4 12.3444C64.4 8.24444 64.4 4.14444 64.5 0.0444444Z" fill="black"/>
<path d="M86.7 0.14444C93.3 0.14444 100 0.14444 106.6 0.14444C106.6 2.14444 106.7 4.04444 106.6 6.04444C101.7 6.04444 96.9 6.04444 92 6.04444C92 6.84444 92 7.64444 92.1 8.44444C96.9 8.44444 101.8 8.44444 106.6 8.54444C106.6 12.5444 106.7 16.4444 106.6 20.4444C99.9 20.4444 93.3 20.4444 86.6 20.4444C86.6 18.8444 86.5 17.2444 86.6 15.6444C91.2 15.6444 95.8 15.6444 100.4 15.6444C100.4 14.6444 100.4 13.5444 100.4 12.5444C95.8 12.5444 91.1 12.5444 86.5 12.5444C86.6 8.34444 86.6 4.24444 86.7 0.14444Z" fill="black"/>
<path d="M21 28.7444C56.7 28.7444 92.3 28.7444 128 28.7444C126 50.9444 124.1 73.1444 122.1 95.2444C120.9 109.444 119.6 123.544 118.3 137.744C110.7 139.744 103.2 142.044 95.5 144.044C88.5 146.144 81.5 147.944 74.5 149.944H74.3C67.6 147.944 60.9 146.244 54.3 144.244C46.4 142.144 38.7 139.744 30.8 137.644C29.8 127.044 28.9 116.444 27.9 105.744C26.2 86.2444 24.3 66.6444 22.7 47.0444C22.1 41.1444 21.7 35.2444 21 29.3444V28.7444ZM74.7 37.4444C74.6 41.7444 74.8 45.9444 74.6 50.2444C62.4 50.2444 50.1 50.2444 37.9 50.2444C38.1 54.3444 38.7 58.4444 39.2 62.5444C50.6 62.9444 62 62.5444 73.4 62.8444C63.4 67.3444 53.4 71.5444 43.4 75.8444C42.5 76.2444 41.6 76.5444 40.9 77.0444C41 81.5444 41.7 86.1444 42 90.6444C48.1 90.6444 54.1 90.5444 60.2 90.5444C65.1 90.5444 69.9 90.6444 74.8 90.5444C74.6 98.0444 74.9 105.444 74.6 112.944C71.3 112.444 68.1 111.744 64.8 111.144C62.2 110.544 59.6 110.244 57.1 109.544C56.7 105.944 56.5 102.344 56.2 98.7444C55.5 98.5444 54.7 98.5444 53.9 98.5444C50.2 98.5444 46.5 98.5444 42.9 98.5444C43.3 105.444 43.9 112.344 44.9 119.144C48.5 120.044 52.2 121.044 55.8 122.044C61.3 123.544 67 124.844 72.5 126.244C73.2 126.344 73.8 126.644 74.5 126.544C74.9 131.044 74.6 135.644 74.7 140.144C76 139.944 77.2 139.644 78.5 139.244C89 136.344 99.5 133.444 110 130.644C110.5 126.544 110.8 122.344 111.2 118.244C112.3 105.644 113.4 93.0444 114.5 80.4444C115.8 66.0444 117 51.6444 118.4 37.2444C103.7 37.4444 89.2 37.4444 74.7 37.4444Z" fill="#575757"/>
<path d="M74.7 37.4444C89.2 37.4444 103.8 37.4444 118.3 37.4444C116.9 51.8444 115.8 66.2444 114.4 80.6444C113.3 93.2444 112.2 105.844 111.1 118.444C110.7 122.544 110.4 126.744 109.9 130.844C99.4 133.744 88.9 136.644 78.4 139.444C77.2 139.844 75.9 140.144 74.6 140.344C74.5 135.844 74.8 131.244 74.4 126.744C74.5 126.744 74.7 126.644 74.8 126.644C84.6 124.144 94.3 121.444 104 118.944C105.2 105.144 106.6 91.2444 107.5 77.4444C99.2 77.4444 90.9 77.4444 82.6 77.5444C81.4 77.5444 80.2 77.5444 79 77.4444C83.5 75.1444 88.2 73.3444 92.7 71.2444C97.1 69.2444 101.5 67.3444 106 65.4444C106.9 65.0444 107.8 64.7444 108.5 64.1444C108.8 63.0444 108.8 61.9444 108.9 60.8444C109.2 57.3444 109.6 53.8444 109.8 50.3444C98.1 50.2444 86.3 50.3444 74.6 50.2444C74.7 46.0444 74.6 41.7444 74.7 37.4444Z" fill="#898989"/>
<path d="M74.7 90.6444C80.4 90.5444 86 90.7444 91.7 90.6444C91.4 96.4444 90.9 102.244 90.6 108.044C87.1 109.144 83.6 110.144 80.1 111.144C78.2 111.744 76.3 112.144 74.5 113.044C74.8 105.544 74.5 98.1444 74.7 90.6444Z" fill="#898989"/>
<path d="M37.9 50.2444C50.1 50.2444 62.4 50.2444 74.6 50.2444C74.8 63.7444 74.6 77.1444 74.7 90.6444C69.8 90.7444 65 90.6444 60.1 90.6444C54 90.6444 48 90.7444 41.9 90.7444C41.6 86.2444 40.8 81.7444 40.8 77.1444C41.6 76.5444 42.5 76.3444 43.3 75.9444C53.3 71.5444 63.4 67.3444 73.3 62.9444C62 62.5444 50.6 63.0444 39.2 62.6444C38.6 58.5444 38.1 54.4444 37.9 50.2444Z" fill="#CFCFCF"/>
<path d="M42.8 98.7444C46.5 98.6444 50.2 98.7444 53.8 98.7444C54.6 98.7444 55.3 98.7444 56.1 98.9444C56.4 102.544 56.7 106.144 57 109.744C59.5 110.444 62.2 110.744 64.7 111.344C68 111.944 71.2 112.644 74.5 113.144C74.8 117.644 74.3 122.244 74.8 126.844C74.7 126.844 74.5 126.944 74.4 126.944C73.7 127.044 73 126.744 72.4 126.644C66.8 125.144 61.2 123.944 55.7 122.444C52.1 121.444 48.5 120.544 44.8 119.544C43.8 112.544 43.2 105.644 42.8 98.7444Z" fill="#CFCFCF"/>
<path d="M74.6 50.2444C86.4 50.3444 98.1 50.2444 109.8 50.3444C109.6 53.8444 109.2 57.3444 108.9 60.8444C108.8 61.9444 108.8 63.0444 108.5 64.1444C107.8 64.7444 106.8 65.0444 106 65.4444C101.6 67.4444 97.1 69.2444 92.7 71.2444C88.1 73.3444 83.4 75.1444 79 77.4444C80.2 77.5444 81.4 77.5444 82.6 77.5444C90.9 77.5444 99.2 77.5444 107.5 77.4444C106.6 91.3444 105.3 105.144 104 118.944C94.2 121.444 84.5 124.144 74.8 126.644C74.3 122.144 74.8 117.544 74.5 112.944C76.3 112.144 78.2 111.644 80.1 111.044C83.6 109.944 87.1 109.044 90.6 107.944C90.9 102.144 91.4 96.3444 91.7 90.5444C86 90.5444 80.3 90.4444 74.7 90.5444C74.5 77.1444 74.7 63.7444 74.6 50.2444Z" fill="white"/>
</svg>
