<svg width="150" height="150" viewBox="0 0 150 150" fill="none" xmlns="http://www.w3.org/2000/svg">
<path d="M53.2719 25.0296C57.6736 25.0296 62.0085 25.0296 66.4101 25.0296C66.4101 26.4302 66.4101 27.764 66.4101 29.1645C63.3423 29.1645 60.3412 29.1645 57.2734 29.1645C57.2734 31.1652 57.2067 33.166 57.2067 35.1667C60.2745 35.1667 63.2756 35.2334 66.3434 35.2334C66.4101 36.3672 66.3434 37.5009 66.3434 38.6347C61.9418 38.6347 57.6069 38.6347 53.2052 38.6347C53.2719 34.033 53.2719 29.5646 53.2719 25.0296Z" fill="black"/>
<path d="M68.0107 25.0296C72.4791 25.0296 76.8807 24.9629 81.349 25.0296C81.349 26.2968 81.349 27.6306 81.349 28.8977C78.1478 28.8977 74.8799 28.8977 71.6788 28.9644C71.6788 29.498 71.6788 29.9648 71.6788 30.4983C74.8799 30.565 78.1478 30.565 81.349 30.565C81.349 33.2327 81.349 35.9003 81.349 38.5013C76.8807 38.5013 72.4791 38.5013 68.0107 38.5013C68.0107 37.4342 68.0107 36.3672 68.0107 35.3001C71.0785 35.3001 74.1463 35.3001 77.2141 35.3001C77.2141 34.6332 77.2141 33.8996 77.2141 33.2327C74.1463 33.2327 71.0118 33.2327 67.944 33.2327C67.944 30.4983 67.944 27.764 68.0107 25.0296Z" fill="black"/>
<path d="M82.8162 25.0963C87.2178 25.0963 91.6862 25.0963 96.0878 25.0963C96.0878 26.4302 96.1545 27.6973 96.0878 29.0311C92.8199 29.0311 89.6187 29.0311 86.3509 29.0311C86.3509 29.5647 86.3509 30.0982 86.4175 30.6317C89.6187 30.6317 92.8866 30.6317 96.0878 30.6984C96.0878 33.3661 96.1545 35.967 96.0878 38.6347C91.6195 38.6347 87.2178 38.6347 82.7495 38.6347C82.7495 37.5676 82.6828 36.5006 82.7495 35.4335C85.8173 35.4335 88.8851 35.4335 91.9529 35.4335C91.9529 34.7666 91.9529 34.033 91.9529 33.3661C88.8851 33.3661 85.7506 33.3661 82.6828 33.3661C82.7495 30.565 82.7495 27.8307 82.8162 25.0963Z" fill="black"/>
<path d="M39 44.1701C62.8088 44.1701 86.5509 44.1701 110.36 44.1701C109.026 58.9756 107.759 73.781 106.425 88.5198C105.625 97.99 104.758 107.393 103.891 116.864C98.8222 118.197 93.8203 119.731 88.6851 121.065C84.0167 122.466 79.3483 123.666 74.6799 125H74.5465C70.0782 123.666 65.6099 122.532 61.2082 121.199C55.9396 119.798 50.8044 118.197 45.5358 116.797C44.8688 109.728 44.2686 102.658 43.6017 95.5224C42.468 82.5176 41.2008 69.4461 40.1338 56.3746C39.7336 52.4398 39.4668 48.505 39 44.5702V44.1701ZM74.8133 49.9722C74.7466 52.84 74.88 55.641 74.7466 58.5087C66.6102 58.5087 58.4072 58.5087 50.2708 58.5087C50.4042 61.2431 50.8044 63.9774 51.1378 66.7118C58.7406 66.9785 66.3435 66.7118 73.9463 66.9118C67.2771 69.9129 60.608 72.714 53.9389 75.5817C53.3386 75.8485 52.7384 76.0485 52.2716 76.382C52.3383 79.3831 52.8051 82.4509 53.0052 85.452C57.0734 85.452 61.0748 85.3853 65.143 85.3853C68.4109 85.3853 71.6121 85.452 74.88 85.3853C74.7466 90.3872 74.9466 95.3223 74.7466 100.324C72.5458 99.9907 70.4116 99.5239 68.2108 99.1238C66.4768 98.7236 64.7429 98.5235 63.0756 98.0567C62.8088 95.6558 62.6754 93.2549 62.4754 90.854C62.0085 90.7206 61.475 90.7206 60.9415 90.7206C58.4739 90.7206 56.0063 90.7206 53.6054 90.7206C53.8722 95.3224 54.2723 99.924 54.9392 104.459C57.3401 105.059 59.8077 105.726 62.2086 106.393C65.8766 107.393 69.678 108.26 73.3461 109.194C73.8129 109.261 74.213 109.461 74.6799 109.394C74.9466 112.395 74.7466 115.463 74.8133 118.464C75.6803 118.331 76.4805 118.131 77.3475 117.864C84.3501 115.93 91.3527 113.996 98.3553 112.129C98.6888 109.394 98.8888 106.593 99.1556 103.859C99.8892 95.4557 100.623 87.0526 101.356 78.6495C102.223 69.046 103.024 59.4424 103.957 49.8388C94.1538 49.9722 84.4835 49.9722 74.8133 49.9722Z" fill="#575757"/>
<path d="M74.8133 49.9722C84.4835 49.9722 94.2205 49.9722 103.891 49.9722C102.957 59.5758 102.223 69.1793 101.29 78.7829C100.556 87.186 99.8225 95.5891 99.0889 103.992C98.8222 106.727 98.6221 109.528 98.2886 112.262C91.286 114.196 84.2834 116.13 77.2808 117.997C76.4805 118.264 75.6136 118.464 74.7466 118.598C74.6799 115.597 74.88 112.529 74.6132 109.528C74.6799 109.528 74.8133 109.461 74.88 109.461C81.4157 107.794 87.8848 105.993 94.3538 104.326C95.1541 95.1223 96.0878 85.8522 96.688 76.6488C91.1526 76.6488 85.6173 76.6488 80.0819 76.7155C79.2816 76.7155 78.4813 76.7155 77.681 76.6488C80.6821 75.1149 83.8166 73.9144 86.8177 72.5139C89.7521 71.1801 92.6865 69.9129 95.6877 68.6458C96.2879 68.379 96.8881 68.179 97.3549 67.7788C97.555 67.0452 97.555 66.3116 97.6217 65.578C97.8218 63.2438 98.0886 60.9096 98.2219 58.5754C90.419 58.5087 82.5495 58.5754 74.7466 58.5087C74.8133 55.7077 74.7466 52.84 74.8133 49.9722Z" fill="#898989"/>
<path d="M74.8133 85.4521C78.6147 85.3854 82.3494 85.5187 86.1508 85.4521C85.9507 89.3202 85.6173 93.1883 85.4172 97.0564C83.083 97.79 80.7488 98.4569 78.4146 99.1238C77.1475 99.5239 75.8803 99.7907 74.6799 100.391C74.88 95.3891 74.6799 90.4539 74.8133 85.4521Z" fill="#898989"/>
<path d="M50.2708 58.5087C58.4072 58.5087 66.6102 58.5087 74.7466 58.5087C74.88 67.512 74.7466 76.4487 74.8133 85.452C71.5454 85.5187 68.3442 85.452 65.0763 85.452C61.0082 85.452 57.0067 85.5187 52.9385 85.5187C52.7384 82.5176 52.2049 79.5165 52.2049 76.4487C52.7384 76.0485 53.3386 75.9151 53.8722 75.6484C60.5413 72.714 67.2771 69.9129 73.8796 66.9785C66.3435 66.7117 58.7406 67.0452 51.1378 66.7784C50.7377 64.0441 50.4042 61.3097 50.2708 58.5087Z" fill="#CFCFCF"/>
<path d="M53.5387 90.854C56.0063 90.7874 58.4739 90.854 60.8748 90.854C61.4083 90.854 61.8751 90.854 62.4087 90.9874C62.6087 93.3883 62.8088 95.7892 63.0089 98.1901C64.6762 98.6569 66.4768 98.857 68.1441 99.2572C70.3449 99.6573 72.4791 100.124 74.6799 100.458C74.88 103.459 74.5465 106.527 74.8799 109.594C74.8133 109.594 74.6799 109.661 74.6132 109.661C74.1463 109.728 73.6795 109.528 73.2794 109.461C69.5446 108.461 65.8099 107.66 62.1419 106.66C59.741 105.993 57.3401 105.393 54.8725 104.726C54.2056 100.057 53.8055 95.4557 53.5387 90.854Z" fill="#CFCFCF"/>
<path d="M74.7466 58.5087C82.6162 58.5754 90.4191 58.5087 98.2219 58.5754C98.0886 60.9096 97.8218 63.2438 97.6217 65.578C97.555 66.3116 97.555 67.0452 97.355 67.7788C96.8881 68.1789 96.2212 68.379 95.6877 68.6458C92.7532 69.9796 89.7521 71.1801 86.8177 72.5139C83.7499 73.9144 80.6154 75.1148 77.681 76.6488C78.4813 76.7154 79.2816 76.7154 80.0819 76.7154C85.6173 76.7154 91.1527 76.7154 96.688 76.6488C96.0878 85.9189 95.2208 95.1223 94.3538 104.326C87.8181 105.993 81.349 107.794 74.88 109.461C74.5465 106.46 74.88 103.392 74.6799 100.324C75.8803 99.7907 77.1475 99.4572 78.4146 99.057C80.7488 98.3234 83.083 97.7232 85.4172 96.9896C85.6173 93.1215 85.9507 89.2534 86.1508 85.3853C82.3494 85.3853 78.548 85.3186 74.8133 85.3853C74.6799 76.4487 74.8133 67.512 74.7466 58.5087Z" fill="white"/>
</svg>
