<svg width="150" height="150" viewBox="0 0 150 150" fill="none" xmlns="http://www.w3.org/2000/svg">
<path d="M53.6667 140C65.6267 140 75.3333 130.293 75.3333 118.333V96.6667H53.6667C41.7067 96.6667 32 106.373 32 118.333C32 130.293 41.7067 140 53.6667 140Z" fill="#8C8C8C"/>
<path d="M32 75C32 63.04 41.7067 53.3333 53.6667 53.3333H75.3333V96.6667H53.6667C41.7067 96.6667 32 86.96 32 75Z" fill="#818181"/>
<path d="M32 31.6667C32 19.7067 41.7067 10 53.6667 10H75.3333V53.3333H53.6667C41.7067 53.3333 32 43.6267 32 31.6667Z" fill="#7A7A7A"/>
<path d="M75.3333 10H97C108.96 10 118.667 19.7067 118.667 31.6667C118.667 43.6267 108.96 53.3333 97 53.3333H75.3333V10Z" fill="#9B9B9B"/>
<path d="M118.667 75C118.667 86.96 108.96 96.6667 97 96.6667C85.04 96.6667 75.3333 86.96 75.3333 75C75.3333 63.04 85.04 53.3333 97 53.3333C108.96 53.3333 118.667 63.04 118.667 75Z" fill="#939393"/>
</svg>
