<svg width="150" height="150" viewBox="0 0 150 150" fill="none" xmlns="http://www.w3.org/2000/svg">
<path d="M58.6667 125C67.8667 125 75.3333 117.533 75.3333 108.333V91.6667H58.6667C49.4667 91.6667 42 99.1333 42 108.333C42 117.533 49.4667 125 58.6667 125Z" fill="#8C8C8C"/>
<path d="M42 75C42 65.8 49.4667 58.3333 58.6667 58.3333H75.3333V91.6667H58.6667C49.4667 91.6667 42 84.2 42 75Z" fill="#818181"/>
<path d="M42 41.6667C42 32.4667 49.4667 25 58.6667 25H75.3333V58.3333H58.6667C49.4667 58.3333 42 50.8667 42 41.6667Z" fill="#7A7A7A"/>
<path d="M75.3333 25H92C101.2 25 108.667 32.4667 108.667 41.6667C108.667 50.8667 101.2 58.3333 92 58.3333H75.3333V25Z" fill="#9B9B9B"/>
<path d="M108.667 75C108.667 84.2 101.2 91.6667 92 91.6667C82.8 91.6667 75.3333 84.2 75.3333 75C75.3333 65.8 82.8 58.3333 92 58.3333C101.2 58.3333 108.667 65.8 108.667 75Z" fill="#939393"/>
</svg>
