<svg width="150" height="150" viewBox="0 0 150 150" fill="none" xmlns="http://www.w3.org/2000/svg">
<path d="M88.9256 71.9651H92.8841V86.1028H88.9256V84.2649C87.5118 86.3855 85.6739 86.5269 84.5429 86.5269C80.1602 86.5269 77.3327 83.1339 77.3327 79.0339C77.3327 74.7927 80.1602 71.541 84.2602 71.541C85.3912 71.541 87.5118 71.6824 88.7842 73.803L88.9256 71.9651ZM81.574 79.0339C81.574 81.296 83.1291 82.9925 85.5325 82.9925C87.7945 82.9925 89.4911 81.296 89.4911 79.0339C89.4911 76.7719 87.9359 75.0754 85.5325 75.0754C83.2705 75.0754 81.574 76.7719 81.574 79.0339Z" fill="black"/>
<path d="M100.66 75.3582V86.1028H96.7012V75.3582H95.1461V71.9652H96.7012V67.1584H100.66V71.9652H103.346V75.3582H100.66V75.3582Z" fill="black"/>
<path d="M112.677 75.3582C111.687 74.5099 110.839 74.3685 110.415 74.3685C109.425 74.3685 108.86 74.7927 108.86 75.4995C108.86 75.9237 109.001 76.3478 110.132 76.7719L111.122 77.0547C112.253 77.4788 113.949 77.9029 114.656 79.0339C115.08 79.5995 115.363 80.4477 115.363 81.4373C115.363 82.7097 114.939 83.9821 113.808 84.9717C112.677 85.9614 111.263 86.5269 109.566 86.5269C106.598 86.5269 105.042 85.1131 104.053 84.1235L106.173 81.7201C107.022 82.5683 108.153 83.4166 109.284 83.4166C110.415 83.4166 111.263 82.8511 111.263 81.8615C111.263 81.0132 110.556 80.5891 109.991 80.4477L109.142 80.165C108.153 79.7408 107.022 79.3167 106.173 78.4684C105.467 77.7616 105.042 76.9133 105.042 75.7823C105.042 74.3685 105.749 73.2375 106.456 72.5306C107.587 71.6824 109.001 71.541 110.132 71.541C111.122 71.541 112.818 71.6824 114.656 73.0962L112.677 75.3582Z" fill="black"/>
<path d="M121.301 73.803C122.714 71.8238 124.694 71.541 125.825 71.541C129.925 71.541 132.752 74.7927 132.752 79.0339C132.752 83.2752 129.925 86.5269 125.683 86.5269C124.835 86.5269 122.714 86.3855 121.159 84.2649V86.1027H117.342V62.3516H121.301V73.803ZM120.877 79.0339C120.877 81.296 122.432 82.9925 124.835 82.9925C127.097 82.9925 128.794 81.296 128.794 79.0339C128.794 76.7719 127.238 75.0754 124.835 75.0754C122.432 75.0754 120.877 76.7719 120.877 79.0339Z" fill="black"/>
<path d="M139.255 83.9821L132.469 71.9651H137.135L141.517 80.0236L145.476 71.9652H150L138.69 93.5957H134.166L139.255 83.9821Z" fill="black"/>
<path d="M76.3431 74.3685H72.3845H66.4467V78.327H71.6777C70.8294 81.0132 68.8501 82.8511 65.1744 82.8511C61.0745 82.8511 58.1056 79.458 58.1056 75.3581C58.1056 71.2582 60.9331 67.7238 65.033 67.7238C67.295 67.7238 69.557 68.8548 70.9708 70.6927L74.2224 68.5721C72.1018 65.6032 68.7088 63.9067 65.033 63.9067C58.8124 63.9067 53.7229 68.9962 53.7229 75.3581C53.7229 81.7201 58.5297 86.8096 65.033 86.8096C71.5363 86.8096 76.3431 81.7201 76.3431 75.3581C76.4844 74.934 76.3431 74.6513 76.3431 74.3685Z" fill="black"/>
<path d="M19.7926 55C8.90669 55 0 63.9067 0 74.7926C0 85.6786 8.90669 94.5853 19.7926 94.5853C30.6786 94.5853 39.5853 85.6786 39.5853 74.7926C39.5853 63.9067 30.6786 55 19.7926 55ZM8.76532 85.82C5.79642 82.8511 4.24128 78.8926 4.24128 75.0754L19.6513 90.344C15.6927 90.2026 11.7342 88.7889 8.76532 85.82ZM23.1857 89.9199L4.66541 71.3996C6.22055 64.4722 12.4411 59.2413 19.7926 59.2413C25.0236 59.2413 29.5476 61.7861 32.3751 65.6032L30.2545 67.4411C27.8511 64.1894 24.0339 62.0688 19.7926 62.0688C14.279 62.0688 9.61357 65.6032 7.77568 70.5514L24.0339 86.8096C28.1338 85.3959 31.2441 81.8615 32.2337 77.6202H25.4477V74.7926H35.344C35.344 82.1442 30.1131 88.3647 23.1857 89.9199Z" fill="black"/>
</svg>
