<svg width="150" height="150" viewBox="0 0 150 150" fill="none" xmlns="http://www.w3.org/2000/svg">
<path d="M101 65.6C102.1 67 103.2 68.9 103.2 71.6C103.2 78.2 98 82.1 90.5 82.1C88.6 82.1 86.9 81.9 85.8 81.6L83.8 84.8L89.7 85.2C100 85.9 106.1 86.2 106.1 94.1C106.1 101 100.1 104.9 89.7 104.9C78.9 104.9 74.8 102.1 74.8 97.4C74.8 94.7 76 93.3 78.1 91.3C76.1 90.5 75.5 89 75.5 87.4C75.5 86.1 76.2 84.9 77.2 83.8C78.3 82.7 79.5 81.5 80.9 80.2C78 78.8 75.8 75.7 75.8 71.2C75.8 64.3 80.3 59.6 89.5 59.6C92.1 59.6 93.6 59.8 95 60.2H106.7V65.3L101 65.6ZM83.3 92.9C82.5 93.9 81.7 94.9 81.7 96.1C81.7 98.5 84.7 99.2 88.9 99.2C92.4 99.2 97.1 99 97.1 95.7C97.1 93.8 94.8 93.7 92 93.5L83.3 92.9ZM89.9 65.4C86.6 65.4 84.2 67 84.2 70.9C84.2 73.8 85.8 75.9 89.8 75.9C93.1 75.9 95.4 73.9 95.4 70.8C95.3 67.3 93.3 65.4 89.9 65.4Z" fill="black"/>
<path d="M109.3 90.7V86L112.4 85.6C113.2 85.5 113.4 85.3 113.4 84.4V66.8C113.4 66.1 113.2 65.7 112.6 65.5L109.4 64.4L110.1 59.6H122.5V84.4C122.5 85.4 122.6 85.5 123.5 85.6L126.5 86V90.7H109.3ZM117 54.7C113.6 54.7 111.6 52.7 111.6 49.3C111.6 45.9 113.6 44 117 44C120.5 44 122.4 45.9 122.4 49.3C122.5 52.8 120.5 54.7 117 54.7Z" fill="black"/>
<path d="M150 88.4C147.4 89.7 143.7 90.8 140.3 90.8C133.2 90.8 130.5 87.9 130.5 81.2V65.5C130.5 65.1 130.5 64.9 130 64.9H125.8V59.6C131.1 59 133.2 56.4 133.8 49.9H139.5V58.4C139.5 58.8 139.5 59 140 59H148.4V65H139.5V79.1C139.5 82.6 140.3 84 143.6 84C145.3 84 147 83.6 148.4 83L150 88.4Z" fill="black"/>
<path d="M61.4 72.7L34.1 45.3C32.5 43.7 30 43.7 28.4 45.3L22.7 51L29.9 58.2C31.6 57.6 33.5 58 34.8 59.3C36.1 60.6 36.5 62.6 35.9 64.3L42.8 71.2C44.5 70.6 46.4 71 47.8 72.3C49.7 74.2 49.7 77.2 47.8 79.1C45.9 81 42.9 81 41 79.1C39.6 77.7 39.2 75.6 40 73.9L33.5 67.4V84.4C34 84.6 34.4 84.9 34.8 85.3C36.7 87.2 36.7 90.2 34.8 92.1C32.9 94 29.9 94 28 92.1C26.1 90.2 26.1 87.2 28 85.3C28.5 84.8 29 84.5 29.6 84.3V67.2C29 67 28.5 66.6 28 66.2C26.6 64.8 26.2 62.7 27 61L19.9 53.9L1.2 72.5C-0.4 74.1 -0.4 76.6 1.2 78.2L28.5 105.5C30.1 107.1 32.6 107.1 34.2 105.5L61.4 78.3C63 76.8 63 74.2 61.4 72.7Z" fill="black"/>
</svg>
