<svg width="150" height="150" viewBox="0 0 150 150" fill="none" xmlns="http://www.w3.org/2000/svg">
<path d="M28.9 72.4H16.3C16 72.4 15.7 72.7 15.7 73V79.2C15.7 79.5 16 79.8 16.3 79.8H21.2V87.5C21.2 87.5 20.1 87.9 17 87.9C13.4 87.9 8.4 86.6 8.4 75.5C8.4 64.4 13.6 63 18.6 63C22.9 63 24.7 63.7 25.9 64.1C26.3 64.2 26.6 63.8 26.6 63.5L28 57.5C28 57.3 27.9 57.2 27.8 57C27.2 56.6 24.4 55 17 55C8.6 55 0 58.6 0 75.8C0 93 9.9 95.6 18.2 95.6C25.1 95.6 29.3 92.7 29.3 92.7C29.5 92.6 29.5 92.4 29.5 92.3V73C29.5 72.6 29.2 72.4 28.9 72.4Z" fill="#0E0D0D"/>
<path d="M93.9 57.1C93.9 56.8 93.6 56.5 93.3 56.5H86.2C85.9 56.5 85.6 56.8 85.6 57.1V70.8H74.5V57.1C74.5 56.8 74.2 56.5 73.9 56.5H66.8C66.5 56.5 66.2 56.8 66.2 57.1V94.2C66.2 94.5 66.5 94.8 66.8 94.8H73.9C74.2 94.8 74.5 94.5 74.5 94.2V78.3H85.6V94.2C85.6 94.5 85.9 94.8 86.2 94.8H93.3C93.6 94.8 93.9 94.5 93.9 94.2V57.1V57.1Z" fill="#0E0D0D"/>
<path d="M42.3 61.9C42.3 59.3 40.3 57.3 37.7 57.3C35.2 57.3 33.1 59.4 33.1 61.9C33.1 64.5 35.2 66.5 37.7 66.5C40.2 66.6 42.3 64.5 42.3 61.9Z" fill="#0E0D0D"/>
<path d="M41.8 86.4C41.8 85.4 41.8 69.3 41.8 69.3C41.8 69 41.5 68.7 41.2 68.7H34.1C33.8 68.7 33.5 69 33.5 69.4C33.5 69.4 33.5 90 33.5 94C33.5 94.7 33.9 94.9 34.5 94.9C34.5 94.9 37.5 94.9 40.9 94.9C41.6 94.9 41.8 94.6 41.8 94C41.8 92.5 41.8 87.4 41.8 86.4Z" fill="#0E0D0D"/>
<path d="M120.8 68.7H113.8C113.5 68.7 113.2 69 113.2 69.3V87.5C113.2 87.5 111.4 88.8 108.9 88.8C106.4 88.8 105.7 87.6 105.7 85.2C105.7 82.7 105.7 69.3 105.7 69.3C105.7 69 105.4 68.7 105.1 68.7H98C97.7 68.7 97.4 69 97.4 69.3C97.4 69.3 97.4 79 97.4 86.4C97.4 93.8 101.5 95.6 107.2 95.6C111.8 95.6 115.6 93 115.6 93C115.6 93 115.8 94.4 115.9 94.5C116 94.7 116.2 94.8 116.4 94.8H120.9C121.2 94.8 121.5 94.5 121.5 94.2V69.3C121.4 69 121.1 68.7 120.8 68.7Z" fill="#0E0D0D"/>
<path d="M140.1 67.9C136.1 67.9 133.4 69.7 133.4 69.7V57.1C133.4 56.8 133.1 56.5 132.8 56.5H125.7C125.4 56.5 125.1 56.8 125.1 57.1V94.2C125.1 94.5 125.4 94.8 125.7 94.8H130.6C130.8 94.8 131 94.7 131.1 94.5C131.2 94.3 131.4 92.8 131.4 92.8C131.4 92.8 134.3 95.6 139.8 95.6C146.3 95.6 150 92.3 150 80.9C150 69.3 144.1 67.9 140.1 67.9ZM137.3 88.8C134.9 88.7 133.2 87.6 133.2 87.6V75.8C133.2 75.8 134.8 74.8 136.8 74.6C139.3 74.4 141.8 75.1 141.8 81.2C141.8 87.6 140.7 88.9 137.3 88.8Z" fill="#0E0D0D"/>
<path d="M62.2 68.6H56.9V61.6C56.9 61.3 56.8 61.2 56.5 61.2H49.2C48.9 61.2 48.8 61.3 48.8 61.6V68.9C48.8 68.9 45.2 69.8 44.9 69.8C44.7 69.9 44.5 70.1 44.5 70.4V75C44.5 75.3 44.8 75.6 45.1 75.6H48.8C48.8 75.6 48.8 80.4 48.8 86.6C48.8 94.8 54.5 95.6 58.4 95.6C60.2 95.6 62.3 95 62.6 94.9C62.8 94.8 62.9 94.6 62.9 94.4V89.4C62.9 89.1 62.6 88.8 62.3 88.8C62 88.8 61.2 88.9 60.4 88.9C57.8 88.9 56.9 87.7 56.9 86.1C56.9 84.5 56.9 75.7 56.9 75.7H62.2C62.5 75.7 62.8 75.4 62.8 75.1V69.4C62.8 68.9 62.5 68.6 62.2 68.6Z" fill="#0E0D0D"/>
</svg>
