<svg width="150" height="150" viewBox="0 0 150 150" fill="none" xmlns="http://www.w3.org/2000/svg">
<path d="M31.9 0H38.6V6.7H44.8V0H51.5V20.2H44.8V13.5H38.6V20.2H31.9V0ZM60.5 6.7H54.6V0H73.3V6.7H67.3V20.2H60.6L60.5 6.7ZM76.2 0H83.3L87.6 7.1L91.9 0H99V20.2H92.3V10.2L87.6 17.5L82.9 10.2V20.2H76.3L76.2 0ZM102.3 0H109V13.5H118.6V20.2H102.3" fill="black"/>
<path d="M31.7 138L22 29.5H128.3L118.6 138L75.1 150" fill="#767676"/>
<path d="M75.1 140.8V38.4H118.5L110.3 131" fill="#888888"/>
<path d="M41.7 51.7H75.1V65H56.3L57.5 78.6H75.1V91.9H45.4L41.7 51.7ZM46 98.5H59.4L60.3 109.1L75.2 113.1V127L47.9 119.4" fill="#EBEBEB"/>
<path d="M108.4 51.7H75.1V65H107.2L108.4 51.7ZM106 78.6H75.1V91.9H91.5L89.9 109.2L75 113.2V127L102.2 119.4" fill="white"/>
</svg>
