<svg width="150" height="150" viewBox="0 0 150 150" fill="none" xmlns="http://www.w3.org/2000/svg">
<path d="M46.6 25H51.0667V29.4667H55.2V25H59.6667V38.4667H55.2V34H51.0667V38.4667H46.6V25ZM65.6667 29.4667H61.7333V25H74.2V29.4667H70.2V38.4667H65.7333L65.6667 29.4667ZM76.1333 25H80.8667L83.7333 29.7333L86.6 25H91.3333V38.4667H86.8667V31.8L83.7333 36.6667L80.6 31.8V38.4667H76.2L76.1333 25ZM93.5333 25H98V34H104.4V38.4667H93.5333" fill="black"/>
<path d="M46.4667 117L40 44.6667H110.867L104.4 117L75.4 125" fill="#767676"/>
<path d="M75.4 118.867V50.6H104.333L98.8667 112.333" fill="#888888"/>
<path d="M53.1333 59.4667H75.4V68.3333H62.8667L63.6667 77.4H75.4V86.2667H55.6L53.1333 59.4667ZM56 90.6667H64.9333L65.5333 97.7333L75.4667 100.4V109.667L57.2667 104.6" fill="#EBEBEB"/>
<path d="M97.6 59.4667H75.4V68.3333H96.8L97.6 59.4667ZM96 77.4H75.4V86.2667H86.3333L85.2667 97.8L75.3333 100.467V109.667L93.4667 104.6" fill="white"/>
</svg>
