<svg width="150" height="150" viewBox="0 0 150 150" fill="none" xmlns="http://www.w3.org/2000/svg">
<path d="M140 10H10V140H140V10Z" fill="#D1D1D1"/>
<path d="M97.36 111.573C99.96 115.82 103.427 119.027 109.407 119.027C114.433 119.027 117.727 116.513 117.727 112.96C117.727 108.8 114.433 107.327 108.8 104.813L105.767 103.513C96.9267 99.7867 91.12 95.02 91.12 85.14C91.12 75.9533 98.14 69.02 108.973 69.02C116.773 69.02 122.32 71.7067 126.307 78.8133L116.773 84.88C114.693 81.1533 112.44 79.68 108.887 79.68C105.333 79.68 103.08 81.9333 103.08 84.88C103.08 88.52 105.333 89.9933 110.62 92.3333L113.653 93.6333C124.053 98.0533 129.86 102.647 129.86 112.787C129.86 123.793 121.193 129.773 109.58 129.773C98.2267 129.773 90.9467 124.4 87.3067 117.293L97.36 111.573ZM54.2 112.613C56.1067 115.993 57.84 118.94 62.0867 118.94C66.0733 118.94 68.6733 117.38 68.6733 111.227V69.7133H80.8933V111.4C80.8933 124.053 73.44 129.773 62.6933 129.773C52.9 129.773 47.2667 124.747 44.4067 118.593L54.2 112.613Z" fill="black"/>
</svg>
