<svg width="150" height="150" viewBox="0 0 150 150" fill="none" xmlns="http://www.w3.org/2000/svg">
<path d="M125 25H25V125H125V25Z" fill="#D1D1D1"/>
<path d="M92.2 103.133C94.2 106.4 96.8667 108.867 101.467 108.867C105.333 108.867 107.867 106.933 107.867 104.2C107.867 101 105.333 99.8667 101 97.9333L98.6667 96.9333C91.8667 94.0667 87.4 90.4 87.4 82.8C87.4 75.7333 92.8 70.4 101.133 70.4C107.133 70.4 111.4 72.4667 114.467 77.9333L107.133 82.6C105.533 79.7333 103.8 78.6 101.067 78.6C98.3333 78.6 96.6 80.3333 96.6 82.6C96.6 85.4 98.3333 86.5333 102.4 88.3333L104.733 89.3333C112.733 92.7333 117.2 96.2667 117.2 104.067C117.2 112.533 110.533 117.133 101.6 117.133C92.8667 117.133 87.2667 113 84.4667 107.533L92.2 103.133ZM59 103.933C60.4667 106.533 61.8 108.8 65.0667 108.8C68.1333 108.8 70.1333 107.6 70.1333 102.867V70.9333H79.5333V103C79.5333 112.733 73.8 117.133 65.5333 117.133C58 117.133 53.6667 113.267 51.4667 108.533L59 103.933Z" fill="black"/>
</svg>
