<svg width="150" height="150" viewBox="0 0 150 150" fill="none" xmlns="http://www.w3.org/2000/svg">
<path d="M54.5 67.375L54.6 69.575C56 67.875 57.9 66.975 60.3 66.975C64.3 66.975 66.4 69.275 66.5 73.975V86.875H62.1V74.275C62.1 73.075 61.8 72.175 61.3 71.575C60.8 70.975 59.9 70.675 58.7 70.675C56.9 70.675 55.6 71.475 54.8 73.075V86.875H50.4V67.375H54.5ZM79.4 87.275C76.6 87.275 74.4 86.375 72.7 84.675C71 82.975 70.1 80.575 70.1 77.675V77.175C70.1 75.275 70.5 73.475 71.2 71.975C71.9 70.475 73 69.275 74.3 68.375C75.7 67.475 77.2 67.075 78.8 67.075C81.4 67.075 83.5 67.875 84.9 69.575C86.3 71.275 87.1 73.675 87.1 76.775V78.575H74.5C74.6 80.175 75.2 81.475 76.1 82.375C77 83.275 78.2 83.775 79.6 83.775C81.6 83.775 83.2 82.975 84.5 81.375L86.9 83.575C86.1 84.775 85.1 85.675 83.8 86.275C82.5 86.875 81 87.275 79.4 87.275ZM78.9 70.575C77.7 70.575 76.7 70.975 76 71.875C75.3 72.675 74.8 73.875 74.6 75.375H82.9V74.975C82.8 73.475 82.4 72.375 81.7 71.675C81.1 70.975 80.1 70.575 78.9 70.575ZM96.1 62.675V67.375H99.5V70.575H96.1V81.475C96.1 82.175 96.2 82.775 96.5 83.075C96.8 83.375 97.3 83.575 98.1 83.575C98.6 83.575 99.1 83.475 99.6 83.375V86.775C98.6 87.075 97.7 87.175 96.7 87.175C93.4 87.175 91.7 85.275 91.7 81.575V70.575H88.5V67.375H91.7V62.675H96.1ZM107.5 86.875H103.1V59.275H107.5V86.875ZM116.8 86.875H112.4V67.375H116.8V86.875ZM112.2 62.375C112.2 61.675 112.4 61.175 112.8 60.675C113.2 60.275 113.8 59.975 114.6 59.975C115.4 59.975 116 60.175 116.4 60.675C116.8 61.075 117 61.675 117 62.375C117 63.075 116.8 63.575 116.4 63.975C116 64.375 115.4 64.675 114.6 64.675C113.8 64.675 113.2 64.475 112.8 63.975C112.4 63.575 112.2 62.975 112.2 62.375ZM123.1 86.875V70.675H120.1V67.475H123.1V65.675C123.1 63.475 123.7 61.875 124.9 60.675C126.1 59.475 127.8 58.875 129.9 58.875C130.7 58.875 131.5 58.975 132.3 59.175L132.2 62.575C131.6 62.475 131.1 62.375 130.5 62.475C128.4 62.475 127.4 63.575 127.4 65.675V67.375H131.3V70.575H127.4V86.775L123.1 86.875ZM141.4 80.575L145.3 67.375H149.9L142.2 89.775C141 93.075 139 94.675 136.2 94.675C135.6 94.675 134.9 94.575 134.1 94.375V90.975L134.9 91.075C136 91.075 136.8 90.875 137.4 90.475C138 90.075 138.4 89.375 138.7 88.475L139.3 86.775L132.5 67.375H137.2L141.4 80.575Z" fill="#1A1A1A"/>
<path d="M28.4 68.575C28.3 68.575 28.3 68.475 28.3 68.475L29.1 63.675L32.8 67.375L29 68.975C28.8 68.775 28.6 68.675 28.4 68.575ZM33.8 68.275L37.8 72.275C38.6 73.075 39 73.475 39.2 73.975C39.2 74.075 39.2 74.075 39.3 74.175L29.8 70.175C29.8 70.175 29.7 70.175 29.7 70.075C29.7 69.975 29.7 69.975 29.8 69.975L33.8 68.275ZM39 75.475C38.8 75.875 38.4 76.275 37.7 76.975L33.2 81.475L27.4 80.275C27.3 80.275 27.3 80.275 27.3 80.175C27.3 79.675 27 79.275 26.6 78.975V78.875L27.7 72.175C27.7 72.075 27.7 72.075 27.8 72.075C28.3 71.975 28.7 71.775 29 71.375H29.1L39 75.475ZM32.3 82.375L24.9 89.775L26.2 82.075C26.2 82.075 26.2 82.075 26.3 82.075C26.6 81.975 26.8 81.775 27 81.575L27.1 81.475L32.3 82.375ZM23.3 91.375L22.5 92.175L13.3 78.975C13.3 78.975 13.3 78.975 13.3 78.875L13.4 78.775C13.4 78.775 13.4 78.775 13.5 78.675H13.6L23.8 80.775H23.9C24 81.275 24.4 81.775 25 81.975C25 81.975 25 81.975 25 82.075C24.7 82.875 23.6 89.475 23.3 91.375ZM21.6 93.075C21 93.675 20.6 93.975 20.2 94.175C19.8 94.275 19.4 94.275 19 94.175C18.5 93.975 18.1 93.575 17.3 92.775L8.1 83.575L10.5 79.875H10.6C11.2 80.075 11.7 79.975 12.3 79.775H12.4L21.6 93.075ZM7.2 82.675L5.1 80.575L9.3 78.775C9.3 78.775 9.4 78.775 9.4 78.875C9.4 78.975 9.5 78.975 9.5 79.075C9.5 79.075 9.5 79.075 9.5 79.175L7.2 82.675ZM4.2 79.575L1.5 76.875C1 76.375 0.7 76.075 0.5 75.775L8.6 77.475C8.7 77.475 8.7 77.475 8.7 77.575C8.7 77.675 8.6 77.675 8.6 77.675L4.2 79.575ZM0 74.475C0 74.275 0 74.175 0.1 73.975C0.3 73.475 0.7 73.075 1.5 72.275L4.9 68.875C6.5 71.175 8.1 73.475 9.6 75.675C9.6 75.675 9.7 75.775 9.6 75.775C9.5 75.975 9.3 76.075 9.2 76.275C9.2 76.275 9.2 76.275 9.1 76.375L0 74.475ZM5.8 67.975L10.4 63.375C10.8 63.575 12.4 64.275 13.8 64.775C14.9 65.275 15.8 65.675 16.1 65.775C16.1 65.775 16.2 65.775 16.2 65.875C16.2 65.875 16.2 65.875 16.2 65.975C16.1 66.675 16.3 67.375 16.7 67.875V67.975L12 75.175C12 75.175 12 75.175 12 75.275H11.9C11.7 75.275 11.5 75.175 11.3 75.175C11.1 75.175 11 75.175 10.8 75.275C10.8 75.275 10.8 75.275 10.7 75.275C10.7 75.275 10.7 75.275 10.7 75.175L5.8 67.975ZM11.3 62.375L17.2 56.475C18 55.675 18.4 55.275 18.9 55.075C19.3 54.975 19.7 54.975 20.1 55.075C20.6 55.275 21 55.675 21.8 56.475L23.1 57.775L19 64.275H18.9C18.2 64.075 17.5 64.175 16.9 64.675H16.8C16.2 64.475 12 62.675 11.3 62.375ZM24.1 58.675L28 62.575L27.1 68.375C27.1 68.375 27.1 68.375 27 68.375C26.8 68.475 26.6 68.575 26.4 68.675L20.4 66.175C20.4 66.175 20.3 66.175 20.3 66.075C20.3 65.775 20.2 65.375 20 65.175C20 65.175 19.9 65.075 20 65.075L24.1 58.675ZM20.1 67.475L25.7 69.875C25.7 69.875 25.8 69.875 25.8 69.975C25.8 69.975 25.8 69.975 25.8 70.075C25.8 70.175 25.8 70.275 25.8 70.375V70.575C25.8 70.575 25.8 70.675 25.7 70.675C24.8 71.075 13.3 75.975 13.3 75.975C13.3 75.975 13.3 75.975 13.2 75.975V75.875L17.8 68.775L17.9 68.675C18 68.675 18.1 68.675 18.2 68.675C18.9 68.675 19.5 68.375 19.9 67.775C20 67.475 20.1 67.475 20.1 67.475ZM13.7 76.875L26.3 71.475C26.4 71.575 26.4 71.575 26.5 71.675C26.5 71.675 26.6 71.675 26.6 71.775L25.5 78.375C25.5 78.475 25.5 78.475 25.4 78.475C24.8 78.475 24.3 78.875 24 79.375C24 79.375 24 79.375 23.9 79.475C23.9 79.475 23.9 79.475 23.8 79.475L13.8 77.375C13.9 77.375 13.7 76.875 13.7 76.875Z" fill="url(#paint0_radial)"/>
<defs>
<radialGradient id="paint0_radial" cx="0" cy="0" r="1" gradientUnits="userSpaceOnUse" gradientTransform="translate(19.5993 54.9524) rotate(90) scale(39.2355 45.1994)">
<stop stop-color="#939393"/>
<stop offset="1" stop-color="#878787"/>
</radialGradient>
</defs>
</svg>
