<svg width="150" height="150" viewBox="0 0 150 150" fill="none" xmlns="http://www.w3.org/2000/svg">
<path d="M35.4 53.5H63.7V55.7H38V72.5H62.2V74.7H38V93.2H64V95.4H35.4V53.5ZM66.2 53.5H69.2L82.5 72L96.1 53.5L114.7 30L84.3 73.9L100 95.5H96.9L82.5 75.9L68.2 95.5H65.1L81 73.9L66.2 53.5ZM101.1 55.7V53.5H133.3V55.7H118.4V95.5H115.8V55.7H101.1Z" fill="black"/>
<path d="M0 53.5H3.2L47.9 120.1L29.5 95.5L2.7 56.7L2.6 95.5H0V53.5Z" fill="black"/>
<path d="M133 92.6C133.5 92.6 133.9 92.2 133.9 91.7C133.9 91.2 133.5 90.8 133 90.8C132.5 90.8 132.1 91.2 132.1 91.7C132.1 92.2 132.5 92.6 133 92.6ZM135.6 90.2C135.6 91.8 136.7 92.8 138.4 92.8C140.2 92.8 141.2 91.8 141.2 89.9V83.5H139.8V89.9C139.8 90.9 139.3 91.5 138.4 91.5C137.6 91.5 137 91 137 90.2H135.6V90.2ZM143 90.1C143.1 91.7 144.5 92.8 146.5 92.8C148.7 92.8 150 91.7 150 90C150 88.6 149.2 87.9 147.4 87.4L146.4 87.2C145.2 86.9 144.7 86.6 144.7 85.9C144.7 85.1 145.4 84.5 146.6 84.5C147.7 84.5 148.4 85 148.5 85.9H149.9C149.8 84.4 148.5 83.3 146.6 83.3C144.6 83.3 143.3 84.4 143.3 86C143.3 87.3 144.1 88.1 145.7 88.5L146.9 88.8C148.1 89.1 148.6 89.5 148.6 90.2C148.6 91 147.8 91.6 146.6 91.6C145.4 91.6 144.5 91.1 144.4 90.2H143V90.1Z" fill="black"/>
</svg>
