<svg width="150" height="150" viewBox="0 0 150 150" fill="none" xmlns="http://www.w3.org/2000/svg">
<path d="M150 74.8C150 64.9 137.6 55.4 118.5 49.6C122.9 30.2 120.9 14.7 112.3 9.7C110.3 8.5 108 8 105.5 8V14.8C106.9 14.8 108 15.1 109 15.6C113.2 18 115 27.1 113.6 38.7C113.3 41.6 112.7 44.6 112 47.7C106 46.2 99.5 45.1 92.6 44.4C88.5 38.7 84.2 33.6 79.9 29.1C89.9 19.8 99.2 14.8 105.6 14.8V8C97.2 8 86.2 14 75.1 24.4C63.8 14.1 52.8 8.1 44.4 8.1V14.9C50.7 14.9 60.1 19.9 70.1 29.1C65.8 33.6 61.5 38.7 57.5 44.4C50.5 45.2 44 46.3 38 47.8C37.3 44.7 36.8 41.8 36.4 38.9C35 27.3 36.8 18.2 40.9 15.8C41.8 15.2 43 15 44.4 15V8.2C41.8 8.2 39.5 8.8 37.5 9.9C28.9 14.9 27 30.3 31.4 49.7C12.4 55.5 0 64.9 0 74.8C0 84.7 12.4 94.2 31.5 100C27.1 119.4 29.1 134.9 37.7 139.9C39.7 141.1 42 141.6 44.6 141.6C53 141.6 64 135.6 75.1 125.2C86.2 135.5 97.2 141.5 105.6 141.5C108.2 141.5 110.5 140.9 112.5 139.8C121.1 134.8 123 119.4 118.6 100C137.6 94.1 150 84.7 150 74.8ZM110.2 54.4C109.1 58.3 107.7 62.4 106.1 66.5C104.8 64.1 103.5 61.6 102.1 59.2C100.7 56.8 99.2 54.4 97.7 52C102 52.6 106.2 53.4 110.2 54.4ZM96.2 87C93.8 91.1 91.4 95 88.8 98.7C84.2 99.1 79.6 99.3 75 99.3C70.4 99.3 65.8 99.1 61.2 98.7C58.7 95.1 56.2 91.2 53.8 87.1C51.5 83.1 49.4 79 47.4 74.9C49.3 70.8 51.4 66.7 53.7 62.7C56.1 58.6 58.5 54.7 61.1 51C65.7 50.6 70.3 50.4 74.9 50.4C79.5 50.4 84.1 50.6 88.7 51C91.2 54.6 93.7 58.5 96.1 62.6C98.4 66.6 100.5 70.7 102.5 74.8C100.6 78.9 98.5 83 96.2 87ZM106.1 83C107.8 87.1 109.2 91.2 110.3 95.2C106.3 96.2 102.1 97 97.7 97.6C99.2 95.2 100.7 92.8 102.1 90.4C103.5 87.9 104.8 85.4 106.1 83ZM75.1 115.6C72.3 112.7 69.4 109.4 66.6 105.8C69.4 105.9 72.2 106 75 106C77.9 106 80.7 105.9 83.5 105.8C80.7 109.4 77.9 112.7 75.1 115.6ZM52.3 97.6C48 97 43.8 96.2 39.8 95.2C40.9 91.3 42.3 87.2 43.9 83.1C45.2 85.5 46.5 88 47.9 90.4C49.3 92.8 50.8 95.3 52.3 97.6ZM74.9 34C77.7 36.9 80.6 40.2 83.4 43.8C80.6 43.7 77.8 43.6 75 43.6C72.1 43.6 69.3 43.7 66.5 43.8C69.3 40.2 72.1 36.9 74.9 34ZM52.3 52C50.8 54.4 49.3 56.8 47.9 59.2C46.5 61.6 45.2 64.1 43.9 66.5C42.2 62.4 40.8 58.3 39.7 54.3C43.7 53.5 47.9 52.6 52.3 52ZM24.6 90.3C13.8 85.7 6.8 79.6 6.8 74.8C6.8 70 13.8 63.9 24.6 59.3C27.2 58.2 30.1 57.2 33.1 56.2C34.8 62.2 37.1 68.4 40 74.8C37.2 81.2 34.9 87.4 33.2 93.3C30.1 92.4 27.3 91.4 24.6 90.3ZM41.1 134C36.9 131.6 35.1 122.5 36.5 110.9C36.8 108 37.4 105 38.1 101.9C44.1 103.4 50.6 104.5 57.5 105.2C61.6 110.9 65.9 116 70.2 120.5C60.2 129.8 50.9 134.8 44.5 134.8C43.1 134.8 42 134.5 41.1 134ZM113.6 110.7C115 122.4 113.3 131.5 109.1 133.9C108.2 134.5 107 134.7 105.6 134.7C99.3 134.7 89.9 129.7 79.9 120.5C84.2 116 88.5 110.9 92.5 105.2C99.4 104.5 106 103.3 111.9 101.8C112.7 104.9 113.2 107.8 113.6 110.7ZM125.4 90.3C122.8 91.4 119.9 92.4 116.9 93.4C115.2 87.4 112.9 81.2 110 74.8C112.8 68.4 115.1 62.2 116.8 56.3C119.8 57.2 122.7 58.3 125.4 59.4C136.2 64 143.2 70.1 143.2 74.9C143.2 79.6 136.2 85.7 125.4 90.3Z" fill="#B9B9B9"/>
<path d="M75 88.8C82.732 88.8 89 82.532 89 74.8C89 67.068 82.732 60.8 75 60.8C67.268 60.8 61 67.068 61 74.8C61 82.532 67.268 88.8 75 88.8Z" fill="#B9B9B9"/>
</svg>
