<svg width="150" height="150" viewBox="0 0 150 150" fill="none" xmlns="http://www.w3.org/2000/svg">
<path d="M125 74.5333C125 67.9333 116.733 61.6 104 57.7333C106.933 44.8 105.6 34.4667 99.8667 31.1333C98.5333 30.3333 97 30 95.3333 30V34.5333C96.2667 34.5333 97 34.7333 97.6667 35.0667C100.467 36.6667 101.667 42.7333 100.733 50.4667C100.533 52.4 100.133 54.4 99.6667 56.4667C95.6667 55.4667 91.3333 54.7333 86.7333 54.2667C84 50.4667 81.1333 47.0667 78.2667 44.0667C84.9333 37.8667 91.1333 34.5333 95.4 34.5333V30C89.8 30 82.4667 34 75.0667 40.9333C67.5333 34.0667 60.2 30.0667 54.6 30.0667V34.6C58.8 34.6 65.0667 37.9333 71.7333 44.0667C68.8667 47.0667 66 50.4667 63.3333 54.2667C58.6667 54.8 54.3333 55.5333 50.3333 56.5333C49.8667 54.4667 49.5333 52.5333 49.2667 50.6C48.3333 42.8667 49.5333 36.8 52.2667 35.2C52.8667 34.8 53.6667 34.6667 54.6 34.6667V30.1333C52.8667 30.1333 51.3333 30.5333 50 31.2667C44.2667 34.6 43 44.8667 45.9333 57.8C33.2667 61.6667 25 67.9333 25 74.5333C25 81.1333 33.2667 87.4667 46 91.3333C43.0667 104.267 44.4 114.6 50.1333 117.933C51.4667 118.733 53 119.067 54.7333 119.067C60.3333 119.067 67.6667 115.067 75.0667 108.133C82.4667 115 89.8 119 95.4 119C97.1333 119 98.6667 118.6 100 117.867C105.733 114.533 107 104.267 104.067 91.3333C116.733 87.4 125 81.1333 125 74.5333ZM98.4667 60.9333C97.7333 63.5333 96.8 66.2667 95.7333 69C94.8667 67.4 94 65.7333 93.0667 64.1333C92.1333 62.5333 91.1333 60.9333 90.1333 59.3333C93 59.7333 95.8 60.2667 98.4667 60.9333ZM89.1333 82.6667C87.5333 85.4 85.9333 88 84.2 90.4667C81.1333 90.7333 78.0667 90.8667 75 90.8667C71.9333 90.8667 68.8667 90.7333 65.8 90.4667C64.1333 88.0667 62.4667 85.4667 60.8667 82.7333C59.3333 80.0667 57.9333 77.3333 56.6 74.6C57.8667 71.8667 59.2667 69.1333 60.8 66.4667C62.4 63.7333 64 61.1333 65.7333 58.6667C68.8 58.4 71.8667 58.2667 74.9333 58.2667C78 58.2667 81.0667 58.4 84.1333 58.6667C85.8 61.0667 87.4667 63.6667 89.0667 66.4C90.6 69.0667 92 71.8 93.3333 74.5333C92.0667 77.2667 90.6667 80 89.1333 82.6667ZM95.7333 80C96.8667 82.7333 97.8 85.4667 98.5333 88.1333C95.8667 88.8 93.0667 89.3333 90.1333 89.7333C91.1333 88.1333 92.1333 86.5333 93.0667 84.9333C94 83.2667 94.8667 81.6 95.7333 80ZM75.0667 101.733C73.2 99.8 71.2667 97.6 69.4 95.2C71.2667 95.2667 73.1333 95.3333 75 95.3333C76.9333 95.3333 78.8 95.2667 80.6667 95.2C78.8 97.6 76.9333 99.8 75.0667 101.733ZM59.8667 89.7333C57 89.3333 54.2 88.8 51.5333 88.1333C52.2667 85.5333 53.2 82.8 54.2667 80.0667C55.1333 81.6667 56 83.3333 56.9333 84.9333C57.8667 86.5333 58.8667 88.2 59.8667 89.7333ZM74.9333 47.3333C76.8 49.2667 78.7333 51.4667 80.6 53.8667C78.7333 53.8 76.8667 53.7333 75 53.7333C73.0667 53.7333 71.2 53.8 69.3333 53.8667C71.2 51.4667 73.0667 49.2667 74.9333 47.3333ZM59.8667 59.3333C58.8667 60.9333 57.8667 62.5333 56.9333 64.1333C56 65.7333 55.1333 67.4 54.2667 69C53.1333 66.2667 52.2 63.5333 51.4667 60.8667C54.1333 60.3333 56.9333 59.7333 59.8667 59.3333ZM41.4 84.8667C34.2 81.8 29.5333 77.7333 29.5333 74.5333C29.5333 71.3333 34.2 67.2667 41.4 64.2C43.1333 63.4667 45.0667 62.8 47.0667 62.1333C48.2 66.1333 49.7333 70.2667 51.6667 74.5333C49.8 78.8 48.2667 82.9333 47.1333 86.8667C45.0667 86.2667 43.2 85.6 41.4 84.8667ZM52.4 114C49.6 112.4 48.4 106.333 49.3333 98.6C49.5333 96.6667 49.9333 94.6667 50.4 92.6C54.4 93.6 58.7333 94.3333 63.3333 94.8C66.0667 98.6 68.9333 102 71.8 105C65.1333 111.2 58.9333 114.533 54.6667 114.533C53.7333 114.533 53 114.333 52.4 114ZM100.733 98.4667C101.667 106.267 100.533 112.333 97.7333 113.933C97.1333 114.333 96.3333 114.467 95.4 114.467C91.2 114.467 84.9333 111.133 78.2667 105C81.1333 102 84 98.6 86.6667 94.8C91.2667 94.3333 95.6667 93.5333 99.6 92.5333C100.133 94.6 100.467 96.5333 100.733 98.4667ZM108.6 84.8667C106.867 85.6 104.933 86.2667 102.933 86.9333C101.8 82.9333 100.267 78.8 98.3333 74.5333C100.2 70.2667 101.733 66.1333 102.867 62.2C104.867 62.8 106.8 63.5333 108.6 64.2667C115.8 67.3333 120.467 71.4 120.467 74.6C120.467 77.7333 115.8 81.8 108.6 84.8667Z" fill="#B9B9B9"/>
<path d="M75 83.8667C80.1547 83.8667 84.3333 79.688 84.3333 74.5333C84.3333 69.3787 80.1547 65.2 75 65.2C69.8453 65.2 65.6667 69.3787 65.6667 74.5333C65.6667 79.688 69.8453 83.8667 75 83.8667Z" fill="#B9B9B9"/>
</svg>
