<svg width="150" height="150" viewBox="0 0 150 150" fill="none" xmlns="http://www.w3.org/2000/svg">
<path d="M94.2956 93.2729C97.9627 92.8729 100.763 89.7393 100.63 85.8722C100.496 82.0052 97.2959 79.0049 93.4956 79.0049H93.2289C89.2952 79.1383 86.2282 82.4719 86.3616 86.4056C86.4949 88.3391 87.2283 89.9393 88.4284 91.1394C84.0947 99.6736 77.494 105.874 67.5598 111.141C60.8258 114.675 53.8251 116.008 46.8245 115.075C41.0906 114.342 36.6235 111.741 33.8232 107.541C29.7562 101.274 29.3562 94.5397 32.8231 87.8058C35.2234 82.9386 39.0904 79.405 41.4906 77.6048C40.9573 75.938 40.2239 73.1377 39.8238 71.1375C21.3554 84.4721 23.2889 102.54 28.8894 111.075C33.0898 117.409 41.624 121.409 51.0249 121.409C53.5584 121.409 56.092 121.142 58.6923 120.542C74.9605 117.342 87.295 107.674 94.2956 93.2729Z" fill="#646464"/>
<path d="M116.698 77.5381C107.03 66.2037 92.7622 60.0031 76.494 60.0031H74.4271C73.2937 57.7362 70.8934 56.2028 68.1598 56.2028H67.8931C63.9594 56.3361 60.8925 59.6698 61.0258 63.6035C61.1592 67.4038 64.3595 70.4708 68.1598 70.4708H68.4265C71.2268 70.3374 73.627 68.5373 74.6938 66.137H77.0273C86.6949 66.137 95.8958 68.9373 104.163 74.4045C110.497 78.6049 115.098 84.0721 117.631 90.6727C119.765 96.0065 119.698 101.207 117.364 105.674C113.831 112.408 107.83 116.142 99.8962 116.142C94.829 116.142 89.9619 114.608 87.4283 113.475C86.0282 114.742 83.4946 116.809 81.6945 118.075C87.1616 120.609 92.7622 122.009 98.096 122.009C110.297 122.009 119.365 115.275 122.765 108.541C126.499 101.074 126.232 88.3391 116.698 77.5381Z" fill="#646464"/>
<path d="M52.0916 95.4732C52.225 99.2735 55.4253 102.34 59.2256 102.34H59.4923C63.426 102.207 66.493 98.8735 66.3597 94.9398C66.2263 91.1394 63.026 88.0725 59.2256 88.0725H58.959C58.6923 88.0725 58.2922 88.0725 58.0922 88.2058C52.8917 79.5383 50.6915 70.1374 51.4916 59.9365C52.025 52.2691 54.5585 45.6684 59.0256 40.2013C62.6926 35.4675 69.8267 33.2006 74.6938 33.0672C88.1617 32.8006 93.8956 49.6021 94.2956 56.3361C95.9625 56.7362 98.7627 57.6029 100.63 58.2696C99.0294 37.6677 86.2949 27 74.0937 27C62.626 27 52.0916 35.2675 47.8912 47.4686C42.024 63.7368 45.8244 79.405 52.9584 91.7395C52.2917 92.6729 51.9583 94.073 52.0916 95.4732Z" fill="#646464"/>
</svg>
