<svg width="150" height="150" viewBox="0 0 150 150" fill="none" xmlns="http://www.w3.org/2000/svg">
<path d="M129.111 83.6186C123.916 83.6186 119.32 84.9174 115.524 86.8156C114.125 84.0182 112.726 81.6205 112.527 79.8222C112.227 77.7241 111.927 76.4253 112.227 73.9277C112.527 71.43 114.025 67.8334 114.025 67.5336C114.025 67.2339 113.725 65.9351 110.728 65.9351C107.731 65.9351 105.133 66.5346 104.834 67.3338C104.534 68.1331 103.935 69.9314 103.535 71.8296C103.035 74.5271 97.5406 84.318 94.3436 89.4132C93.3445 87.4151 92.4453 85.6168 92.2455 84.2181C91.9458 82.12 91.6461 80.8212 91.9458 78.3236C92.2455 75.8259 93.7441 72.2293 93.7441 71.9295C93.7441 71.6298 93.4444 70.331 90.4472 70.331C87.45 70.331 84.8524 70.9305 84.5527 71.7297C84.253 72.529 83.9533 74.4272 83.2539 76.2255C82.6545 78.0238 75.3613 94.3086 73.3632 98.6046C72.3641 100.803 71.5648 102.501 70.9654 103.7C70.9654 103.7 70.9654 103.8 70.8655 103.9C70.366 104.899 70.0662 105.498 70.0662 105.498C69.6666 106.198 69.267 106.897 68.9673 106.897C68.7675 106.897 68.4677 104.899 69.0672 102.201C70.1661 96.5066 72.7637 87.7148 72.7637 87.4151C72.7637 87.2153 73.2633 85.7167 71.0653 84.9174C68.9673 84.1181 68.168 85.4169 67.9682 85.4169C67.7684 85.4169 67.6685 85.9165 67.6685 85.9165C67.6685 85.9165 70.0662 76.0257 63.1727 76.0257C58.8767 76.0257 52.8823 80.7213 49.8851 85.0173C47.9869 86.0164 44.0905 88.2143 39.7945 90.5122C38.196 91.4113 36.4976 92.3105 34.999 93.2097C34.8991 93.1097 34.7992 93.0098 34.6993 92.81C26.3071 83.8184 10.8216 77.5243 11.521 65.5355C11.521 61.0397 13.0196 49.5505 40.9934 35.5635C64.0718 24.1742 82.3548 27.3712 85.5518 34.3647C90.0476 44.3553 75.7609 62.838 51.8832 65.5355C42.7917 66.5346 37.9962 63.0379 36.7973 61.7391C35.4986 60.3404 35.2987 60.2405 34.8991 60.5402C34.0999 60.9398 34.5994 62.1387 34.8991 62.9379C35.5985 64.8362 38.4958 68.1331 43.4911 69.7316C47.887 71.1303 58.4771 71.9295 71.365 66.9342C85.9514 61.2395 97.1409 45.754 93.844 32.7661C90.5471 19.5785 68.6676 15.1826 47.9869 22.5757C35.5985 26.9716 22.3109 33.8651 12.6199 42.7568C1.23058 53.4468 -0.567737 62.7381 0.131609 66.6345C2.82909 80.4216 21.8113 89.4132 29.4042 96.1069C29.0046 96.3068 28.7049 96.5066 28.4052 96.7064C24.6087 98.6046 10.1223 106.198 6.52563 114.19C2.42946 123.282 7.22498 129.775 10.3221 130.675C20.1129 133.372 30.1036 128.477 35.4986 120.484C40.8935 112.492 40.1942 102.001 37.6965 97.2059C37.6965 97.106 37.5966 97.106 37.5966 97.0061C38.5957 96.4067 39.5947 95.8072 40.5938 95.2078C42.492 94.0089 44.4901 93.0098 46.0887 92.1107C45.1895 94.6083 44.4901 97.7054 44.1904 102.101C43.7908 107.296 45.8888 113.89 48.6862 116.588C49.8851 117.787 51.3837 117.787 52.2829 117.787C55.4799 117.787 56.9785 115.089 58.577 111.892C60.5751 107.996 62.3734 103.5 62.3734 103.5C62.3734 103.5 60.1755 115.689 66.1699 115.689C68.3678 115.689 70.5658 112.891 71.5648 111.393C71.5648 111.393 71.6648 111.293 71.7647 111.093C71.9645 110.693 72.1643 110.493 72.1643 110.493C72.1643 110.493 72.1643 110.493 72.1643 110.394C73.0634 108.895 74.9617 105.398 77.9589 99.6037C81.7553 92.1107 85.352 82.8194 85.352 82.8194C85.352 82.8194 85.6517 85.1172 86.8506 88.9137C87.5499 91.1116 88.8487 93.6093 89.9477 95.9071C88.9486 97.2059 88.3492 97.9053 88.3492 97.9053C87.6498 98.9043 86.9505 99.9034 86.0513 100.902C83.0541 104.499 79.5574 108.495 79.0578 109.694C78.4584 111.093 78.6582 112.092 79.7572 112.891C80.5564 113.491 81.9551 113.591 83.4537 113.491C86.1512 113.291 88.0494 112.691 88.9486 112.192C90.4472 111.692 92.1456 110.893 93.6442 109.694C96.5415 107.496 98.3398 104.399 98.14 100.403C98.0401 98.205 97.3408 95.9071 96.4416 93.8091C96.7413 93.4095 96.9411 93.0098 97.2408 92.6102C101.837 85.8166 105.433 78.4235 105.433 78.4235C105.433 78.4235 105.733 80.7213 106.932 84.5178C107.431 86.416 108.63 88.514 109.629 90.5122C105.233 94.0089 102.636 98.1051 101.637 100.803C99.9383 105.798 101.237 107.996 103.835 108.595C105.034 108.795 106.632 108.296 107.831 107.796C109.33 107.296 111.128 106.497 112.926 105.198C115.823 103.001 118.721 100.003 118.521 95.9071C118.421 94.0089 117.922 92.2106 117.222 90.4123C120.919 88.9137 125.714 88.0145 131.709 88.7139C144.697 90.2125 147.294 98.4048 146.795 101.802C146.295 105.198 143.598 107.097 142.698 107.696C141.799 108.296 141.499 108.495 141.599 108.895C141.699 109.494 142.099 109.494 142.898 109.395C143.997 109.195 149.692 106.597 149.992 100.303C150.291 92.3105 142.598 83.5187 129.111 83.6186ZM28.605 117.487C24.309 122.183 18.2147 123.981 15.6171 122.482C12.8198 120.884 13.9187 113.89 19.2138 108.895C22.4108 105.898 26.6069 103.001 29.4042 101.302C30.0037 100.902 31.0028 100.403 32.1017 99.7036C32.3015 99.6037 32.4014 99.5038 32.4014 99.5038C32.6013 99.4039 32.8011 99.204 33.1008 99.1041C34.999 106.297 33.1008 112.492 28.605 117.487ZM60.0756 96.1069C58.577 99.8035 55.38 109.195 53.4817 108.595C51.8832 108.196 50.7843 101.002 53.182 94.0089C54.3809 90.5122 56.8786 86.2162 58.2773 84.6177C60.675 82.0201 63.2726 81.121 63.872 82.2199C64.6713 83.6186 60.9747 93.8091 60.0756 96.1069ZM86.0513 108.495C85.4519 108.795 84.8524 108.995 84.5527 108.895C84.3529 108.795 84.8524 108.395 84.8524 108.395C84.8524 108.395 88.1493 104.899 89.3482 103.3C90.0476 102.401 90.9467 101.302 91.8459 100.003C91.8459 100.103 91.8459 100.203 91.8459 100.403C91.8459 104.499 87.8496 107.296 86.0513 108.495ZM106.033 103.9C105.533 103.6 105.633 102.501 107.232 99.1041C107.831 97.8054 109.23 95.5075 111.727 93.3096C112.027 94.2087 112.227 95.008 112.127 95.8072C112.127 101.102 108.33 103.1 106.033 103.9Z" fill="#8B8B8B"/>
</svg>
