<svg width="150" height="150" viewBox="0 0 150 150" fill="none" xmlns="http://www.w3.org/2000/svg">
<path d="M111.074 81.0791C107.611 81.0791 104.547 81.9449 102.016 83.2104C101.083 81.3455 100.151 79.747 100.018 78.5481C99.8179 77.1494 99.6181 76.2836 99.8179 74.6184C100.018 72.9533 101.017 70.5556 101.017 70.3558C101.017 70.156 100.817 69.2901 98.8188 69.2901C96.8207 69.2901 95.089 69.6897 94.8892 70.2226C94.6894 70.7554 94.2897 71.9543 94.0233 73.2198C93.6903 75.0181 90.027 81.5453 87.8957 84.9421C87.2297 83.61 86.6302 82.4112 86.497 81.4787C86.2972 80.08 86.0974 79.2142 86.2972 77.549C86.497 75.8839 87.4961 73.4862 87.4961 73.2864C87.4961 73.0865 87.2963 72.2207 85.2981 72.2207C83.3 72.2207 81.5683 72.6203 81.3685 73.1531C81.1687 73.686 80.9688 74.9515 80.5026 76.1503C80.103 77.3492 75.2409 88.2057 73.9088 91.0697C73.2427 92.535 72.7099 93.6673 72.3103 94.4666C72.3103 94.4666 72.3103 94.5332 72.2437 94.5998C71.9106 95.2658 71.7108 95.6654 71.7108 95.6654C71.4444 96.1317 71.178 96.5979 70.9782 96.5979C70.845 96.5979 70.6452 95.2658 71.0448 93.4675C71.7774 89.671 73.5092 83.8099 73.5092 83.61C73.5092 83.4768 73.8422 82.4778 72.3769 81.9449C70.9782 81.4121 70.4453 82.278 70.3121 82.278C70.1789 82.278 70.1123 82.611 70.1123 82.611C70.1123 82.611 71.7108 76.0171 67.1151 76.0171C64.2511 76.0171 60.2549 79.1475 58.2567 82.0115C56.9913 82.6776 54.3937 84.1429 51.5297 85.6748C50.464 86.2742 49.3317 86.8737 48.3327 87.4731C48.2661 87.4065 48.1995 87.3399 48.1329 87.2067C42.5381 81.2123 32.2144 77.0162 32.6806 69.0237C32.6806 66.0265 33.6797 58.367 52.3289 49.0424C67.7146 41.4495 79.9032 43.5808 82.0345 48.2431C85.0317 54.9035 75.5073 67.2254 59.5888 69.0237C53.5278 69.6897 50.3308 67.3586 49.5316 66.4927C48.6657 65.5602 48.5325 65.4936 48.2661 65.6935C47.7332 65.9599 48.0663 66.7591 48.2661 67.292C48.7323 68.5574 50.6638 70.7554 53.9941 71.8211C56.9247 72.7535 63.9847 73.2864 72.5767 69.9561C82.3009 66.1597 89.7606 55.836 87.5627 47.1774C85.3647 38.3856 70.7784 35.4551 56.9913 40.3838C48.7323 43.3144 39.8739 47.9101 33.4133 53.8379C25.8204 60.9645 24.6215 67.1588 25.0877 69.7563C26.8861 78.9477 39.5409 84.9421 44.6028 89.4046C44.3364 89.5378 44.1366 89.671 43.9368 89.8043C41.4058 91.0697 31.7482 96.1317 29.3504 101.46C26.6196 107.521 29.8167 111.85 31.8814 112.45C38.4086 114.248 45.0691 110.984 48.6657 105.656C52.2623 100.328 51.7961 93.3343 50.131 90.1373C50.131 90.0707 50.0644 90.0707 50.0644 90.0041C50.7304 89.6044 51.3965 89.2048 52.0625 88.8052C53.328 88.0059 54.6601 87.3399 55.7258 86.7404C55.1263 88.4056 54.6601 90.4703 54.4603 93.4009C54.1939 96.8643 55.5926 101.26 57.4575 103.059C58.2567 103.858 59.2558 103.858 59.8552 103.858C61.9866 103.858 62.9857 102.059 64.0513 99.9281C65.3834 97.3306 66.5823 94.3334 66.5823 94.3334C66.5823 94.3334 65.117 102.459 69.1133 102.459C70.5786 102.459 72.0439 100.594 72.7099 99.5951C72.7099 99.5951 72.7765 99.5285 72.8431 99.3953C72.9763 99.1289 73.1095 98.9957 73.1095 98.9957C73.1095 98.9957 73.1095 98.9957 73.1095 98.9291C73.709 97.93 74.9744 95.5988 76.9726 91.7358C79.5035 86.7404 81.9013 80.5462 81.9013 80.5462C81.9013 80.5462 82.1011 82.0781 82.9004 84.6091C83.3666 86.0744 84.2325 87.7395 84.9651 89.2714C84.2991 90.1373 83.8994 90.6035 83.8994 90.6035C83.4332 91.2696 82.967 91.9356 82.3675 92.6016C80.3694 94.9994 78.0382 97.6636 77.7052 98.4628C77.3056 99.3953 77.4388 100.061 78.1715 100.594C78.7043 100.994 79.6368 101.06 80.6358 100.994C82.4341 100.861 83.6996 100.461 84.2991 100.128C85.2981 99.7949 86.4304 99.2621 87.4295 98.4628C89.361 96.9975 90.5599 94.9328 90.4267 92.2686C90.3601 90.8033 89.8938 89.2714 89.2944 87.8727C89.4942 87.6063 89.6274 87.3399 89.8272 87.0735C92.891 82.5444 95.2888 77.6156 95.2888 77.6156C95.2888 77.6156 95.4886 79.1475 96.2879 81.6785C96.6209 82.944 97.4201 84.3427 98.0862 85.6748C95.1556 88.0059 93.4239 90.7367 92.7578 92.535C91.6255 95.8653 92.4914 97.3305 94.2231 97.7302C95.0224 97.8634 96.088 97.5304 96.8873 97.1973C97.8864 96.8643 99.0852 96.3315 100.284 95.4656C102.216 94.0003 104.147 92.0022 104.014 89.2714C103.947 88.0059 103.614 86.8071 103.148 85.6082C105.612 84.6091 108.809 84.0097 112.806 84.4759C121.464 85.475 123.196 90.9365 122.863 93.2011C122.53 95.4656 120.732 96.7311 120.132 97.1307C119.533 97.5304 119.333 97.6636 119.4 97.93C119.466 98.3296 119.733 98.3296 120.265 98.263C120.998 98.1298 124.795 96.3981 124.994 92.202C125.194 86.8737 120.066 81.0125 111.074 81.0791ZM44.07 103.658C41.206 106.788 37.1431 107.987 35.4114 106.988C33.5465 105.923 34.2791 101.26 37.8092 97.93C39.9405 95.9319 42.7379 94.0003 44.6028 92.8681C45.0025 92.6016 45.6685 92.2686 46.4012 91.8024C46.5344 91.7358 46.601 91.6692 46.601 91.6692C46.7342 91.6026 46.8674 91.4694 47.0672 91.4028C48.3327 96.1983 47.0672 100.328 44.07 103.658ZM65.0504 89.4046C64.0513 91.869 61.92 98.1298 60.6545 97.7302C59.5888 97.4638 58.8562 92.6682 60.4547 88.0059C61.2539 85.6748 62.919 82.8108 63.8515 81.7451C65.45 80.0134 67.1817 79.414 67.5814 80.1466C68.1142 81.0791 65.6498 87.8727 65.0504 89.4046ZM82.3675 97.6636C81.9679 97.8634 81.5683 97.9966 81.3685 97.93C81.2353 97.8634 81.5683 97.597 81.5683 97.597C81.5683 97.597 83.7662 95.2658 84.5655 94.2001C85.0317 93.6007 85.6312 92.8681 86.2306 92.0022C86.2306 92.0688 86.2306 92.1354 86.2306 92.2686C86.2306 94.9994 83.5664 96.8643 82.3675 97.6636ZM95.6884 94.5998C95.3554 94.4 95.422 93.6673 96.4877 91.4028C96.8873 90.5369 97.8198 89.005 99.4849 87.5397C99.6847 88.1391 99.8179 88.672 99.7513 89.2048C99.7513 92.7348 97.2203 94.0669 95.6884 94.5998Z" fill="#8B8B8B"/>
</svg>
