<svg width="150" height="150" viewBox="0 0 150 150" fill="none" xmlns="http://www.w3.org/2000/svg">
<g clip-path="url(#clip0)">
<path d="M32.8 84.1C29.4 84.1 27.8 83.4 26.4 82.7V80.2C28 81.1 30.6 81.7 32.9 81.7C35.6 81.7 36.6 80.7 36.6 79.1C36.6 77.5 35.6 76.7 32.3 75.9C28.3 74.9 26.5 73.6 26.5 70.7C26.5 68 28.6 65.9 32.7 65.9C35.3 65.9 36.9 66.5 38.1 67.2V69.6C36.4 68.7 34.5 68.2 32.6 68.3C30.4 68.2 29 69 29 70.6C29 72.1 30.1 72.8 33.2 73.6C36.9 74.5 39 75.7 39 78.9C39.1 82 37.2 84.1 32.8 84.1Z" fill="#363636"/>
<path d="M41.1 77C41.1 73 43.5 70 47.5 70C51.5 70 53.8 72.9 53.8 77C53.8 81.1 51.5 84 47.5 84C43.5 84 41.1 81.1 41.1 77ZM43.4 77C43.4 79.6 44.7 81.9 47.5 81.9C50.3 81.9 51.6 79.6 51.6 77C51.6 74.4 50.4 72.2 47.5 72.2C44.6 72.2 43.4 74.5 43.4 77Z" fill="#363636"/>
<path d="M56.3 70.4H58.6V78.5C58.6 80.9 59.6 82 61.8 82C63.9 82 65.4 80.6 65.4 77.9V70.4H67.7V83.8H65.4V81.6C64.6 83.2 62.9 84.1 61.2 84.1C58.1 84.1 56.3 82 56.3 78.3V70.4Z" fill="#363636"/>
<path d="M71.2 70.4H73.5V72.8C74.3 71.2 75.6 70.1 78.3 70.2V72.5C75.3 72.2 73.5 73.1 73.5 75.9V83.8H71.2V70.4Z" fill="#363636"/>
<path d="M89.4 83.4C88.6 83.8 87.4 84 86.1 84C81.3 84 79.1 81.1 79.1 77C79.1 72.9 81.3 70 86.1 70C87.2 70 88.3 70.2 89.3 70.7V72.8C88.3 72.4 87.3 72.2 86.3 72.2C82.8 72.2 81.4 74.4 81.4 77C81.4 79.6 82.9 81.8 86.4 81.8C87.4 81.8 88.5 81.7 89.5 81.3L89.4 83.4Z" fill="#363636"/>
<path d="M98.5 84.1C93.5 84.1 91.3 81.2 91.3 77.1C91.3 73 93.6 70.1 97.6 70.1C101.7 70.1 103.4 73 103.4 77.1V78.1H93.6C93.9 80.4 95.4 81.9 98.6 81.9C100 81.9 101.4 81.7 102.7 81.2V83.3C101.5 83.9 99.8 84.1 98.5 84.1ZM93.5 76.1H101C100.9 73.6 99.7 72.2 97.4 72.2C95 72.2 93.8 73.8 93.5 76.1Z" fill="#363636"/>
<path d="M111.4 81.5C111.9 81.5 112.4 81.4 112.9 81.3V83.5C112.4 83.6 111.9 83.7 111.3 83.7C108.4 83.7 107 82 107 79.5V72.5H104.8V70.4H107V67.5H109.3V70.3H112.9V72.4H109.3V79.5C109.3 80.7 110 81.5 111.4 81.5Z" fill="#363636"/>
<path d="M115.8 70.4H118.1V72.8C118.9 71.2 120.2 70.1 122.9 70.2V72.5C119.9 72.2 118.1 73.1 118.1 75.9V83.8H115.8V70.4Z" fill="#363636"/>
<path d="M131 84.1C126 84.1 123.8 81.2 123.8 77.1C123.8 73 126.1 70.1 130.1 70.1C134.2 70.1 135.9 73 135.9 77.1V78.1H126.1C126.4 80.4 127.9 81.9 131.1 81.9C132.5 81.9 133.9 81.7 135.2 81.2V83.3C134.1 83.9 132.4 84.1 131 84.1ZM126.1 76.1H133.6C133.5 73.6 132.3 72.2 130 72.2C127.6 72.2 126.3 73.8 126.1 76.1Z" fill="#363636"/>
<path d="M145.1 84.1C140.1 84.1 137.9 81.2 137.9 77.1C137.9 73 140.2 70.1 144.2 70.1C148.3 70.1 150 73 150 77.1V78.1H140.2C140.5 80.4 142 81.9 145.2 81.9C146.6 81.9 148 81.7 149.3 81.2V83.3C148.1 83.9 146.5 84.1 145.1 84.1ZM140.2 76.1H147.7C147.6 73.6 146.4 72.2 144.1 72.2C141.6 72.2 140.4 73.8 140.2 76.1Z" fill="#363636"/>
<path d="M17.4 72.7C17.4 67.9 13.5 64 8.7 64C3.9 64 0 67.9 0 72.7C0 76.5 2.4 79.8 6 81V85.4C6 85.7 6.3 86 6.6 86H10.7C11 86 11.3 85.7 11.3 85.4V81.1C14.9 79.8 17.4 76.5 17.4 72.7ZM8.7 75.6C7.1 75.6 5.8 74.3 5.8 72.7C5.8 71.1 7.1 69.8 8.7 69.8C10.3 69.8 11.6 71.1 11.6 72.7C11.6 74.3 10.3 75.6 8.7 75.6Z" fill="#757575"/>
<path d="M8.70001 64V69.8C10.3 69.8 11.6 71.1 11.6 72.7C11.6 74.3 10.3 75.6 8.70001 75.6C10.2 75.6 11.4 76.8 11.4 78.3V81C16 79.5 18.5 74.6 17 70.1C15.8 66.4 12.5 64 8.70001 64Z" fill="url(#paint0_linear)"/>
</g>
<defs>
<linearGradient id="paint0_linear" x1="13.0454" y1="79.3778" x2="13.0454" y2="70.1511" gradientUnits="userSpaceOnUse">
<stop offset="0.18" stop-color="#474747"/>
<stop offset="1" stop-color="#757575"/>
</linearGradient>
<clipPath id="clip0">
<rect width="150" height="21.9" fill="white" transform="translate(0 64)"/>
</clipPath>
</defs>
</svg>
