<svg width="150" height="150" viewBox="0 0 150 150" fill="none" xmlns="http://www.w3.org/2000/svg">
<path d="M34.7692 25H115.231C120.615 25 125 29.3846 125 34.7692V115.231C125 120.615 120.615 125 115.231 125H34.7692C29.3846 125 25 120.615 25 115.231V34.7692C25 29.3846 29.3846 25 34.7692 25Z" fill="#6B6B6B"/>
<path d="M34.7692 25H115.231C120.615 25 125 29.3846 125 34.7692V115.231C125 120.615 120.615 125 115.231 125H34.7692C29.3846 125 25 120.615 25 115.231V34.7692C25 29.3846 29.3846 25 34.7692 25Z" fill="#6B6B6B"/>
<path d="M86.9231 104.538V114.308C88.5385 115.154 90.3846 115.769 92.5385 116.154C94.6923 116.538 97 116.769 99.3846 116.769C101.692 116.769 103.923 116.538 106.077 116.077C108.154 115.615 110 114.923 111.615 113.846C113.231 112.846 114.462 111.462 115.385 109.846C116.308 108.154 116.769 106.154 116.769 103.692C116.769 101.923 116.538 100.385 116 99C115.462 97.6923 114.692 96.4615 113.692 95.4615C112.692 94.3846 111.462 93.4615 110.077 92.6923C108.692 91.8461 107.077 91.0769 105.385 90.3846C104.077 89.8461 102.923 89.3077 101.923 88.8461C100.923 88.3846 100 87.8461 99.3077 87.3077C98.6154 86.7692 98.0769 86.2308 97.6923 85.6923C97.3077 85.0769 97.0769 84.4615 97.0769 83.6923C97.0769 83 97.2308 82.3846 97.6154 81.8461C98 81.3077 98.4615 80.8461 99.0769 80.4615C99.6923 80.0769 100.462 79.7692 101.385 79.5385C102.308 79.3077 103.308 79.2308 104.462 79.2308C105.308 79.2308 106.154 79.3077 107.077 79.3846C108 79.5384 108.923 79.6923 109.846 79.9231C110.769 80.1538 111.692 80.4615 112.538 80.9231C113.385 81.3077 114.231 81.7692 114.923 82.2308V73.1538C113.462 72.6154 111.846 72.1538 110.077 71.9231C108.308 71.6154 106.308 71.5385 104 71.5385C101.692 71.5385 99.4615 71.7692 97.3846 72.3077C95.3077 72.8461 93.4615 73.6154 91.9231 74.6154C90.3077 75.6923 89.0769 77 88.1539 78.6923C87.2308 80.3077 86.7692 82.3077 86.7692 84.5385C86.7692 87.4615 87.6154 89.9231 89.3077 92C91 94.0769 93.5385 95.7692 97 97.2308C98.3077 97.7692 99.6154 98.3077 100.769 98.8461C101.923 99.3846 102.923 99.9231 103.769 100.462C104.615 101 105.308 101.615 105.769 102.308C106.231 103 106.538 103.769 106.538 104.615C106.538 105.231 106.385 105.846 106.077 106.385C105.769 106.923 105.308 107.385 104.692 107.769C104.077 108.154 103.308 108.462 102.385 108.692C101.462 108.923 100.385 109 99.1539 109C97 109 94.9231 108.615 92.8462 107.923C90.6154 107.154 88.6923 106.077 86.9231 104.538ZM70.4615 80.4615H83V72.4615H48.0769V80.4615H60.5385V116.154H70.4615V80.4615Z" fill="white"/>
</svg>
