<svg width="150" height="150" viewBox="0 0 150 150" fill="none" xmlns="http://www.w3.org/2000/svg">
<path d="M22.7 10H127.3C134.3 10 140 15.7 140 22.7V127.3C140 134.3 134.3 140 127.3 140H22.7C15.7 140 10 134.3 10 127.3V22.7C10 15.7 15.7 10 22.7 10Z" fill="#6B6B6B"/>
<path d="M22.7 10H127.3C134.3 10 140 15.7 140 22.7V127.3C140 134.3 134.3 140 127.3 140H22.7C15.7 140 10 134.3 10 127.3V22.7C10 15.7 15.7 10 22.7 10Z" fill="#6B6B6B"/>
<path d="M90.5 113.4V126.1C92.6 127.2 95 128 97.8 128.5C100.6 129 103.6 129.3 106.7 129.3C109.7 129.3 112.6 129 115.4 128.4C118.1 127.8 120.5 126.9 122.6 125.5C124.7 124.2 126.3 122.4 127.5 120.3C128.7 118.1 129.3 115.5 129.3 112.3C129.3 110 129 108 128.3 106.2C127.6 104.5 126.6 102.9 125.3 101.6C124 100.2 122.4 99 120.6 98C118.8 96.9 116.7 95.9 114.5 95C112.8 94.3 111.3 93.6 110 93C108.7 92.4 107.5 91.7 106.6 91C105.7 90.3 105 89.6 104.5 88.9C104 88.1 103.7 87.3 103.7 86.3C103.7 85.4 103.9 84.6 104.4 83.9C104.9 83.2 105.5 82.6 106.3 82.1C107.1 81.6 108.1 81.2 109.3 80.9C110.5 80.6 111.8 80.5 113.3 80.5C114.4 80.5 115.5 80.6 116.7 80.7C117.9 80.9 119.1 81.1 120.3 81.4C121.5 81.7 122.7 82.1 123.8 82.7C124.9 83.2 126 83.8 126.9 84.4V72.6C125 71.9 122.9 71.3 120.6 71C118.3 70.6 115.7 70.5 112.7 70.5C109.7 70.5 106.8 70.8 104.1 71.5C101.4 72.2 99 73.2 97 74.5C94.9 75.9 93.3 77.6 92.1 79.8C90.9 81.9 90.3 84.5 90.3 87.4C90.3 91.2 91.4 94.4 93.6 97.1C95.8 99.8 99.1 102 103.6 103.9C105.3 104.6 107 105.3 108.5 106C110 106.7 111.3 107.4 112.4 108.1C113.5 108.8 114.4 109.6 115 110.5C115.6 111.4 116 112.4 116 113.5C116 114.3 115.8 115.1 115.4 115.8C115 116.5 114.4 117.1 113.6 117.6C112.8 118.1 111.8 118.5 110.6 118.8C109.4 119.1 108 119.2 106.4 119.2C103.6 119.2 100.9 118.7 98.2 117.8C95.3 116.8 92.8 115.4 90.5 113.4ZM69.1 82.1H85.4V71.7H40V82.1H56.2V128.5H69.1V82.1Z" fill="white"/>
</svg>
