<svg width="150" height="150" viewBox="0 0 150 150" fill="none" xmlns="http://www.w3.org/2000/svg">
<path d="M145.8 85.9467H144.787V88.6H143.893V85.9467H142.88V85.1866H145.8V85.9467Z" fill="#404040"/>
<path d="M146.2 85.1866H147.507L148.093 87.4666H148.107L148.693 85.1866H150V88.6H149.16V86.0133H149.147L148.427 88.6H147.747L147.027 86.0133H147.013V88.6H146.173V85.1866" fill="#404040"/>
<path d="M110.573 88.3999C109.333 88.9199 108.08 89.1866 106.813 89.1866C104.813 89.1866 103.027 88.8399 101.427 88.1466C99.8267 87.4533 98.4933 86.4933 97.3867 85.2799C96.2933 84.0666 95.4533 82.6266 94.8667 80.9866C94.28 79.3466 93.9867 77.5599 93.9867 75.6666C93.9867 73.7199 94.28 71.9066 94.8667 70.2399C95.4533 68.5732 96.2933 67.1066 97.3733 65.8666C98.4667 64.6266 99.8133 63.6533 101.4 62.9333C103 62.2266 104.787 61.8666 106.787 61.8666C108.12 61.8666 109.427 62.0666 110.68 62.4666C111.933 62.8666 113.067 63.4666 114.08 64.2399C115.093 65.0266 115.92 65.9866 116.587 67.1333C117.24 68.2799 117.64 69.5999 117.787 71.0799H112.307C111.96 69.6266 111.307 68.5199 110.333 67.7999C109.36 67.0666 108.173 66.7066 106.787 66.7066C105.493 66.7066 104.4 66.9599 103.507 67.4533C102.6 67.9466 101.88 68.6266 101.32 69.4666C100.76 70.3066 100.347 71.2666 100.093 72.3333C99.84 73.3999 99.7067 74.5199 99.7067 75.6666C99.7067 76.7599 99.84 77.8266 100.093 78.8666C100.347 79.9066 100.76 80.8399 101.32 81.6666C101.88 82.4933 102.613 83.1599 103.52 83.6533C104.427 84.1599 105.52 84.3999 106.813 84.3999C108.72 84.3999 110.187 83.9199 111.213 82.9599C112.253 81.9999 112.853 80.6133 113.027 78.7866H107.253V74.4932H118.187V88.5866H114.547L113.96 85.6266C112.947 86.9599 111.813 87.8799 110.573 88.3999Z" fill="#404040"/>
<path d="M127.493 62.5199V83.7466H140.2V88.5866H121.773V62.5199H127.493Z" fill="#404040"/>
<path d="M100.453 91.8266C91.7067 97.1466 78.6 100.173 63.9733 100.173C37.6267 100.173 16.28 89.2 16.28 75.6666C16.28 62.1333 37.64 51.1599 63.9733 51.1599C78.6533 51.1599 91.8 54.24 100.56 59.6C91.0133 50.6266 73.88 44.32 54.3067 44.32C24.32 44.32 0.0133333 58.3466 0 75.6533C0 92.96 24.3067 107 54.2933 107C73.7867 107.013 90.8667 100.733 100.453 91.8266Z" fill="#404040"/>
<path d="M52.3867 60.4932L47.36 82.2533L41.2933 60.4932H36.68L30.6267 82.2533L25.5867 60.4932H20.84L28.3067 88.8533H32.76L39.04 66.5733L45.24 88.8533H49.7067L57.4267 60.4932H52.3867Z" fill="#404040"/>
<path d="M69.9867 72.4266C69.2933 71.4399 68.4133 70.6932 67.3867 70.1732C66.3333 69.6532 65.1067 69.3866 63.76 69.3866C62.24 69.3866 60.8533 69.6666 59.68 70.2133C58.56 70.7333 57.6 71.4933 56.8267 72.4799C55.4 74.2933 54.6533 76.8666 54.6533 79.8932C54.6533 81.2399 54.84 82.5066 55.2267 83.6532C55.6 84.8132 56.1733 85.8133 56.8933 86.6666C58.4133 88.4399 60.6 89.3732 63.1867 89.3732C64.5467 89.3732 65.6533 89.2266 66.5733 88.9333C67.3867 88.6799 67.92 88.3466 68.36 88.0532C68.92 87.6799 69.44 87.2266 69.9067 86.6932C70.2933 86.2399 70.64 85.7333 70.9467 85.1999C71.48 84.2266 71.7333 83.3199 71.7867 82.8399L71.8267 82.5199H68.12L68.0933 82.7866C68 83.9866 66.4267 86.1333 63.6 86.1333C59.5733 86.1333 58.6133 83.2266 58.56 80.6666H72.0267V80.3866C72.0267 78.7332 71.8533 77.2266 71.52 75.9066C71.1733 74.5466 70.6533 73.3866 69.9867 72.4266ZM63.3333 72.7333C66.32 72.7333 67.9067 74.3332 68.2 77.6399H58.5467C58.6933 74.9599 60.8267 72.7333 63.3333 72.7333Z" fill="#404040"/>
<path d="M90.6533 75.1599C90.2933 74.0132 89.76 72.9999 89.08 72.1599C88.3733 71.2932 87.52 70.6133 86.5333 70.1466C85.5067 69.6666 84.36 69.4133 83.12 69.4133C81.9733 69.4266 80.9333 69.6799 80.0133 70.1599C79.2533 70.5466 78.5733 71.1066 77.9867 71.7999V63.0932H74.2933V88.8666H77.8V87.1066C78.1067 87.5066 78.5067 87.9333 79.0267 88.3066C80.0267 89.0266 81.2533 89.3866 82.6933 89.3866C84.24 89.3866 85.6133 89.0399 86.7867 88.3599C87.8267 87.7599 88.7067 86.8799 89.4133 85.7733C90.0267 84.7999 90.4933 83.6533 90.7867 82.3732C91.0533 81.2666 91.1867 80.0399 91.1867 78.8533C91.2 77.5333 91.0133 76.2932 90.6533 75.1599ZM87.3467 79.3466C87.3467 81.3733 86.9333 83.0666 86.1733 84.2533C85.3467 85.5199 84.16 86.1599 82.64 86.1599C80.4267 86.1599 77.8533 84.6133 77.8533 80.2666C77.8533 78.1866 78.1067 76.5732 78.64 75.3599C79.4 73.5999 80.6933 72.7466 82.5733 72.7466C84.5733 72.7466 85.9067 73.5333 86.6533 75.1466C87.2667 76.4666 87.3467 78.08 87.3467 79.3466Z" fill="#404040"/>
</svg>
