<svg width="150" height="150" viewBox="0 0 150 150" fill="none" xmlns="http://www.w3.org/2000/svg">
<path d="M23.1 97.7L15.3 100.6L14.9 123.9L42 114C32.7 110.8 25.9 105.3 23.1 97.7Z" fill="#C2C2C2"/>
<path d="M27.2 73L0 82.9L15.3 100.5L23.1 97.6C20.4 90 22.1 81.4 27.2 73Z" fill="#A9A9A9"/>
<path d="M73 39.3C38.4 52 16 78.1 23.1 97.7L148.7 51.8C141.6 32.2 107.7 26.6 73 39.3Z" fill="#CCCCCC"/>
<path d="M98.7 110.2C133.4 97.5 155.8 71.5 148.6 51.8L23.1 97.7C30.3 117.4 64.1 122.8 98.7 110.2Z" fill="#888888"/>
<path d="M148.7 51.8L23.1 97.7C25.6 104.5 34.9 107.8 48.1 107.8C60.9 107.8 77.3 104.6 94.5 98.4C129.1 85.7 153.5 65.2 148.7 51.8Z" fill="#A9A9A9"/>
<path d="M123.7 41.7C110.9 41.7 94.5 44.9 77.3 51.1C42.7 63.8 18.3 84.3 23.1 97.7L148.7 51.8C146.2 45 136.8 41.7 123.7 41.7Z" fill="#C2C2C2"/>
<path d="M116.8 125.1C113.1 125.1 107.7 121.8 100.6 115.2C92.2 107.4 82.6 96 73.6 83.1C64.6 70.2 57.2 57.3 52.7 46.7C47.9 35.2 47.2 28.2 50.7 25.7C51.5 25.2 52.4 24.9 53.4 24.9C56.2 24.9 61.7 27 71.9 37L72.1 37.2V37.5C72.1 38.3 72 39 72 39.7L71.9 41.1L70.9 40.1C59.9 29.1 55.1 27.9 53.5 27.9C53.1 27.9 52.7 28 52.4 28.2C50.9 29.3 50.8 34.4 55.5 45.6C59.9 55.9 67.2 68.7 76.1 81.4C85 94.2 94.4 105.4 102.6 113C111.4 121.2 115.4 122.1 116.7 122.1C117.1 122.1 117.5 122 117.8 121.8C119.4 120.7 119.4 115.1 114.2 103.2L114 102.7L114.5 102.4C115 102.1 115.5 101.8 116 101.6L116.6 101.2L116.9 101.9C120.6 110.4 124.1 121.2 119.5 124.4C118.7 124.8 117.8 125.1 116.8 125.1ZM116.8 123.8V124.5V123.8Z" fill="#888888"/>
<path d="M99.6 109.8L99.5 110.5C98.6 121.3 96.3 134.4 90.3 134.9C90.2 134.9 90.1 134.9 89.9 134.9C85.8 134.9 81.9 129 78.4 117.5C75.1 106.6 72.5 91.9 71.1 76.2C69.7 60.5 69.8 45.6 71.2 34.2C72.7 21.8 75.7 15.4 79.9 15C80 15 80.2 15 80.3 15C83.3 15 87.7 18.4 92.3 34L89.3 34.6C87.8 29.4 86.1 25.1 84.5 22.2C83 19.5 81.5 18 80.3 18H80.2C78.4 18.2 75.7 22.6 74.2 34.6C72.8 45.7 72.8 60.4 74.2 75.9C75.6 91.4 78.1 105.9 81.4 116.6C82.9 121.4 84.5 125.4 86.1 128.1C87.6 130.6 89 131.9 90.1 131.9H90.2C92 131.7 95.3 127.1 96.6 110.9L99.6 109.8Z" fill="#888888"/>
</svg>
