<svg width="150" height="150" viewBox="0 0 150 150" fill="none" xmlns="http://www.w3.org/2000/svg">
<path d="M33.4866 93.1837L27.2444 95.5045L26.9243 114.151L48.612 106.228C41.1693 103.667 35.7274 99.2658 33.4866 93.1837Z" fill="#C2C2C2"/>
<path d="M36.7678 73.4166L15 81.3394L27.2444 95.4245L33.4866 93.1036C31.3258 87.0215 32.6863 80.139 36.7678 73.4166Z" fill="#A9A9A9"/>
<path d="M73.4209 46.4469C45.731 56.6106 27.8046 77.498 33.4866 93.1836L134.002 56.4505C128.32 40.7649 101.191 36.2833 73.4209 46.4469Z" fill="#CCCCCC"/>
<path d="M93.9882 103.187C121.758 93.0236 139.685 72.2161 133.922 56.4505L33.4866 93.1836C39.2487 108.949 66.2983 113.271 93.9882 103.187Z" fill="#888888"/>
<path d="M134.003 56.4505L33.4866 93.1836C35.4873 98.6256 42.93 101.267 53.4937 101.267C63.7374 101.267 76.8621 98.7056 90.627 93.7438C118.317 83.5802 137.844 67.1743 134.003 56.4505Z" fill="#A9A9A9"/>
<path d="M113.995 48.3676C103.752 48.3676 90.627 50.9286 76.8621 55.8903C49.1722 66.054 29.6452 82.4598 33.4866 93.1836L134.003 56.4505C132.002 51.0086 124.479 48.3676 113.995 48.3676Z" fill="#C2C2C2"/>
<path d="M108.473 115.111C105.512 115.111 101.191 112.471 95.5088 107.189C88.7864 100.946 81.1036 91.8231 73.901 81.4995C66.6985 71.1758 60.7764 60.8521 57.1751 52.3691C53.3337 43.1658 52.7735 37.5638 55.5745 35.563C56.2147 35.1629 56.935 34.9228 57.7353 34.9228C59.9761 34.9228 64.3776 36.6034 72.5406 44.6063L72.7006 44.7663V45.0064C72.7006 45.6467 72.6206 46.2069 72.6206 46.7671L72.5406 47.8875L71.7403 47.0872C62.9371 38.284 59.0958 37.3237 57.8153 37.3237C57.4952 37.3237 57.1751 37.4037 56.935 37.5638C55.7346 38.4441 55.6545 42.5255 59.4159 51.4887C62.9371 59.7317 68.7792 69.9753 75.9018 80.139C83.0243 90.3826 90.547 99.3458 97.1093 105.428C104.152 111.99 107.353 112.711 108.393 112.711C108.713 112.711 109.034 112.631 109.274 112.471C110.554 111.59 110.554 107.109 106.393 97.5852L106.233 97.1851L106.633 96.945C107.033 96.7049 107.433 96.4648 107.833 96.3047L108.313 95.9846L108.553 96.5448C111.514 103.347 114.315 111.99 110.634 114.551C109.994 114.871 109.274 115.111 108.473 115.111ZM108.473 114.071V114.631V114.071Z" fill="#888888"/>
<path d="M94.7085 102.867L94.6284 103.427C93.9082 112.07 92.0675 122.554 87.2658 122.954C87.1858 122.954 87.1058 122.954 86.9457 122.954C83.6645 122.954 80.5434 118.233 77.7424 109.029C75.1015 100.306 73.0207 88.542 71.9003 75.9775C70.7799 63.413 70.86 51.4887 71.9804 42.3655C73.1808 32.4419 75.5816 27.3201 78.9428 27C79.0229 27 79.1829 27 79.263 27C81.6638 27 85.1851 29.721 88.8664 42.2054L86.4655 42.6856C85.2651 38.5241 83.9046 35.0829 82.6242 32.7621C81.4237 30.6013 80.2233 29.4009 79.263 29.4009H79.1829C77.7424 29.5609 75.5816 33.0822 74.3812 42.6856C73.2608 51.5688 73.2608 63.333 74.3812 75.7374C75.5016 88.1418 77.5023 99.746 80.1433 108.309C81.3437 112.15 82.6242 115.352 83.9046 117.512C85.105 119.513 86.2254 120.553 87.1058 120.553H87.1858C88.6263 120.393 91.2672 116.712 92.3076 103.747L94.7085 102.867Z" fill="#888888"/>
</svg>
