<svg width="150" height="150" viewBox="0 0 150 150" fill="none" xmlns="http://www.w3.org/2000/svg">
<path d="M150 0H0V150H150V0Z" fill="#D1D1D1"/>
<path d="M100.8 117.2C103.8 122.1 107.8 125.8 114.7 125.8C120.5 125.8 124.3 122.9 124.3 118.8C124.3 114 120.5 112.3 114 109.4L110.5 107.9C100.3 103.6 93.6 98.1 93.6 86.7C93.6 76.1 101.7 68.1 114.2 68.1C123.2 68.1 129.6 71.2 134.2 79.4L123.2 86.4C120.8 82.1 118.2 80.4 114.1 80.4C110 80.4 107.4 83 107.4 86.4C107.4 90.6 110 92.3 116.1 95L119.6 96.5C131.6 101.6 138.3 106.9 138.3 118.6C138.3 131.3 128.3 138.2 114.9 138.2C101.8 138.2 93.4 132 89.2 123.8L100.8 117.2ZM51 118.4C53.2 122.3 55.2 125.7 60.1 125.7C64.7 125.7 67.7 123.9 67.7 116.8V68.9H81.8V117C81.8 131.6 73.2 138.2 60.8 138.2C49.5 138.2 43 132.4 39.7 125.3L51 118.4Z" fill="black"/>
</svg>
