<svg width="150" height="150" viewBox="0 0 150 150" fill="none" xmlns="http://www.w3.org/2000/svg">
<path d="M19.1 53L38.2 63.8V85.4L19.1 96.1L0 85.3V63.8L19.1 53Z" fill="white"/>
<path d="M34.7 84.6L19.7 93.1V86.5L29.1 81.4L34.7 84.6ZM35.7 83.7V65.9L30.2 69.1V80.5L35.7 83.7ZM3.29999 84.6L18.3 93.1V86.5L8.99999 81.3L3.29999 84.6ZM2.29999 83.7V65.9L7.79999 69.1V80.5L2.29999 83.7ZM2.99999 64.7L18.4 56V62.4L8.49999 67.8H8.39999L2.99999 64.7ZM35.1 64.7L19.7 56V62.4L29.6 67.8H29.7L35.1 64.7Z" fill="#C4C4C4"/>
<path d="M18.4 85L9.20001 79.9V69.8L18.4 75.1V85ZM19.7 85L28.9 79.9V69.8L19.7 75.1V85ZM9.80001 68.7L19.1 63.6L28.4 68.7L19 74L9.80001 68.7Z" fill="#646464"/>
<path d="M57.3 81.4H61.4L65.5 67.6H61.5L59 77.4L56.4 67.6H53L50.4 77.4L48 67.6H44L48.1 81.4H52.2L54.8 72.6L57.3 81.4ZM65.7 74.5C65.7 78.6 68.5 81.7 73 81.7C76.4 81.7 78.3 79.6 78.8 78.7L76.4 76.9C76 77.5 74.9 78.6 73 78.6C71 78.6 69.5 77.3 69.4 75.4H79.1C79.1 75.1 79.1 74.9 79.1 74.6C79.1 70.1 76.7 67.2 72.4 67.2C68.6 67.2 65.7 70.3 65.7 74.5ZM69.6 73C69.8 71.4 70.9 70.2 72.6 70.2C74.3 70.2 75.5 71.3 75.6 73H69.6ZM80.6 81.4H84V80C84.4 80.4 85.7 81.8 88.1 81.8C92.1 81.8 94.9 78.8 94.9 74.6C94.9 70.3 92.3 67.3 88.4 67.3C86 67.3 84.7 68.6 84.3 69.1V62.3H80.7L80.6 81.4ZM84.1 74.5C84.1 71.9 85.6 70.4 87.6 70.4C89.7 70.4 91.1 72.1 91.1 74.5C91.1 77 89.6 78.5 87.6 78.5C85.4 78.5 84.1 76.7 84.1 74.5ZM96.3 86.3H99.9V79.9C100.2 80.3 101.6 81.7 104 81.7C108 81.7 110.5 78.7 110.5 74.4C110.5 70.2 107.7 67.2 103.7 67.2C101.4 67.2 100 68.5 99.6 69V67.5H96.2L96.3 86.3ZM99.8 74.4C99.8 72.2 101.1 70.4 103.3 70.4C105.4 70.4 106.8 71.9 106.8 74.4C106.8 76.8 105.4 78.5 103.3 78.5C101.3 78.5 99.8 77 99.8 74.4ZM111.2 77.1C111.2 80 113.6 81.7 116.4 81.7C118 81.7 119 81.2 119.8 80.5L120 81.4H123.2V72.7C123.2 69.6 121.9 67.3 117.4 67.3C115.3 67.3 113.2 68.1 112 68.9L113.4 71.4C114.4 70.9 115.7 70.4 117.1 70.4C118.7 70.4 119.6 71.2 119.6 72.4V73.3C119.1 73 118 72.5 116.6 72.5C113.3 72.5 111.2 74.4 111.2 77.1ZM114.8 77C114.8 75.9 115.8 75.1 117.2 75.1C118.6 75.1 119.6 75.8 119.6 77C119.6 78.2 118.6 78.9 117.2 78.9C115.9 78.9 114.8 78.1 114.8 77ZM132 78.5C129.7 78.5 128.1 76.8 128.1 74.5C128.1 72.3 129.6 70.5 131.9 70.5C133.5 70.5 134.5 71.3 135.1 71.8L136.1 68.7C135.2 68 133.8 67.2 131.7 67.2C127.5 67.2 124.4 70.3 124.4 74.5C124.4 78.7 127.5 81.7 131.8 81.7C133.8 81.7 135.3 80.9 136.1 80.2L135.1 77.2C134.5 77.8 133.4 78.5 132 78.5ZM137.5 81.4H141.1V74.3L145.7 81.4H150L144.8 73.9L149.7 67.6H145.6L141.2 73.4V62.3H137.6L137.5 81.4Z" fill="#1B1B1B"/>
</svg>
