<svg width="150" height="150" viewBox="0 0 150 150" fill="none" xmlns="http://www.w3.org/2000/svg">
<path d="M75.3 0L141.6 37.5V112.5L75.3 150L9 112.5V37.5L75.3 0Z" fill="white"/>
<path d="M129.7 109.9L77.4 139.5V116.5L110 98.5L129.7 109.9ZM133.3 106.7V44.9L114.2 55.9V95.6L133.3 106.7ZM20.6 109.9L72.9 139.5V116.5L40.3 98.5L20.6 109.9ZM17.1 106.7V44.9L36.2 55.9V95.6L17.1 106.7ZM19.3 40.9L72.9 10.6V32.9L38.5 51.7L38.2 51.9C38.3 51.8 19.3 40.9 19.3 40.9ZM131.1 40.9L77.5 10.5V32.8L111.8 51.7L112.1 51.9L131.1 40.9Z" fill="#C4C4C4"/>
<path d="M72.9 111.2L40.8 93.5V58.5L72.9 77.1V111.2V111.2ZM77.5 111.2L109.6 93.5V58.5L77.5 77.1V111.2ZM42.9 54.5L75.2 36.8L107.5 54.5L75.2 73.1L42.9 54.5Z" fill="#646464"/>
</svg>
