<svg width="150" height="150" viewBox="0 0 150 150" fill="none" xmlns="http://www.w3.org/2000/svg">
<path d="M15.5 60.2C19 60.2 21.5 62.6 21.5 66.2V73.9C21.5 77.4 19.1 79.9 15.5 79.9H6.1V90.6H0V60.2H15.5ZM18.9 66.7C18.9 64.1 17.4 62.6 14.8 62.6H2.6V88H3.4V77.4H14.7C17.3 77.4 18.8 75.9 18.8 73.3V66.7H18.9ZM14.7 63.5C16.8 63.5 18 64.7 18 66.8V73.3C18 75.4 16.8 76.6 14.7 76.6H3.5V63.5H14.7ZM14 74.1C14.9 74.1 15.4 73.6 15.4 72.7V67.3C15.4 66.4 14.9 65.9 14 65.9H6.1V74.1H14Z" fill="#757575"/>
<path d="M28.1 90.5H21.8L31.6 60.2H38.7L48.5 90.5H42L40 83.7H30.2L28.1 90.5ZM44.8 88L37.1 62.6H33.2L25.3 88H26.1L28.2 81.2H42L44 88H44.8ZM33.7 63.5L28.4 80.4H41.7L36.6 63.5H33.7ZM35.1 66.8L38.3 77.9H31.8L35.1 66.8Z" fill="#757575"/>
<path d="M68.3 90.5L63.4 79.3H58.5V90.5H52.4V60.2H67.9C71.4 60.2 73.9 62.6 73.9 66.2V73.3C73.9 76.2 72.3 78.3 69.8 79L74.9 90.5H68.3ZM70.9 88L66 76.8H67.1C69.7 76.8 71.2 75.3 71.2 72.7V66.7C71.2 64.1 69.7 62.6 67.1 62.6H55V88H55.8V76.8H65.1L70 88H70.9ZM70.4 72.7C70.4 74.8 69.2 76 67.1 76H55.9V63.5H67.1C69.2 63.5 70.4 64.7 70.4 66.8V72.7V72.7ZM66.4 73.6C67.3 73.6 67.8 73.1 67.8 72.2V67.3C67.8 66.4 67.3 65.9 66.4 65.9H58.5V73.6H66.4Z" fill="#757575"/>
<path d="M94.6 67.2C94.6 66.3 94.1 65.8 93.2 65.8H86.6C85.7 65.8 85.2 66.3 85.2 67.2V83.5C85.2 84.4 85.7 84.9 86.6 84.9H93.2C94.1 84.9 94.6 84.4 94.6 83.5V79.8H100.7V84.7C100.7 88.2 98.3 90.7 94.7 90.7H85.1C81.6 90.7 79.1 88.3 79.1 84.7V66C79.1 62.5 81.5 60 85.1 60H94.7C98.2 60 100.7 62.4 100.7 66V70.9H94.6V67.2ZM93.9 63.3C96 63.3 97.2 64.5 97.2 66.6V68.5H98V66.6C98 64 96.5 62.5 93.9 62.5H85.8C83.2 62.5 81.7 64 81.7 66.6V84.1C81.7 86.7 83.2 88.2 85.8 88.2H93.9C96.5 88.2 98 86.7 98 84.1V82.2H97.2V84.1C97.2 86.2 96 87.4 93.9 87.4H85.8C83.7 87.4 82.5 86.2 82.5 84.1V66.6C82.5 64.5 83.7 63.3 85.8 63.3H93.9Z" fill="#757575"/>
<path d="M125.9 60.2V65.9H112.1V72.1H123.3V77.8H112.1V84.7H125.9V90.4H106V60.2H125.9ZM123.3 88V87.2H109.5V75.4H120.7V74.6H109.5V63.5H123.3V62.6H108.7V88H123.3Z" fill="#757575"/>
<path d="M137.3 60.2V84.8H150V90.5H131.2V60.2H137.3ZM147.4 88V87.2H134.7V62.6H133.9V88H147.4Z" fill="#757575"/>
</svg>
