<svg width="150" height="150" viewBox="0 0 150 150" fill="none" xmlns="http://www.w3.org/2000/svg">
<path d="M33.7885 103.4C48.9211 103.4 61.1885 91.1326 61.1885 76C61.1885 60.8674 48.9211 48.6 33.7885 48.6C18.6559 48.6 6.38851 60.8674 6.38851 76C6.38851 91.1326 18.6559 103.4 33.7885 103.4Z" fill="black"/>
<path d="M143.389 57.4H42.2885C38.7885 57.4 35.9885 60.2 35.9885 63.7V88.3C35.9885 91.8 38.7885 94.6 42.2885 94.6H143.389C146.889 94.6 149.689 91.8 149.689 88.3V63.7C149.689 60.3 146.889 57.4 143.389 57.4Z" fill="black"/>
<path d="M31.8885 73.6C31.9885 73.6 32.2885 73.9 32.4885 74C32.6885 74.1 32.9885 74.1 32.9885 74.1C32.5885 73.8 32.2885 73.7 31.8885 73.6C31.9885 73.6 31.9885 73.5 31.8885 73.6Z" fill="#101010"/>
<path d="M40.6885 55.1C40.9885 55.2 41.6885 54.8 42.0885 54.5C42.1885 54.5 42.1885 54.4 42.2885 54.4C42.1885 54.1 42.2885 53.7 42.2885 53C42.2885 52.7 42.2885 52.3 42.1885 51.9C41.7885 52.3 41.2885 52.7 40.8885 52.9C40.5885 53 40.0885 53 39.3885 53C38.6885 53 37.8885 53 37.5885 52.8C37.2885 52.5 36.8885 52.1 36.4885 51.7C36.4885 51.8 36.4885 51.9 36.4885 51.9C36.4885 52.4 36.3885 52.6 36.2885 53C36.2885 53.1 36.5885 53.4 36.9885 53.9C37.8885 54.5 39.9885 55 40.6885 55.1Z" fill="#EFEFEF"/>
<path d="M51.8885 67C51.5885 65.9 50.6885 65.8 49.2885 66.6C49.8885 65.7 50.5885 65.7 50.6885 65.3C51.1885 63.8 50.2885 62.4 49.9885 62C50.4885 60.9 50.8885 59.2 49.3885 57.8C48.7885 57.2 47.8885 57.1 47.1885 57.1C48.2885 58.2 49.2885 59.8 48.6885 61.5C48.5885 61.7 48.1885 61.9 47.6885 62.1C47.6885 62.1 47.9885 63.3 47.4885 64.3C47.2885 64.7 46.9885 65.2 46.6885 65.9C47.2885 66.5 47.6885 66.5 48.4885 66.7C47.8885 66.7 47.7885 66.9 47.6885 67C47.1885 69.1 48.5885 69.1 48.5885 70.3C48.5885 70.3 48.5885 70.3 48.5885 70.4C48.3885 70.6 47.6885 70.7 46.9885 70.7C46.2885 70.7 45.8885 71.3 45.8885 71.3C45.7885 71.4 45.6885 71.5 45.5885 71.6C45.5885 71.9 45.5885 72.1 45.5885 72.2C45.5885 72.5 45.7885 73.2 45.8885 73.7C46.4885 74 46.6885 74.3 47.2885 74.4C47.5885 74.5 47.8885 74.5 48.1885 74.5C48.3885 74.4 48.5885 74.3 48.7885 74.1C49.6885 73.1 49.9885 72.1 50.0885 71.6C50.0885 71.5 50.0885 71.5 50.0885 71.5C50.0885 71.5 50.0885 71.6 50.1885 71.6C51.2885 70.5 52.2885 68.6 51.8885 67Z" fill="#EFEFEF"/>
<path d="M45.4885 74.7C45.3885 74.2 45.1885 73.6 45.0885 72.8C44.9885 72.2 44.8885 71.6 44.8885 70.7C44.8885 70.7 44.8885 70.6 44.8885 70.5C44.1885 70.6 40.9885 70.9 38.3885 70.3C36.4885 69.8 35.9885 69.5 35.8885 69.4C35.8885 69.5 35.8885 69.7 35.7885 69.8C35.7885 70 35.7885 70.1 35.6885 70.3C35.6885 70.4 35.5885 70.5 35.5885 70.7C35.5885 70.7 35.5885 70.8 35.6885 70.8C35.9885 71.1 36.6885 71.6 36.6885 72.1V72.2C36.5885 72.5 36.3885 72.5 36.1885 72.8C36.0885 72.9 35.2885 73.7 35.1885 73.8C34.9885 73.9 34.8885 74 34.6885 74C34.5885 74.1 34.2885 74.3 34.1885 74.3C34.0885 74.3 34.0885 74.4 33.9885 74.4C31.8885 80.9 32.8885 83.8 33.2885 85.1C32.1885 86.5 31.3885 87.4 30.9885 88.7C30.9885 88.8 30.9885 88.8 30.9885 88.8C29.8885 92.2 30.2885 95.1 29.8885 98C30.2885 98.2 31.7885 98.6 32.7885 98.4C32.8885 98.4 32.7885 96 33.1885 94.9C33.6885 93.4 34.5885 92.2 35.0885 89.6C35.0885 89.6 35.0885 89.6 35.0885 89.5C35.0885 89.1 35.1885 88.7 35.1885 88.3C35.1885 88.2 34.7885 88.5 34.4885 88.9C34.6885 87.8 35.2885 87.6 35.7885 86.9C35.9885 86.6 36.1885 86.2 36.1885 85.6C38.5885 83.9 39.4885 81.9 40.0885 79.7C40.4885 78.2 40.9885 75.8 41.5885 75.1C41.3885 75.7 41.2885 76.2 41.1885 76.8C40.7885 79 40.7885 80.6 39.9885 82.5C40.5885 84.1 41.1885 84.9 41.2885 87.2C40.0885 87.2 39.2885 88.2 38.9885 89.2C38.9885 89.2 38.9885 89.2 39.0885 89.2C39.0885 89.2 39.1885 89.2 39.2885 89.2C40.0885 89.4 41.7885 89.5 44.2885 89.2C44.3885 88.9 44.4885 88.5 44.5885 88.3C44.7885 87.8 44.8885 87.4 44.9885 86.9C45.0885 86.1 45.0885 85.4 44.9885 84.9C46.8885 82.7 46.0885 78.2 45.4885 74.7Z" fill="#EFEFEF"/>
<path d="M46.5885 61.6C43.9885 60.3 40.9885 60.5 38.0885 61.2C37.4885 61.3 36.9885 61.5 36.2885 61.3C34.8885 60.8 33.8885 60.1 33.3885 59.6L33.2885 59.5C33.1885 59.6 33.0885 59.7 33.0885 59.9C33.2885 61.3 32.7885 62.3 32.1885 63.1C32.7885 63.8 33.7885 64.8 34.3885 65.2C34.9885 65.6 35.4885 65.6 36.4885 65.5C36.0885 65.9 35.7885 66.1 35.2885 66.4C35.2885 66.9 35.3885 67.6 35.5885 68.5C35.7885 68.7 36.2885 69 36.9885 69.3C37.8885 69.7 38.9885 70.1 39.6885 70.3C41.0885 70.6 43.8885 70.3 44.6885 70.2C44.5885 67.2 45.2885 65.7 45.8885 64.5C46.7885 63.2 46.6885 62.2 46.5885 61.6Z" fill="#EFEFEF"/>
<path d="M36.9885 50.4C37.0885 51.2 37.2885 51.7 37.6885 52.3C37.8885 52.4 37.9885 52.5 38.1885 52.5C38.8885 52.7 40.0885 52.7 40.7885 52.5C41.1885 52.4 41.6885 51.7 41.7885 51.1C41.8885 50.4 42.0885 49.8 42.0885 49.4C42.0885 49 42.1885 48 42.1885 47.7C42.2885 47.2 42.1885 46.6 42.0885 46.1C42.0885 45.9 41.9885 45.7 41.9885 45.7C41.8885 45.4 41.0885 44.8 39.2885 44.8C37.3885 44.8 36.7885 45.4 36.7885 45.7C36.7885 45.7 36.7885 45.9 36.7885 46.1C36.7885 46.5 36.6885 47.1 36.6885 47.4C36.6885 47.4 36.6885 48 36.6885 48.8C36.7885 49.4 36.8885 49.7 36.9885 50.4Z" fill="#EFEFEF"/>
<path d="M32.1885 100.3C32.3885 100.4 32.5885 100.7 32.6885 100.5C32.7885 100.2 32.3885 99.6 32.3885 99.2C32.0885 98.9 29.8885 98.9 30.0885 99C29.8885 99.5 29.4885 99.4 29.2885 100.3C29.1885 100.8 29.7885 100.4 30.2885 100.3C29.3885 100.9 28.2885 101.7 28.0885 102.4C27.8885 103.4 28.1885 103.6 29.2885 104.2C30.1885 104.4 31.2885 104.4 32.0885 104.4C32.9885 104.2 33.1885 103.8 32.8885 103.1C32.5885 102.2 32.2885 101 32.1885 100.3Z" fill="#EFEFEF"/>
<path d="M31.2885 71.3C31.0885 72.3 31.5885 72.8 32.4885 73.4C32.8885 73.7 32.4885 73.7 32.7885 73.9C33.1885 74.1 33.4885 74.2 33.8885 74C33.9885 73.9 34.1885 73.8 34.2885 73.7C34.3885 73.6 34.8885 73.2 34.9885 73.1C35.0885 73 35.3885 72.7 35.4885 72.5C35.6885 72.3 35.8885 72 35.8885 71.9C35.9885 71.5 35.3885 71.2 35.0885 70.8C34.4885 70.3 33.5885 70 32.6885 70C31.1885 68.4 30.5885 66.9 30.0885 65.8C29.5885 64.5 28.8885 63.8 27.6885 62.8C28.2885 63.1 28.7885 63.3 29.0885 63.5C29.3885 63.7 29.8885 63.7 30.2885 63.6C31.7885 63.1 32.5885 61 32.6885 59.7C32.7885 59.5 33.0885 59.1 33.1885 58.9C33.2885 59 33.4885 59.1 33.6885 59.3C34.1885 59.7 34.8885 60.2 35.4885 60.5C36.2885 60.9 36.8885 61 38.7885 60.4C40.0885 60 41.7885 59.9 42.9885 59.9C44.1885 59.9 45.2885 60.2 46.2885 60.7C46.7885 60.9 47.6885 61.5 47.8885 60.5C47.9885 59.3 47.4885 58.1 46.8885 57.3C46.8885 57.3 46.7885 57.3 46.7885 57.2C46.6885 57 45.5885 56.3 45.1885 56.1C45.0885 56.1 44.9885 56 44.8885 56C44.8885 56 44.8885 56 44.7885 56C44.6885 56 44.4885 55.9 44.2885 55.8H44.1885C44.0885 55.7 43.9885 55.7 43.7885 55.7C43.6885 55.7 43.5885 55.7 43.3885 55.7C43.1885 55.7 43.0885 55.7 42.9885 55.8C42.5885 55.9 42.1885 56 41.9885 56.1C41.5885 56.2 41.1885 56.3 40.6885 56.3C40.3885 56.3 40.0885 56.3 39.7885 56.2C39.3885 56.1 38.9885 56 38.7885 55.9C37.9885 55.7 37.5885 55.6 36.5885 55.6C36.3885 55.6 36.1885 55.7 35.9885 55.7C35.3885 55.7 34.5885 55.7 33.9885 55.7C33.4885 55.6 33.0885 55.5 32.7885 55.4C32.6885 55.4 32.5885 55.3 32.5885 55.3C31.9885 55.1 31.2885 55.1 30.2885 55.3C28.6885 55.6 27.1885 56.7 27.1885 58.3C27.1885 58.4 28.2885 58.7 28.5885 60C28.0885 59.3 27.1885 58.4 26.0885 59.2C24.9885 59.9 25.4885 61.6 23.9885 63.4C23.4885 64 23.5885 64.7 24.0885 66.1C24.9885 68.3 29.0885 69.4 31.4885 71.4C31.3885 71.2 31.3885 71.2 31.2885 71.3Z" fill="#EFEFEF"/>
<path d="M31.1885 64C30.7885 64.2 30.4885 64.4 30.2885 64.5C31.1885 65.9 30.6885 66.9 32.9885 69.6C33.2885 69.6 33.9885 69.7 34.5885 69.9C34.5885 69.6 34.5885 69.4 34.6885 69.1H34.7885C34.5885 68 34.4885 67.3 34.2885 66.5C33.1885 65.8 32.1885 65.1 31.1885 64Z" fill="#A3A3A3"/>
<path d="M31.7885 74C31.7885 73.9 31.7885 73.8 31.7885 73.8C31.7885 73.7 31.8885 73.6 31.8885 73.6C31.8885 73.5 31.5885 73.3 31.5885 73.3C31.1885 72.9 30.8885 72.6 30.8885 72C30.8885 71.9 30.8885 71.6 30.8885 71.5C30.8885 71.4 30.6885 71.3 30.5885 71.3C30.3885 71.1 30.0885 71 29.8885 70.8C29.4885 70.5 28.9885 70.3 28.4885 70C26.7885 69.1 24.6885 68.5 23.4885 66.9C23.0885 66.4 22.8885 65.9 22.6885 65.4C22.4885 64.8 22.1885 64.1 22.3885 63.5C21.8885 63.7 21.2885 63.9 20.7885 64.1C20.0885 64.4 19.4885 64.7 18.7885 65C17.0885 65.8 15.3885 66.7 13.7885 67.5C12.8885 68 11.8885 68.5 10.9885 69C11.8885 70 12.3885 71.3 12.7885 72.5C13.0885 73.8 13.1885 75.1 13.3885 76.4C13.5885 77.6 14.0885 78.9 14.8885 79.8C15.6885 80.8 16.8885 81.5 18.1885 81.8C19.5885 82.2 20.9885 82.2 22.3885 82.2C23.7885 82.2 25.1885 82.4 26.3885 82.9C27.6885 83.5 28.7885 84.4 29.5885 85.5C29.7885 85.8 29.9885 86 30.1885 86.2C30.2885 86.3 30.4885 86.4 30.5885 86.4C30.5885 86.4 30.6885 86.5 30.7885 86.5C30.8885 86.5 30.8885 86.5 30.9885 86.4C31.1885 86.1 31.3885 85.8 31.6885 85.6C31.7885 85.5 31.8885 85.3 31.9885 85.2C32.0885 85.1 32.0885 85 32.1885 85C32.1885 84.9 32.1885 84.7 32.1885 84.6C31.4885 81.2 32.2885 77.7 33.3885 74.5C32.6885 74.6 32.1885 74.4 31.7885 74Z" fill="#A3A3A3"/>
<path d="M23.2885 62C23.4885 61.6 23.6885 61.1 23.8885 60.4C24.4885 58.2 25.6885 58.2 26.1885 58.1C26.1885 57.4 26.4885 56.8 26.7885 56.3C21.3885 57.8 15.6885 59.7 9.48851 63.5C6.88851 65.1 1.48851 68.7 0.48851 75.5C1.98851 73.8 4.28851 71.9 7.18851 70.1C7.18851 70.1 7.28851 70.1 7.28851 70C8.08851 69.5 8.98851 69 9.88851 68.5C11.2885 67.7 12.7885 66.9 14.1885 66.2C18.5885 64.1 22.5885 62.3 23.2885 62Z" fill="#A3A3A3"/>
<path d="M50.9885 102.6C50.9885 102.5 50.8885 102.5 50.7885 102.4C50.2885 102.1 48.2885 101.7 47.3885 101C46.5885 100.4 44.1885 99.3 44.0885 99V98.9C43.9885 98 43.9885 95.4 44.0885 94C44.0885 93.8 44.0885 93.6 44.1885 93.5C44.3885 92.4 44.5885 90.8 44.6885 90.4C44.7885 90.1 44.9885 89.8 44.7885 89.7C44.6885 89.7 44.6885 89.7 44.4885 89.7C43.8885 89.8 41.6885 90.2 39.9885 90C38.8885 89.9 38.3885 89.7 38.1885 89.7C38.1885 89.7 38.1885 89.7 38.0885 89.7C37.9885 89.7 37.9885 89.7 37.9885 89.7C37.7885 90 37.9885 91.4 38.3885 92.7C38.5885 93.4 38.8885 93.9 39.1885 94.6C39.3885 95.1 39.5885 95.8 39.6885 96.6C39.6885 96.7 39.6885 96.8 39.6885 96.9C39.7885 98.6 39.8885 99.1 39.5885 100C39.4885 100.2 39.3885 100.4 39.2885 100.6C38.9885 101.3 38.7885 101.9 38.9885 102.4C38.9885 102.4 38.9885 102.4 38.9885 102.5C39.1885 102.7 39.4885 102.9 39.9885 103C40.1885 103 40.3885 103 40.5885 103C42.6885 103 43.7885 103 45.8885 103.3C47.4885 103.5 48.2885 103.6 49.0885 103.6C49.3885 103.6 49.5885 103.6 49.8885 103.5C50.5885 103.4 50.9885 103.2 50.9885 103C51.0885 102.8 51.0885 102.7 50.9885 102.6Z" fill="#A3A3A3"/>
<path d="M43.4885 55.3C43.8885 55.3 44.1885 55.5 44.4885 55.6C44.6885 55.7 44.9885 55.7 45.1885 55.8C45.6885 56 46.2885 56.3 46.5885 56.7C47.1885 56.6 47.6885 56.6 47.9885 56.6C47.8885 56.3 47.7885 55.8 46.8885 56.2C46.4885 55.8 46.3885 55.4 45.5885 55.7C45.5885 55.6 45.4885 55.5 45.3885 55.4C45.2885 55.3 45.1885 55.2 45.0885 55.1C44.5885 54.5 43.4885 54.1 42.5885 54.6C42.0885 54.9 41.0885 55.5 40.4885 55.4C39.8885 55.3 37.8885 54.8 36.6885 54.3H36.5885C36.1885 53.9 35.5885 53.6 34.4885 53.5C33.9885 53.5 33.6885 53.9 33.2885 54.1C33.4885 54.3 33.6885 54.6 33.6885 54.8C33.3885 54.4 32.7885 54 32.2885 53.9C31.7885 53.8 31.3885 54.2 30.8885 54.4C31.4885 54.4 32.0885 54.5 32.5885 54.7C32.6885 54.8 32.8885 54.8 32.9885 54.9C34.0885 55.3 35.3885 55.2 35.9885 55.2C35.9885 55.2 36.1885 55.2 36.3885 55.1C36.4885 55.1 36.4885 55.1 36.4885 55.1C37.9885 55 38.3885 55.3 39.8885 55.7C41.3885 56.1 41.7885 55.5 43.4885 55.3Z" fill="#A3A3A3"/>
<path d="M51.0885 101.9C50.1885 101.4 49.1885 101.2 48.2885 100.7C47.6885 100.4 47.0885 100.1 46.4885 99.7C46.1885 99.5 45.8885 99.3 45.5885 99.1C45.3885 99 45.0885 98.8 44.8885 98.6C44.6885 98.3 44.6885 97.8 44.6885 97.5C44.6885 96.8 44.6885 96.2 44.6885 95.5C44.6885 94.1 44.8885 92.8 45.1885 91.5C45.2885 90.9 45.4885 90.2 45.4885 89.6C45.4885 89.1 45.1885 89.1 44.7885 89.1C44.8885 88.7 44.8885 88.4 44.9885 88C45.0885 87.6 45.2885 87.3 45.3885 87C45.5885 86.5 45.5885 85.9 45.5885 85.4C45.5885 85.3 45.4885 85.1 45.4885 85C45.4885 84.9 45.4885 84.9 45.5885 84.7C45.8885 84.3 46.0885 83.9 46.1885 83.4C46.8885 81.4 46.7885 79.2 46.4885 77.1C46.3885 76.2 46.1885 75.3 45.9885 74.5C46.5885 74.8 47.1885 75 47.7885 75C47.8885 75 48.2885 75.1 48.3885 75C49.2885 74.5 49.8885 73.5 50.1885 72.6C50.2885 72.5 50.2885 72.3 50.2885 72.2C50.3885 72.1 50.4885 72 50.5885 71.8C51.0885 71.3 51.3885 70.8 51.7885 70.2C52.3885 69.1 52.5885 67.8 52.0885 66.6C51.9885 66.3 51.7885 66 51.5885 65.8C51.4885 65.7 51.3885 65.6 51.2885 65.5C51.1885 65.4 51.0885 65.4 51.0885 65.3C50.9885 65.3 50.9885 65.2 51.0885 65.1C51.0885 65 51.0885 65 51.1885 64.9C51.3885 64.2 51.2885 63.5 51.0885 62.9C50.9885 62.7 50.8885 62.4 50.6885 62.2C50.6885 62.2 50.5885 62.1 50.4885 62C50.4885 61.9 50.5885 61.7 50.5885 61.6C50.6885 61.1 50.7885 60.5 50.6885 59.9C50.5885 59.2 50.2885 58.6 49.8885 58C49.6885 57.7 49.3885 57.5 49.1885 57.3C48.8885 57.1 48.3885 57 48.1885 56.7C47.8885 56.3 47.6885 55.8 47.0885 55.9C47.0885 55.9 46.9885 55.9 46.8885 55.9C46.7885 55.9 46.7885 55.9 46.6885 55.8C46.5885 55.7 46.5885 55.6 46.4885 55.6C46.2885 55.4 46.0885 55.4 45.8885 55.4C45.7885 55.4 45.5885 55.5 45.4885 55.5C45.3885 55.5 45.3885 55.3 45.3885 55.3C45.1885 55 44.8885 54.8 44.5885 54.6C44.2885 54.4 43.9885 54.3 43.5885 54.2C43.3885 54.2 43.1885 54.2 42.9885 54.2C42.8885 54.2 42.5885 54.3 42.4885 54.3C42.6885 54 42.7885 53.5 42.7885 53.4C42.7885 53 42.7885 52.6 42.7885 52.2C42.7885 51.6 42.7885 51 42.8885 50.3C42.9885 49.1 43.1885 47.8 43.1885 46.6C43.1885 46.1 43.0885 45.4 42.7885 45C42.5885 44.7 42.1885 44.5 41.7885 44.4C40.7885 44 39.6885 44 38.7885 44C37.9885 44.1 36.9885 44.2 36.3885 44.8C36.1885 45 36.0885 45.4 36.0885 45.7C35.9885 46.3 35.9885 46.9 35.8885 47.5C35.8885 48.6 35.9885 49.7 36.1885 50.7C36.2885 51 36.1885 51.3 36.1885 51.6C36.1885 51.8 36.0885 52 36.0885 52.3C36.0885 52.5 36.0885 52.8 35.9885 52.9C35.8885 53.1 35.4885 53.1 35.2885 53.2C35.0885 53.3 34.9885 53.3 34.7885 53.2C34.5885 53.1 34.3885 53.1 34.1885 53.1C33.8885 53.2 33.6885 53.4 33.3885 53.5C33.2885 53.6 33.0885 53.7 32.9885 53.7C32.8885 53.7 32.7885 53.6 32.6885 53.6C32.3885 53.5 32.0885 53.4 31.8885 53.5C31.5885 53.6 31.2885 53.9 30.9885 54.1C30.8885 54.1 30.7885 54.2 30.7885 54.2C30.5885 54.2 30.6885 54.2 30.5885 54.2C30.4885 54.2 30.3885 54.1 30.1885 54.1C29.8885 54.1 29.5885 54.2 29.2885 54.4C28.9885 54.6 28.6885 54.7 28.3885 55C28.0885 55.3 27.5885 55.3 27.1885 55.4C24.2885 56.2 21.3885 57.2 18.5885 58.3C16.9885 58.9 15.4885 59.6 13.8885 60.4C11.5885 61.6 9.08851 62.9 6.98851 64.5C4.68851 66.2 2.78851 68.6 1.48851 71.1C0.888512 72.3 0.388512 73.5 0.188512 74.8C0.0885116 75.1 -0.311488 77.1 0.488512 77C0.788512 77 0.988512 76.6 1.08851 76.5C1.38851 76.2 1.68851 76 1.88851 75.7C2.68851 75 3.58851 74.3 4.38851 73.6C5.28851 72.9 6.18851 72.3 7.08851 71.6C7.68851 71.2 8.28851 70.9 8.88851 70.6C8.98851 70.5 9.18851 70.4 9.28851 70.3C9.38851 70.2 9.58851 70.1 9.68851 70C9.78851 70 10.0885 69.7 10.1885 69.7C10.3885 69.7 10.6885 70.2 10.7885 70.3C10.9885 70.5 11.1885 70.8 11.2885 71.1C11.8885 72.3 12.1885 73.6 12.3885 74.9C12.5885 76.3 12.6885 77.6 13.2885 78.9C13.7885 79.9 14.4885 80.8 15.3885 81.5C16.2885 82.2 17.2885 82.7 18.3885 83C19.6885 83.3 20.8885 83.4 22.1885 83.4C24.2885 83.5 26.4885 83.9 28.0885 85.4C28.8885 86.1 29.3885 87.3 30.4885 87.7C29.4885 89.5 29.4885 91.7 29.4885 93.7C29.4885 94.7 29.4885 95.6 29.4885 96.6C29.4885 97.3 29.4885 98 29.3885 98.7C29.2885 99.1 28.9885 99.5 28.8885 99.9C28.7885 100.4 28.6885 100.8 28.3885 101.2C28.0885 101.6 27.8885 102 27.6885 102.5C27.4885 103.3 27.5885 104.1 28.2885 104.6C28.8885 105 29.6885 105.3 30.4885 105.4C31.3885 105.5 32.2885 105.4 33.0885 105.2C33.4885 105.1 33.8885 104.9 33.9885 104.4C34.0885 103.8 33.8885 103.2 33.7885 102.7C33.6885 102.3 33.5885 102 33.5885 101.6C33.5885 101.3 33.6885 101 33.6885 100.6C33.6885 100.4 33.5885 100.2 33.5885 100C33.5885 99.9 33.4885 99.7 33.4885 99.6C33.4885 99.5 33.4885 99.5 33.5885 99.4C33.6885 99.2 33.6885 99 33.6885 98.9C33.7885 98.3 33.6885 97.6 33.7885 97C33.7885 96.6 33.8885 96.2 33.9885 95.8C34.0885 95.4 34.2885 95.1 34.3885 94.7C34.5885 94.2 34.7885 93.6 35.0885 93.1C35.2885 92.7 35.5885 92.2 35.6885 91.7C35.8885 91 36.0885 90.3 36.1885 89.6C36.1885 89.4 36.1885 89.1 36.1885 88.9C36.1885 88.8 36.1885 88.6 36.1885 88.5C36.1885 88.4 36.0885 88.1 36.1885 88C36.1885 87.9 36.2885 87.8 36.3885 87.8C36.4885 87.7 36.5885 87.5 36.6885 87.4C36.7885 87.2 36.8885 87.1 36.8885 86.9C36.8885 86.8 36.8885 86.5 36.9885 86.4C37.0885 86.3 37.2885 86.2 37.2885 86.2C37.8885 85.8 38.3885 85.3 38.7885 84.8C39.0885 84.4 39.3885 84 39.6885 83.5C39.8885 84.1 40.0885 84.7 40.1885 85.3C40.2885 85.6 40.2885 85.8 40.2885 86.1C40.2885 86.2 40.2885 86.3 40.2885 86.5C40.2885 86.7 40.1885 86.7 40.0885 86.9C39.3885 87.5 38.5885 88.2 38.3885 89.2C37.4885 88.8 37.4885 89.8 37.5885 90.4C37.5885 91.4 37.7885 92.4 38.0885 93.3C38.1885 93.8 38.4885 94.3 38.6885 94.8C38.8885 95.4 39.0885 96 39.1885 96.6C39.2885 97.3 39.3885 97.9 39.2885 98.6C39.1885 99.2 38.9885 99.8 38.7885 100.4C38.5885 101.1 38.2885 101.7 38.4885 102.4C38.7885 103.3 39.5885 103.5 40.4885 103.6C42.5885 103.8 44.6885 103.6 46.6885 103.8C48.0885 104 49.5885 104.3 50.8885 103.8C51.2885 103.7 51.7885 103.4 51.9885 102.9C51.7885 102.4 51.4885 102.1 51.0885 101.9ZM32.7885 73.9C32.6885 73.8 32.6885 73.8 32.6885 73.7C32.6885 73.5 32.5885 73.5 32.3885 73.4C32.0885 73.2 31.7885 72.9 31.4885 72.6C31.2885 72.3 31.1885 72 31.1885 71.6C31.1885 71.5 31.1885 71.4 31.1885 71.3C31.1885 71.2 31.1885 71.2 31.1885 71.1C31.0885 70.9 30.7885 70.8 30.6885 70.7C29.2885 69.7 27.7885 69 26.3885 68.2C25.7885 67.8 25.0885 67.4 24.5885 66.9C24.0885 66.4 23.7885 65.7 23.5885 65C23.3885 64.4 23.2885 63.7 23.7885 63.2C24.3885 62.5 24.7885 61.7 24.9885 60.8C25.1885 60.1 25.3885 59.3 26.0885 58.9C26.9885 58.4 27.8885 59.1 28.3885 59.9C28.1885 59.2 27.7885 58.7 27.1885 58.3C26.9885 58.2 26.9885 58.1 26.9885 57.8C27.0885 57.4 27.1885 57 27.4885 56.7C27.9885 56 28.7885 55.5 29.5885 55.3C30.3885 55 31.3885 54.9 32.2885 55.1C32.4885 55.1 32.6885 55.3 32.7885 55.3C33.0885 55.4 33.2885 55.5 33.5885 55.5C34.0885 55.6 34.6885 55.6 35.2885 55.6C35.7885 55.6 36.3885 55.5 36.8885 55.5C37.2885 55.5 37.7885 55.6 38.1885 55.7C39.0885 55.9 40.0885 56.3 41.0885 56.2C41.5885 56.1 41.9885 56 42.4885 55.8C42.9885 55.7 43.4885 55.5 43.9885 55.7C44.6885 55.9 45.2885 56.2 45.8885 56.6C46.1885 56.8 46.3885 56.9 46.6885 57.2C46.9885 57.5 47.1885 57.8 47.3885 58.1C47.5885 58.6 47.7885 59.1 47.8885 59.6C47.9885 60 48.0885 60.6 47.7885 61C47.3885 61.5 46.4885 60.8 45.9885 60.6C43.9885 59.8 41.7885 59.8 39.6885 60.2C38.7885 60.4 37.8885 60.7 36.8885 60.8C36.2885 60.8 35.7885 60.6 35.1885 60.3C34.7885 60.1 34.3885 59.8 33.9885 59.5C33.7885 59.4 33.5885 59.2 33.3885 59.1C33.2885 59 33.1885 58.9 33.0885 58.9C32.9885 59 32.8885 59.3 32.7885 59.4C32.6885 59.5 32.6885 59.6 32.6885 59.8C32.6885 60.2 32.5885 60.5 32.4885 60.9C32.0885 62.2 30.6885 64.4 29.0885 63.4C28.6885 63.1 28.1885 63 27.7885 62.8C28.6885 63.5 29.4885 64.3 29.9885 65.3C30.4885 66.2 30.7885 67.2 31.3885 68.1C31.7885 68.7 32.1885 69.2 32.5885 69.7C32.6885 69.9 32.7885 69.9 32.9885 70C33.0885 70 33.2885 70 33.3885 70C33.6885 70 34.0885 70.1 34.3885 70.2C34.9885 70.4 35.3885 70.8 35.7885 71.3C35.9885 71.4 36.1885 71.6 36.1885 71.9C36.1885 72.1 35.8885 72.4 35.7885 72.6C35.4885 73 35.0885 73.3 34.6885 73.6C34.4885 73.7 34.2885 73.9 34.0885 74C33.5885 74.2 33.1885 74 32.7885 73.9ZM32.9885 74.1C32.4885 74.1 32.3885 73.7 31.9885 73.5C32.0885 73.5 32.8885 74 32.9885 74.1ZM34.6885 69.1C34.6885 69.4 34.5885 69.6 34.5885 69.9C34.1885 69.8 33.7885 69.7 33.2885 69.6C33.1885 69.6 32.9885 69.6 32.9885 69.6C32.7885 69.5 32.5885 69.1 32.4885 69C32.0885 68.4 31.6885 67.8 31.3885 67.1C30.9885 66.2 30.8885 65.3 30.2885 64.5C30.5885 64.4 30.8885 64.2 31.0885 64.1C31.1885 64 31.1885 64 31.2885 64.1C31.3885 64.2 31.3885 64.2 31.4885 64.3C31.5885 64.4 31.7885 64.6 31.8885 64.7C32.3885 65.2 32.8885 65.6 33.4885 66C33.6885 66.2 34.0885 66.3 34.2885 66.5C34.3885 66.7 34.4885 67.1 34.4885 67.3C34.5885 67.9 34.6885 68.5 34.7885 69.2C34.6885 69.1 34.6885 69.1 34.6885 69.1ZM35.6885 68.3C35.5885 67.7 35.4885 67 35.3885 66.4C35.3885 66.2 35.3885 66.2 35.4885 66.1C35.5885 66 35.6885 66 35.8885 65.9C36.1885 65.7 36.3885 65.5 36.5885 65.3C35.8885 65.4 35.2885 65.4 34.5885 65.1C33.9885 64.8 33.3885 64.2 32.8885 63.7C32.7885 63.6 32.5885 63.4 32.4885 63.3C32.3885 63.2 32.2885 63.1 32.2885 63.1C32.1885 63 32.1885 63 32.2885 62.9C32.4885 62.6 32.6885 62.3 32.7885 62C32.8885 61.6 32.9885 61.2 33.0885 60.8C33.0885 60.6 33.0885 60.4 33.0885 60.2C33.0885 60.1 32.9885 60 33.0885 59.9C33.0885 59.8 33.2885 59.6 33.2885 59.5C33.7885 60.3 34.8885 60.8 35.7885 61.2C36.3885 61.5 36.9885 61.5 37.6885 61.4C38.2885 61.3 38.8885 61.1 39.5885 61C40.8885 60.8 42.1885 60.7 43.3885 60.8C43.9885 60.9 44.5885 61 45.1885 61.2C45.4885 61.3 45.7885 61.4 46.0885 61.5C46.1885 61.6 46.3885 61.6 46.4885 61.7C46.5885 61.8 46.5885 61.8 46.5885 62C46.6885 63 46.3885 64 45.8885 64.9C45.5885 65.6 45.2885 66.3 45.0885 67.1C44.9885 67.6 44.8885 68.2 44.8885 68.7C44.8885 69 44.8885 69.3 44.8885 69.6C44.8885 69.7 44.9885 70 44.8885 70.1C44.8885 70.2 44.8885 70.1 44.7885 70.2C44.4885 70.3 44.0885 70.3 43.7885 70.3C43.2885 70.3 42.7885 70.4 42.2885 70.4C41.1885 70.4 40.1885 70.4 39.1885 70.1C38.4885 69.9 37.8885 69.6 37.1885 69.3C36.7885 68.9 36.0885 68.7 35.6885 68.3ZM47.9885 70.1C47.6885 70.3 47.1885 70.2 46.8885 70.2C46.3885 70.2 46.0885 70.2 45.6885 70.5C45.7885 69.2 45.8885 67.9 46.2885 66.7C46.4885 66.9 46.7885 67 47.0885 67.1C46.7885 67.7 46.7885 68.4 47.1885 69C47.4885 69.4 47.8885 69.7 47.9885 70.1ZM49.8885 62C50.4885 62.7 50.8885 63.6 50.7885 64.5C50.7885 65 50.6885 65.3 50.2885 65.6C49.8885 65.9 49.4885 66.1 49.1885 66.6C49.6885 66.3 50.3885 66 51.0885 66.2C51.6885 66.4 51.8885 67 51.9885 67.6C52.1885 69.1 51.2885 70.6 50.3885 71.6C50.3885 71.6 50.3885 71.5 50.2885 71.5C50.1885 72 49.9885 72.5 49.7885 72.9C49.4885 73.5 48.9885 74.3 48.3885 74.5C47.7885 74.7 46.9885 74.4 46.4885 74.1C46.3885 74 46.1885 73.9 46.0885 73.8C45.9885 73.7 45.9885 73.5 45.8885 73.4C45.7885 73.1 45.7885 72.7 45.6885 72.4C45.6885 72.3 45.6885 72.2 45.6885 72.1C45.6885 72 45.5885 71.7 45.6885 71.6C45.7885 71.5 45.9885 71.3 46.0885 71.2C46.2885 71 46.3885 70.9 46.5885 70.8C46.8885 70.7 47.2885 70.7 47.5885 70.7C47.8885 70.7 48.1885 70.6 48.4885 70.5C48.6885 70.4 48.5885 70.2 48.5885 70C48.4885 69.7 48.2885 69.4 48.0885 69.1C47.7885 68.7 47.6885 68.3 47.6885 67.8C47.6885 67.6 47.6885 67.1 47.7885 66.9C47.8885 66.7 48.2885 66.7 48.4885 66.6C48.0885 66.5 47.7885 66.5 47.3885 66.3C47.2885 66.2 47.0885 66.2 46.9885 66.1C46.8885 66 46.7885 66 46.7885 65.9C46.6885 65.8 46.6885 65.8 46.6885 65.6C47.0885 64.8 47.5885 64.1 47.6885 63.2C47.6885 62.9 47.6885 62.5 47.6885 62.2V62C47.6885 61.9 48.1885 61.8 48.2885 61.7C48.6885 61.5 48.7885 61.2 48.8885 60.8C48.9885 60.4 48.8885 59.9 48.7885 59.5C48.5885 58.5 47.8885 57.6 47.1885 57C48.4885 56.9 49.6885 57.6 50.1885 58.8C50.4885 59.9 50.2885 61 49.8885 62ZM36.3885 53.1C36.4885 52.7 36.4885 52.2 36.5885 51.8C36.7885 52 37.0885 52.3 37.2885 52.5C37.4885 52.7 37.5885 52.9 37.8885 53C38.2885 53.2 38.8885 53.2 39.3885 53.2C39.8885 53.2 40.4885 53.3 40.8885 53.2C41.3885 53 41.8885 52.6 42.2885 52.2C42.2885 52.7 42.3885 53.3 42.3885 53.8C42.3885 54 42.3885 54.2 42.3885 54.4C42.3885 54.5 42.3885 54.5 42.3885 54.6C42.3885 54.7 42.3885 54.7 42.2885 54.8C41.8885 55 41.5885 55.3 41.1885 55.4C40.8885 55.5 40.5885 55.4 40.3885 55.3C39.6885 55.1 38.8885 54.9 38.1885 54.7C37.8885 54.6 37.4885 54.5 37.2885 54.3C37.0885 54.2 36.9885 53.9 36.7885 53.7C36.4885 53.3 36.3885 53.2 36.3885 53.1ZM42.0885 45.7C42.2885 46.4 42.1885 47.3 42.1885 48C42.0885 48.8 42.0885 49.5 41.8885 50.3C41.6885 51 41.5885 52.2 40.6885 52.5C39.9885 52.7 38.9885 52.7 38.2885 52.5C38.0885 52.5 37.8885 52.4 37.6885 52.3C37.4885 52.2 37.3885 51.9 37.2885 51.7C37.0885 51.2 36.9885 50.8 36.8885 50.3C36.8885 49.9 36.6885 49.5 36.6885 49C36.6885 48.6 36.6885 48.1 36.5885 47.7C36.5885 47.4 36.5885 47.2 36.5885 46.9C36.5885 46.5 36.5885 46.1 36.6885 45.7C36.7885 45.3 37.1885 45.1 37.5885 45C38.4885 44.7 39.5885 44.7 40.5885 44.9C41.1885 45 41.9885 45.2 42.0885 45.7ZM32.2885 53.9C32.8885 54 33.3885 54.5 33.6885 54.8C33.5885 54.5 33.4885 54.3 33.2885 54.1C33.5885 53.9 33.7885 53.7 34.0885 53.6C34.3885 53.5 34.7885 53.5 35.0885 53.6C35.5885 53.7 36.0885 53.9 36.4885 54.2C36.9885 54.5 37.5885 54.7 38.1885 54.8C38.7885 55 39.3885 55.1 39.9885 55.3C40.4885 55.4 40.8885 55.5 41.3885 55.3C41.9885 55.1 42.3885 54.8 42.9885 54.5C43.5885 54.2 44.2885 54.3 44.7885 54.7C45.0885 54.9 45.2885 55 45.4885 55.3C45.5885 55.4 45.6885 55.5 45.6885 55.6L45.7885 55.7C45.7885 55.8 45.8885 55.8 45.8885 55.8C45.9885 55.8 45.9885 55.8 46.0885 55.8C46.3885 55.8 46.5885 55.8 46.7885 56C46.8885 56.1 46.8885 56.2 46.9885 56.3L47.0885 56.4C47.1885 56.4 47.3885 56.3 47.4885 56.3C47.9885 56.2 48.0885 56.4 48.2885 56.8C47.9885 56.8 47.7885 56.8 47.4885 56.8C47.2885 56.8 47.1885 56.9 46.9885 56.9C46.8885 56.9 46.7885 56.8 46.6885 56.7C46.1885 56.3 45.5885 56 45.0885 55.8C44.7885 55.7 44.5885 55.6 44.3885 55.5C43.9885 55.4 43.6885 55.4 43.2885 55.5C42.7885 55.6 42.2885 55.8 41.7885 55.9C40.5885 56.2 39.5885 55.7 38.3885 55.4C37.3885 55.2 36.3885 55.4 35.2885 55.4C34.5885 55.4 33.7885 55.4 33.1885 55.1C32.4885 54.8 31.8885 54.6 31.0885 54.6C31.3885 54.2 31.7885 53.8 32.2885 53.9ZM0.588512 75.5C1.18851 71.4 3.68851 67.9 6.88851 65.4C8.28851 64.3 9.68851 63.4 11.1885 62.6C13.5885 61.2 16.1885 60 18.7885 59C21.3885 58 24.0885 57.1 26.8885 56.4C26.5885 56.9 26.3885 57.4 26.2885 58C26.2885 58.2 26.2885 58.2 26.0885 58.2C25.9885 58.2 25.8885 58.2 25.7885 58.3C25.0885 58.5 24.5885 59.1 24.2885 59.7C23.9885 60.3 23.8885 60.9 23.6885 61.5C23.5885 61.7 23.5885 61.9 23.4885 62.1C23.3885 62.2 23.3885 62.2 23.2885 62.3C22.6885 62.6 21.9885 62.9 21.3885 63.1C19.0885 64.1 16.7885 65.2 14.4885 66.4C11.9885 67.7 9.48851 68.9 7.18851 70.4C4.68851 71.7 2.38851 73.4 0.588512 75.5ZM29.5885 86C28.4885 84.5 26.9885 83.3 25.1885 82.8C23.1885 82.3 21.1885 82.6 19.1885 82.3C17.3885 82 15.5885 81.3 14.4885 79.8C13.3885 78.3 13.1885 76.5 12.8885 74.7C12.5885 72.7 12.0885 70.5 10.6885 69.1C13.7885 67.4 16.9885 65.7 20.2885 64.2C20.8885 63.9 21.5885 63.7 22.1885 63.5C21.9885 64.1 22.2885 64.9 22.5885 65.4C22.7885 65.9 23.0885 66.5 23.3885 66.9C24.0885 67.8 25.0885 68.3 25.9885 68.8C27.0885 69.3 28.0885 69.8 29.1885 70.4C29.3885 70.5 29.6885 70.7 29.8885 70.8C30.0885 71 30.4885 71.1 30.6885 71.4C30.7885 71.5 30.7885 71.7 30.7885 71.9C30.7885 72.1 30.8885 72.2 30.8885 72.4C30.9885 72.7 31.1885 72.9 31.3885 73.1C31.4885 73.2 31.8885 73.4 31.8885 73.6C31.8885 73.7 31.7885 73.8 31.7885 73.9C31.7885 74.1 31.7885 74.1 31.8885 74.2C32.1885 74.5 32.6885 74.7 33.1885 74.7C32.5885 76.4 32.0885 78.2 31.7885 80C31.6885 81 31.5885 81.9 31.6885 82.9C31.6885 83.4 31.7885 83.9 31.8885 84.4C31.8885 84.6 32.0885 84.9 31.9885 85.1C31.9885 85.3 31.6885 85.5 31.5885 85.7C31.3885 85.9 31.2885 86.1 31.0885 86.3C30.9885 86.4 30.7885 86.8 30.5885 86.8C30.3885 86.8 30.0885 86.6 29.9885 86.5C29.8885 86.3 29.6885 86.2 29.5885 86ZM30.0885 99C30.0885 98.9 30.6885 98.9 30.6885 98.9C31.0885 98.9 31.5885 98.9 31.9885 99C32.0885 99 32.2885 99 32.3885 99.1C32.4885 99.2 32.4885 99.5 32.5885 99.7C32.6885 99.9 32.8885 100.2 32.7885 100.5C32.6885 100.7 32.4885 100.4 32.2885 100.4C32.3885 101.3 32.6885 102.2 32.9885 103.1C33.0885 103.4 33.2885 103.7 33.0885 104C32.8885 104.3 32.4885 104.4 32.1885 104.5C31.6885 104.6 31.0885 104.5 30.5885 104.5C30.0885 104.5 29.5885 104.4 29.0885 104.2C28.4885 103.9 27.9885 103.5 28.0885 102.7C28.2885 101.7 29.4885 100.9 30.2885 100.4C29.9885 100.4 29.6885 100.6 29.3885 100.6C29.0885 100.6 29.1885 100.2 29.2885 100.1C29.4885 99.5 29.8885 99.3 30.0885 99ZM41.1885 87.3C41.1885 86.5 41.0885 85.7 40.8885 85C40.6885 84.4 40.4885 83.8 40.1885 83.2C40.0885 83 40.0885 82.9 39.9885 82.7C39.8885 82.5 40.0885 82.3 40.0885 82.1C40.2885 81.7 40.3885 81.3 40.4885 80.9C40.6885 80.1 40.7885 79.3 40.8885 78.5C41.0885 77.4 41.1885 76.4 41.4885 75.3C41.1885 75.6 41.0885 75.9 40.9885 76.3C40.7885 76.8 40.6885 77.3 40.4885 77.8C40.1885 78.8 39.9885 79.8 39.6885 80.8C39.3885 81.8 38.8885 82.8 38.2885 83.6C37.9885 84.1 37.5885 84.5 37.0885 84.9C36.8885 85.1 36.6885 85.3 36.3885 85.5C36.2885 85.6 36.0885 85.7 35.9885 85.8C35.8885 85.9 35.9885 86.2 35.8885 86.3C35.7885 86.8 35.4885 87.2 35.0885 87.6C34.6885 88 34.3885 88.4 34.2885 89C34.3885 88.8 34.5885 88.7 34.6885 88.5C34.6885 88.5 34.7885 88.4 34.8885 88.4C34.9885 88.4 34.8885 88.4 34.9885 88.5C35.0885 88.7 34.9885 89 34.9885 89.2C34.9885 89.4 34.9885 89.6 34.9885 89.8C34.8885 90.7 34.5885 91.6 34.2885 92.4C33.7885 93.7 32.9885 94.9 32.8885 96.3C32.7885 97 32.7885 97.6 32.7885 98.3C32.7885 98.5 32.7885 98.6 32.6885 98.6C32.3885 98.7 31.7885 98.6 31.3885 98.6C30.9885 98.6 30.5885 98.5 30.2885 98.4C30.1885 98.4 29.9885 98.3 29.8885 98.3C29.7885 98.2 29.8885 97.8 29.8885 97.7C29.9885 96.7 29.9885 95.8 30.0885 94.8C30.1885 92.8 30.2885 90.7 30.9885 88.8C31.2885 88 31.7885 87.3 32.2885 86.6C32.5885 86.2 32.9885 85.8 33.1885 85.4C33.2885 85.2 33.1885 85.1 33.1885 84.9C32.5885 82.8 32.5885 80.6 32.9885 78.5C33.1885 77.5 33.3885 76.6 33.6885 75.7C33.7885 75.4 33.8885 75.2 33.8885 74.9C33.8885 74.8 33.9885 74.6 34.0885 74.5C34.1885 74.4 34.2885 74.4 34.3885 74.4C34.6885 74.2 34.9885 74 35.1885 73.8C35.5885 73.4 35.9885 73 36.3885 72.6C36.6885 72.3 36.7885 72 36.5885 71.7C36.3885 71.3 35.9885 71.2 35.7885 70.8C35.6885 70.7 35.6885 70.7 35.7885 70.5C35.7885 70.4 35.8885 70.3 35.8885 70.3C35.8885 70 35.9885 69.7 35.9885 69.5C36.1885 69.7 36.3885 69.7 36.6885 69.8C37.3885 70 38.0885 70.2 38.7885 70.4C40.3885 70.8 41.9885 70.8 43.5885 70.7C44.0885 70.7 44.5885 70.6 45.0885 70.6C44.9885 71.4 45.1885 72.1 45.2885 72.9C45.3885 73.7 45.6885 74.5 45.7885 75.2C46.0885 76.9 46.3885 78.6 46.3885 80.3C46.3885 81.8 46.1885 83.4 45.3885 84.7C45.2885 84.8 45.0885 85 45.0885 85.1C45.0885 85.2 45.1885 85.5 45.1885 85.7C45.1885 86.2 45.1885 86.7 45.0885 87.1C44.9885 87.6 44.8885 88 44.6885 88.5C44.5885 88.7 44.5885 89 44.4885 89.2C44.4885 89.3 44.4885 89.3 44.3885 89.3C44.3885 89.3 44.2885 89.3 44.1885 89.3C43.9885 89.3 43.8885 89.3 43.6885 89.4C42.1885 89.6 40.5885 89.6 39.0885 89.3C39.1885 88.2 39.9885 87.2 41.1885 87.3ZM38.3885 92.6C38.1885 92.1 38.0885 91.5 37.9885 91C37.8885 90.6 37.7885 90.2 37.8885 89.8C37.9885 89.5 38.1885 89.7 38.3885 89.7C38.6885 89.8 39.0885 89.9 39.3885 89.9C40.3885 90 41.3885 90 42.3885 89.9C42.7885 89.9 43.2885 89.8 43.6885 89.7C43.9885 89.7 44.2885 89.6 44.4885 89.5C44.9885 89.4 44.5885 90 44.5885 90.3C44.4885 90.6 44.4885 91 44.3885 91.3C44.2885 92.2 44.0885 93.1 43.9885 94C43.8885 95.6 43.8885 97.2 43.9885 98.8C43.9885 99 44.0885 99.1 44.2885 99.2C44.4885 99.4 44.7885 99.5 45.0885 99.6C45.6885 99.9 46.3885 100.3 46.9885 100.7C47.2885 100.9 47.4885 101.1 47.7885 101.2C48.1885 101.4 48.4885 101.5 48.8885 101.7C49.2885 101.8 49.6885 101.9 49.9885 102.1C50.2885 102.2 50.5885 102.3 50.7885 102.5C51.4885 103.2 49.3885 103.4 49.0885 103.4C48.2885 103.4 47.5885 103.3 46.7885 103.2C45.6885 103.1 44.6885 102.9 43.5885 102.8C42.5885 102.7 41.5885 102.8 40.5885 102.7C39.7885 102.7 38.5885 102.6 38.6885 101.6C38.6885 100.7 39.3885 100 39.4885 99.2C39.5885 98.5 39.4885 97.7 39.4885 97C39.3885 96 39.1885 95.1 38.7885 94.1C38.7885 93.7 38.5885 93.2 38.3885 92.6Z" fill="black"/>
<path opacity="0.3" d="M41.3885 101C40.6885 101 39.7885 100.8 39.1885 100.5L38.6885 101.3L38.7885 102.7C38.7885 102.7 41.8885 103.6 41.5885 102.9C41.1885 102.2 41.3885 101 41.3885 101Z" fill="black"/>
<path opacity="0.3" d="M48.6885 101.4C48.0885 101.4 48.4885 101.5 48.9885 102.1C49.4885 102.7 49.0885 103.3 48.4885 103.5L50.0885 103.6L51.4885 102.8C51.5885 102.8 49.3885 101.3 48.6885 101.4Z" fill="black"/>
<path opacity="0.3" d="M44.6885 90.8C43.6885 91.1 42.0885 91.3 40.9885 91.3C39.8885 91.3 38.6885 91.2 37.8885 91V91.9C37.8885 91.9 38.6885 92.2 41.1885 92.2C43.3885 92.2 44.6885 91.7 44.6885 91.7L44.9885 91.3C44.9885 91.4 45.6885 90.5 44.6885 90.8Z" fill="black"/>
<path opacity="0.3" d="M44.5885 92.7C43.5885 93.1 42.1885 93.1 41.0885 93.1C39.9885 93.1 38.7885 93 37.9885 92.8L38.2885 93.7C38.2885 93.7 38.4885 93.9 41.0885 93.9C43.2885 93.9 44.5885 93.5 44.5885 93.5L44.7885 93.2C44.6885 93.2 44.9885 92.6 44.5885 92.7Z" fill="black"/>
<path opacity="0.4" d="M22.9885 64.8C23.0885 64.6 22.7885 63.7 23.2885 62.8C23.8885 61.7 25.1885 61.2 23.3885 61.9C20.2885 63.2 12.1885 67.2 9.88851 68.4C11.7885 69.6 12.6885 72.5 12.8885 75.4C12.8885 75.7 12.9885 75.9 12.9885 76.2C12.9885 76.4 13.0885 76.6 13.0885 76.7V76.8C15.2885 71.3 22.6885 65.3 22.9885 64.8Z" fill="black"/>
<path opacity="0.4" d="M33.0885 75.5C30.9885 77.9 25.6885 82.3 21.8885 82.5C27.2885 82.4 29.3885 85 30.9885 88.5C32.5885 85.3 32.5885 82.2 32.5885 78.6C32.4885 77 33.5885 74.8 33.0885 75.5Z" fill="black"/>
<path opacity="0.4" d="M36.3885 61.3L33.1885 58.8C33.1885 58.8 32.4885 60.7 32.5885 61.6C32.6885 62.6 31.4885 63.3 32.0885 63.8C32.6885 64.3 34.0885 65.3 34.4885 65.9C34.9885 66.5 35.1885 70.3 35.1885 70.3L36.4885 72C36.4885 72 37.0885 70.9 37.1885 68.1C37.2885 64.7 35.3885 63.7 35.1885 62.8C34.8885 61.9 35.4885 61 36.3885 61.3Z" fill="black"/>
<path opacity="0.4" d="M41.1885 76.3L39.2885 82.6C39.2885 82.6 40.3885 86.1 40.2885 86.5C40.1885 87 38.2885 89.4 38.2885 89.4L40.6885 89.6C40.6885 89.6 41.4885 88.3 41.9885 87.5C42.5885 86.7 42.1885 86.5 41.9885 84.7C41.7885 82.8 41.1885 78.9 41.1885 76.3Z" fill="black"/>
<path opacity="0.4" d="M40.3885 53L37.6885 52.5L37.3885 51.7H36.5885C37.0885 52.8 37.6885 53.3 38.5885 53.6C39.1885 53.8 41.3885 54.1 42.2885 53.1C42.6885 52.7 42.3885 51.4 42.3885 51.4L40.3885 53Z" fill="black"/>
<path opacity="0.4" d="M48.1885 66.4C47.6885 65.9 47.3885 64.9 47.2885 64.4L46.0885 66L46.4885 66.7C46.4885 66.7 47.9885 66.8 48.1885 66.8C48.4885 66.8 48.4885 66.7 48.1885 66.4Z" fill="black"/>
<path d="M144.989 64.4L144.789 63.6H143.789C144.089 65 143.989 66.3 143.689 67.2C143.389 68.3 142.589 69.3 141.389 70.2L138.589 72.4C139.289 72.9 139.889 73.4 140.289 74.2C141.289 75.8 141.389 77.8 140.689 80.1C139.889 82.8 138.189 85 135.789 86.6C133.489 88.2 130.889 88.9 128.189 88.9C124.989 88.9 122.489 88 120.789 86.4L120.489 87.1L120.989 87.7C122.889 89.9 125.989 90.1 128.689 90.1C131.589 90.1 134.489 89.2 136.489 87.7C138.489 86.2 139.889 84.9 141.089 82.5C141.889 80.9 142.689 77.5 142.089 75.5C141.689 74.2 141.089 73.3 140.389 72.6L142.289 71.3H142.389C143.289 70.6 143.989 69.7 144.589 68.7C144.689 68 145.389 66.4 144.989 64.4Z" fill="#545454"/>
<path d="M128.189 87.7C124.989 87.7 122.689 86.8 121.089 85C120.989 84.9 120.989 84.8 121.089 84.6C121.789 83.2 122.889 82 124.489 81C124.589 81 124.589 80.9 124.689 80.9C124.789 80.9 124.889 80.9 124.889 81C125.989 82.1 127.189 82.7 128.789 82.7C129.889 82.7 130.789 82.4 131.689 81.8C132.489 81.2 133.089 80.4 133.389 79.4C133.689 78.4 133.689 77.7 133.289 77.2C132.889 76.7 132.389 76.5 131.689 76.5C130.889 76.5 130.189 76.6 129.489 76.9H129.389C129.289 76.9 129.289 76.9 129.189 76.9C128.789 76.7 128.389 76.2 128.189 75.6C127.989 75 127.889 74.4 127.889 73.7C127.889 73.6 127.989 73.5 127.989 73.5L132.589 69.9C133.589 69.2 134.389 68.6 134.889 68.2C134.489 68.2 134.189 68.2 133.789 68.2C133.489 68.2 133.289 68.2 132.989 68.2C132.689 68.2 132.389 68.2 132.089 68.2H126.989C126.789 68.2 126.689 68.1 126.689 67.9C126.589 67.2 126.789 66.5 126.989 65.6C127.289 64.7 127.689 63.9 128.189 63.2C128.289 63.1 128.389 63.1 128.489 63.1H141.989C142.189 63.1 142.289 63.2 142.289 63.4C142.589 64.7 142.689 66.1 142.389 67C142.089 67.8 141.489 68.6 140.589 69.4L136.789 72.3C136.589 72.5 136.289 72.6 136.089 72.8C137.489 73.1 138.489 73.8 139.189 74.9C139.989 76.2 140.089 77.8 139.389 79.9C138.589 82.4 137.189 84.3 134.989 85.7C132.989 87 130.689 87.7 128.189 87.7Z" stroke="black" stroke-width="3" stroke-miterlimit="10" stroke-linecap="round" stroke-linejoin="round"/>
<path d="M140.489 69L136.689 71.9C136.289 72.2 135.789 72.5 135.289 72.8C136.989 73 138.289 73.7 138.989 74.9C139.689 76.1 139.789 77.6 139.189 79.6C138.489 82 137.089 83.9 134.989 85.3C132.889 86.7 130.689 87.4 128.289 87.4C125.189 87.4 122.889 86.5 121.489 84.8C122.189 83.5 123.289 82.3 124.789 81.3C125.889 82.5 127.289 83.1 128.889 83.1C129.989 83.1 131.089 82.8 131.989 82.1C132.889 81.4 133.489 80.6 133.789 79.5C134.089 78.4 134.089 77.6 133.589 77C133.189 76.4 132.489 76.1 131.689 76.1C130.889 76.1 130.089 76.2 129.389 76.5C128.989 76.3 128.689 75.9 128.489 75.4C128.289 74.9 128.189 74.3 128.189 73.7L132.789 70.1C134.289 69 135.289 68.2 135.889 67.9L135.789 67.6C134.689 67.9 133.489 67.8 132.089 67.8H126.989C126.989 67.2 127.089 66.4 127.289 65.6C127.489 64.8 127.889 64 128.489 63.3H141.989C142.289 64.6 142.289 65.9 142.089 66.7C141.989 67.5 141.389 68.2 140.489 69Z" fill="#A3A3A3"/>
<path d="M65.1885 86.1C62.3885 86.1 60.2885 85.1 58.8885 83.2C57.4885 81.3 56.7885 78.8 56.7885 75.6C56.7885 72.4 57.6885 69.8 59.3885 68C61.0885 66.2 63.2885 65.3 65.7885 65.3C68.2885 65.3 70.5885 66 72.5885 67.4L72.7885 67.5V67.7C72.6885 68.3 72.4885 68.8 72.1885 69.3C71.7885 69.8 71.4885 70.2 70.9885 70.5L70.7885 70.6L70.5885 70.5C69.0885 69.4 67.4885 68.9 65.9885 68.9C64.4885 68.9 63.2885 69.4 62.4885 70.5C61.5885 71.6 61.1885 73.4 61.1885 75.7C61.1885 80.2 62.7885 82.4 65.9885 82.4C66.8885 82.4 67.7885 82.3 68.7885 82.1V79.7C68.7885 79.1 68.7885 78.5 68.7885 78.2H67.0885C66.3885 78.2 65.8885 78.1 65.5885 77.8C65.2885 77.5 65.0885 77 65.0885 76.4C65.0885 75.8 65.1885 75.3 65.3885 74.8L65.4885 74.6H70.1885C71.9885 74.6 72.9885 75.5 72.9885 77.2V84.8L72.7885 84.9C70.3885 85.7 67.8885 86.1 65.1885 86.1Z" stroke="black" stroke-width="3" stroke-miterlimit="10" stroke-linecap="round" stroke-linejoin="round"/>
<path d="M65.5885 74.9H69.9885C69.9885 74.9 69.9885 74.9 70.0885 74.9C71.6885 74.9 72.4885 75.7 72.4885 77.2V84.6C70.2885 85.4 67.8885 85.8 65.1885 85.8C62.4885 85.8 60.4885 84.9 59.1885 83.1C57.7885 81.3 57.1885 78.8 57.1885 75.7C57.1885 72.6 57.9885 70.1 59.6885 68.4C61.3885 66.7 63.3885 65.8 65.8885 65.8C68.2885 65.8 70.5885 66.5 72.4885 67.9C72.3885 68.4 72.2885 68.9 71.8885 69.4C71.5885 69.9 71.1885 70.3 70.7885 70.5C69.1885 69.4 67.5885 68.8 65.9885 68.8C64.3885 68.8 63.0885 69.4 62.1885 70.5C61.2885 71.7 60.7885 73.5 60.7885 75.9C60.7885 80.6 62.4885 82.9 65.8885 82.9C66.8885 82.9 67.8885 82.8 68.9885 82.5V79.8C68.9885 79 68.9885 78.3 69.0885 77.9H66.9885C66.3885 77.9 65.9885 77.8 65.6885 77.5C65.3885 77.3 65.2885 76.9 65.2885 76.4C65.3885 76 65.3885 75.5 65.5885 74.9Z" fill="white"/>
<path d="M81.2885 86.1C78.7885 86.1 76.4885 85.4 74.2885 83.9L74.0885 83.8V83.6C74.1885 82.4 74.7885 81.4 75.6885 80.7L75.8885 80.5L76.0885 80.6C77.9885 81.8 79.7885 82.4 81.5885 82.4C82.4885 82.4 83.1885 82.2 83.6885 81.8C84.1885 81.4 84.3885 81 84.3885 80.4C84.3885 79.4 83.7885 78.6 82.2885 78L78.9885 76.6C76.2885 75.4 74.8885 73.6 74.8885 71.3C74.8885 69.6 75.5885 68.1 76.8885 67C78.1885 65.9 79.8885 65.3 81.9885 65.3C83.9885 65.3 86.0885 65.8 88.1885 66.9L88.3885 67V67.2C88.2885 68.4 87.8885 69.4 87.0885 70.2L86.8885 70.4L86.6885 70.3C84.8885 69.4 83.2885 69 81.8885 69C81.0885 69 80.3885 69.2 79.9885 69.6C79.5885 70 79.2885 70.4 79.2885 70.9C79.2885 71.7 79.8885 72.3 81.1885 72.9L84.4885 74.3C87.3885 75.6 88.8885 77.5 88.8885 80C88.8885 81.8 88.1885 83.3 86.8885 84.5C85.6885 85.6 83.7885 86.1 81.2885 86.1Z" stroke="black" stroke-width="3" stroke-miterlimit="10" stroke-linecap="round" stroke-linejoin="round"/>
<path d="M74.4885 83.7C74.5885 82.6 75.0885 81.7 75.9885 81C77.9885 82.2 79.8885 82.9 81.6885 82.9C82.6885 82.9 83.3885 82.7 83.9885 82.3C84.4885 81.9 84.7885 81.3 84.7885 80.6C84.7885 79.5 84.0885 78.6 82.4885 77.9L79.1885 76.5C76.5885 75.3 75.2885 73.7 75.2885 71.5C75.2885 69.9 75.8885 68.5 77.1885 67.5C78.4885 66.5 80.0885 65.9 82.0885 65.9C84.0885 65.9 86.0885 66.4 88.1885 67.4C88.0885 68.5 87.6885 69.4 86.9885 70.2C85.1885 69.3 83.4885 68.8 82.0885 68.8C81.1885 68.8 80.4885 69 79.8885 69.5C79.3885 69.9 79.0885 70.5 79.0885 71.1C79.0885 72 79.7885 72.8 81.1885 73.4L84.4885 74.8C87.2885 76 88.6885 77.8 88.6885 80.2C88.6885 81.9 88.0885 83.3 86.8885 84.4C85.6885 85.5 83.8885 86 81.4885 86C78.8885 85.8 76.6885 85.1 74.4885 83.7Z" fill="white"/>
<path d="M104.589 86C103.789 86 103.189 85.8 102.889 85.5C102.489 85.2 102.189 84.6 101.989 83.8L101.189 81.3H99.9885H96.0885H94.8885L93.4885 85.7H93.2885C92.8885 85.8 92.2885 85.9 91.5885 85.9C90.8885 85.9 90.2885 85.8 89.7885 85.6H89.6885L89.3885 85.2L95.8885 65.8H96.0885C96.6885 65.7 97.4885 65.7 98.2885 65.7C99.0885 65.7 99.7885 65.8 100.389 65.9H100.589L106.989 85.4L106.789 85.5C105.989 85.8 105.289 86 104.589 86ZM99.2885 77.7C99.3885 77.7 99.4885 77.7 99.8885 77.7C99.9885 77.7 100.089 77.7 100.089 77.7L99.1885 75C98.7885 73.6 98.2885 72.2 97.8885 70.6C97.6885 71.6 97.2885 72.8 96.8885 74.2L95.7885 77.7H96.6885H99.2885Z" stroke="black" stroke-width="3" stroke-miterlimit="10" stroke-linecap="round" stroke-linejoin="round"/>
<path d="M101.389 81H99.8885H95.9885H94.5885L93.1885 85.5C92.7885 85.6 92.2885 85.6 91.5885 85.6C90.8885 85.6 90.2885 85.5 89.8885 85.3L89.6885 85.2L95.9885 66.1C96.6885 66 97.3885 66 98.1885 66C98.9885 66 99.6885 66.1 100.189 66.2L106.389 85.3C105.889 85.6 105.189 85.8 104.489 85.8C103.789 85.8 103.289 85.7 102.989 85.4C102.689 85.1 102.389 84.6 102.189 83.9L101.389 81ZM95.3885 78.1H96.6885H99.1885C99.2885 78.1 99.3885 78.1 99.7885 78.1C100.089 78.1 100.289 78.1 100.489 78.1L99.4885 74.9C98.9885 73.2 98.4885 71.4 97.9885 69.5H97.8885C97.6885 70.7 97.2885 72.2 96.6885 74.1L95.3885 78.1Z" fill="white"/>
<path d="M110.789 85.9C109.989 85.9 109.389 85.8 108.989 85.8L108.689 85.7V66.1L109.089 65.8H109.189C112.189 65.7 114.189 65.7 115.289 65.7C117.389 65.7 119.089 66.3 120.289 67.4C121.589 68.6 122.189 70.3 122.189 72.4C122.189 74.5 121.589 76.3 120.289 77.4C118.989 78.6 117.289 79.2 115.289 79.2H112.889V85.7L112.589 85.8C112.189 85.8 111.489 85.9 110.789 85.9ZM112.889 75.8C113.989 75.8 114.689 75.8 115.089 75.8C116.189 75.8 116.889 75.5 117.289 74.9C117.689 74.2 117.989 73.4 117.989 72.5C117.989 71.6 117.789 70.8 117.289 70.1C116.889 69.5 116.189 69.2 115.189 69.2C114.289 69.2 113.489 69.2 112.989 69.2L112.889 75.8Z" stroke="black" stroke-width="3" stroke-miterlimit="10" stroke-linecap="round" stroke-linejoin="round"/>
<path d="M120.089 67.6C121.289 68.7 121.889 70.3 121.889 72.4C121.889 74.5 121.289 76.1 120.089 77.2C118.889 78.3 117.289 78.9 115.289 78.9H112.589V85.4C112.089 85.5 111.489 85.5 110.789 85.5C110.089 85.5 109.489 85.5 108.989 85.4V66.2L109.189 66C112.189 65.9 114.189 65.9 115.289 65.9C117.289 66 118.889 66.5 120.089 67.6ZM112.589 68.8V76.2C113.889 76.2 114.689 76.1 115.089 76.1C116.289 76.1 117.089 75.7 117.589 75C118.089 74.3 118.289 73.4 118.289 72.4C118.289 71.4 118.089 70.6 117.589 69.8C117.089 69.1 116.289 68.7 115.189 68.7C113.989 68.8 113.189 68.8 112.589 68.8Z" fill="white"/>
</svg>
