<svg width="150" height="150" viewBox="0 0 150 150" fill="none" xmlns="http://www.w3.org/2000/svg">
<path d="M43.1053 66.8697C42.5832 66.3476 42.3396 65.7211 42.3396 64.9554C42.3396 64.1896 42.5832 63.5631 43.1053 63.041C43.6274 62.5189 44.2539 62.2753 45.0197 62.2753C45.7854 62.2753 46.4119 62.5189 46.934 63.041C47.4561 63.5631 47.6997 64.1896 47.6997 64.9554C47.6997 65.7211 47.4561 66.3476 46.934 66.8697C46.3771 67.357 45.7506 67.6354 44.9849 67.6354C44.2539 67.6354 43.5926 67.357 43.1053 66.8697ZM47.2821 85.317H42.7225V68.9233H47.2821V85.317V85.317Z" fill="#676767"/>
<path d="M50.3798 64.0504H59.0117V85.317H54.4173V68.0879H50.3798V64.0504Z" fill="#676767"/>
<path d="M66.1818 65.2338C67.6088 64.12 69.3491 63.5631 71.4723 63.5631C73.5955 63.5631 75.3358 64.12 76.728 65.2338C78.1203 66.3476 78.8164 67.7399 78.8164 69.3758C78.8164 71.0116 78.1899 72.4039 76.9369 73.5873C78.712 74.9447 79.5821 76.7198 79.5821 78.9474C79.5821 80.827 78.8164 82.3932 77.3197 83.6811C75.8231 84.9689 73.8739 85.5954 71.4375 85.5954C69.0359 85.5954 67.0519 84.9689 65.5553 83.6811C64.0586 82.3932 63.2929 80.827 63.2929 78.9474C63.2929 76.7198 64.163 74.9447 65.9381 73.5873C64.6503 72.4039 64.0238 70.9768 64.0238 69.3409C64.0934 67.7051 64.7895 66.3476 66.1818 65.2338ZM69.1751 80.8966C69.8712 81.3839 70.6718 81.6275 71.4723 81.6275C72.3077 81.6275 73.0734 81.3839 73.7695 80.8966C74.4656 80.4093 74.8485 79.7132 74.8485 78.8082C74.8485 77.9033 74.5004 77.2071 73.8043 76.7198C73.1082 76.2326 72.3425 75.9889 71.4723 75.9889C70.6022 75.9889 69.8016 76.2326 69.1403 76.7198C68.4442 77.2071 68.0961 77.9033 68.0961 78.8082C68.0961 79.7132 68.4442 80.4093 69.1751 80.8966ZM69.4536 71.6033C70.0453 72.0906 70.7066 72.3343 71.4723 72.3343C72.238 72.3343 72.9342 72.0906 73.4911 71.6033C74.0828 71.1161 74.3612 70.5244 74.3612 69.7934C74.3612 69.0625 74.0828 68.4708 73.5259 67.9835C72.969 67.4962 72.2729 67.2526 71.4723 67.2526C70.6718 67.2526 70.0105 67.4962 69.4188 67.9835C68.8619 68.4708 68.5834 69.0625 68.5834 69.7934C68.5834 70.4896 68.8619 71.1161 69.4536 71.6033Z" fill="#676767"/>
<path d="M87.9704 76.1978V85.317H83.4108V68.9233H87.9704V70.7332C89.3627 69.341 90.8941 68.6448 92.6344 68.6448C94.3747 68.6448 95.8018 69.2365 96.9852 70.4547C98.1686 71.673 98.7255 73.3088 98.7255 75.3276V85.2822H94.1659V76.0585C94.1659 73.5525 93.2261 72.2995 91.3814 72.2995C90.4765 72.2995 89.6759 72.6127 88.9798 73.274C88.3185 73.9354 87.9704 74.9099 87.9704 76.1978Z" fill="#676767"/>
<path d="M117.068 82.9501C115.224 84.6904 113.066 85.5606 110.56 85.5606C108.088 85.5606 106.035 84.7949 104.399 83.2634C102.763 81.7319 101.962 79.6784 101.962 77.1027C101.962 74.5271 102.798 72.4735 104.434 70.942C106.104 69.4106 108.054 68.6448 110.281 68.6448C112.544 68.6448 114.458 69.341 116.024 70.6984C117.59 72.0558 118.391 73.9354 118.391 76.3022V78.7386H106.452C106.592 79.6436 107.044 80.3745 107.845 80.9314C108.645 81.4883 109.515 81.7667 110.525 81.7667C112.126 81.7667 113.448 81.2446 114.493 80.1657L117.068 82.9501ZM112.683 73.2392C112.056 72.7171 111.291 72.4387 110.386 72.4387C109.481 72.4387 108.645 72.7171 107.914 73.274C107.149 73.8309 106.731 74.5619 106.592 75.5016H113.762C113.657 74.5271 113.309 73.7613 112.683 73.2392Z" fill="#676767"/>
<path d="M125.213 68.9233L127.997 73.3088L130.886 68.9233H136.246L130.608 76.9287L136.455 85.317H131.026L127.823 80.827L124.726 85.317H119.47L125.178 76.9635L119.748 68.9233H125.213Z" fill="#676767"/>
<path d="M144.496 72.2299V79.5739C144.496 80.2005 144.67 80.6877 144.983 81.0358C145.296 81.3839 145.679 81.5579 146.131 81.5579C146.967 81.5579 147.698 81.175 148.289 80.4093L149.995 83.6115C148.568 84.8993 147.071 85.5606 145.505 85.5606C143.939 85.5606 142.616 85.0385 141.502 83.9943C140.423 82.9501 139.866 81.5579 139.866 79.748V72.195H137.987V68.9233H139.901V64.0156H144.496V68.9233H148.429V72.195L144.496 72.2299Z" fill="#676767"/>
<path d="M19.5017 58.3354V66.1795L28.3338 88.8448C28.3338 88.8448 31.0359 94.3901 23.3128 95.721H5.72911C5.72911 95.721 -1.44956 94.9749 0.26445 89.2884L9.54026 66.1795V58.3153L19.5017 58.3354Z" fill="#676767"/>
<path d="M19.6832 57.428H9.09663C8.22955 57.428 7.54395 56.6618 7.54395 55.714C7.54395 54.7663 8.24971 54 9.09663 54H19.6832C20.5502 54 21.2358 54.7663 21.2358 55.714C21.2358 56.6618 20.5301 57.428 19.6832 57.428Z" fill="#343434"/>
<path d="M16.8802 71.1602C18.0095 71.1602 18.9371 72.2693 18.9371 73.6405C18.9371 75.0117 18.0095 76.1208 16.8802 76.1208C15.751 76.1208 14.8234 75.0117 14.8234 73.6405C14.8234 72.2693 15.751 71.1602 16.8802 71.1602Z" fill="white"/>
<path d="M10.5485 77.613C11.5063 77.613 12.2827 76.6741 12.2827 75.5158C12.2827 74.3576 11.5063 73.4187 10.5485 73.4187C9.59074 73.4187 8.81432 74.3576 8.81432 75.5158C8.81432 76.6741 9.59074 77.613 10.5485 77.613Z" fill="white"/>
<path d="M20.2679 65.6754V61.9449C20.2679 61.9449 25.0067 60.8964 27.3659 66.4014C27.3861 66.4014 23.6959 69.1034 20.2679 65.6754Z" fill="#343434"/>
<path d="M8.67317 65.6754V61.9449C8.67317 61.9449 3.93445 60.8964 1.57516 66.4014C1.57516 66.4014 5.26532 69.1034 8.67317 65.6754Z" fill="#343434"/>
<path d="M23.1313 81.1418C15.4284 78.7624 8.95548 80.0327 5.7896 81.0007L2.60357 88.6834C1.17187 93.2608 7.16081 93.8658 7.16081 93.8658H21.8408C28.2733 92.7769 26.0351 88.3205 26.0351 88.3205L23.1313 81.1418Z" fill="white"/>
<path d="M12.0205 83.985C12.0205 84.8118 10.9115 85.4974 9.54025 85.4974C8.16905 85.4974 7.05998 84.832 7.05998 83.985C7.05998 83.1583 8.16905 82.4727 9.54025 82.4727C10.9115 82.4929 12.0205 83.1583 12.0205 83.985Z" fill="#343434"/>
<path d="M20.8527 83.985C20.8527 84.8118 19.7436 85.4974 18.3724 85.4974C17.0012 85.4974 15.8922 84.832 15.8922 83.985C15.8922 83.1583 17.0012 82.4727 18.3724 82.4727C19.7436 82.4929 20.8527 83.1583 20.8527 83.985Z" fill="#343434"/>
</svg>
