<svg width="150" height="150" viewBox="0 0 150 150" fill="none" xmlns="http://www.w3.org/2000/svg">
<path d="M64.0461 70.1838L63.0473 73.5796L64.0461 70.1838Z" fill="#1A1A1A"/>
<path d="M69.3395 82.2689L70.4382 78.074L69.3395 82.2689Z" fill="#1A1A1A"/>
<path d="M92.6109 62.8927L90.5135 72.5808C90.6134 72.4809 92.6109 62.8927 92.6109 62.8927Z" fill="#1A1A1A"/>
<path d="M87.3174 62.8927L85.7194 70.0839L87.3174 62.8927Z" fill="#1A1A1A"/>
<path d="M92.3113 62.3934H87.9167C87.717 62.3934 87.4173 62.5931 87.4173 62.7929L85.8193 69.984L84.2213 77.1751C84.1214 77.3749 83.9216 77.5747 83.7219 77.5747H81.0252H80.6257C77.5295 77.5747 77.929 75.4772 78.5283 72.5808V72.4809L78.6282 72.0814C78.6282 72.0814 78.6282 72.0814 78.6282 71.9815L78.728 71.2824L78.9278 70.4834C78.9278 70.2836 79.0277 69.8841 79.1275 69.6844L79.8267 66.1887L80.5258 62.693C80.5258 62.4932 80.4259 62.2935 80.1263 62.2935H75.6318C75.4321 62.2935 75.1325 62.4932 75.1325 62.693L74.1337 67.2873L73.1349 71.8817L73.035 72.2812C71.9364 77.3749 72.236 82.2689 78.3285 82.3687C78.4284 82.3687 78.5283 82.3687 78.5283 82.3687H88.0166C88.2163 82.3687 88.516 82.169 88.516 81.9692L90.6134 72.2812L92.7108 62.5931C92.7108 62.5931 92.5111 62.3934 92.3113 62.3934Z" fill="#1A1A1A"/>
<path d="M109.79 77.7744C109.989 77.7744 110.189 77.9742 110.189 78.1739L109.79 80.2713" fill="#1A1A1A"/>
<path d="M109.29 82.3687L109.69 80.2713L109.29 82.3687Z" fill="#1A1A1A"/>
<path d="M98.0043 75.0777C98.0043 74.878 98.3039 74.4785 98.5036 74.4785H98.0043C97.7046 76.9754 98.0043 75.0777 98.0043 75.0777Z" fill="#1A1A1A"/>
<path d="M109.79 77.7744C109.99 77.7744 110.189 77.9742 110.189 78.1739L109.79 80.2713L109.69 80.571" fill="#1A1A1A"/>
<path d="M109.29 82.3687L109.69 80.6708L109.29 82.3687Z" fill="#1A1A1A"/>
<path d="M37.0793 75.1776L37.7785 72.1813L36.9794 75.5771L36.2803 79.0728L36.9794 75.9766C36.8796 75.7769 36.9794 75.3774 37.0793 75.1776Z" fill="#1A1A1A"/>
<path d="M45.1693 62.3934H40.3752C40.1755 62.3934 39.8759 62.5931 39.8759 62.7929L39.3765 64.7904L38.8771 66.7879C38.7772 66.9877 38.977 67.1874 39.1767 67.1874H44.0707C44.2704 67.1874 44.5701 66.9877 44.5701 66.7879L44.9696 64.7904L45.3691 62.7929C45.5688 62.5931 45.469 62.3934 45.1693 62.3934Z" fill="#1A1A1A"/>
<path d="M44.1706 69.0851L42.7723 75.677L44.1706 69.0851Z" fill="#1A1A1A"/>
<path d="M30.1878 90.7584C30.1878 90.7584 32.5849 90.7584 34.1829 90.7584C32.9844 90.8583 30.9868 90.7584 30.1878 90.7584Z" fill="#1A1A1A"/>
<path d="M38.3777 69.0851L37.6786 72.0814L38.3777 69.0851Z" fill="#1A1A1A"/>
<path d="M43.7711 68.6856H38.977C38.7772 68.6856 38.4776 68.8854 38.4776 69.0851L37.7784 72.0814L37.0793 75.0777C36.9794 75.2775 36.9794 75.677 36.8796 75.9766L36.1804 79.0728L35.4813 82.169C35.3814 82.3687 35.2815 82.7683 35.2815 83.0679C35.2815 83.0679 34.3826 85.7646 32.8845 85.7646C32.7846 85.7646 32.7846 85.7646 32.6847 85.7646C31.9856 85.7646 31.3863 85.7646 31.3863 85.7646C31.1866 85.7646 30.8869 85.9643 30.8869 86.1641L30.3876 88.2615L29.8882 90.3589C29.7883 90.5587 29.988 90.7584 30.1878 90.7584C31.0867 90.7584 32.9844 90.7584 34.1829 90.7584C37.9782 90.7584 39.9757 88.661 41.2741 82.5685L42.7723 75.5771L44.1706 68.9852C44.1706 68.8854 44.0707 68.6856 43.7711 68.6856Z" fill="#1A1A1A"/>
<path d="M112.886 82.5685C112.686 82.5685 112.486 82.3687 112.486 82.169L116.182 64.9902" fill="#1A1A1A"/>
<path d="M117.98 82.169L119.478 74.878L117.98 82.169Z" fill="#1A1A1A"/>
<path d="M112.586 82.3687C112.586 82.2689 112.586 81.9692 112.586 81.6696L114.284 73.5796L112.486 82.169C112.387 82.3687 112.586 82.5685 112.886 82.5685H113.285C113.086 82.5685 112.586 82.4686 112.586 82.3687Z" fill="#1A1A1A"/>
<path d="M117.68 82.4686C117.58 82.5685 117.28 82.5685 116.981 82.5685H117.38C117.58 82.5685 117.88 82.3687 117.88 82.169L117.98 81.7695C117.98 81.9692 117.78 82.4686 117.68 82.4686Z" fill="#1A1A1A"/>
<path d="M118.679 78.4735L119.378 75.2775L118.679 78.4735Z" fill="#1A1A1A"/>
<path d="M133.161 66.1887L133.361 66.9877C133.461 67.1874 133.261 67.3872 133.061 67.3872" fill="#1A1A1A"/>
<path d="M118.08 81.7695L118.779 78.5734L118.08 81.7695Z" fill="#1A1A1A"/>
<path d="M132.961 65.3897L133.161 66.2886L132.961 65.3897Z" fill="#1A1A1A"/>
<path d="M119.378 75.2775C119.378 75.0777 119.478 74.6782 119.578 74.3786L120.277 71.0826L119.478 74.7781L119.378 75.2775Z" fill="#1A1A1A"/>
<path d="M116.282 64.7904C116.282 64.9902 116.182 65.2898 116.082 65.4895L114.384 73.5796L116.182 64.9902L116.282 64.7904Z" fill="#1A1A1A"/>
<path d="M133.361 66.9877L133.161 66.1887L132.961 65.2898L132.861 64.8903C132.462 63.3921 131.263 62.4932 128.766 62.4932H124.871H121.276H120.976H117.181C116.981 62.4932 116.681 62.693 116.681 62.8927L116.481 63.6918L116.282 64.6905L116.182 64.9902L114.384 73.5796L112.686 81.6696C112.586 81.8694 112.586 82.169 112.686 82.3687C112.686 82.4686 113.186 82.5685 113.385 82.5685H117.081C117.281 82.5685 117.68 82.5685 117.78 82.4686C117.88 82.3687 118.08 81.9692 118.179 81.6696L118.879 78.4735L119.578 75.2775L119.678 74.878L120.477 71.1825L121.176 67.8866C121.276 67.6868 121.475 67.4871 121.675 67.4871H133.161C133.261 67.4871 133.361 67.2873 133.361 66.9877Z" fill="#1A1A1A"/>
<path d="M148.242 59.4969C148.043 59.4969 147.643 59.4969 147.343 59.4969H143.648C143.448 59.4969 143.049 59.6967 142.949 59.8964L134.759 71.8817C134.659 72.0814 134.459 72.0814 134.459 71.7818L133.86 69.185C133.76 68.9852 133.56 68.7855 133.361 68.7855H128.067C127.867 68.7855 127.668 68.9852 127.768 69.185L130.165 77.3749C130.265 77.5747 130.265 77.9742 130.165 78.2738L129.166 82.2689C129.066 82.4686 129.266 82.6684 129.466 82.6684H134.659C134.859 82.6684 135.158 82.4686 135.258 82.2689L136.257 78.2738C136.357 78.074 136.457 77.6745 136.657 77.4748L149.94 59.8964C150.04 59.6967 150.04 59.4969 149.741 59.4969H148.242Z" fill="#1A1A1A"/>
<path d="M106.494 69.7842C106.494 70.0839 106.194 70.2836 105.994 70.2836H99.3027C99.1029 70.2836 99.003 70.0839 99.003 69.984C99.003 69.984 99.003 69.984 99.003 69.8841C99.6023 68.1862 100.901 67.0876 103.398 67.0876C106.194 66.9877 106.694 68.2861 106.494 69.7842ZM104.596 62.0937C96.1066 62.0937 94.0092 67.2873 92.9105 72.4809C91.8119 77.7744 91.9118 82.7682 100.701 82.7682H101.001H101.1H101.3H101.4H101.6H101.7C101.8 82.7682 101.899 82.7682 101.999 82.7682H102.099C102.499 82.7682 102.798 82.7682 103.198 82.7682C105.495 82.7682 107.892 82.7682 108.791 82.7682C108.991 82.7682 109.29 82.5685 109.29 82.3687L109.69 80.571L109.79 80.2713L110.189 78.1739C110.189 77.9742 110.089 77.7744 109.79 77.7744H101.8C98.6035 77.7744 97.7046 76.9754 98.0042 74.4785H110.689C110.888 74.4785 111.088 74.3786 111.188 74.1788V74.079C113.186 66.8878 112.686 62.0937 104.596 62.0937Z" fill="#1A1A1A"/>
<path d="M64.2458 69.7842L64.146 70.1838L63.1472 73.5796L62.1484 76.9754C62.0486 77.1751 61.8488 77.3749 61.5492 77.3749H56.4554C52.5602 77.3749 51.6613 74.3786 52.5602 69.8841C53.4591 65.3897 55.3568 62.4932 59.1521 62.1936C64.4456 61.894 65.4444 65.5894 64.2458 69.7842ZM67.6417 77.1751C67.6417 77.1751 70.0387 71.3823 70.5381 67.9865C71.2372 63.492 69.0399 57 60.3506 57C51.7612 57 47.9659 63.1924 46.5676 69.984C45.1693 76.7756 46.9671 82.7683 55.5565 82.6684H62.3482H68.6404C68.8402 82.6684 69.1398 82.4686 69.2397 82.2689L70.3383 78.074C70.4382 77.8743 70.2385 77.6745 70.0387 77.6745H68.9401H67.8414C67.7415 77.5747 67.6417 77.4748 67.6417 77.1751C67.6417 77.1751 67.6417 77.275 67.6417 77.1751Z" fill="#1A1A1A"/>
<path d="M110.49 73.2803C110.49 73.4803 110.39 73.5803 110.19 73.5803C109.99 73.5803 109.89 73.4803 109.89 73.2803C109.89 73.0803 109.99 72.9803 110.19 72.9803C110.29 72.9803 110.49 73.0803 110.49 73.2803Z" fill="#1A1A1A"/>
<path d="M1.72288 65.6893C-0.674169 69.0851 -0.374539 73.5796 1.42325 77.1751C1.42325 77.275 1.52312 77.3749 1.52312 77.4748C1.52312 77.5747 1.623 77.5747 1.623 77.6745C1.623 77.6745 1.623 77.7744 1.72288 77.7744C1.72288 77.8743 1.82275 77.8743 1.82275 77.9742C1.92263 78.074 1.92263 78.1739 2.02251 78.2738C2.02251 78.3737 2.12238 78.3737 2.12238 78.4735C2.22226 78.5734 2.22226 78.6733 2.32214 78.7732L2.42202 78.8731C2.52189 78.9729 2.62177 79.1727 2.72165 79.2726C2.72165 79.2726 2.72165 79.2726 2.72165 79.3724C2.82152 79.4723 2.9214 79.5722 3.02128 79.7719L3.12115 79.8718C3.22103 79.9717 3.32091 80.0716 3.32091 80.1715L3.42079 80.2713C3.52066 80.3712 3.62054 80.571 3.72042 80.6708C3.82029 80.7707 3.92017 80.8706 4.02005 81.0703L4.11992 81.1702C4.2198 81.2701 4.31968 81.37 4.41955 81.4699L4.51943 81.5697C4.61931 81.6696 4.81906 81.7695 4.91894 81.8694C4.91894 81.8694 4.91894 81.8694 5.01882 81.9692C5.11869 82.0691 5.21857 82.169 5.31845 82.2689L5.41832 82.3687C5.5182 82.4686 5.61808 82.5685 5.71795 82.5685C5.81783 82.5685 5.81783 82.6684 5.91771 82.6684C6.01759 82.7683 6.11746 82.8681 6.21734 82.8681L6.31722 82.968C6.41709 83.0679 6.51697 83.0679 6.61685 83.1678L6.71672 83.2676C6.91648 83.3675 7.01635 83.4674 7.21611 83.5673L7.31599 83.6671C7.41586 83.767 7.51574 83.767 7.71549 83.8669C8.01512 83.9668 8.115 83.9668 8.21488 84.0667C8.31475 84.0667 8.41463 84.1665 8.51451 84.1665C8.51451 84.1665 8.51451 84.1665 8.61439 84.1665C8.61439 84.1665 8.71426 84.1665 8.71426 84.2664C8.81414 84.3663 9.01389 84.3663 9.11377 84.4662H9.21365C9.4134 84.566 9.51328 84.566 9.71303 84.6659H9.81291C10.0127 84.7658 10.1125 84.7658 10.3123 84.8657C10.3123 84.8657 10.3123 84.8657 10.4122 84.8657C10.6119 84.9655 10.7118 84.9655 10.9116 85.0654H11.0114C11.2112 85.1653 11.4109 85.1653 11.5108 85.2652C22.9967 87.3626 26.3925 78.3737 26.3925 78.3737C23.5959 82.0691 18.6021 82.968 13.808 81.9692C13.6082 81.9692 13.4085 81.8694 13.3086 81.8694H13.2087C13.009 81.7695 12.9091 81.7695 12.7093 81.6696C12.7093 81.6696 12.7093 81.6696 12.6095 81.6696C12.4097 81.5697 12.3098 81.5697 12.21 81.4699H12.1101C11.9103 81.37 11.8104 81.37 11.6107 81.2701H11.5108C11.2112 80.9705 11.1113 80.9705 11.0114 80.8706C11.0114 80.8706 10.9116 80.8706 10.9116 80.7707C10.8117 80.6708 10.7118 80.6708 10.6119 80.571C10.512 80.571 10.512 80.4711 10.4122 80.4711C10.3123 80.3712 10.1125 80.3712 10.0127 80.2713C10.0127 80.2713 9.91279 80.2713 9.91279 80.1715C9.71303 80.0716 9.61315 79.9717 9.4134 79.8718L9.31352 79.7719C9.21365 79.6721 9.11377 79.5722 8.91402 79.5722L8.81414 79.4723C8.71426 79.3724 8.61439 79.2726 8.51451 79.2726L8.41463 79.1727C8.115 79.0728 8.01512 79.0728 7.91525 78.9729L7.81537 78.8731C7.71549 78.7732 7.51574 78.6733 7.41586 78.5734C7.31599 78.4735 7.11623 78.3737 7.01636 78.1739L6.91648 78.074C6.8166 77.9742 6.71672 77.8743 6.61685 77.7744L6.51697 77.6745C6.41709 77.5747 6.31722 77.4748 6.21734 77.275C6.01759 77.1751 5.91771 76.9754 5.81783 76.8755L5.71795 76.7756C5.61808 76.6758 5.5182 76.5759 5.41832 76.476L5.31845 76.3761C5.21857 76.1764 5.11869 76.0765 5.01882 75.9766C2.42202 72.3811 1.42325 67.4871 3.52066 63.3921" fill="#535353"/>
<path d="M9.11379 62.7929C7.41589 65.2898 7.51576 68.5857 8.81416 71.1825C9.01392 71.582 9.31355 72.0814 9.61318 72.4809C9.91281 72.8804 10.1126 73.2799 10.5121 73.5796C10.6119 73.6795 10.8117 73.8792 10.9116 73.9791L11.0115 74.079C11.1113 74.1788 11.3111 74.2787 11.411 74.4785C11.6107 74.5783 11.7106 74.7781 11.9103 74.878L12.0102 74.9779C12.21 75.0777 12.3099 75.1776 12.5096 75.3774C12.6095 75.4772 12.6095 75.4772 12.7094 75.4772C12.7094 75.4772 12.8092 75.4772 12.8092 75.5771C12.9091 75.677 13.009 75.677 13.2087 75.7769C13.2087 75.7769 13.2087 75.7769 13.3086 75.7769C13.4085 75.8767 13.5084 75.8767 13.6083 75.9766C13.6083 75.9766 13.7081 75.9766 13.7081 76.0765C13.808 76.0765 13.808 76.1764 13.9079 76.1764C14.1076 76.2763 14.2075 76.2763 14.4073 76.3761H14.5071C14.607 76.476 14.8068 76.476 14.9067 76.5759C15.0065 76.5759 15.0065 76.5759 15.1064 76.6758C15.2063 76.6758 15.3062 76.7756 15.406 76.7756C15.5059 76.7756 15.5059 76.7756 15.6058 76.8755C15.8055 76.9754 15.9054 76.9754 16.1052 76.9754C24.9942 78.4735 27.0916 71.582 27.0916 71.582C25.194 74.2787 21.6983 75.4772 17.8031 74.5783C17.6033 74.5783 17.5035 74.4785 17.3037 74.4785C17.2038 74.4785 17.2038 74.4785 17.1039 74.4785C17.0041 74.4785 16.9042 74.3786 16.7044 74.3786C16.6046 74.3786 16.6046 74.3786 16.5047 74.2787C16.4048 74.2787 16.2051 74.1788 16.1052 74.079H16.0053C15.8055 73.9791 15.7057 73.9791 15.5059 73.8792C15.406 73.8792 15.3062 73.7793 15.3062 73.7793C15.3062 73.7793 15.2063 73.7793 15.2063 73.6795C15.1064 73.5796 15.0065 73.5796 14.9067 73.4797C14.9067 73.4797 14.9067 73.4797 14.8068 73.4797C14.7069 73.3798 14.607 73.3798 14.4073 73.2799C14.4073 73.2799 14.3074 73.2799 14.3074 73.1801C14.2075 73.0802 14.1076 73.0802 14.1076 72.9803C13.9079 72.8804 13.808 72.7806 13.6083 72.5808L13.5084 72.4809C11.8105 71.1825 10.5121 69.3847 9.91281 67.2873C9.21367 65.1899 9.41342 62.7929 10.5121 60.7953" fill="#535353"/>
<path d="M15.406 60.6954C14.4072 62.1936 14.3074 64.0913 15.0065 65.6893C15.7056 67.4871 17.3037 68.7855 19.1015 69.4846C19.2013 69.4846 19.2013 69.5845 19.3012 69.5845H19.4011C19.501 69.5845 19.6008 69.6844 19.7007 69.6844C24.5947 70.6831 25.993 67.1874 26.2926 66.6881C25.0941 68.386 23.1964 68.7855 20.7994 68.1862C20.5996 68.1862 20.3999 68.0863 20.2001 67.9865C20.0003 67.8866 19.7007 67.7867 19.501 67.6868C19.1015 67.4871 18.7019 67.1874 18.3024 66.9877C16.1051 65.3897 14.8067 62.1936 16.205 59.6967" fill="#535353"/>
<path d="M70.7379 89.8595L69.3396 93.0556H67.7416L67.8414 90.1591L66.6429 93.0556H65.1447V89.8595L65.3445 89.0605H66.4431L66.2434 92.2566L67.4419 89.0605H68.9401L68.8402 92.2566L70.0387 89.0605H70.9376L70.7379 89.8595Z" fill="#535353"/>
<path d="M73.2348 90.7584C73.3346 90.1591 73.3346 90.0593 73.035 90.0593H72.5356L72.236 91.5574L71.7366 93.0556H70.8377L71.5368 89.5599L71.6367 89.0605H72.4357L72.5356 89.2602C72.5356 89.2602 73.035 88.9606 73.5344 88.9606C74.5332 88.9606 74.4333 89.7596 74.2335 90.7584H73.2348Z" fill="#535353"/>
<path d="M76.2311 88.5611C75.8316 88.5611 75.532 88.4612 75.6318 87.9619C75.7317 87.4625 76.0313 87.3626 76.4308 87.3626C76.8304 87.3626 77.13 87.4625 77.0301 87.9619C76.9302 88.3614 76.5307 88.5611 76.2311 88.5611ZM75.7317 93.0556H74.8328L75.0326 91.4575L75.3322 89.9594L74.7329 89.8595L74.9327 88.9606H76.6306L75.7317 93.0556Z" fill="#535353"/>
<path d="M79.7268 89.8595L78.6281 89.9594L78.3285 91.4575C78.2286 91.8571 78.2286 91.9569 78.6281 91.9569H79.4271L79.1275 92.9557C79.1275 92.9557 78.4284 93.1555 78.1287 93.1555C76.9302 93.1555 76.9302 92.5562 77.2298 91.5574L77.5295 90.0593L76.9302 89.9594L77.13 89.0605H77.8291L78.2286 88.0617H79.1275L78.9277 89.0605H80.0264L79.7268 89.8595Z" fill="#535353"/>
<path d="M82.0239 89.9594C81.5245 89.9594 81.2249 90.259 81.125 90.7584L82.6232 90.6585C82.7231 90.259 82.6232 89.9594 82.0239 89.9594ZM80.9253 91.4575C80.8254 91.9569 81.0252 92.1567 81.6244 92.1567H83.2225L83.0227 92.8558C83.0227 92.8558 82.0239 93.1554 81.3248 93.1554C79.527 93.1554 79.527 92.1567 79.7268 91.058C79.9265 90.0593 80.326 88.9606 82.0239 88.9606C83.622 88.9606 83.7218 89.9594 83.3223 91.4575H80.9253Z" fill="#535353"/>
<path d="M87.2175 93.0556H86.3186L86.5184 91.4575L87.1176 88.4612L86.5184 88.3614L86.7181 87.4625H88.416L87.2175 93.0556Z" fill="#535353"/>
<path d="M90.4136 89.9594C89.9142 89.9594 89.6146 90.259 89.5147 90.7584L91.0128 90.6585C91.1127 90.259 91.0129 89.9594 90.4136 89.9594ZM89.4148 91.4575C89.3149 91.9569 89.5147 92.1567 90.114 92.1567H91.712L91.5122 92.8558C91.5122 92.8558 90.5135 93.1554 89.8143 93.1554C88.0165 93.1554 88.0165 92.1567 88.2163 91.058C88.4161 90.0593 88.8156 88.9606 90.5135 88.9606C92.1115 88.9606 92.2114 89.9594 91.8119 91.4575H89.4148Z" fill="#535353"/>
<path d="M96.1066 89.9594C96.1066 89.9594 94.908 89.9594 94.6084 89.9594C93.9093 89.9594 93.9093 90.1591 93.8094 90.3589V90.5586L95.9068 90.7584C95.9068 90.7584 95.9068 91.4575 95.8069 91.857C95.7071 92.4563 95.0079 93.1554 93.8094 93.1554C93.2101 93.1554 92.3112 92.9557 92.3112 92.9557L92.511 92.1567H94.0092C94.7083 92.1567 94.7083 91.9569 94.8082 91.7572V91.4575L92.7108 91.2578C92.7108 91.2578 92.6109 90.7584 92.7108 90.259C92.9105 89.5599 93.5098 88.9606 94.7083 88.9606C95.3076 88.9606 96.2065 89.1604 96.2065 89.1604L96.1066 89.9594Z" fill="#535353"/>
<path d="M100.102 89.9594C100.102 89.9594 98.9031 89.9594 98.6035 89.9594C97.9044 89.9594 97.9044 90.1591 97.8045 90.3589V90.5586L99.9019 90.7584C99.9019 90.7584 99.9019 91.4575 99.802 91.857C99.7022 92.4563 99.003 93.1554 97.8045 93.1554C97.2052 93.1554 96.3063 92.9557 96.3063 92.9557L96.5061 92.1567H98.0042C98.7034 92.1567 98.7034 91.9569 98.8033 91.7572V91.4575L96.7058 91.2578C96.7058 91.2578 96.606 90.7584 96.7058 90.259C96.9056 89.5599 97.5049 88.9606 98.7034 88.9606C99.3026 88.9606 100.202 89.1604 100.202 89.1604L100.102 89.9594Z" fill="#535353"/>
<path d="M101.4 93.6548H100.601V93.0556C100.301 93.0556 100.202 92.8558 100.202 92.4563C100.301 91.9569 100.601 91.8571 101.001 91.8571C101.4 91.8571 101.7 91.9569 101.6 92.4563L101.4 93.6548Z" fill="#535353"/>
<path d="M106.594 90.0593C105.994 90.0593 105.795 90.4588 105.695 91.058C105.595 91.7572 105.595 92.0568 106.194 92.0568H106.993L107.493 90.0593H106.594ZM107.992 92.5562L107.892 93.0556H107.093L106.993 92.7559C106.993 92.7559 106.294 93.0556 105.795 93.0556C104.496 93.0556 104.496 92.0568 104.696 90.9582C104.896 89.8595 105.395 88.8607 106.694 88.8607C107.193 88.8607 107.792 89.0605 107.792 89.0605L108.292 87.3626H109.19L107.992 92.5562Z" fill="#535353"/>
<path d="M111.188 89.9594C110.389 89.9594 110.189 90.3589 109.989 91.058C109.89 91.6573 109.89 92.1567 110.689 92.1567C111.488 92.1567 111.687 91.7572 111.887 91.058C112.087 90.4588 111.987 89.9594 111.188 89.9594ZM110.589 93.1554C108.991 93.1554 108.791 92.1567 109.091 91.058C109.29 89.9594 109.89 88.9606 111.488 88.9606C113.086 88.9606 113.285 89.9594 112.986 91.058C112.786 92.1567 112.187 93.1554 110.589 93.1554Z" fill="#535353"/>
<path d="M119.777 93.0556L119.977 91.4575L120.077 91.058C120.177 90.4588 120.277 90.0593 119.678 90.0593H119.178C119.178 90.3589 119.178 90.7584 119.078 91.058L118.679 93.0556H117.78L117.98 91.4575L118.08 91.058C118.179 90.4588 118.279 90.0593 117.68 90.0593H117.281L116.581 93.0556H115.483L116.382 89.0605H117.181L117.281 89.2602C117.281 89.2602 117.88 88.9606 118.279 88.9606C118.579 88.9606 118.879 89.1604 118.978 89.3601C119.178 89.2602 119.777 88.9606 120.177 88.9606C121.475 88.9606 121.375 89.9594 121.176 91.058L120.776 93.0556H119.777Z" fill="#535353"/>
<path d="M123.972 89.9594C123.173 89.9594 122.973 90.3589 122.774 91.058C122.674 91.6573 122.674 92.1567 123.473 92.1567C124.272 92.1567 124.472 91.7572 124.671 91.058C124.771 90.4588 124.771 89.9594 123.972 89.9594ZM123.273 93.1554C121.675 93.1554 121.475 92.1567 121.775 91.058C121.975 89.9594 122.574 88.9606 124.172 88.9606C125.77 88.9606 125.97 89.9594 125.67 91.058C125.47 92.1567 124.871 93.1554 123.273 93.1554Z" fill="#535353"/>
<path d="M128.467 90.7584C128.567 90.1591 128.567 90.0593 128.267 90.0593H127.768L127.468 91.5574L126.969 93.0556H126.07L126.769 89.5599L126.869 89.0605H127.668L127.768 89.2602C127.768 89.2602 128.267 88.9606 128.766 88.9606C129.765 88.9606 129.665 89.7596 129.465 90.7584H128.467Z" fill="#535353"/>
<path d="M131.962 89.9594C131.463 89.9594 131.163 90.259 131.063 90.7584L132.562 90.6585C132.662 90.259 132.562 89.9594 131.962 89.9594ZM130.864 91.4575C130.764 91.9569 130.964 92.1567 131.563 92.1567H133.161L132.961 92.8558C132.961 92.8558 131.962 93.1554 131.263 93.1554C129.465 93.1554 129.465 92.1567 129.665 91.058C129.865 90.0593 130.264 88.9606 131.962 88.9606C133.56 88.9606 133.66 89.9594 133.261 91.4575H130.864Z" fill="#535353"/>
<path d="M134.359 93.1554C133.96 93.1554 133.66 93.0556 133.76 92.5562C133.86 92.0568 134.16 91.9569 134.559 91.9569C134.959 91.9569 135.158 92.0568 135.158 92.5562C135.059 92.9557 134.759 93.1554 134.359 93.1554Z" fill="#535353"/>
</svg>
