<svg width="150" height="150" viewBox="0 0 150 150" fill="none" xmlns="http://www.w3.org/2000/svg">
<path fill-rule="evenodd" clip-rule="evenodd" d="M74.7706 2C33.4862 2 0 35.4862 0 76.7706C0 109.798 21.5596 137.78 50.9174 147.872C54.5872 148.33 55.9633 146.037 55.9633 144.202C55.9633 142.367 55.9633 137.78 55.9633 131.358C35.3211 135.945 30.7339 121.266 30.7339 121.266C27.5229 112.55 22.4771 110.257 22.4771 110.257C15.5963 105.67 22.9358 105.67 22.9358 105.67C30.2752 106.128 34.4037 113.468 34.4037 113.468C41.2844 124.936 51.8349 121.725 55.9633 119.89C56.422 114.844 58.7156 111.633 60.5505 109.798C44.0367 107.963 26.6055 101.541 26.6055 72.6422C26.6055 64.3853 29.3578 57.9633 34.4037 52.4587C33.945 51.0826 31.1927 43.2844 35.3211 33.1927C35.3211 33.1927 41.7431 31.3578 55.9633 40.9908C61.9266 39.156 68.3486 38.6972 74.7706 38.6972C81.1927 38.6972 87.6147 39.6147 93.578 40.9908C107.798 31.3578 114.22 33.1927 114.22 33.1927C118.349 43.2844 115.596 51.0826 115.138 52.9174C119.725 57.9633 122.936 64.844 122.936 73.1009C122.936 102 105.505 107.963 88.9908 109.798C91.7431 112.092 94.0367 116.679 94.0367 123.56C94.0367 133.651 94.0367 141.45 94.0367 144.202C94.0367 146.037 95.4128 148.33 99.0826 147.872C128.899 137.78 150 109.798 150 76.7706C149.541 35.4862 116.055 2 74.7706 2Z" fill="#1A1414"/>
</svg>
