<svg width="150" height="150" viewBox="0 0 150 150" fill="none" xmlns="http://www.w3.org/2000/svg">
<path d="M39.4737 65.499C43.471 65.499 45.3697 67.4977 45.3697 70.5956C45.3697 72.994 44.2705 74.3931 42.0719 74.8927C44.97 75.3924 46.3691 76.9913 46.3691 79.6895C46.3691 82.7875 44.2705 84.986 39.8734 84.986H31.7788V65.499H39.4737ZM34.5769 68.0973V73.8934H39.1739C41.6722 73.8934 42.7715 72.6942 42.7715 70.8954C42.7715 69.0966 41.6722 68.0973 39.1739 68.0973H34.5769ZM34.5769 76.2918V82.3877H40.0733C42.6715 82.3877 43.7708 81.4883 43.7708 79.4897C43.7708 77.3911 42.6715 76.2918 39.9733 76.2918H34.5769Z" fill="#363636"/>
<path d="M50.8661 64.4997C51.7655 64.3997 52.565 65.0993 52.6649 65.9987C52.6649 66.0986 52.6649 66.1985 52.6649 66.1985C52.6649 67.1979 51.8654 67.9973 50.8661 67.9973C49.8668 67.9973 49.0673 67.1979 49.0673 66.1985C48.9674 65.2991 49.6669 64.4997 50.5663 64.3997C50.6662 64.4997 50.7662 64.4997 50.8661 64.4997ZM49.567 70.1959H52.1652V85.0859H49.567V70.1959Z" fill="#363636"/>
<path d="M61.8588 82.5876C62.3584 82.5876 62.958 82.4877 63.4577 82.3877V84.8861C62.8581 85.0859 62.3584 85.0859 61.7588 85.0859C58.561 85.0859 57.062 83.1872 57.062 80.489V72.5943H54.6636V70.1959H57.062V67.0979H59.5603V70.2958H63.5576V72.6942H59.5603V80.489C59.4604 81.6882 60.2598 82.5876 61.8588 82.5876Z" fill="#363636"/>
<path d="M74.0506 85.3857C71.8521 85.3857 70.2532 84.3864 69.3538 82.4877V85.0859H66.7555V64H69.3538V72.8941C70.3531 70.8954 72.052 69.8961 74.3504 69.8961C78.3478 69.8961 80.3464 73.2938 80.3464 77.5909C80.2465 81.8881 78.1479 85.3857 74.0506 85.3857ZM73.6509 72.2945C71.3524 72.2945 69.3538 73.7935 69.3538 77.0913V78.2905C69.3538 81.5883 71.2525 83.0873 73.451 83.0873C76.3491 83.0873 77.8481 81.1885 77.8481 77.6909C77.7482 74.0933 76.2492 72.2945 73.6509 72.2945Z" fill="#363636"/>
<path d="M82.9447 70.1959H85.543V79.1899C85.543 81.8881 86.6422 83.0873 89.0406 83.0873C91.439 83.0873 93.038 81.4883 93.038 78.4903V70.1959H95.6362V85.0859H93.038V82.6875C92.1386 84.3864 90.3398 85.4857 88.3411 85.3857C84.9434 85.3857 82.9447 82.9873 82.9447 78.8901V70.1959Z" fill="#363636"/>
<path d="M109.927 84.6862C109.027 85.1859 107.628 85.3857 106.329 85.3857C101.033 85.3857 98.5343 82.1879 98.5343 77.5909C98.5343 73.0939 101.033 69.8961 106.329 69.8961C107.528 69.8961 108.728 70.0959 109.827 70.5956V72.994C108.728 72.4943 107.628 72.2945 106.429 72.2945C102.532 72.2945 101.033 74.6929 101.033 77.5909C101.033 80.489 102.632 82.8874 106.529 82.8874C107.728 82.8874 108.827 82.6875 109.927 82.3877V84.6862Z" fill="#363636"/>
<path d="M112.825 85.0859V64H115.423V77.1912L121.819 70.1959H125.117L118.121 77.491L125.416 85.0859H121.919L115.423 78.0906V85.0859H112.825Z" fill="#363636"/>
<path d="M133.911 85.3857C128.314 85.3857 125.916 82.1879 125.916 77.5909C125.916 73.0939 128.414 69.8961 132.911 69.8961C137.508 69.8961 139.307 73.0939 139.307 77.5909V78.7901H128.414C128.814 81.2885 130.413 82.9873 133.911 82.9873C135.41 82.9873 137.009 82.6875 138.408 82.1879V84.5863C137.308 85.1859 135.41 85.3857 133.911 85.3857ZM128.514 76.5916H136.809C136.709 73.7935 135.41 72.2945 132.811 72.2945C130.113 72.1945 128.714 73.9933 128.514 76.5916Z" fill="#363636"/>
<path d="M148.301 82.5876C148.801 82.5876 149.4 82.4877 149.9 82.3877V84.8861C149.3 85.0859 148.801 85.0859 148.201 85.0859C145.003 85.0859 143.504 83.1872 143.504 80.489V72.5943H141.106V70.1959H143.504V67.0979H146.003V70.2958H150V72.6942H146.003V80.489C145.903 81.6882 146.702 82.5876 148.301 82.5876Z" fill="#363636"/>
<path d="M0.699534 66.0986C0.2998 66.0986 0 66.3984 0 66.7981V66.8981L2.89807 84.2865C2.998 84.6862 3.39773 85.0859 3.79747 85.0859H17.5883C17.8881 85.0859 18.1879 84.8861 18.2878 84.4863L21.1859 66.8981C21.2858 66.4983 20.986 66.1985 20.5863 66.0986H20.4863H0.699534ZM12.7915 78.6902H8.3944L7.1952 72.4943H13.8907L12.7915 78.6902Z" fill="#757575"/>
<path d="M20.1866 72.4943H13.8907L12.7915 78.6902H8.39441L3.19788 84.8861C3.39774 84.986 3.59761 85.0859 3.79748 85.0859H17.5883C17.8881 85.0859 18.1879 84.8861 18.2878 84.4863L20.1866 72.4943Z" fill="url(#paint0_linear)"/>
<defs>
<linearGradient id="paint0_linear" x1="21.6484" y1="74.2355" x2="11.1629" y2="82.419" gradientUnits="userSpaceOnUse">
<stop offset="0.18" stop-color="#474747"/>
<stop offset="1" stop-color="#757575"/>
</linearGradient>
</defs>
</svg>
