<svg width="150" height="150" viewBox="0 0 150 150" fill="none" xmlns="http://www.w3.org/2000/svg">
<g clip-path="url(#clip0)">
<path d="M28.1 67.3H30.1V77.6C30.1 80.3 28.9 82.2 26.1 82.2C25.3 82.2 24.4 82.1 23.7 81.8V79.8C24.4 80.1 25.1 80.2 25.8 80.2C27.5 80.2 28.1 79.2 28.1 77.7V67.3Z" fill="#363636"/>
<path d="M33.8 66.5C34.5 66.4 35.1 67 35.2 67.7C35.2 67.8 35.2 67.8 35.2 67.9C35.2 68.6 34.6 69.3 33.8 69.3C33.1 69.3 32.4 68.7 32.4 67.9C32.3 67.2 32.9 66.6 33.6 66.5C33.7 66.5 33.8 66.5 33.8 66.5ZM32.8 70.9H34.7V82.2H32.8V70.9Z" fill="#363636"/>
<path d="M37.7 70.9H39.6V72.9C40.3 71.6 41.4 70.6 43.6 70.8V72.7C41.1 72.4 39.6 73.2 39.6 75.6V82.3H37.7V70.9Z" fill="#363636"/>
<path d="M52.7 80.1C52 81.6 50.6 82.4 48.9 82.4C45.9 82.4 44.4 79.8 44.4 76.5C44.4 73.3 46 70.6 49.1 70.6C50.7 70.6 52 71.3 52.7 72.8V70.8H54.6V82.1H52.7V80.1ZM49.4 80.6C51.1 80.6 52.7 79.5 52.7 77V76.1C52.7 73.6 51.3 72.5 49.6 72.5C47.4 72.5 46.3 73.9 46.3 76.6C46.3 79.2 47.4 80.6 49.4 80.6Z" fill="#363636"/>
<path d="M66.2 82.4C63.3 82.4 62 81.8 60.8 81.2V79.1C62.2 79.8 64.3 80.3 66.3 80.3C68.5 80.3 69.4 79.4 69.4 78.1C69.4 76.8 68.6 76.1 65.8 75.4C62.5 74.6 61 73.4 61 71C61 68.7 62.8 67 66.2 67C68.3 67 69.7 67.5 70.7 68.1V70.1C69.3 69.3 67.7 68.9 66.1 69C64.2 69 63 69.7 63 71C63 72.2 64 72.8 66.6 73.5C69.7 74.3 71.5 75.3 71.5 78C71.4 80.7 69.9 82.4 66.2 82.4Z" fill="#363636"/>
<path d="M73.1 76.5C73.1 73.1 75.1 70.6 78.5 70.6C81.9 70.6 83.8 73.1 83.8 76.5C83.8 79.9 81.8 82.4 78.5 82.4C75.2 82.4 73.1 79.9 73.1 76.5ZM75 76.5C75 78.6 76.1 80.6 78.5 80.6C80.9 80.6 81.9 78.7 81.9 76.5C81.9 74.3 80.9 72.5 78.5 72.5C76.1 72.5 75 74.3 75 76.5Z" fill="#363636"/>
<path d="M88.8 70.9H91.7V72.7H88.8V82.2H86.9V72.7H85.1V70.9H86.9V69.6C86.9 67.5 88.1 66.1 90.5 66.1C90.9 66.1 91.4 66.2 91.8 66.3V68.1C91.4 68 91 68 90.6 68C89.4 68 88.8 68.7 88.8 69.7V70.9Z" fill="#363636"/>
<path d="M98.3 80.3C98.7 80.3 99.1 80.2 99.5 80.1V82C99.1 82.1 98.6 82.2 98.2 82.2C95.8 82.2 94.6 80.8 94.6 78.7V72.7H92.8V70.9H94.6V68.5H96.5V70.9H99.5V72.7H96.5V78.6C96.5 79.6 97.1 80.3 98.3 80.3Z" fill="#363636"/>
<path d="M100.1 70.9H102.2L105.5 80.5L108.8 70.9H110.7L114 80.5L117.3 70.9H119.4L115.2 82.2H112.7L110.8 76.7L109.8 73.2L108.8 76.7L106.8 82.2H104.3L100.1 70.9Z" fill="#363636"/>
<path d="M128.2 80.1C127.5 81.6 126.1 82.4 124.4 82.4C121.4 82.4 119.9 79.8 119.9 76.5C119.9 73.3 121.5 70.6 124.6 70.6C126.2 70.6 127.5 71.3 128.2 72.8V70.8H130.1V82.1H128.2V80.1ZM124.9 80.6C126.6 80.6 128.2 79.5 128.2 77V76.1C128.2 73.6 126.8 72.5 125.1 72.5C122.9 72.5 121.8 74 121.8 76.6C121.8 79.2 122.9 80.6 124.9 80.6Z" fill="#363636"/>
<path d="M133.1 70.9H135V72.9C135.7 71.6 136.8 70.6 139 70.8V72.7C136.5 72.4 135 73.2 135 75.6V82.3H133.1V70.9Z" fill="#363636"/>
<path d="M145.9 82.4C141.7 82.4 139.8 80 139.8 76.5C139.8 73.1 141.7 70.6 145.1 70.6C148.6 70.6 150 73 150 76.5V77.4H141.7C142 79.3 143.2 80.6 145.9 80.6C147.1 80.6 148.2 80.4 149.3 80V81.8C148.4 82.2 147 82.4 145.9 82.4ZM141.7 75.7H148C147.9 73.6 146.9 72.4 145 72.4C143 72.4 141.9 73.7 141.7 75.7Z" fill="#363636"/>
<path d="M18.6 74.2L10.2 65.8L9.40001 65L3.10001 71.3L0.200006 74.2C-0.0999939 74.5 -0.0999939 75 0.200006 75.3L6.00001 81L9.40001 84.4L15.7 78.1L15.8 78L18.6 75.2C18.9 75 18.9 74.5 18.6 74.2ZM9.40001 77.6L6.50001 74.7L9.40001 71.8L12.3 74.7L9.40001 77.6Z" fill="#757575"/>
<path d="M9.40001 71.9C7.50001 70 7.50001 66.9 9.40001 65L3.10001 71.3L6.50001 74.7L9.40001 71.9Z" fill="url(#paint0_linear)"/>
<path d="M12.3 74.7L9.39999 77.6C11.3 79.5 11.3 82.6 9.39999 84.5L15.7 78.2L12.3 74.7Z" fill="url(#paint1_linear)"/>
</g>
<defs>
<linearGradient id="paint0_linear" x1="8.90041" y1="68.9436" x2="4.88101" y2="72.963" gradientUnits="userSpaceOnUse">
<stop offset="0.18" stop-color="#474747"/>
<stop offset="1" stop-color="#757575"/>
</linearGradient>
<linearGradient id="paint1_linear" x1="9.96559" y1="80.4917" x2="13.9773" y2="76.48" gradientUnits="userSpaceOnUse">
<stop offset="0.18" stop-color="#474747"/>
<stop offset="1" stop-color="#757575"/>
</linearGradient>
<clipPath id="clip0">
<rect width="150" height="19.5" fill="white" transform="translate(0 65)"/>
</clipPath>
</defs>
</svg>
