<svg width="150" height="150" viewBox="0 0 150 150" fill="none" xmlns="http://www.w3.org/2000/svg">
<g clip-path="url(#clip0)">
<path d="M19.72 55.05C15.7 55.44 11.97 58.29 10.15 62.37C9.11 64.7 8.54 67.21 8.47 69.92C8.36 73.88 9.39 77.87 11.55 81.77L11.79 82.2L11.64 82.58C11.56 82.79 11.46 83.1599 11.43 83.4099C11.23 84.9099 12.27 86.35 13.78 86.67C14.26 86.77 14.51 86.77 14.99 86.67C16.04 86.45 16.85 85.7399 17.21 84.7099C17.41 84.1399 17.41 83.36 17.21 82.78C17.03 82.27 16.63 81.71 16.25 81.42C15.63 80.96 14.79 80.7 14.16 80.77L13.88 80.8L13.5 80.1099C12.23 77.7699 11.47 75.39 11.15 72.68C10.98 71.3 11.03 69.03 11.24 67.54C11.6 65.01 12.72 62.4099 14.23 60.5599C15.42 59.1099 17.41 58.0499 19.69 57.6599C22.08 57.2599 23.97 57.8699 25.7 59.6099C26.41 60.3299 26.83 60.8799 27.36 61.8099C28.19 63.2699 28.87 65.2399 29.07 66.7599L29.14 67.3L29.45 67.38C29.62 67.43 30.21 67.61 30.77 67.78C31.32 67.95 31.78 68.08 31.79 68.07C31.82 68.04 31.66 66.66 31.53 65.95C30.54 60.38 27.22 56.29 22.82 55.23C21.72 55 20.82 54.94 19.72 55.05Z" fill="#646464"/>
<path d="M108.54 67.4499C108.54 69.7599 108.52 71.6599 108.5 71.6599C108.48 71.6599 108.29 71.5399 108.08 71.3799C107.57 71.0099 106.86 70.6699 106.29 70.5299C105.68 70.3799 104.48 70.3199 103.81 70.4099C101.5 70.7199 99.61 72.1699 98.53 74.4599C97.67 76.2699 97.36 78.5999 97.65 80.9699C97.92 83.1199 98.69 84.9299 99.84 86.0799C101.01 87.2699 102.43 87.7799 104.21 87.6499C105.83 87.5299 107.13 86.9299 108.41 85.7099L108.81 85.34L109.03 86.0599C109.28 86.8599 109.41 87.0799 109.74 87.2699C109.96 87.3899 110 87.3999 111.75 87.4199L113.53 87.44V75.34V63.24H111.03H108.53V67.4499H108.54ZM106.82 74.1599C107.36 74.2899 107.84 74.54 108.2 74.89L108.54 75.2099V78.7099V82.2099L108.32 82.4799C107.53 83.4099 106.43 83.8899 105.23 83.8199C103.89 83.7399 103.12 82.7799 102.82 80.7699C102.7 80.0199 102.72 78.0599 102.85 77.3499C103.1 75.9799 103.6 75.0099 104.32 74.5199C104.95 74.0699 105.89 73.9399 106.82 74.1599Z" fill="#646464"/>
<path d="M62.73 75.67V87.44H65.45H68.17V83.09V78.74H69.06C70.18 78.74 70.42 78.7999 70.79 79.1799C71 79.3899 71.54 80.2899 73.09 83.0099C74.21 84.9699 75.19 86.66 75.29 86.77C75.49 87.01 76.01 87.2899 76.41 87.3799C76.7 87.4399 81.92 87.4799 81.92 87.4099C81.92 87.3299 76.81 79.0499 76.6 78.7799C76.32 78.4399 75.73 77.93 75.35 77.72L75.13 77.6L75.74 77.3C76.65 76.86 77.1 76.5399 77.83 75.8299C78.66 75.0299 79.29 73.8899 79.59 72.7099C79.77 72.0199 79.84 70.4999 79.73 69.7599C79.31 66.8999 77.49 65.11 74.21 64.32C72.77 63.97 72.69 63.97 67.48 63.94L62.72 63.92V75.67H62.73ZM72.03 68.17C73.28 68.5 74.08 69.24 74.38 70.35C74.51 70.83 74.5 71.85 74.35 72.4C74.09 73.38 73.55 74.0499 72.65 74.4799C71.82 74.8699 71.53 74.92 69.73 74.95L68.17 74.97V71.4799V67.99L69.87 68.02C71.38 68.04 71.63 68.06 72.03 68.17Z" fill="#646464"/>
<path d="M17.38 67.47C16.29 67.77 15.48 68.61 15.22 69.7C14.88 71.15 15.71 72.67 17.13 73.18C17.59 73.35 18.36 73.38 18.83 73.26C19.61 73.06 20.33 72.5401 20.7 71.8901C20.9 71.5501 20.9 71.55 21.21 71.51C21.64 71.45 23.46 71.52 24.3 71.62C27.57 72.02 30.51 73.12 33.29 74.97C34.61 75.85 35.94 77.05 36.82 78.13C38.11 79.73 39.13 81.8 39.47 83.51C39.61 84.23 39.64 85.51 39.52 86.13C39.23 87.65 38.5 88.99 37.3 90.21C36.1 91.42 34.85 92.07 33.12 92.38C32.28 92.53 30.74 92.54 29.84 92.4C28.95 92.27 27.7 91.95 26.94 91.66C26.58 91.53 26.27 91.41 26.25 91.41C26.23 91.41 25.92 91.65 25.58 91.93C25.23 92.22 24.7 92.64 24.4 92.87C24.1 93.1 23.87 93.3 23.89 93.32C23.97 93.39 25.04 93.83 25.7 94.06C27.36 94.63 28.94 94.91 30.65 94.91C31.87 94.92 32.43 94.86 33.54 94.63C36.86 93.94 39.88 91.76 41.2 89.13C42.23 87.06 42.37 84.25 41.56 81.6C41.03 79.87 40.2 78.31 39.01 76.82C38.43 76.09 37.02 74.65 36.35 74.08C32.99 71.26 29 69.6 24.37 69.1C23.92 69.05 22.93 69 22.18 68.98L20.8 68.95L20.65 68.71C20.31 68.17 19.58 67.66 18.89 67.48C18.47 67.38 17.73 67.38 17.38 67.47Z" fill="#646464"/>
<path d="M87.86 70.48C85.93 70.72 84.35 71.48 83.07 72.75C81.16 74.66 80.4 77.27 80.84 80.47C81.29 83.81 83.34 86.34 86.34 87.26C87.51 87.61 88.61 87.74 90 87.65C92.66 87.49 94.79 86.59 96.2 85.03L96.41 84.81L95.6 83.8C94.65 82.62 94.59 82.58 93.93 82.62C93.53 82.64 93.45 82.66 92.59 83.1C91.53 83.63 91.03 83.81 90.33 83.91C88.52 84.15 86.98 83.42 86.29 81.99C86.03 81.45 85.84 80.81 85.77 80.27L85.74 79.98L90.79 79.96C95.72 79.94 95.84 79.94 96.03 79.83C96.31 79.67 96.43 79.39 96.5 78.73C96.61 77.67 96.42 76.14 96.04 75.06C95.19 72.66 93.37 71.12 90.77 70.59C90.13 70.46 88.49 70.4 87.86 70.48ZM89.95 73.99C90.11 74.03 90.39 74.14 90.55 74.22C90.9 74.39 91.45 74.95 91.63 75.29C91.8 75.62 91.97 76.28 91.99 76.68L92.01 77.02L88.91 77.04L85.8 77.05L85.84 76.81C86.08 75.4 87.01 74.27 88.15 73.99C88.58 73.89 89.56 73.88 89.95 73.99Z" fill="#646464"/>
<path d="M116.11 76.3C116.11 80.03 116.13 82.07 116.17 82.41C116.35 83.9 116.88 85.1401 117.73 86.0401C118.88 87.2601 120.46 87.81 122.39 87.65C123.93 87.53 125.22 86.95 126.39 85.87C126.58 85.7 126.67 85.65 126.68 85.7C126.7 85.74 126.76 85.97 126.83 86.2C127.05 86.97 127.27 87.24 127.75 87.37C127.89 87.41 128.6 87.43 129.62 87.43H131.26V79.07V70.71H128.76H126.26V76.67L126.25 82.6401L125.95 82.88C125.55 83.2 124.87 83.59 124.44 83.73C124.22 83.81 123.89 83.86 123.53 83.88C123.04 83.91 122.9 83.9001 122.55 83.7901C122.19 83.6801 122.1 83.62 121.79 83.32C121.41 82.94 121.25 82.58 121.14 81.96C121.11 81.76 121.08 79.44 121.08 76.16V70.7H118.58H116.08V76.3H116.11Z" fill="#646464"/>
<path d="M132.48 70.77C132.5 70.81 133.71 72.62 135.16 74.79C136.61 76.97 137.78 78.78 137.76 78.82C137.74 78.86 136.49 80.8 134.98 83.14C133.47 85.47 132.23 87.3899 132.23 87.4099C132.23 87.4699 136.86 87.4399 137.09 87.3799C137.53 87.2599 137.83 86.8499 139.23 84.4599C139.95 83.2399 140.61 82.07 140.71 81.87L140.89 81.4799L140.99 81.64C141.05 81.72 141.74 82.9099 142.53 84.2799C143.33 85.6499 144.04 86.8499 144.11 86.9299C144.19 87.0199 144.37 87.17 144.51 87.25L144.77 87.4L147.4 87.42C149.53 87.43 150.02 87.4199 150 87.3599C149.98 87.3199 148.74 85.3399 147.24 82.9599C145.74 80.5899 144.5 78.6199 144.48 78.5799C144.47 78.5499 145.66 76.77 147.13 74.62L149.8 70.72L147.43 70.7C146.12 70.69 144.98 70.7 144.88 70.72C144.5 70.79 144.31 71.07 142.95 73.44C142.24 74.69 141.61 75.8199 141.56 75.9599L141.46 76.2099L140.81 75.15C140.46 74.57 139.75 73.4 139.24 72.55C138.49 71.3 138.28 70.98 138.1 70.87L137.88 70.72L135.16 70.7C132.96 70.7 132.45 70.72 132.48 70.77Z" fill="#646464"/>
<path d="M5.82998 74.0099C2.54998 76.5499 0.649981 79.5399 0.119981 82.9999C-0.270019 85.5499 0.289981 88.4299 1.55998 90.4099C2.93998 92.5599 5.57998 94.1499 8.62998 94.6599C11.09 95.0799 13.74 94.7999 16.73 93.8199C22.1 92.0599 26.2 88.5899 28.9 83.5299C29.17 83.0199 29.24 82.9299 29.35 82.9299C29.42 82.9299 29.65 82.8699 29.86 82.7999C31.04 82.3699 31.79 81.2899 31.79 80.0199C31.78 79.1099 31.55 78.5299 30.93 77.8999C30.31 77.2799 29.72 77.0399 28.81 77.0399C27.43 77.0399 26.27 77.9399 25.92 79.3099C25.71 80.1599 25.96 81.2499 26.51 81.8899L26.69 82.0899L26.58 82.3299C26.41 82.7099 25.73 83.8199 25.32 84.3899C23.54 86.8699 20.92 88.9999 17.62 90.6399C15.53 91.6799 13.53 92.2099 11.36 92.2799C7.35998 92.4199 4.59998 91.0099 3.10998 88.0299C1.57998 84.9799 2.15998 81.6199 4.74998 78.4999C5.20998 77.9399 5.99998 77.1499 6.55998 76.6799L6.85998 76.4299L6.62998 75.5899C6.49998 75.1299 6.33998 74.5199 6.27998 74.2299C6.21998 73.9499 6.15998 73.7099 6.15998 73.7199C6.18998 73.7399 6.01998 73.8599 5.82998 74.0099Z" fill="#646464"/>
</g>
<defs>
<clipPath id="clip0">
<rect width="150" height="39.9" fill="white" transform="translate(0 55)"/>
</clipPath>
</defs>
</svg>
