<svg width="150" height="150" viewBox="0 0 150 150" fill="none" xmlns="http://www.w3.org/2000/svg">
<path d="M140 130V20C140 15.5 137 11.7 132.9 10.5L128.2 13.3L76.3 68.6L74.7 73.7L73.7 78.6L89.9 139.1L92.4 140H130C135.5 140 140 135.5 140 130Z" fill="#858585"/>
<path d="M10 20V130C10 133.4 11.7 136.4 14.3 138.2L17.5 136.7L72.5 77.8L74.7 73.6L74.8 69.5L59.8 12.6L57.5 10H20C14.5 10 10 14.5 10 20Z" fill="#767676"/>
<path d="M74.6 73.7L132.8 10.4C132 10.1 131 10 130 10H57.5L74.6 73.7Z" fill="#7D7D7D"/>
<path d="M20 140H92.4L74.6 73.7L14.3 138.2C16 139.4 17.9 140 20 140Z" fill="#7B7B7B"/>
<path d="M58.2 59.3H65.4C68.3 70.2 71.6 79.7 75.2 88.3C79.3 78.6 82.4 69.1 84.9 59.3H91.7C88.6 71.4 83.6 83.7 77.9 96.3H71.9C66.5 84.3 61.8 72 58.2 59.3ZM34.4 40.5H50.5V109.4H34.3V104H44.2V45.6H34.4V40.5V40.5ZM115.7 45.6H105.9V104H115.8V109.3H99.6V40.5H115.7V45.6Z" fill="white"/>
</svg>
