<svg width="150" height="150" viewBox="0 0 150 150" fill="none" xmlns="http://www.w3.org/2000/svg">
<g clip-path="url(#clip0)">
<path d="M57.8122 64.6984C57.0123 64.6984 56.3124 64.7984 55.7125 64.9984C55.1126 65.1984 54.5127 65.4983 54.1127 65.9983C53.7128 66.3982 53.3128 66.9981 53.0129 67.698C52.7129 68.3979 52.6129 69.1978 52.6129 70.1977C52.5129 71.7975 52.5129 73.2973 52.6129 74.8971C52.6129 75.897 52.8129 76.6969 53.0129 77.3968C53.3128 78.0967 53.6128 78.6966 54.1127 79.0966C54.6126 79.4965 55.1126 79.8965 55.7125 80.0964C56.3124 80.2964 57.0123 80.3964 57.8122 80.3964C58.6121 80.3964 59.312 80.2964 59.912 80.0964C60.6119 79.8965 61.1118 79.4965 61.6117 79.0966C62.1117 78.6966 62.5116 78.0967 62.7116 77.3968C63.0116 76.6969 63.1115 75.897 63.1115 74.9971V73.6973H58.6121C58.2122 73.6973 58.0122 73.4973 58.0122 73.0973V72.6974C58.0122 72.2974 58.2122 72.0975 58.6121 72.0975H64.1114C64.5114 72.0975 64.7113 72.2974 64.7113 72.6974V74.9971C64.7113 75.997 64.5114 76.9968 64.2114 77.7967C63.9114 78.5966 63.4115 79.3965 62.8116 79.9964C62.2117 80.5964 61.5118 81.0963 60.6119 81.3963C59.712 81.6962 58.7121 81.8962 57.7123 81.8962C56.6124 81.8962 55.6125 81.6962 54.8126 81.3963C54.0127 81.0963 53.2128 80.5964 52.7129 79.9964C52.113 79.3965 51.713 78.6966 51.4131 77.8967C51.1131 77.0968 50.9131 76.0969 50.9131 75.0971C50.9131 74.2972 50.8131 73.4973 50.8131 72.5974C50.8131 71.6975 50.8131 70.8976 50.9131 70.0977C50.9131 69.0979 51.1131 68.198 51.4131 67.2981C51.713 66.4982 52.113 65.6983 52.7129 65.0984C53.3128 64.4984 54.0127 63.9985 54.8126 63.6985C55.6125 63.3986 56.6124 63.1986 57.7123 63.1986C58.9121 63.1986 59.912 63.3986 60.8118 63.6985C61.6117 64.0985 62.3117 64.4984 62.9116 64.9984C63.4115 65.4983 63.8115 65.9983 64.1114 66.5982C64.4114 67.1981 64.5114 67.598 64.5114 67.998C64.5114 68.198 64.5114 68.298 64.4114 68.3979C64.3114 68.4979 64.2114 68.4979 64.0114 68.4979H63.4115C63.2115 68.4979 63.1115 68.4979 63.1115 68.3979C63.0116 68.298 63.0116 68.198 62.9116 67.998C62.8116 67.598 62.6116 67.1981 62.3117 66.7981C62.1117 66.3982 61.7117 66.0982 61.3118 65.7983C60.9118 65.4983 60.4119 65.1984 59.812 64.9984C59.312 64.7984 58.6121 64.6984 57.8122 64.6984ZM70.0107 69.7978C70.6106 68.5979 71.8104 67.998 73.5102 67.998H74.5101C74.91 67.998 75.11 68.198 75.11 68.5979V68.9979C75.11 69.3978 74.91 69.5978 74.5101 69.5978H73.4102C72.4103 69.5978 71.5105 69.8977 70.9105 70.4977C70.3106 70.9976 70.0107 71.8975 70.0107 72.8974V80.8963C70.0107 81.0963 69.9107 81.1963 69.8107 81.2963C69.7107 81.3963 69.6107 81.4962 69.4107 81.4962H69.0108C68.6108 81.4962 68.4109 81.2963 68.4109 80.8963V68.5979C68.4109 68.3979 68.5108 68.298 68.6108 68.198C68.7108 68.098 68.8108 67.998 69.0108 67.998H69.4107C69.6107 67.998 69.7107 68.098 69.8107 68.198C69.9107 68.298 70.0107 68.3979 70.0107 68.5979V69.7978ZM86.0086 81.4962C85.6086 81.4962 85.4087 81.2963 85.4087 80.8963V79.6965C85.2087 79.8965 85.0087 80.1964 84.8087 80.3964C84.6088 80.5964 84.3088 80.8963 83.9089 80.9963C83.5089 81.1963 83.109 81.2963 82.609 81.4962C82.1091 81.5962 81.5092 81.6962 80.8093 81.6962C80.2093 81.6962 79.6094 81.5962 79.0095 81.3963C78.4096 81.1963 78.0096 80.8963 77.5097 80.5964C77.1097 80.2964 76.8098 79.8965 76.5098 79.3965C76.3098 78.8966 76.1099 78.3966 76.1099 77.8967C76.1099 77.2968 76.2099 76.7969 76.5098 76.2969C76.8098 75.797 77.1097 75.397 77.6097 75.0971C78.0096 74.6971 78.6095 74.3972 79.2095 74.1972C79.8094 73.9972 80.5093 73.7972 81.3092 73.6973L85.4087 73.0973V72.1974C85.4087 71.2976 85.1087 70.4977 84.5088 69.9977C83.9089 69.4978 83.109 69.1978 81.8091 69.1978C80.8093 69.1978 80.1093 69.3978 79.5094 69.7978C79.0095 70.1977 78.7095 70.5977 78.5096 70.9976C78.4096 71.1976 78.3096 71.3976 78.2096 71.3976C78.1096 71.4975 78.0096 71.4975 77.8097 71.4975H77.4097C77.2097 71.4975 77.1097 71.3976 77.0098 71.2976C76.9098 71.1976 76.8098 70.9976 76.8098 70.8976C76.8098 70.6976 76.9098 70.3977 77.1097 69.9977C77.3097 69.5978 77.5097 69.2978 77.9096 68.8979C78.3096 68.5979 78.8095 68.298 79.4094 67.998C80.0094 67.698 80.7093 67.598 81.6092 67.598C82.609 67.598 83.5089 67.698 84.1088 67.998C84.8087 68.298 85.3087 68.5979 85.7086 69.0979C86.1086 69.4978 86.3085 69.9977 86.5085 70.4977C86.7085 70.9976 86.7085 71.5975 86.7085 72.0975V80.6963C86.7085 81.0963 86.5085 81.2963 86.1086 81.2963L86.0086 81.4962ZM81.1092 80.1964C81.7091 80.1964 82.2091 80.0964 82.809 79.8965C83.3089 79.6965 83.8089 79.3965 84.2088 78.9966C84.6088 78.5966 84.9087 78.0967 85.1087 77.4968C85.3087 76.8968 85.4087 76.1969 85.4087 75.397V74.4972L82.1091 74.9971C79.2095 75.397 77.8097 76.2969 77.8097 77.6967C77.8097 78.0967 77.9096 78.4966 78.1096 78.7966C78.3096 79.0966 78.6095 79.3965 78.9095 79.5965C79.2095 79.7965 79.6094 79.9964 80.0094 80.0964C80.3093 80.1964 80.7093 80.1964 81.1092 80.1964ZM97.0072 81.6962C95.9073 81.6962 95.0074 81.4962 94.3075 81.0963C93.6076 80.6963 93.1077 80.1964 92.6077 79.6965V85.7957C92.6077 86.1956 92.4078 86.3956 92.0078 86.3956H91.6079C91.2079 86.3956 91.0079 86.1956 91.0079 85.7957V68.5979C91.0079 68.198 91.2079 67.998 91.6079 67.998H92.0078C92.4078 67.998 92.6077 68.198 92.6077 68.5979V69.7978C93.0077 69.1978 93.6076 68.6979 94.3075 68.3979C95.0074 67.998 95.9073 67.798 97.0072 67.798C98.007 67.798 98.8069 67.998 99.5068 68.298C100.207 68.5979 100.807 69.0979 101.207 69.6978C101.607 70.2977 101.907 70.8976 102.106 71.6975C102.306 72.3974 102.406 73.1973 102.506 73.8972C102.506 74.1972 102.506 74.3972 102.506 74.7971C102.506 75.0971 102.506 75.397 102.506 75.697C102.506 76.4969 102.306 77.1968 102.106 77.9967C101.907 78.6966 101.607 79.3965 101.207 79.9964C100.807 80.5964 100.207 80.9963 99.5068 81.3963C98.9069 81.5962 98.007 81.6962 97.0072 81.6962ZM92.7077 73.7972C92.7077 74.0972 92.7077 74.3972 92.7077 74.7971C92.7077 75.1971 92.7077 75.497 92.7077 75.797C92.7077 76.2969 92.8077 76.7969 93.0077 77.3968C93.2077 77.8967 93.4076 78.3966 93.8076 78.7966C94.1075 79.1965 94.6075 79.5965 95.1074 79.7965C95.6073 80.0964 96.2073 80.1964 97.0072 80.1964C97.8071 80.1964 98.407 80.0964 98.9069 79.7965C99.4069 79.4965 99.8068 79.1965 100.107 78.7966C100.407 78.3966 100.707 77.7967 100.807 77.2968C101.007 76.6969 101.007 76.0969 101.107 75.497C101.107 74.9971 101.107 74.4972 101.107 74.0972C101.107 73.4973 101.007 72.8974 100.807 72.2974C100.707 71.6975 100.407 71.1976 100.107 70.7976C99.8068 70.3977 99.4069 69.9977 98.9069 69.6978C98.407 69.3978 97.8071 69.2978 97.0072 69.2978C96.3073 69.2978 95.6073 69.3978 95.1074 69.6978C94.6075 69.9977 94.1075 70.2977 93.8076 70.7976C93.5076 71.1976 93.2077 71.6975 93.0077 72.1974C92.8077 72.7974 92.7077 73.2973 92.7077 73.7972ZM107.706 69.7978C108.206 69.1978 108.706 68.6979 109.406 68.298C110.105 67.898 110.905 67.698 112.105 67.698C113.005 67.698 113.705 67.798 114.405 68.098C115.105 68.3979 115.605 68.7979 116.005 69.2978C116.405 69.7978 116.805 70.3977 117.005 71.0976C117.205 71.7975 117.305 72.5974 117.305 73.3973V80.6963C117.305 81.0963 117.105 81.2963 116.705 81.2963H116.305C115.905 81.2963 115.705 81.0963 115.705 80.6963V73.4973C115.705 72.0975 115.405 70.9976 114.705 70.2977C114.005 69.4978 113.005 69.0979 111.805 69.0979C110.605 69.0979 109.606 69.4978 108.806 70.2977C108.106 71.0976 107.706 72.1974 107.706 73.5973V80.7963C107.706 81.1963 107.506 81.3963 107.106 81.3963H106.706C106.306 81.3963 106.106 81.1963 106.106 80.7963V63.6985C106.106 63.2986 106.306 63.0986 106.706 63.0986H107.106C107.506 63.0986 107.706 63.2986 107.706 63.6985V69.7978ZM127.903 63.0986C128.903 63.0986 129.803 63.1986 130.603 63.4986C131.403 63.7985 132.103 64.1985 132.703 64.7984C133.302 65.3983 133.802 66.0982 134.102 66.9981C134.402 67.898 134.602 68.8979 134.702 70.0977C134.702 70.8976 134.802 71.5975 134.802 72.2974C134.802 72.9973 134.802 73.6973 134.702 74.4972C134.602 76.9968 134.002 78.7966 132.803 79.8965L134.502 82.1962C134.502 82.1962 134.502 82.2961 134.602 82.2961C134.602 82.2961 134.602 82.3961 134.602 82.4961C134.602 82.5961 134.502 82.7961 134.402 82.8961C134.302 82.996 134.202 83.096 134.002 83.096H133.402C133.202 83.096 133.002 82.996 132.903 82.8961C132.803 82.7961 132.703 82.5961 132.603 82.4961L131.503 80.8963C130.503 81.3963 129.303 81.6962 127.903 81.6962C125.703 81.6962 124.104 81.0963 122.904 79.9964C121.704 78.7966 121.104 76.9968 121.104 74.5971C121.104 73.7972 121.004 73.0973 121.004 72.3974C121.004 71.6975 121.004 70.9976 121.104 70.1977C121.104 68.9979 121.304 67.898 121.604 67.0981C121.904 66.1982 122.404 65.4983 123.004 64.8984C123.604 64.2985 124.304 63.7985 125.104 63.5986C125.903 63.2986 126.903 63.0986 127.903 63.0986ZM127.903 64.6984C127.203 64.6984 126.503 64.7984 125.903 64.9984C125.303 65.1984 124.704 65.4983 124.304 65.9983C123.804 66.4982 123.504 67.0981 123.204 67.798C122.904 68.4979 122.804 69.3978 122.804 70.3977C122.804 70.7976 122.804 71.0976 122.704 71.4975C122.704 71.7975 122.704 72.0975 122.704 72.4974C122.704 72.7974 122.704 73.0973 122.704 73.4973C122.704 73.7972 122.704 74.1972 122.804 74.5971C122.804 75.597 123.004 76.4969 123.204 77.1968C123.504 77.8967 123.804 78.4966 124.304 78.9966C124.804 79.4965 125.303 79.7965 125.903 79.9964C126.503 80.1964 127.203 80.2964 127.903 80.2964C128.603 80.2964 129.303 80.1964 129.903 79.9964C130.503 79.7965 131.103 79.3965 131.503 78.9966C132.003 78.4966 132.303 77.8967 132.603 77.1968C132.903 76.4969 133.002 75.597 133.102 74.5971C133.102 74.1972 133.102 73.8972 133.102 73.4973C133.102 73.1973 133.102 72.7974 133.102 72.4974C133.102 72.1974 133.102 71.8975 133.102 71.4975C133.102 71.1976 133.102 70.7976 133.102 70.3977C133.102 69.3978 132.903 68.4979 132.603 67.798C132.303 67.0981 132.003 66.4982 131.503 65.9983C131.003 65.4983 130.503 65.1984 129.903 64.9984C129.303 64.7984 128.603 64.6984 127.903 64.6984ZM140.502 79.8965H149.4C149.8 79.8965 150 80.0964 150 80.4964V80.8963C150 81.2963 149.8 81.4962 149.4 81.4962H139.402C139.002 81.4962 138.802 81.2963 138.802 80.8963V63.8985C138.802 63.4986 139.002 63.2986 139.402 63.2986H139.902C140.302 63.2986 140.502 63.4986 140.502 63.8985V79.8965ZM3.81923 87.1955L2.11945 86.1956L21.5169 52.5L23.2167 53.4999L3.81923 87.1955Z" fill="#545454"/>
<path d="M1.71918 83.4958H40.6141V85.4955H1.71918V83.4958Z" fill="#545454"/>
<path d="M21.9169 95.8945L2.51941 84.596L3.51928 82.8962L22.9168 94.0948L21.9169 95.8945ZM38.8147 66.5983L19.4172 55.3998L20.4171 53.7L39.8146 64.8986L38.8147 66.5983Z" fill="#545454"/>
<path d="M3.51928 66.5983L2.51941 64.8986L21.9169 53.7L22.9168 55.3998L3.51928 66.5983Z" fill="#545454"/>
<path d="M38.4149 87.1955L19.0174 53.5998L20.7172 52.6L40.1146 86.1956L38.4149 87.1955ZM3.21942 63.4986H5.21916V85.9957H3.21942V63.4986ZM37.015 63.4986H39.0148V85.9957H37.015V63.4986Z" fill="#545454"/>
<path d="M21.6166 94.9943L20.7167 93.4945L37.6145 83.6958L38.5144 85.1956L21.6166 94.9943Z" fill="#545454"/>
<path d="M41.714 86.5954C40.5142 88.5951 37.9145 89.295 35.9148 88.1952C33.915 86.9953 33.2151 84.3957 34.315 82.3959C35.5148 80.3962 38.1145 79.6963 40.1142 80.7961C42.214 81.996 42.9139 84.5956 41.714 86.5954ZM7.9184 67.0979C6.71855 69.0977 4.11889 69.7976 2.11915 68.6977C0.119409 67.4979 -0.580501 64.8982 0.519357 62.8985C1.7192 60.8987 4.31887 60.1988 6.31861 61.2987C8.41833 62.4985 9.11824 65.0982 7.9184 67.0979ZM0.619344 86.5954C-0.580501 84.5956 0.119409 81.996 2.21914 80.7961C4.21888 79.5963 6.81854 80.2962 8.01839 82.3959C9.21823 84.3957 8.51832 86.9953 6.41859 88.1952C4.31887 89.295 1.7192 88.6951 0.619344 86.5954ZM34.415 67.0979C33.2151 65.0982 33.915 62.4985 36.0148 61.2987C38.0145 60.0988 40.6142 60.7987 41.814 62.8985C43.0139 64.8982 42.3139 67.4979 40.2142 68.6977C38.1145 69.7976 35.5148 69.0977 34.415 67.0979ZM21.1167 98.4939C18.817 98.4939 16.9172 96.5941 16.9172 94.2944C16.9172 91.9947 18.817 90.0949 21.1167 90.0949C23.4164 90.0949 25.3161 91.9947 25.3161 94.2944C25.4161 96.5941 23.5164 98.4939 21.1167 98.4939ZM21.1167 59.4989C18.817 59.4989 16.9172 57.5991 16.9172 55.2994C16.9172 52.9997 18.817 51 21.1167 51C23.4164 51 25.3161 52.8998 25.3161 55.1995C25.4161 57.5991 23.5164 59.4989 21.1167 59.4989Z" fill="#545454"/>
</g>
<defs>
<clipPath id="clip0">
<rect width="150" height="150" fill="white"/>
</clipPath>
</defs>
</svg>
