<svg width="58" height="36" viewBox="0 0 58 36" fill="none" xmlns="http://www.w3.org/2000/svg">
<path fill-rule="evenodd" clip-rule="evenodd" d="M1 29.5V7L7 1V29.5H9.25H15.25H16.75C22.9632 29.5 28 24.4632 28 18.25C28 12.0368 22.9632 7 16.75 7H15.25V7.09913V27.25H9.25V26.6354V9.8646V2.71137V1H14.5H15.25H16.75C26.2769 1 34 8.72309 34 18.25C34 27.7769 26.2769 35.5 16.75 35.5H15.25H14.5H9.25H7H1V29.5Z" fill="#efefef"/>
<path fill-rule="evenodd" clip-rule="evenodd" d="M29 1H35L43.25 14.2L51.5 1H57.5L46.25 19V29.5L40.25 35.5V19L29 1Z" fill="#efefef"/>
</svg>
