<svg width="48" height="20" viewBox="0 0 48 20" fill="none" xmlns="http://www.w3.org/2000/svg">
<path d="M2.67987 0H1.99414V17.9878L14.3996 18.0488V17.3171H2.67987V0Z" fill="#F9F9F9"/>
<path d="M4.42499 0H3.73926V16.2805L14.3992 16.3415V15.6098H4.42499V0Z" fill="#F9F9F9"/>
<path d="M0.935084 0H0V20H14.4003V19.0244H0.935084V0Z" fill="#F9F9F9"/>
<path d="M28.676 10C28.676 8.90244 28.3643 7.86586 27.8033 6.82927C27.2422 5.79269 26.4318 5 25.3721 4.5122C24.3123 3.90244 23.2525 3.65854 22.1928 3.65854H19.6992V16.3415H22.1928H22.4421C23.5019 16.2805 24.4993 16.0366 25.4344 15.4878C26.4318 14.939 27.2422 14.1463 27.8656 13.1707C28.3643 12.1341 28.676 11.0976 28.676 10ZM22.1928 15.6098H20.4473V4.32927H22.1928C23.1279 4.32927 24.1253 4.57317 24.998 5.06098C25.9331 5.54878 26.6188 6.21951 27.1175 7.13415C27.6163 8.04878 27.8656 8.96342 27.8656 9.93903C27.8656 10.9146 27.6163 11.8902 27.1175 12.7439C26.6188 13.6585 25.8708 14.3293 24.998 14.8171C24.1253 15.3659 23.1902 15.6098 22.1928 15.6098Z" fill="#F9F9F9"/>
<path d="M27.181 1.28049C25.5602 0.426829 23.877 0 22.1939 0H15.96V20H22.1939C23.9393 20 25.6848 19.5732 27.2433 18.6585C28.8641 17.8049 30.1109 16.5244 31.046 14.939C31.9187 13.3537 32.4174 11.7073 32.4174 10C32.4174 8.29268 31.9811 6.58537 31.046 5C30.1109 3.41463 28.8018 2.13415 27.181 1.28049ZM31.42 10C31.42 11.5854 30.9836 13.0488 30.1732 14.5122C29.3628 15.9146 28.2407 17.0732 26.7446 17.8659C25.3108 18.6585 23.7523 19.0854 22.1315 19.0854H21.8822H16.8327V0.914634H22.0692C23.6277 0.914634 25.1861 1.28049 26.6199 2.07317C28.0537 2.86585 29.2382 3.96341 30.0486 5.42683C30.9836 6.89024 31.42 8.41463 31.42 10Z" fill="#F9F9F9"/>
<path d="M26.2452 2.9878C24.9361 2.31706 23.5646 1.95121 22.1931 1.95121H17.9541V17.9878H22.1931H22.4425C23.7516 17.9268 25.0607 17.6219 26.3075 16.9512C27.6166 16.2195 28.6141 15.2439 29.3621 13.9634C30.1102 12.6829 30.4219 11.3415 30.4219 9.93902C30.4219 8.53658 30.0479 7.19511 29.2998 5.91463C28.5517 4.69511 27.492 3.65853 26.2452 2.9878ZM22.1931 17.3171H21.9438H18.6398V2.68292H22.1308C23.3776 2.68292 24.6244 2.9878 25.8088 3.65853C26.9932 4.26828 27.9283 5.18292 28.6141 6.34145C29.2998 7.49999 29.6115 8.78048 29.6115 9.99999C29.6115 11.2805 29.2998 12.5 28.6141 13.6585C27.9283 14.8171 27.0556 15.7317 25.8711 16.3415C24.749 17.0122 23.4399 17.3171 22.1931 17.3171Z" fill="#F9F9F9"/>
<path d="M40.3331 5.06098L37.7772 0H36.9668L39.9591 5.85366L40.3331 5.06098Z" fill="#F9F9F9"/>
<path d="M39.3364 6.95122L35.7831 0H34.9727L38.9623 7.7439L39.3364 6.95122Z" fill="#F9F9F9"/>
<path d="M47.1898 0L41.6416 10.7927V20H42.3273V11.0366L48.0002 0H47.1898Z" fill="#F9F9F9"/>
<path d="M33.8488 0H32.7891L37.8385 9.93902L38.3996 8.90244L33.8488 0Z" fill="#F9F9F9"/>
<path d="M43.0132 0L37.9014 9.93902V20H38.8365V10.2439L44.0729 0H43.0132Z" fill="#F9F9F9"/>
<path d="M45.2567 0L39.8955 10.4268V20H40.5812V10.6098L46.0047 0H45.2567Z" fill="#F9F9F9"/>
</svg>
