<svg width="119" height="119" viewBox="0 0 119 119" fill="none" xmlns="http://www.w3.org/2000/svg">
<path d="M98.0846 26.7807L102.936 21.8156L94.8931 23.6616L94.4463 23.216L96.1058 15.1317L91.2548 20.0968L90.7441 19.5876L96.425 13.7949L96.9995 14.3678L95.2761 22.9614L103.829 20.988L104.404 21.5609L98.7229 27.3537L98.0846 26.7807Z" fill="#F9F9F9"/>
<path d="M99.9355 29.327L106.765 24.8711L110.467 30.5365L109.893 30.9184L106.638 25.9532L104.276 27.481L107.404 32.1915L106.829 32.5735L103.702 27.8629L100.957 29.6453L104.276 34.6741L103.702 35.056L99.9355 29.327Z" fill="#F9F9F9"/>
<path d="M107.595 44.0952L111.616 34.8651L104.978 37.5386L104.723 36.8384L112.255 33.8466L112.574 34.6104L108.552 43.8406L115.255 41.167L115.51 41.8672L107.978 44.8591L107.595 44.0952Z" fill="#F9F9F9"/>
<path d="M116.724 46.5778L111.426 47.4053C110.98 47.469 110.597 47.5963 110.341 47.7236C110.086 47.9146 109.894 48.1055 109.767 48.3602C109.639 48.6148 109.575 48.8694 109.575 49.1877C109.575 49.506 109.575 49.8879 109.639 50.2699C109.703 50.7154 109.831 51.161 110.022 51.6066C110.214 52.0522 110.405 52.4342 110.66 52.7524C110.916 53.1344 111.107 53.4527 111.426 53.7073C111.682 53.9619 111.937 54.2165 112.128 54.4075L117.937 53.4527L118.065 54.2165L110.022 55.4897L109.894 54.7258L111.299 54.4712C111.107 54.2165 110.852 53.9619 110.597 53.6436C110.341 53.3253 110.15 53.0071 109.894 52.6888C109.639 52.3705 109.511 51.9886 109.32 51.543C109.128 51.0974 109.001 50.7155 108.937 50.2062C108.873 49.697 108.809 49.1877 108.937 48.7421C109.001 48.2965 109.128 47.9782 109.32 47.66C109.511 47.3417 109.767 47.087 110.086 46.8961C110.405 46.7051 110.788 46.5778 111.171 46.5141L116.66 45.623L116.724 46.5778Z" fill="#F9F9F9"/>
<path d="M107.022 76.9418L113.724 78.7242L108.171 72.6768L108.363 72.0403L116.214 69.494L109.512 67.7117L109.703 67.0114L117.554 69.0484L117.363 69.8123L109.001 72.5495L114.937 78.9788L114.746 79.7427L106.895 77.7057L107.022 76.9418Z" fill="#F9F9F9"/>
<path d="M105.746 79.8063L112.958 83.562L109.831 89.5457L109.192 89.2274L111.937 83.944L109.448 82.6708L106.831 87.6997L106.256 87.3814L108.873 82.3526L105.937 80.8248L103.129 86.1719L102.49 85.8537L105.746 79.8063Z" fill="#F9F9F9"/>
<path d="M96.6167 93.6833L106.638 92.6648L101.085 88.2089L101.532 87.636L107.851 92.7285L107.34 93.3651L97.3188 94.3836L102.936 98.9032L102.489 99.4761L96.1699 94.3836L96.6167 93.6833Z" fill="#F9F9F9"/>
<path d="M89.1494 102.15C89.0855 101.768 89.0855 101.386 89.2132 101.004C89.3408 100.622 89.5323 100.176 89.8515 99.7943C90.1706 99.3488 90.6174 98.9668 91.1281 98.5212C91.6387 98.0756 92.1494 97.7573 92.66 97.5664C93.1706 97.3754 93.6174 97.2481 94.0004 97.1844C94.4472 97.1844 94.7664 97.1844 95.1493 97.3754C95.5323 97.5664 95.7876 97.7573 96.043 98.0756L99.5536 102.404L98.9791 102.85L95.4047 98.4576C95.2132 98.2666 95.0217 98.0756 94.7664 98.012C94.511 97.8847 94.1919 97.8847 93.8728 97.9483C93.5536 98.012 93.1706 98.0756 92.7876 98.2666C92.4047 98.4576 91.9579 98.7122 91.5749 99.0305C91.1281 99.3488 90.8089 99.7307 90.5536 100.049C90.2983 100.367 90.1068 100.749 89.9791 101.067C89.8515 101.386 89.8515 101.704 89.8515 101.959C89.9153 102.213 89.9791 102.468 90.1706 102.723L93.7451 107.115L93.1706 107.56L89.66 103.232C89.4047 102.85 89.2132 102.468 89.1494 102.15Z" fill="#F9F9F9"/>
<path d="M68.0843 109.279L69.8716 115.963L72.3609 108.133L72.9992 107.942L79.1269 113.48L77.2758 106.797L77.9779 106.606L80.0843 114.435L79.3184 114.626L72.8077 108.77L70.1907 117.109L69.4247 117.3L67.3184 109.47L68.0843 109.279Z" fill="#F9F9F9"/>
<path d="M64.958 109.597L65.341 117.682L58.575 118V117.3L64.575 117.045L64.4473 114.244L58.7665 114.499V113.799L64.4473 113.544L64.3197 110.298L58.2559 110.552V109.852L64.958 109.597Z" fill="#F9F9F9"/>
<path d="M48.2984 108.643L54.1708 116.791L55.2559 109.725L55.958 109.852L54.7452 117.873L53.9154 117.745L48.0431 109.597L46.958 116.663L46.2559 116.536L47.4686 108.515L48.2984 108.643Z" fill="#F9F9F9"/>
<path d="M37.2551 106.415C37.5104 106.16 37.8934 105.969 38.2764 105.905C38.6593 105.778 39.17 105.778 39.6806 105.842C40.1912 105.905 40.7657 106.033 41.404 106.287C42.0423 106.542 42.5529 106.797 42.9998 107.115C43.4466 107.433 43.7657 107.751 44.021 108.07C44.2764 108.388 44.404 108.77 44.404 109.152C44.4678 109.534 44.404 109.916 44.2764 110.298L42.2976 115.517L41.5955 115.263L43.6381 110.043C43.7657 109.788 43.7657 109.534 43.7019 109.215C43.6381 108.897 43.5104 108.643 43.3189 108.388C43.1274 108.133 42.8721 107.879 42.4891 107.624C42.1061 107.369 41.7232 107.178 41.2125 106.924C40.7019 106.733 40.2551 106.606 39.8083 106.542C39.3615 106.478 38.9785 106.478 38.6593 106.542C38.3402 106.606 38.021 106.733 37.8295 106.924C37.6381 107.115 37.4466 107.306 37.3189 107.56L35.2763 112.78L34.5742 112.526L36.5529 107.306C36.8083 106.987 36.9998 106.669 37.2551 106.415Z" fill="#F9F9F9"/>
<path d="M20.532 91.7737L15.681 96.6752L23.7235 94.8928L24.1703 95.3384L22.4469 103.486L27.3618 98.5849L27.8725 99.0941L22.1278 104.823L21.5533 104.25L23.3406 95.6567L14.7874 97.5664L14.2129 96.9935L19.9576 91.2644L20.532 91.7737Z" fill="#F9F9F9"/>
<path d="M18.681 89.2274L11.8512 93.6197L8.21289 87.8906L8.78736 87.5087L11.9788 92.5375L14.3405 91.0098L11.2767 86.2356L11.8512 85.8536L14.915 90.6279L17.6597 88.8455L14.4044 83.753L14.9788 83.371L18.681 89.2274Z" fill="#F9F9F9"/>
<path d="M11.2137 74.3955L7.06479 83.562L13.7669 80.9521L14.0222 81.6523L6.42649 84.5805L6.10734 83.8803L10.2563 74.7138L3.55415 77.2601L3.29883 76.5598L10.8946 73.6317L11.2137 74.3955Z" fill="#F9F9F9"/>
<path d="M7.6383 63.765C8.02128 63.8923 8.34043 64.0832 8.59574 64.4015C8.91489 64.7198 9.10638 65.1017 9.3617 65.611C9.55319 66.1202 9.74468 66.6931 9.80851 67.3297C9.93617 68.0299 9.93617 68.6028 9.87234 69.1121C9.80851 69.6213 9.68085 70.0669 9.55319 70.4489C9.3617 70.8308 9.10638 71.1491 8.85106 71.34C8.53191 71.531 8.21277 71.722 7.76596 71.7856L2.2766 72.6132L2.14894 71.9129L7.70213 71.0218C7.95745 70.9581 8.21277 70.8944 8.40426 70.7035C8.59574 70.5125 8.78723 70.2579 8.91489 70.0033C9.04255 69.685 9.17021 69.303 9.17021 68.9211C9.17021 68.5392 9.17021 68.0299 9.10638 67.457C9.04255 66.9478 8.91489 66.4385 8.7234 66.0566C8.53191 65.6746 8.34043 65.3564 8.14894 65.1017C7.95745 64.8471 7.70213 64.6561 7.44681 64.5925C7.19149 64.4652 6.93617 64.4652 6.68085 64.5288L1.12766 65.2927L1 64.5288L6.48936 63.7013C6.93617 63.6376 7.31915 63.6376 7.6383 63.765Z" fill="#F9F9F9"/>
<path d="M11.9792 41.9946L5.27705 40.2122L10.8302 46.2595L10.6388 46.8961L2.78769 49.4423L9.48982 51.2247L9.29833 51.9249L1.44727 49.8879L1.63875 49.1241L10.0005 46.3868L4.06429 39.9576L4.25578 39.1937L12.1068 41.2943L11.9792 41.9946Z" fill="#F9F9F9"/>
<path d="M13.2557 39.13L6.04297 35.3743L9.17063 29.3906L9.80893 29.7089L7.06424 34.9924L9.55361 36.2655L12.1706 31.2367L12.7451 31.555L10.1281 36.5838L13.0004 38.1115L15.8089 32.7644L16.4472 33.0827L13.2557 39.13Z" fill="#F9F9F9"/>
<path d="M22.3825 25.253L12.3612 26.2715L17.9144 30.7274L17.4676 31.3003L11.1484 26.2078L11.6591 25.5713L21.6804 24.5528L16.1272 20.0968L16.574 19.5239L22.8931 24.6164L22.3825 25.253Z" fill="#F9F9F9"/>
<path d="M29.914 16.8504C29.9778 17.2323 29.9778 17.6143 29.8502 17.9962C29.7225 18.3781 29.531 18.8237 29.2119 19.2057C28.8927 19.5876 28.4459 20.0332 27.9353 20.4788C27.4247 20.9244 26.914 21.2427 26.4034 21.4336C25.8927 21.6246 25.4459 21.7519 25.063 21.8156C24.6161 21.8156 24.297 21.8156 23.914 21.6246C23.5949 21.4973 23.2757 21.2427 23.0204 20.9244L19.5098 16.6594L20.0842 16.2138L23.6587 20.6061C23.8502 20.7971 24.0417 20.988 24.297 21.0517C24.5523 21.179 24.8715 21.179 25.1906 21.1153C25.5098 21.0517 25.8927 20.988 26.2757 20.7971C26.6587 20.6061 27.1055 20.3515 27.4885 20.0332C27.9353 19.7149 28.2544 19.333 28.5098 19.0147C28.7651 18.6964 28.9566 18.3145 29.0842 17.9962C29.2119 17.6779 29.2119 17.3596 29.2119 17.105C29.2119 16.8504 29.0842 16.5958 28.8927 16.3411L25.3183 11.9489L25.8927 11.5033L29.4034 15.8319C29.6587 16.1502 29.7864 16.4684 29.914 16.8504Z" fill="#F9F9F9"/>
<path d="M50.9792 9.72089L49.192 3.03699L46.7026 10.8667L46.0643 11.0577L39.9367 5.51958L41.7239 12.2035L41.0218 12.3944L38.8516 4.56474L39.6175 4.37377L46.1282 10.2301L48.7452 1.89118L49.5111 1.70021L51.6175 9.52992L50.9792 9.72089Z" fill="#F9F9F9"/>
<path d="M54.1063 9.40261L53.7871 1.31828L60.5531 1V1.70022L54.6169 1.95484L54.7446 4.75571L60.3616 4.50109V5.20131L54.6807 5.45593L54.8084 8.70239L60.8722 8.44777V9.14799L54.1063 9.40261Z" fill="#F9F9F9"/>
<path d="M70.7025 10.3575L64.8302 2.20947L63.7451 9.27531L63.043 9.14799L64.3196 1.12732L65.1494 1.25463L71.0217 9.40262L72.1068 2.33679L72.8089 2.4641L71.5323 10.4848L70.7025 10.3575Z" fill="#F9F9F9"/>
<path d="M81.7451 12.5854C81.4898 12.84 81.1068 13.031 80.7239 13.0947C80.3409 13.1583 79.8302 13.222 79.3196 13.1583C78.809 13.0947 78.2345 12.9674 77.5962 12.7127C76.9579 12.4581 76.4473 12.2035 76.0005 11.8852C75.5536 11.5669 75.2345 11.2486 74.9792 10.9304C74.7239 10.6121 74.5962 10.2301 74.5962 9.84821C74.5324 9.46627 74.5962 9.08433 74.7877 8.7024L76.7664 3.48259L77.4685 3.73721L75.426 8.95702C75.2983 9.21164 75.2983 9.46627 75.3622 9.78455C75.426 10.0392 75.5536 10.3575 75.7451 10.6121C75.9366 10.8667 76.1919 11.1213 76.5749 11.376C76.9579 11.6306 77.3409 11.8215 77.8515 12.0762C78.3622 12.2671 78.809 12.3945 79.2558 12.4581C79.7026 12.5218 80.0856 12.5218 80.4047 12.4581C80.7239 12.3945 81.043 12.2671 81.2345 12.0762C81.426 11.8852 81.6175 11.6942 81.7451 11.4396L83.7877 6.2198L84.4898 6.47443L82.5111 11.6942C82.2558 12.0125 82.0643 12.3308 81.7451 12.5854Z" fill="#F9F9F9"/>
<path d="M59.5 64C61.9853 64 64 61.9853 64 59.5C64 57.0147 61.9853 55 59.5 55C57.0147 55 55 57.0147 55 59.5C55 61.9853 57.0147 64 59.5 64Z" stroke="#F9F9F9" stroke-miterlimit="10"/>
</svg>
