<svg width="119" height="119" viewBox="0 0 119 119" fill="none" xmlns="http://www.w3.org/2000/svg">
<path d="M54 53L66 65" stroke="#F9F9F9" stroke-miterlimit="10"/>
<path d="M66 53L54 65" stroke="#F9F9F9" stroke-miterlimit="10"/>
<path d="M96.3455 24.2471C96.0907 24.1198 95.836 23.9924 95.5175 23.865C95.2628 23.7376 95.008 23.5465 94.6895 23.3555C94.3711 23.1644 94.1163 22.9096 93.8616 22.6549C93.4794 22.3364 93.2247 22.018 92.9062 21.6358C92.6514 21.2537 92.3967 20.9352 92.2056 20.5531C92.0145 20.1709 91.8872 19.7888 91.8235 19.4066C91.7598 19.0245 91.7598 18.6424 91.7598 18.2602C91.8235 17.8781 91.8871 17.4959 92.0782 17.1138C92.2693 16.7316 92.5241 16.4132 92.7788 16.031C93.0973 15.7126 93.4157 15.3941 93.7979 15.2031C94.18 15.012 94.4985 14.8846 94.8806 14.7572C95.2628 14.6935 95.6449 14.6298 96.027 14.6935C96.4092 14.7572 96.7913 14.8209 97.1735 14.9483C97.5556 15.0757 97.9378 15.2667 98.3199 15.5215C98.7021 15.7763 99.0842 16.031 99.4027 16.3495C99.7211 16.6043 99.9122 16.859 100.167 17.1138C100.358 17.3685 100.549 17.6233 100.74 17.8781C100.931 18.1328 101.059 18.3876 101.186 18.6424C101.313 18.8971 101.441 19.1519 101.568 19.4703L100.995 20.1072C100.931 19.8525 100.868 19.5977 100.74 19.343C100.613 19.0882 100.485 18.8334 100.358 18.515C100.231 18.2602 100.04 18.0054 99.7848 17.687C99.53 17.3685 99.339 17.1775 99.0205 16.9227C98.4473 16.4132 97.8741 16.031 97.3646 15.7126C96.855 15.4578 96.3455 15.3304 95.836 15.2667C95.3264 15.2667 94.8806 15.3304 94.4985 15.5215C94.0526 15.7126 93.6705 16.031 93.2883 16.4132C92.9062 16.7953 92.6514 17.2412 92.5241 17.687C92.333 18.1328 92.333 18.5787 92.3967 19.0882C92.4604 19.5977 92.6514 20.0436 92.9699 20.5531C93.2883 21.0626 93.7342 21.5721 94.3074 22.0817C94.5622 22.3364 94.8806 22.5912 95.1991 22.7823C95.5175 22.9733 95.7723 23.1644 96.0907 23.2918C96.4092 23.4192 96.664 23.5465 96.9187 23.6102C97.1735 23.6739 97.4282 23.7376 97.683 23.8013L97.1098 24.4382C96.9187 24.5019 96.6003 24.3745 96.3455 24.2471Z" fill="#F9F9F9"/>
<path d="M97.6191 26.1579L104.052 21.19L104.498 21.7632L98.6382 26.2852L102.269 30.9984L101.695 31.4442L97.6191 26.1579Z" fill="#F9F9F9"/>
<path d="M110.293 39.0871C109.656 39.4056 109.019 39.5966 108.446 39.5966C107.872 39.5966 107.299 39.4692 106.79 39.2145C106.28 38.9597 105.771 38.5776 105.388 38.1317C105.006 37.6859 104.56 37.1127 104.242 36.4121C103.923 35.7752 103.669 35.1383 103.541 34.5014C103.414 33.8645 103.35 33.2912 103.478 32.718C103.605 32.1448 103.796 31.6353 104.178 31.1258C104.56 30.6799 105.006 30.2341 105.707 29.9156C106.153 29.7246 106.535 29.5335 106.981 29.4698C107.426 29.4061 107.809 29.4061 108.191 29.4698C108.573 29.5335 108.955 29.6609 109.273 29.7882C109.592 29.9156 109.974 30.1704 110.229 30.4888C110.547 30.7436 110.802 31.0621 111.121 31.4442C111.375 31.8264 111.63 32.2085 111.821 32.6543C112.14 33.2912 112.394 33.9281 112.522 34.5651C112.649 35.202 112.649 35.7752 112.585 36.3484C112.458 36.9216 112.267 37.4311 111.885 37.9407C111.439 38.3228 110.993 38.7687 110.293 39.0871ZM109.974 38.3865C110.484 38.1317 110.866 37.8133 111.184 37.4311C111.503 37.049 111.694 36.6669 111.821 36.1573C111.949 35.7115 111.949 35.202 111.821 34.6287C111.694 34.0555 111.503 33.4823 111.184 32.8454C110.866 32.2085 110.484 31.699 110.101 31.2531C109.719 30.8073 109.273 30.5525 108.891 30.3615C108.446 30.1704 108 30.1067 107.49 30.1067C106.981 30.1704 106.535 30.2978 106.025 30.5525C105.516 30.8073 105.134 31.1258 104.815 31.5079C104.497 31.89 104.306 32.2722 104.178 32.7817C104.051 33.2276 104.115 33.7371 104.178 34.3103C104.306 34.8835 104.497 35.4567 104.815 36.0936C105.134 36.7305 105.516 37.2401 105.898 37.6859C106.28 38.1317 106.726 38.3865 107.108 38.5776C107.554 38.7686 108 38.8323 108.509 38.8323C108.955 38.8323 109.465 38.705 109.974 38.3865Z" fill="#F9F9F9"/>
<path d="M115.452 46.6663C115.452 46.4752 115.516 46.2841 115.516 46.0931C115.516 45.902 115.58 45.6472 115.516 45.3925C115.516 45.1377 115.516 44.8193 115.452 44.5008C115.389 44.1824 115.325 43.8002 115.198 43.4181C115.07 42.9722 114.943 42.5264 114.752 42.2079C114.624 41.8895 114.433 41.571 114.242 41.38C114.051 41.1889 113.86 40.9978 113.669 40.9341C113.478 40.8704 113.223 40.8704 113.032 40.9341C112.841 40.9978 112.65 41.1252 112.586 41.2526C112.459 41.4436 112.395 41.6347 112.332 41.8895C112.268 42.1442 112.268 42.399 112.204 42.7175C112.204 43.0359 112.204 43.3544 112.204 43.6728C112.204 43.9913 112.204 44.3734 112.204 44.6919C112.204 45.074 112.204 45.3925 112.204 45.7746C112.204 46.0931 112.204 46.4752 112.141 46.7937C112.077 47.1121 112.013 47.3669 111.949 47.6217C111.886 47.8764 111.695 48.0675 111.567 48.2586C111.376 48.4496 111.185 48.577 110.93 48.6407C110.612 48.7044 110.357 48.7681 110.102 48.7044C109.848 48.6407 109.593 48.577 109.402 48.3859C109.211 48.2586 109.02 48.0675 108.829 47.8127C108.638 47.6217 108.51 47.3669 108.383 47.0484C108.255 46.7937 108.128 46.4752 108.001 46.2205C107.873 45.902 107.81 45.6472 107.682 45.3288C107.491 44.6282 107.364 43.9913 107.3 43.4181C107.236 42.8448 107.236 42.2716 107.236 41.6984L108.128 41.4436C107.937 42.0169 107.937 42.6538 107.937 43.227C108.001 43.8639 108.128 44.4371 108.255 45.074C108.383 45.5199 108.51 45.902 108.701 46.2841C108.892 46.6663 109.02 46.9211 109.211 47.1758C109.402 47.4306 109.593 47.6217 109.848 47.6853C110.102 47.8127 110.357 47.8127 110.612 47.749C110.803 47.6853 110.994 47.558 111.121 47.4306C111.249 47.3032 111.376 47.0484 111.44 46.7937C111.504 46.5389 111.567 46.2841 111.567 45.9657C111.567 45.6472 111.567 45.3288 111.567 45.0103C111.567 44.6919 111.567 44.3097 111.504 43.9913C111.504 43.6091 111.504 43.2907 111.504 42.9722C111.504 42.6538 111.504 42.3353 111.567 42.0169C111.631 41.6984 111.695 41.4436 111.758 41.1889C111.822 40.9341 112.013 40.743 112.141 40.552C112.332 40.3609 112.523 40.2335 112.777 40.1698C113.032 40.1061 113.287 40.1061 113.542 40.1061C113.796 40.1698 113.988 40.2335 114.179 40.3609C114.37 40.4883 114.561 40.6794 114.752 40.8704C114.943 41.0615 115.07 41.3163 115.198 41.571C115.325 41.8258 115.452 42.0806 115.58 42.3353C115.707 42.5901 115.771 42.9085 115.835 43.1633C115.898 43.4818 115.962 43.7365 116.026 44.055C116.089 44.3097 116.089 44.6282 116.153 44.883C116.153 45.1377 116.217 45.3925 116.217 45.6472C116.217 45.902 116.217 46.1568 116.217 46.4115L115.452 46.6663Z" fill="#F9F9F9"/>
<path d="M109.211 50.6788L117.3 49.8508L118 56.6021L117.3 56.6657L116.663 50.7425L113.86 51.061L114.434 56.6657L113.733 56.7294L113.16 51.1246L109.912 51.4431L110.548 57.43L109.848 57.4937L109.211 50.6788Z" fill="#F9F9F9"/>
<path d="M108.064 74.1807C108 73.8623 108 73.6075 108 73.2891C108 72.9706 108 72.6522 108.064 72.3337C108.127 72.0152 108.191 71.6331 108.255 71.251C108.382 70.8051 108.51 70.3593 108.701 69.9135C108.892 69.4676 109.083 69.1492 109.338 68.767C109.592 68.4486 109.847 68.1301 110.165 67.8753C110.484 67.6206 110.802 67.4295 111.121 67.3021C111.503 67.1747 111.885 67.0474 112.267 67.0474C112.649 67.0474 113.095 67.0474 113.541 67.1747C113.987 67.3021 114.369 67.4295 114.751 67.6206C115.133 67.8116 115.388 68.0664 115.643 68.3849C115.898 68.7033 116.089 69.0218 116.28 69.3402C116.407 69.7224 116.535 70.1045 116.598 70.4867C116.662 70.8688 116.662 71.3146 116.662 71.7605C116.662 72.2063 116.598 72.6522 116.471 73.1617C116.407 73.5438 116.28 73.8623 116.152 74.1807C116.025 74.4992 115.898 74.8176 115.77 75.0724C115.643 75.3272 115.516 75.5819 115.324 75.8367C115.133 76.0915 115.006 76.3462 114.815 76.601L113.923 76.4099C114.114 76.2188 114.305 76.0278 114.496 75.773C114.688 75.5819 114.879 75.3272 115.006 75.0087C115.133 74.6903 115.324 74.4355 115.452 74.117C115.579 73.7986 115.707 73.4801 115.77 73.098C115.961 72.3337 116.025 71.6331 115.961 71.0599C115.898 70.4867 115.77 69.9771 115.579 69.5313C115.388 69.0855 115.07 68.767 114.688 68.4486C114.305 68.1938 113.86 68.0027 113.286 67.8753C112.713 67.748 112.267 67.748 111.821 67.8117C111.376 67.8753 110.93 68.0664 110.548 68.3849C110.165 68.7033 109.847 69.0855 109.529 69.595C109.21 70.1045 109.019 70.7414 108.828 71.5057C108.764 71.8879 108.701 72.27 108.637 72.5885C108.637 72.9069 108.637 73.2891 108.637 73.6075C108.637 73.926 108.701 74.2444 108.764 74.4992C108.828 74.754 108.892 75.0087 109.019 75.2635L108.191 75.0724C108.127 74.754 108.064 74.4992 108.064 74.1807Z" fill="#F9F9F9"/>
<path d="M106.98 76.2188L114.432 79.4034L114.114 80.104L107.299 77.1742L105.006 82.6516L104.369 82.3968L106.98 76.2188Z" fill="#F9F9F9"/>
<path d="M101.951 93.6064C101.314 93.2243 100.868 92.7147 100.613 92.2052C100.295 91.6957 100.167 91.1225 100.104 90.5492C100.104 89.976 100.167 89.4028 100.358 88.7659C100.549 88.129 100.868 87.5558 101.25 86.9189C101.632 86.282 102.078 85.7724 102.587 85.3903C103.097 85.0081 103.607 84.626 104.116 84.4349C104.689 84.2439 105.199 84.1802 105.836 84.2439C106.473 84.3075 107.046 84.5623 107.619 84.9444C108.001 85.1992 108.383 85.5177 108.638 85.8361C108.893 86.1546 109.084 86.473 109.211 86.8552C109.339 87.2373 109.402 87.5558 109.466 88.0016C109.466 88.3838 109.466 88.7659 109.339 89.2117C109.275 89.5939 109.148 90.0397 108.957 90.4219C108.765 90.804 108.574 91.2498 108.256 91.632C107.874 92.2052 107.428 92.7784 106.918 93.1606C106.409 93.6064 105.899 93.9249 105.39 94.1159C104.88 94.307 104.307 94.3707 103.67 94.307C103.161 94.2433 102.524 94.0522 101.951 93.6064ZM102.396 93.0332C102.906 93.3516 103.352 93.5427 103.798 93.6701C104.243 93.7338 104.753 93.7338 105.199 93.6064C105.645 93.479 106.09 93.2243 106.536 92.8421C106.982 92.46 107.364 92.0141 107.81 91.3772C108.192 90.804 108.511 90.2308 108.702 89.6576C108.893 89.0844 108.957 88.5748 108.893 88.129C108.829 87.6832 108.702 87.2373 108.447 86.7915C108.192 86.4093 107.81 86.0272 107.364 85.7087C106.855 85.3903 106.409 85.1992 105.963 85.0718C105.517 85.0081 105.008 85.0081 104.562 85.1355C104.116 85.2629 103.67 85.5177 103.224 85.8998C102.779 86.282 102.396 86.7278 101.951 87.3647C101.568 87.9379 101.25 88.5111 101.059 89.0843C100.868 89.5939 100.804 90.1034 100.868 90.6129C100.931 91.0588 101.059 91.5046 101.314 91.9504C101.568 92.3963 101.887 92.651 102.396 93.0332Z" fill="#F9F9F9"/>
<path d="M97.8745 101.823C98.0656 101.759 98.193 101.695 98.4477 101.631C98.7025 101.568 98.8936 101.44 99.0846 101.313C99.3394 101.186 99.5305 100.995 99.8489 100.803C100.104 100.612 100.358 100.358 100.677 100.103C100.995 99.7844 101.314 99.466 101.505 99.1475C101.76 98.829 101.887 98.5743 102.014 98.3195C102.142 98.0648 102.142 97.81 102.142 97.6189C102.142 97.4279 102.014 97.1731 101.823 97.0457C101.696 96.9183 101.505 96.7909 101.314 96.7909C101.123 96.7909 100.868 96.7909 100.677 96.8546C100.422 96.9183 100.167 97.0457 99.9126 97.1731C99.6579 97.3005 99.3394 97.4915 99.0846 97.6189C98.8299 97.7463 98.5114 98.0011 98.193 98.1285C97.8745 98.3195 97.556 98.5106 97.3013 98.638C97.0465 98.7654 96.7281 98.9564 96.4096 99.0838C96.0912 99.2112 95.8364 99.2749 95.5816 99.3386C95.3269 99.4023 95.0721 99.3386 94.8173 99.3386C94.5626 99.2749 94.3715 99.1475 94.1804 98.9564C93.9894 98.7654 93.7983 98.5106 93.7346 98.2558C93.6709 98.0011 93.6072 97.7463 93.6709 97.4915C93.7346 97.2368 93.7346 96.982 93.862 96.7272C93.9894 96.4725 94.1167 96.2177 94.2441 95.963C94.4352 95.7082 94.6263 95.4534 94.8173 95.1987C95.0084 94.9439 95.2632 94.7528 95.4543 94.4981C95.9638 93.9885 96.4096 93.6064 96.9191 93.2242C97.4287 92.8421 97.8745 92.5873 98.384 92.3326L99.0209 92.9695C98.4477 93.0969 97.8745 93.3516 97.365 93.7338C96.8555 94.0522 96.3459 94.4981 95.9001 94.9439C95.5816 95.2624 95.2632 95.5808 95.0721 95.8993C94.8173 96.2177 94.6263 96.5362 94.5626 96.7909C94.4989 97.0457 94.3715 97.3642 94.4352 97.6189C94.4352 97.8737 94.5626 98.0648 94.7537 98.3195C94.9447 98.4469 95.0721 98.5743 95.3269 98.5743C95.5179 98.5743 95.7727 98.5743 96.0275 98.5106C96.2822 98.4469 96.537 98.3195 96.7918 98.1921C97.0465 98.0648 97.365 97.8737 97.6197 97.7463C97.9382 97.5552 98.193 97.3642 98.5114 97.1731C98.8299 96.982 99.0846 96.7909 99.4031 96.6636C99.7215 96.4725 99.9763 96.3451 100.295 96.2177C100.613 96.0903 100.868 96.0266 101.123 95.963C101.377 95.8993 101.632 95.8993 101.887 95.963C102.142 96.0266 102.333 96.154 102.524 96.3451C102.715 96.5362 102.842 96.7273 102.906 96.982C102.97 97.2368 103.033 97.4278 102.97 97.6826C102.97 97.9374 102.906 98.1284 102.779 98.3832C102.715 98.638 102.588 98.8927 102.397 99.0838C102.269 99.3386 102.078 99.5296 101.887 99.7844C101.696 100.039 101.505 100.23 101.314 100.421C101.123 100.676 100.868 100.867 100.677 101.058C100.486 101.249 100.231 101.377 100.04 101.568C99.8489 101.695 99.5942 101.886 99.4031 102.014C99.212 102.141 98.9572 102.268 98.7025 102.396L97.8745 101.823Z" fill="#F9F9F9"/>
<path d="M91.3145 98.3832L96.0277 105.007L90.4866 108.956L90.1044 108.383L94.9449 104.943L93.3526 102.651L88.7669 105.962L88.3848 105.389L92.9705 102.077L91.0598 99.4023L86.1556 102.905L85.7734 102.332L91.3145 98.3832Z" fill="#F9F9F9"/>
<path d="M70.2318 108.829C70.4866 108.637 70.7414 108.51 70.9961 108.319C71.2509 108.192 71.5694 108.001 71.8878 107.873C72.2063 107.746 72.5247 107.618 72.9069 107.491C73.3527 107.364 73.7985 107.236 74.2444 107.236C74.6902 107.173 75.136 107.173 75.5182 107.236C75.9003 107.3 76.3462 107.364 76.6646 107.491C76.9831 107.618 77.3652 107.809 77.6837 108.064C78.0021 108.319 78.2569 108.574 78.448 108.956C78.639 109.338 78.8301 109.72 78.9575 110.166C79.0849 110.612 79.1486 111.058 79.1486 111.44C79.1486 111.822 79.0849 112.204 78.9575 112.586C78.8301 112.968 78.639 113.287 78.448 113.605C78.1932 113.924 77.9384 114.179 77.62 114.433C77.3015 114.688 76.9194 114.943 76.5372 115.134C76.1551 115.325 75.7093 115.516 75.2634 115.643C74.8813 115.771 74.5628 115.835 74.1807 115.898C73.8622 115.962 73.5438 115.962 73.2253 116.026C72.9069 116.026 72.5884 116.026 72.3336 116.026C72.0152 116.026 71.7604 115.962 71.442 115.962L71.1872 115.134C71.442 115.198 71.6967 115.261 72.0152 115.325C72.27 115.389 72.5884 115.389 72.9069 115.389C73.2253 115.389 73.5438 115.389 73.8622 115.325C74.1807 115.261 74.5628 115.198 74.945 115.07C75.7093 114.879 76.3462 114.561 76.792 114.242C77.3015 113.924 77.6837 113.542 77.9384 113.159C78.1932 112.777 78.3843 112.332 78.448 111.822C78.5117 111.376 78.448 110.867 78.3206 110.357C78.1932 109.848 77.9384 109.402 77.62 109.02C77.3015 108.637 76.9831 108.383 76.5372 108.192C76.0914 108.001 75.5819 107.873 75.0087 107.873C74.4354 107.873 73.7348 108.001 72.9706 108.192C72.5884 108.319 72.27 108.446 71.9515 108.574C71.633 108.701 71.3146 108.892 71.0598 109.083C70.8051 109.274 70.5503 109.465 70.3592 109.657C70.1682 109.848 69.9771 110.039 69.786 110.23L69.5312 109.402C69.786 109.211 70.0408 109.02 70.2318 108.829Z" fill="#F9F9F9"/>
<path d="M67.9395 108.892L68.8312 116.981L68.0669 117.045L67.2389 109.656L61.3156 110.293L61.252 109.593L67.9395 108.892Z" fill="#F9F9F9"/>
<path d="M50.2972 113.032C50.3609 112.332 50.5519 111.695 50.8067 111.185C51.1252 110.676 51.5073 110.293 52.0168 109.975C52.5263 109.656 53.0359 109.465 53.6728 109.338C54.3097 109.211 55.0103 109.211 55.7109 109.211C56.4115 109.274 57.1121 109.402 57.749 109.593C58.3859 109.784 58.8954 110.102 59.3413 110.484C59.7871 110.867 60.1056 111.312 60.3603 111.886C60.6151 112.459 60.6788 113.096 60.6151 113.796C60.5514 114.306 60.4877 114.688 60.3603 115.07C60.2329 115.452 60.0419 115.771 59.7871 116.089C59.5323 116.408 59.2776 116.662 58.9591 116.854C58.6407 117.045 58.2585 117.236 57.8764 117.363C57.4942 117.49 57.0484 117.554 56.6026 117.618C56.1567 117.682 55.7109 117.682 55.2014 117.618C54.5008 117.554 53.8002 117.427 53.2269 117.236C52.59 117.045 52.0805 116.726 51.6347 116.344C51.1888 115.962 50.8704 115.516 50.6793 114.943C50.3609 114.433 50.2335 113.796 50.2972 113.032ZM51.0615 113.096C50.9978 113.669 51.0615 114.179 51.2525 114.624C51.4436 115.07 51.6347 115.452 52.0168 115.771C52.3353 116.089 52.7811 116.344 53.3543 116.535C53.8639 116.726 54.5008 116.854 55.2014 116.917C55.902 116.981 56.5389 116.917 57.1121 116.854C57.6853 116.726 58.1311 116.535 58.5133 116.28C58.8954 116.026 59.2139 115.643 59.405 115.198C59.596 114.752 59.7871 114.242 59.7871 113.733C59.8508 113.159 59.7871 112.65 59.596 112.204C59.4686 111.758 59.2139 111.376 58.8317 111.058C58.5133 110.739 58.0674 110.484 57.4942 110.293C56.921 110.102 56.3478 109.975 55.5835 109.911C54.8829 109.848 54.246 109.911 53.6728 109.975C53.0996 110.102 52.6537 110.293 52.2716 110.548C51.8894 110.803 51.571 111.185 51.3799 111.567C51.2525 112.013 51.1252 112.523 51.0615 113.096Z" fill="#F9F9F9"/>
<path d="M41.1895 113.542C41.3169 113.669 41.4443 113.796 41.6354 113.924C41.8265 114.051 42.0175 114.179 42.2086 114.306C42.3997 114.433 42.7181 114.561 42.9729 114.688C43.2913 114.815 43.6098 114.943 43.9919 115.07C44.4378 115.198 44.8836 115.261 45.2658 115.325C45.6479 115.389 45.9664 115.389 46.2211 115.325C46.4759 115.261 46.7306 115.198 46.9217 115.07C47.1128 114.943 47.2402 114.752 47.3039 114.497C47.3676 114.306 47.3676 114.115 47.2402 113.924C47.1765 113.733 47.0491 113.542 46.858 113.414C46.667 113.223 46.4759 113.096 46.2211 112.905C45.9664 112.714 45.7116 112.586 45.3931 112.395C45.0747 112.204 44.8199 112.077 44.5015 111.886C44.183 111.695 43.8646 111.504 43.6098 111.312C43.2913 111.121 43.0366 110.93 42.7818 110.739C42.5271 110.548 42.336 110.357 42.1449 110.102C41.9538 109.911 41.8901 109.657 41.8265 109.402C41.7628 109.147 41.7628 108.892 41.8265 108.637C41.8901 108.319 42.0175 108.128 42.2086 107.937C42.3997 107.746 42.5907 107.618 42.7818 107.491C43.0366 107.364 43.2913 107.3 43.5461 107.3C43.8009 107.3 44.1193 107.236 44.4378 107.3C44.7562 107.364 45.0747 107.364 45.3931 107.427C45.7116 107.491 46.03 107.555 46.2848 107.618C46.9854 107.809 47.5586 108.001 48.0682 108.255C48.5777 108.51 49.0872 108.765 49.533 109.083L49.2783 109.975C48.8324 109.529 48.3866 109.147 47.8134 108.892C47.2402 108.637 46.667 108.383 46.03 108.192C45.5842 108.064 45.1384 108.001 44.7562 107.937C44.3741 107.873 43.9919 107.873 43.6735 107.937C43.355 108.001 43.1003 108.064 42.9092 108.192C42.7181 108.319 42.5907 108.51 42.4634 108.829C42.3997 109.02 42.3997 109.274 42.4634 109.465C42.5271 109.656 42.6544 109.848 42.8455 110.039C43.0366 110.23 43.2277 110.421 43.4824 110.548C43.7372 110.676 43.9919 110.867 44.3104 111.058C44.6289 111.249 44.8836 111.376 45.2021 111.567C45.5205 111.758 45.839 111.886 46.0937 112.077C46.4122 112.268 46.667 112.459 46.9217 112.65C47.1765 112.841 47.3676 113.032 47.5586 113.287C47.7497 113.478 47.8134 113.733 47.9408 113.987C48.0045 114.242 48.0045 114.497 47.9408 114.752C47.8771 115.007 47.7497 115.261 47.6223 115.389C47.4949 115.58 47.3039 115.707 47.0491 115.771C46.858 115.898 46.6033 115.962 46.3485 115.962C46.0937 116.026 45.839 116.026 45.5205 116.026C45.2021 116.026 44.9473 115.962 44.6925 115.898C44.4378 115.835 44.1193 115.771 43.8646 115.707C43.5461 115.643 43.2913 115.516 43.0366 115.452C42.7818 115.325 42.5271 115.261 42.2723 115.134C42.0175 115.007 41.8265 114.879 41.5717 114.752C41.3169 114.624 41.1259 114.497 40.8711 114.37L41.1895 113.542Z" fill="#F9F9F9"/>
<path d="M40.9345 106.09L37.4952 113.414L31.3809 110.548L31.6993 109.911L37.113 112.459L38.3232 109.911L33.2279 107.491L33.5463 106.854L38.6416 109.274L40.0428 106.345L34.5654 103.733L34.8839 103.096L40.9345 106.09Z" fill="#F9F9F9"/>
<path d="M21.5083 92.8421C21.7631 92.9695 22.0179 93.0969 22.2726 93.2879C22.5274 93.4153 22.7821 93.6064 23.0369 93.8612C23.2917 94.0522 23.5464 94.307 23.8649 94.5618C24.1833 94.8802 24.5018 95.2624 24.7566 95.6445C25.0113 96.0266 25.2024 96.4088 25.3935 96.7909C25.5845 97.1731 25.6482 97.5552 25.7119 97.9374C25.7756 98.3195 25.7756 98.7017 25.7119 99.0838C25.6482 99.466 25.5208 99.8481 25.3298 100.167C25.1387 100.549 24.8839 100.867 24.5655 101.186C24.247 101.504 23.9286 101.759 23.5464 101.95C23.1643 102.141 22.8458 102.268 22.4637 102.332C22.0815 102.396 21.6994 102.396 21.3173 102.332C20.9351 102.268 20.553 102.205 20.1708 102.014C19.7887 101.886 19.4065 101.631 19.0244 101.377C18.6422 101.122 18.3238 100.803 17.9416 100.485C17.6869 100.23 17.4321 99.9755 17.241 99.657C17.05 99.4023 16.8589 99.1475 16.6678 98.8927C16.4768 98.638 16.3494 98.3832 16.222 98.1284C16.0946 97.8737 15.9672 97.6189 15.8398 97.3005L16.4768 96.6636C16.5404 96.9183 16.6041 97.1731 16.7315 97.4278C16.7952 97.6826 16.9226 98.0011 17.1137 98.2558C17.241 98.5106 17.4321 98.829 17.6232 99.0838C17.8143 99.3386 18.069 99.657 18.3238 99.9118C18.897 100.485 19.4065 100.867 19.9797 101.122C20.4893 101.377 20.9988 101.568 21.5083 101.631C22.0179 101.695 22.4637 101.568 22.9095 101.44C23.3554 101.249 23.7375 100.995 24.1196 100.549C24.5018 100.103 24.7566 99.7207 24.9476 99.3386C25.1387 98.8927 25.2024 98.4469 25.1387 97.9374C25.075 97.4278 24.9476 96.982 24.6292 96.4088C24.3107 95.8993 23.9286 95.326 23.3554 94.8165C23.1006 94.5618 22.7821 94.307 22.5274 94.1159C22.2726 93.9249 21.9542 93.7338 21.6994 93.6064C21.4446 93.479 21.1262 93.3516 20.8714 93.2879C20.6167 93.2243 20.3619 93.1606 20.1071 93.0969L20.744 92.46C20.9988 92.5873 21.2536 92.7147 21.5083 92.8421Z" fill="#F9F9F9"/>
<path d="M20.299 90.8677L13.7388 95.6445L13.293 95.0713L19.3436 90.7403L15.9043 85.8998L16.4775 85.5177L20.299 90.8677Z" fill="#F9F9F9"/>
<path d="M8.07005 77.5563C8.70695 77.2379 9.34386 77.1105 9.91708 77.1105C10.4903 77.1105 11.0635 77.2379 11.573 77.5563C12.0826 77.8111 12.5284 78.1932 12.9742 78.7028C13.4201 79.2123 13.7385 79.7855 14.057 80.4224C14.3754 81.0593 14.5665 81.7599 14.6939 82.3968C14.8213 83.0338 14.8213 83.6707 14.6939 84.1802C14.5665 84.7534 14.3117 85.2629 13.9933 85.7088C13.6748 86.1546 13.1016 86.5367 12.4647 86.8552C12.0189 87.0463 11.573 87.1737 11.1909 87.2373C10.8087 87.301 10.3629 87.301 9.98077 87.2373C9.59863 87.1737 9.21648 87.0463 8.89803 86.8552C8.57957 86.6641 8.26112 86.4094 7.94266 86.1546C7.62421 85.8998 7.36945 85.5177 7.11468 85.1992C6.85992 84.8171 6.60516 84.4349 6.41408 83.9891C6.09563 83.3522 5.90456 82.7153 5.77718 82.0784C5.6498 81.4415 5.6498 80.8683 5.77718 80.295C5.90456 79.7218 6.15932 79.2123 6.47778 78.7665C6.79623 78.3206 7.43314 77.8748 8.07005 77.5563ZM8.3885 78.2569C7.87897 78.5117 7.43314 78.8302 7.11468 79.1486C6.79623 79.4671 6.60516 79.9129 6.47778 80.3587C6.35039 80.8046 6.35039 81.3141 6.41408 81.8873C6.47778 82.4605 6.73254 83.0337 6.9873 83.7343C7.30576 84.3713 7.62421 84.9445 8.00635 85.3903C8.3885 85.8361 8.77064 86.1546 9.21648 86.3457C9.66232 86.5367 10.1082 86.6641 10.554 86.6641C11.0635 86.6641 11.5093 86.5367 12.0189 86.282C12.5284 86.0272 12.9742 85.7088 13.2927 85.3903C13.6111 85.0082 13.8022 84.626 13.9296 84.1802C14.057 83.7343 14.057 83.2248 13.9933 82.6516C13.9296 82.0784 13.6748 81.5052 13.4201 80.8046C13.1016 80.1677 12.7832 79.5944 12.401 79.2123C12.0189 78.7665 11.6367 78.448 11.1909 78.2569C10.7451 78.0659 10.2992 77.9385 9.85339 78.0022C9.40755 77.8748 8.89803 78.0022 8.3885 78.2569Z" fill="#F9F9F9"/>
<path d="M3.16544 69.7861C3.10175 69.9771 3.10175 70.1682 3.03806 70.3593C2.97437 70.5504 2.97437 70.8051 2.97437 71.0599C2.97437 71.3146 2.97437 71.6331 3.03806 71.9516C3.10175 72.27 3.16544 72.6522 3.22913 73.0343C3.35651 73.4801 3.4839 73.926 3.61128 74.2444C3.73866 74.5629 3.92973 74.8813 4.05711 75.0724C4.24819 75.3272 4.43926 75.4545 4.63033 75.5182C4.8214 75.5819 5.07617 75.6456 5.26724 75.5819C5.45831 75.5182 5.64938 75.4545 5.71307 75.2635C5.84046 75.0724 5.90415 74.8813 5.96784 74.6903C6.03153 74.4992 6.09522 74.1807 6.09522 73.8623C6.09522 73.5438 6.15891 73.2254 6.15891 72.9069C6.15891 72.5885 6.15891 72.2063 6.15891 71.8879C6.15891 71.5057 6.15891 71.1873 6.15891 70.8051C6.15891 70.4867 6.2226 70.1045 6.28629 69.7861C6.34998 69.4676 6.41367 69.2129 6.54105 68.9581C6.66844 68.7033 6.79582 68.5123 6.98689 68.3212C7.17796 68.1301 7.36904 68.0027 7.68749 67.939C8.00594 67.8753 8.26071 67.8753 8.51547 67.939C8.77023 68.0027 8.96131 68.1301 9.21607 68.2575C9.40714 68.3849 9.59821 68.5759 9.78929 68.8307C9.98036 69.0855 10.1077 69.3402 10.2351 69.595C10.3625 69.8498 10.4899 70.1682 10.5536 70.4867C10.6173 70.8051 10.7446 71.0599 10.8083 71.3783C10.9994 72.0789 11.0631 72.7158 11.1268 73.2891C11.1905 73.8623 11.1268 74.4355 11.1268 75.0087L10.2351 75.1998C10.4262 74.6266 10.4899 73.9897 10.4899 73.4164C10.4899 72.7795 10.3625 72.2063 10.2351 71.5694C10.1077 71.1236 9.98036 70.6777 9.85298 70.3593C9.72559 69.9771 9.53452 69.6587 9.34345 69.4039C9.15238 69.1492 8.96131 68.9581 8.70654 68.8944C8.45178 68.767 8.26071 68.767 7.94225 68.8307C7.75118 68.8944 7.56011 69.0218 7.43273 69.1492C7.30534 69.3402 7.17796 69.5313 7.11427 69.7861C7.05058 70.0408 6.98689 70.2956 6.98689 70.6141C6.98689 70.9325 6.9232 71.251 6.9232 71.5694C6.9232 71.8879 6.9232 72.27 6.9232 72.5885C6.9232 72.9706 6.9232 73.2891 6.9232 73.6075C6.9232 73.926 6.85951 74.2444 6.85951 74.5629C6.85951 74.8813 6.73213 75.1361 6.66844 75.3909C6.54105 75.6456 6.41367 75.8367 6.28629 76.0278C6.09522 76.2188 5.90415 76.3462 5.64938 76.4099C5.39462 76.4736 5.13986 76.4736 4.88509 76.4099C4.63033 76.3462 4.43926 76.2825 4.24819 76.1551C4.05711 76.0278 3.86604 75.8367 3.73866 75.6456C3.61128 75.4546 3.42021 75.1998 3.29282 74.945C3.16544 74.6903 3.03806 74.4355 2.97437 74.117C2.84699 73.8623 2.7833 73.5438 2.71961 73.2891C2.65592 72.9706 2.59223 72.7158 2.52853 72.3974C2.46484 72.1426 2.46484 71.8242 2.46484 71.5694C2.46484 71.3146 2.46484 71.0599 2.46484 70.8051C2.46484 70.5504 2.46484 70.2956 2.46484 70.0408L3.16544 69.7861Z" fill="#F9F9F9"/>
<path d="M9.59826 66.0283L1.50953 66.6015L1 59.8503L1.7006 59.7866L2.14643 65.7098L4.94883 65.5188L4.56668 59.8503L5.26728 59.7866L5.64943 65.4551L8.89766 65.2003L8.45182 59.1497L9.15242 59.086L9.59826 66.0283Z" fill="#F9F9F9"/>
<path d="M11.573 42.5264C11.573 42.8449 11.573 43.0996 11.573 43.4181C11.573 43.7365 11.5093 44.055 11.5093 44.3734C11.5093 44.6919 11.3819 45.074 11.2545 45.4562C11.1272 45.902 10.9998 46.3478 10.8087 46.7937C10.6176 47.1758 10.4266 47.558 10.1718 47.8764C9.91704 48.1949 9.66228 48.5133 9.34382 48.7044C9.02537 48.8955 8.70691 49.1502 8.32477 49.2776C7.94262 49.405 7.56048 49.4687 7.17833 49.4687C6.79619 49.4687 6.35035 49.405 5.90452 49.2776C5.45868 49.1502 5.07654 48.9592 4.69439 48.7681C4.31225 48.577 4.05748 48.3223 3.80272 48.0038C3.54796 47.6854 3.35689 47.3669 3.2295 47.0484C3.10212 46.6663 2.97474 46.2842 2.91105 45.902C2.84736 45.5199 2.84736 45.074 2.91105 44.6282C2.97474 44.1824 3.03843 43.7365 3.16581 43.227C3.29319 42.8449 3.35689 42.5264 3.48427 42.2079C3.61165 41.8895 3.73903 41.6347 3.86641 41.3163C4.05748 41.0615 4.18487 40.8067 4.37594 40.552C4.56701 40.2972 4.69439 40.0425 4.88546 39.8514L5.71344 40.1061C5.52237 40.2972 5.3313 40.4883 5.14023 40.6794C4.94916 40.8704 4.82177 41.1252 4.6307 41.38C4.43963 41.6347 4.31225 41.9532 4.18487 42.2716C4.05748 42.5901 3.9301 42.9085 3.80272 43.2907C3.61165 44.055 3.54796 44.6919 3.54796 45.3288C3.54796 45.9657 3.67534 46.4115 3.86641 46.8574C4.05748 47.3032 4.37594 47.6854 4.75808 47.9401C5.14023 48.2586 5.58606 48.4496 6.09559 48.577C6.60512 48.7044 7.11464 48.7681 7.56048 48.7044C8.00631 48.6407 8.45215 48.4496 8.83429 48.1949C9.21644 47.9401 9.59858 47.4943 9.91704 46.9848C10.2355 46.4752 10.4903 45.8383 10.6813 45.074C10.8087 44.6919 10.8724 44.3097 10.8724 43.9913C10.9361 43.6728 10.9361 43.2907 10.9361 42.9722C10.9361 42.6538 10.8724 42.3353 10.8087 42.0806C10.745 41.8258 10.6813 41.571 10.6176 41.3163L11.4456 41.571C11.5093 41.9532 11.573 42.2079 11.573 42.5264Z" fill="#F9F9F9"/>
<path d="M12.7182 40.552L5.33008 37.1127L5.64853 36.4121L12.3998 39.5329L14.8837 34.1829L15.5206 34.5014L12.7182 40.552Z" fill="#F9F9F9"/>
<path d="M18.3875 23.3555C18.9607 23.8013 19.4065 24.2472 19.6613 24.7567C19.916 25.2662 20.1071 25.8394 20.1071 26.4126C20.1071 26.9859 19.9797 27.5591 19.7887 28.196C19.5339 28.7692 19.2154 29.4061 18.8333 29.9793C18.3875 30.5525 17.9416 31.0621 17.4321 31.5079C16.9226 31.9537 16.4131 32.2085 15.8398 32.3996C15.2666 32.5907 14.6934 32.5906 14.1202 32.527C13.547 32.4633 12.9737 32.1448 12.3368 31.7627C11.9547 31.5079 11.6362 31.1895 11.3815 30.871C11.1267 30.5525 10.9356 30.1704 10.8083 29.8519C10.6809 29.4698 10.6172 29.0877 10.6172 28.7055C10.6172 28.3234 10.6809 27.9412 10.7446 27.4954C10.872 27.1132 10.9993 26.6674 11.1904 26.2853C11.3815 25.9031 11.6362 25.4573 11.891 25.0751C12.3368 24.5019 12.7827 23.9924 13.2922 23.5466C13.8017 23.1644 14.3113 22.846 14.8845 22.6549C15.4577 22.4638 16.0309 22.4638 16.6041 22.5275C17.1773 22.6549 17.8142 22.9096 18.3875 23.3555ZM17.9416 23.9287C17.4958 23.6102 16.9863 23.3555 16.5404 23.2918C16.0946 23.1644 15.5851 23.1644 15.1392 23.2918C14.6934 23.4192 14.2476 23.6739 13.8017 23.9924C13.3559 24.3108 12.9101 24.8204 12.5279 25.3936C12.0821 25.9668 11.8273 26.54 11.6362 27.0495C11.4452 27.5591 11.3815 28.0686 11.3815 28.5781C11.3815 29.024 11.5725 29.4698 11.8273 29.9156C12.0821 30.3615 12.4005 30.6799 12.9101 31.0621C13.3559 31.3805 13.8654 31.6353 14.3113 31.699C14.7571 31.7627 15.2666 31.7627 15.7125 31.699C16.1583 31.5716 16.6041 31.3168 17.05 30.9984C17.4958 30.6162 17.9416 30.1704 18.3238 29.5972C18.7059 29.024 19.0244 28.4507 19.2154 27.9412C19.4065 27.4317 19.4702 26.9222 19.4702 26.4126C19.4702 25.9668 19.2791 25.521 19.0244 25.0751C18.7696 24.6293 18.3875 24.2472 17.9416 23.9287Z" fill="#F9F9F9"/>
<path d="M22.7191 15.2667C22.528 15.3304 22.4006 15.3941 22.1459 15.4578C21.9548 15.5215 21.7 15.6489 21.5089 15.7763C21.2542 15.9036 20.9994 16.031 20.7447 16.2221C20.4899 16.4132 20.1714 16.6679 19.9167 16.9227C19.5982 17.2411 19.2798 17.5596 19.025 17.8781C18.7702 18.1965 18.6429 18.4513 18.5155 18.706C18.3881 18.9608 18.3881 19.2156 18.3881 19.4066C18.3881 19.5977 18.5155 19.8525 18.6429 19.9798C18.7702 20.1072 18.9613 20.2346 19.1524 20.2346C19.3435 20.2346 19.5982 20.2346 19.7893 20.1709C20.0441 20.1072 20.2988 19.9799 20.5536 19.8525C20.8083 19.7251 21.1268 19.5977 21.4453 19.4066C21.7637 19.2156 22.0185 19.0882 22.3369 18.8971C22.6554 18.706 22.9738 18.5787 23.2923 18.3876C23.6107 18.2602 23.9292 18.1328 24.184 18.0054C24.5024 17.8781 24.7572 17.8144 25.0119 17.8144C25.2667 17.8144 25.5215 17.8144 25.7762 17.8781C26.031 17.9417 26.2221 18.0691 26.4131 18.2602C26.6042 18.4513 26.7316 18.706 26.859 18.9608C26.9227 19.2156 26.9227 19.4703 26.9227 19.7251C26.9227 19.9799 26.7953 20.2346 26.7316 20.4894C26.6042 20.7441 26.4768 20.9989 26.2858 21.2537C26.0947 21.5084 25.9036 21.7632 25.7125 21.9543C25.5215 22.209 25.2667 22.4001 25.0756 22.5912C24.5661 23.1007 24.0566 23.4828 23.5471 23.8013C23.0375 24.1198 22.5917 24.3745 22.0822 24.6293L21.4453 23.9924C22.0822 23.865 22.5917 23.6102 23.1649 23.2918C23.6744 22.9733 24.184 22.5912 24.6298 22.1453C24.9483 21.8269 25.2667 21.5084 25.5215 21.19C25.7762 20.8715 25.9673 20.5531 26.0947 20.2983C26.2221 20.0435 26.2858 19.7251 26.2858 19.4703C26.2858 19.2156 26.1584 19.0245 25.9673 18.7697C25.8399 18.5787 25.6488 18.515 25.3941 18.4513C25.1393 18.3876 24.9483 18.4513 24.6935 18.4513C24.4387 18.515 24.184 18.5787 23.9292 18.706C23.6744 18.8334 23.356 18.9608 23.0375 19.1519C22.7191 19.3429 22.4643 19.4703 22.1459 19.6614C21.8274 19.8525 21.5089 19.9799 21.2542 20.1709C20.9357 20.2983 20.681 20.4894 20.3625 20.5531C20.0441 20.6804 19.7893 20.7441 19.5345 20.7441C19.2798 20.7441 19.025 20.7441 18.7702 20.6804C18.5155 20.6168 18.3244 20.4894 18.1333 20.2983C17.9423 20.1072 17.8149 19.9162 17.7512 19.6614C17.6875 19.4066 17.6875 19.2156 17.6875 18.9608C17.6875 18.706 17.7512 18.515 17.8786 18.2602C18.006 18.0054 18.1333 17.8144 18.2607 17.5596C18.3881 17.3048 18.5792 17.1138 18.7702 16.859C18.9613 16.6679 19.1524 16.4132 19.4072 16.2221C19.6619 16.031 19.853 15.8399 20.1078 15.6489C20.3625 15.4578 20.5536 15.3304 20.8083 15.203C20.9994 15.0757 21.2542 14.9483 21.4453 14.8209C21.7 14.6935 21.8911 14.5661 22.1459 14.4388L22.7191 15.2667Z" fill="#F9F9F9"/>
<path d="M29.1517 18.9608L24.6934 12.2096L30.3618 8.45181L30.744 9.02503L25.7761 12.337L27.3047 14.6935L32.0178 11.5727L32.3999 12.1459L27.6868 15.2667L29.4702 18.0054L34.5017 14.6935L34.8839 15.2667L29.1517 18.9608Z" fill="#F9F9F9"/>
<path d="M50.6143 9.2161C50.3596 9.40718 50.1048 9.53456 49.85 9.66194C49.5953 9.78932 49.2768 9.9167 48.9584 10.0441C48.6399 10.1715 48.3215 10.2988 47.9393 10.3625C47.4935 10.4899 47.0477 10.5536 46.5381 10.6173C46.0923 10.6173 45.6465 10.6173 45.2643 10.5536C44.8822 10.4899 44.5 10.3625 44.1179 10.2352C43.7357 10.1078 43.4173 9.9167 43.1625 9.66194C42.8441 9.40718 42.5893 9.08872 42.3982 8.77027C42.2072 8.45181 42.0161 8.00598 41.8887 7.56014C41.7613 7.11431 41.6976 6.66847 41.7613 6.28633C41.7613 5.90418 41.8887 5.52204 42.0161 5.13989C42.1435 4.75775 42.3345 4.43929 42.5893 4.12084C42.8441 3.80239 43.0988 3.54762 43.481 3.29286C43.7994 3.0381 44.1816 2.84702 44.5637 2.65595C44.9459 2.46488 45.3917 2.3375 45.9012 2.21012C46.2834 2.08273 46.6018 2.01904 46.984 2.01904C47.3024 1.95535 47.6209 1.95535 47.9393 1.95535C48.2578 1.95535 48.5762 1.95535 48.831 1.95535C49.1494 1.95535 49.4042 2.01904 49.7227 2.08273L49.9137 2.91071C49.659 2.84702 49.4042 2.78333 49.0858 2.71964C48.831 2.65595 48.5125 2.59226 48.1941 2.59226C47.8756 2.59226 47.5572 2.59226 47.2387 2.59226C46.9203 2.59226 46.5381 2.65595 46.156 2.78333C45.3917 2.97441 44.7548 3.22917 44.2453 3.54762C43.7357 3.86608 43.3536 4.18453 43.0351 4.56668C42.7167 4.94882 42.5893 5.39466 42.5256 5.84049C42.4619 6.28633 42.4619 6.79585 42.653 7.30538C42.7804 7.81491 42.9714 8.26074 43.2899 8.64289C43.5447 9.02503 43.9268 9.34349 44.3726 9.53456C44.8185 9.72563 45.328 9.85301 45.9012 9.85301C46.4744 9.85301 47.175 9.78932 47.9393 9.59825C48.3215 9.53456 48.6399 9.40718 48.9584 9.27979C49.2768 9.15241 49.5953 8.96134 49.85 8.83396C50.1048 8.70658 50.3596 8.51551 50.5506 8.32443C50.7417 8.13336 50.9328 7.94229 51.1239 7.75121L51.3149 8.5792C51.0602 8.89765 50.8054 9.08872 50.6143 9.2161Z" fill="#F9F9F9"/>
<path d="M52.9084 9.2798L52.2715 1.19107L53.0358 1.12738L53.609 8.51551L59.5322 8.06968L59.5959 8.77028L52.9084 9.2798Z" fill="#F9F9F9"/>
<path d="M70.6773 5.71312C70.6136 6.41372 70.4225 7.05063 70.1041 7.56015C69.7856 8.06968 69.4035 8.45182 68.894 8.77028C68.3844 9.08873 67.8112 9.2798 67.1743 9.3435C66.5374 9.47088 65.8368 9.47088 65.1362 9.3435C64.4356 9.2798 63.735 9.08873 63.1618 8.89766C62.5249 8.6429 62.0154 8.32444 61.6332 7.9423C61.1874 7.56015 60.8689 7.05063 60.6778 6.5411C60.4868 6.03157 60.4231 5.33098 60.4868 4.63038C60.5505 4.12085 60.6778 3.7387 60.8052 3.35656C60.9326 2.97441 61.1874 2.65596 61.4421 2.33751C61.6969 2.01905 62.0154 1.82798 62.3338 1.63691C62.6523 1.44584 63.0344 1.31845 63.4166 1.19107C63.7987 1.06369 64.2445 1 64.6904 1C65.1362 1 65.582 1 66.0916 1.06369C66.7922 1.12738 67.4928 1.31845 68.066 1.50953C68.6392 1.76429 69.2124 2.08274 69.5946 2.46489C70.0404 2.84703 70.2952 3.35656 70.5499 3.86609C70.8047 4.37561 70.741 5.01252 70.6773 5.71312ZM69.913 5.64943C69.9767 5.07621 69.913 4.56669 69.7856 4.12085C69.6582 3.67501 69.4035 3.29287 69.085 2.91072C68.7666 2.59227 68.3207 2.27382 67.8112 2.08274C67.3017 1.89167 66.6648 1.7006 65.9642 1.63691C65.2636 1.57322 64.6267 1.57322 64.0535 1.63691C63.4802 1.7006 62.9707 1.95536 62.5886 2.21013C62.2064 2.46489 61.888 2.78334 61.6332 3.22918C61.3784 3.67501 61.2511 4.12085 61.1874 4.69407C61.1237 5.26728 61.1874 5.77681 61.3148 6.22265C61.4421 6.66848 61.6969 7.05063 62.0154 7.43277C62.3338 7.75122 62.7796 8.06968 63.2892 8.26075C63.7987 8.45182 64.4356 8.6429 65.1362 8.70659C65.8368 8.77028 66.4737 8.77028 67.0469 8.70659C67.6201 8.6429 68.066 8.45182 68.5118 8.19706C68.894 7.9423 69.2124 7.62384 69.4672 7.17801C69.7219 6.73217 69.8493 6.22265 69.913 5.64943Z" fill="#F9F9F9"/>
<path d="M79.849 5.58574C79.7216 5.45836 79.5942 5.33097 79.4032 5.20359C79.2121 5.07621 79.021 4.94883 78.83 4.75776C78.6389 4.56668 78.3204 4.50299 78.0657 4.31192C77.7472 4.18454 77.4288 4.05716 77.0466 3.92978C76.6008 3.80239 76.1549 3.67501 75.8365 3.61132C75.4544 3.54763 75.1359 3.54763 74.8811 3.54763C74.6264 3.61132 74.3716 3.67501 74.1805 3.80239C73.9895 3.92978 73.8621 4.12085 73.7984 4.31192C73.7347 4.50299 73.7347 4.69407 73.7984 4.88514C73.8621 5.07621 73.9895 5.26728 74.1805 5.45836C74.3716 5.64943 74.5627 5.8405 74.8174 5.96788C75.0722 6.15895 75.327 6.35003 75.6454 6.47741C75.9639 6.66848 76.2186 6.85955 76.5371 7.05063C76.8555 7.2417 77.1103 7.43277 77.4288 7.62384C77.6835 7.81492 78.002 8.00599 78.1931 8.19706C78.4478 8.38813 78.6389 8.6429 78.7663 8.83397C78.8937 9.08873 79.021 9.2798 79.0847 9.53457C79.1484 9.78933 79.1484 10.0441 79.021 10.2989C78.9573 10.6173 78.7663 10.8084 78.6389 10.9995C78.4478 11.1905 78.2567 11.3179 78.002 11.4453C77.7472 11.5727 77.4925 11.5727 77.2377 11.6364C76.9829 11.6364 76.6645 11.6364 76.346 11.6364C76.0276 11.6364 75.7091 11.5727 75.4544 11.509C75.1359 11.4453 74.8174 11.3816 74.5627 11.2542C73.8621 11.0631 73.2889 10.8084 72.7793 10.5536C72.2698 10.2989 71.7603 9.9804 71.3145 9.66195L71.5692 8.77028C72.0151 9.21611 72.4609 9.59826 72.9704 9.91671C73.4799 10.2352 74.0532 10.4262 74.6901 10.681C75.1359 10.8084 75.5817 10.9358 75.9639 10.9995C76.346 11.0631 76.7282 11.0631 77.0466 11.0631C77.3651 11.0631 77.6198 10.9358 77.8109 10.8084C78.002 10.681 78.1931 10.4899 78.2567 10.2352C78.3204 10.0441 78.3204 9.78933 78.2567 9.59826C78.1931 9.40719 78.0657 9.21611 77.8746 9.02504C77.6835 8.83397 77.4925 8.6429 77.2377 8.45182C76.9829 8.26075 76.7282 8.06968 76.4097 7.87861C76.155 7.68753 75.8365 7.49646 75.518 7.30539C75.1996 7.11432 74.9448 6.92324 74.6264 6.73217C74.3716 6.5411 74.0532 6.35003 73.8621 6.15895C73.6073 5.96788 73.4162 5.77681 73.2252 5.52205C73.0341 5.33097 72.9704 5.07621 72.9067 4.82145C72.843 4.56668 72.843 4.31192 72.9704 4.05716C73.0341 3.80239 73.1615 3.61132 73.3526 3.42025C73.5436 3.22918 73.7347 3.1018 73.9258 3.03811C74.1168 2.97441 74.3716 2.91072 74.6264 2.84703C74.8811 2.78334 75.1359 2.84703 75.4544 2.84703C75.7091 2.84703 76.0276 2.91072 76.2823 2.97441C76.6008 3.03811 76.8555 3.1018 77.1103 3.22918C77.4288 3.29287 77.6835 3.42025 77.9383 3.54763C78.1931 3.67501 78.4478 3.80239 78.7026 3.86609C78.9573 3.99347 79.1484 4.12085 79.4032 4.24823C79.5942 4.37561 79.849 4.50299 80.0401 4.63038L79.849 5.58574Z" fill="#F9F9F9"/>
<path d="M79.7227 13.0375L83.4167 5.84048L89.4037 8.96133L89.0852 9.59824L83.7989 6.85954L82.5251 9.34348L87.5566 11.9548L87.2382 12.528L82.2066 9.9167L80.678 12.8465L86.028 15.6489L85.7096 16.2858L79.7227 13.0375Z" fill="#F9F9F9"/>
</svg>
