<svg width="20" height="20" viewBox="0 0 20 20" fill="none" xmlns="http://www.w3.org/2000/svg">
<path fill-rule="evenodd" clip-rule="evenodd" d="M4 3C4 2.44772 4.44772 2 5 2H15C15.5523 2 16 2.44772 16 3V17C16 17.5523 15.5523 18 15 18H5C4.44772 18 4 17.5523 4 17V3ZM6 5C6 4.44772 6.44772 4 7 4H13C13.5523 4 14 4.44772 14 5V12C14 12.5523 13.5523 13 13 13H7C6.44772 13 6 12.5523 6 12V5ZM10 15C9.44772 15 9 15.4477 9 16C9 16.5523 9.44772 17 10 17C10.5523 17 11 16.5523 11 16C11 15.4477 10.5523 15 10 15Z" fill="#181818"/>
</svg>
