<svg width="144" height="144" viewBox="0 0 144 144" fill="none" xmlns="http://www.w3.org/2000/svg">
<path d="M99.0067 10.0322C98.8644 10.4615 98.651 10.8908 98.3663 11.2486C98.0817 11.6064 97.7971 11.8211 97.3701 12.0357C97.0143 12.1788 96.5162 12.322 96.0181 12.322C95.52 12.322 94.8796 12.1788 94.2392 11.9642L90.1832 10.6046L89.187 13.4669L86.7676 12.6082L89.8274 3.52051L96.3027 5.73876C96.9432 5.95343 97.5124 6.23966 97.9394 6.52588C98.3663 6.81211 98.651 7.16989 98.8644 7.52767C99.0779 7.88546 99.1491 8.31479 99.1491 8.74413C99.2202 9.10192 99.1491 9.53126 99.0067 10.0322ZM96.5162 9.17347C96.5874 8.9588 96.5874 8.74413 96.5874 8.60102C96.5874 8.45791 96.5162 8.24324 96.4451 8.10012C96.3739 7.95701 96.1604 7.8139 96.0181 7.67079C95.8046 7.52767 95.52 7.45612 95.2354 7.313L91.6775 6.09654L90.8947 8.45791L94.4526 9.67437C94.8084 9.81748 95.0219 9.88904 95.3065 9.88904C95.5912 9.88904 95.7335 9.88904 95.8758 9.88904C96.0181 9.81748 96.1604 9.74593 96.3027 9.60281C96.4451 9.4597 96.4451 9.38814 96.5162 9.17347Z" stroke="#F9F9F9"></path>
<path d="M101.782 18.6904L99.5762 17.3308L104.628 9.17334L110.108 12.6081C110.677 12.9658 111.175 13.3236 111.531 13.753C111.887 14.1107 112.1 14.5401 112.242 14.8979C112.385 15.2556 112.385 15.685 112.313 16.0428C112.242 16.4005 112.1 16.8299 111.815 17.1877C111.602 17.5455 111.388 17.8317 111.104 17.9748C110.819 18.1179 110.606 18.3326 110.321 18.4041C110.036 18.4757 109.752 18.5472 109.467 18.5472C109.182 18.5472 108.898 18.4757 108.613 18.4041L109.254 23.27L106.692 21.6957L106.123 17.1877L103.703 15.685L101.782 18.6904ZM109.538 15.8281C109.609 15.685 109.681 15.5419 109.752 15.3988C109.752 15.2556 109.752 15.1125 109.681 14.9694C109.609 14.8263 109.538 14.6832 109.396 14.5401C109.254 14.397 109.04 14.2539 108.756 14.1107L105.767 12.2503L104.7 13.9676L107.688 15.8281C107.973 15.9712 108.186 16.1143 108.329 16.1859C108.542 16.2574 108.684 16.329 108.827 16.2574C108.969 16.2574 109.111 16.1859 109.183 16.1143C109.325 16.1143 109.396 15.9712 109.538 15.8281Z" stroke="#F9F9F9"></path>
<path d="M123.13 30.4258C122.561 30.9983 121.921 31.4276 121.28 31.6423C120.64 31.857 119.928 31.9285 119.217 31.857C118.505 31.7854 117.793 31.4992 117.082 31.0698C116.37 30.6405 115.659 30.068 114.947 29.3525C114.235 28.6369 113.666 27.9214 113.31 27.2058C112.955 26.4902 112.67 25.7747 112.528 25.0591C112.457 24.3435 112.528 23.6995 112.741 22.984C112.955 22.3399 113.382 21.6959 113.951 21.1235C114.52 20.551 115.161 20.1217 115.801 19.907C116.441 19.6924 117.153 19.6208 117.865 19.7639C118.576 19.907 119.288 20.1217 119.999 20.551C120.711 20.9804 121.422 21.5528 122.134 22.2684C122.846 22.984 123.415 23.6995 123.771 24.4151C124.198 25.1306 124.411 25.8462 124.482 26.5618C124.553 27.2773 124.482 27.9214 124.269 28.5654C124.126 29.2809 123.771 29.8534 123.13 30.4258ZM121.351 28.5654C121.636 28.2791 121.849 27.9929 121.992 27.7067C122.134 27.3489 122.276 26.9911 122.276 26.6333C122.276 26.204 122.134 25.7747 121.921 25.2738C121.707 24.7729 121.28 24.272 120.782 23.6995C120.426 23.3417 120.07 23.0555 119.715 22.7693C119.359 22.5546 119.074 22.4115 118.79 22.2684C118.505 22.1968 118.22 22.1253 117.936 22.1253C117.651 22.1253 117.438 22.1253 117.153 22.1968C116.939 22.2684 116.726 22.3399 116.513 22.4831C116.299 22.6262 116.157 22.7693 115.943 22.9124C115.801 23.0555 115.587 23.2702 115.516 23.4848C115.374 23.6995 115.303 23.9142 115.161 24.1289C115.089 24.3435 115.018 24.6298 115.018 24.916C115.018 25.2022 115.089 25.4884 115.161 25.7747C115.232 26.0609 115.445 26.4187 115.659 26.7764C115.872 27.1342 116.157 27.492 116.513 27.8498C117.082 28.4222 117.58 28.78 118.007 29.0663C118.434 29.3525 118.932 29.424 119.359 29.424C119.786 29.424 120.142 29.3525 120.497 29.2094C120.782 29.0663 121.067 28.8516 121.351 28.5654Z" stroke="#F9F9F9"></path>
<path d="M128.111 40.5151C127.542 40.8729 127.044 41.0876 126.546 41.1591C126.047 41.2307 125.549 41.1591 125.122 41.016C124.695 40.8013 124.197 40.5151 123.77 40.1573C123.343 39.728 122.917 39.2271 122.561 38.5831C122.347 38.2969 122.205 37.9391 122.063 37.6528C121.92 37.2951 121.778 37.0088 121.636 36.6511C121.493 36.2933 121.351 36.007 121.28 35.7924C121.209 35.5061 121.066 35.2915 121.066 35.0768L122.988 33.8604C123.059 34.075 123.059 34.2897 123.13 34.5044C123.201 34.719 123.272 35.0053 123.343 35.2915C123.415 35.5777 123.557 35.8639 123.699 36.1502C123.842 36.4364 124.055 36.7942 124.269 37.1519C124.482 37.5097 124.767 37.796 124.98 38.0106C125.194 38.2253 125.478 38.3684 125.692 38.3684C125.905 38.44 126.19 38.44 126.403 38.3684C126.617 38.2969 126.901 38.2253 127.115 38.0106L131.882 35.0053L133.234 37.2235L128.111 40.5151Z" stroke="#F9F9F9"></path>
<path d="M126.901 45.7384L135.796 42.3037L139.212 51.3914L137.29 52.107L134.8 45.5238L133.377 46.0962L135.725 52.3216L133.804 53.0372L131.455 46.8118L129.748 47.4558L132.309 54.1105L130.388 54.8261L126.901 45.7384Z" stroke="#F9F9F9"></path>
<path d="M132.807 67.4916C132.665 67.2054 132.523 66.8476 132.381 66.4898C132.238 66.132 132.167 65.7743 132.025 65.3449C131.882 64.9156 131.811 64.5578 131.811 64.0569C131.669 63.0551 131.669 62.1964 131.74 61.3377C131.811 60.4791 132.025 59.7635 132.381 59.1195C132.736 58.4755 133.163 57.9746 133.733 57.5452C134.302 57.1159 135.013 56.8297 135.867 56.7581C136.721 56.6866 137.433 56.6866 138.144 56.9012C138.785 57.1159 139.425 57.5452 139.923 58.0461C140.421 58.547 140.848 59.2626 141.133 60.0497C141.418 60.8369 141.702 61.6955 141.845 62.6973C141.916 63.1267 141.916 63.556 141.987 63.9853C141.987 64.4147 141.987 64.7725 141.987 65.1302C141.987 65.488 141.916 65.8458 141.845 66.2036C141.773 66.5614 141.702 66.9192 141.631 67.2769L139.354 67.6347C139.425 67.3485 139.567 67.0623 139.639 66.776C139.71 66.4898 139.852 66.132 139.852 65.7743C139.923 65.4165 139.923 64.9871 139.994 64.5578C139.994 64.1285 139.994 63.6276 139.923 63.1267C139.781 62.3395 139.639 61.6955 139.354 61.1231C139.141 60.6222 138.856 60.1928 138.5 59.9066C138.144 59.6204 137.86 59.4773 137.433 59.4057C137.077 59.3342 136.65 59.3342 136.294 59.4057C136.01 59.4773 135.796 59.4773 135.583 59.6204C135.369 59.6919 135.156 59.8351 134.942 59.9782C134.729 60.1213 134.586 60.336 134.444 60.5506C134.302 60.7653 134.159 61.0515 134.088 61.4093C134.017 61.7671 133.946 62.1249 133.946 62.5542C133.946 62.9835 133.946 63.4844 134.017 63.9853C134.088 64.4862 134.159 64.9871 134.302 65.4165C134.444 65.8458 134.586 66.2036 134.729 66.5614C134.871 66.9192 135.085 67.2054 135.227 67.4916C135.44 67.7778 135.583 67.9925 135.796 68.2787L133.519 68.6365C133.163 68.1356 132.95 67.7778 132.807 67.4916Z" stroke="#F9F9F9"></path>
<path d="M139.71 77.6528L132.238 77.1519L132.381 74.5759L139.852 75.0768L140.137 70.998L142.2 71.1412L141.489 81.8746L139.425 81.7315L139.71 77.6528Z" stroke="#F9F9F9"></path>
<path d="M133.305 90.3184L135.653 91.1055L134.871 93.61L132.522 92.8228L133.305 90.3184Z" stroke="#F9F9F9"></path>
<path d="M120.568 108.78C120.639 108.422 120.781 108.064 120.924 107.706C121.066 107.349 121.208 106.991 121.422 106.633C121.635 106.275 121.849 105.918 122.062 105.488C122.56 104.701 123.201 103.986 123.77 103.413C124.41 102.841 125.051 102.411 125.691 102.125C126.332 101.839 127.043 101.767 127.755 101.839C128.467 101.91 129.178 102.197 129.89 102.626C130.601 103.055 131.099 103.628 131.455 104.272C131.811 104.916 132.024 105.56 132.024 106.275C132.024 106.991 131.953 107.778 131.669 108.565C131.384 109.352 131.028 110.211 130.459 110.998C130.174 111.356 129.961 111.714 129.676 112.071C129.392 112.358 129.178 112.644 128.893 112.93C128.609 113.216 128.324 113.431 128.111 113.646C127.826 113.86 127.541 114.075 127.257 114.29L125.336 113.002C125.62 112.859 125.905 112.715 126.118 112.501C126.403 112.358 126.688 112.143 126.972 111.928C127.257 111.714 127.541 111.427 127.826 111.07C128.111 110.783 128.395 110.354 128.68 109.925C129.107 109.209 129.392 108.637 129.605 108.064C129.747 107.492 129.819 107.062 129.747 106.633C129.676 106.204 129.534 105.846 129.32 105.56C129.107 105.274 128.822 104.987 128.467 104.773C128.253 104.63 128.04 104.486 127.755 104.415C127.47 104.343 127.257 104.272 127.043 104.272C126.759 104.272 126.545 104.272 126.261 104.343C125.976 104.415 125.691 104.558 125.407 104.701C125.122 104.916 124.837 105.13 124.553 105.417C124.268 105.703 123.984 106.132 123.699 106.562C123.414 106.991 123.201 107.42 122.987 107.85C122.845 108.207 122.703 108.637 122.56 108.994C122.418 109.352 122.418 109.71 122.347 109.996C122.276 110.282 122.276 110.64 122.276 110.926L120.354 109.638C120.354 109.495 120.426 109.138 120.568 108.78Z" stroke="#F9F9F9"></path>
<path d="M113.381 118.655L117.224 114.934L116.583 113.002L118.647 110.998L121.707 121.374L119.643 123.377L109.396 119.943L111.46 117.939L113.381 118.655ZM117.864 116.866L115.374 119.299L119.074 120.658L117.864 116.866Z" stroke="#F9F9F9"></path>
<path d="M105.269 122.59L107.475 121.23L112.385 129.459L106.835 132.823C106.265 133.18 105.696 133.395 105.198 133.538C104.7 133.681 104.273 133.681 103.846 133.61C103.419 133.538 103.063 133.395 102.779 133.109C102.494 132.823 102.209 132.536 101.925 132.107C101.711 131.749 101.569 131.392 101.498 131.105C101.427 130.819 101.427 130.461 101.498 130.175C101.569 129.889 101.64 129.603 101.782 129.388C101.925 129.102 102.067 128.887 102.281 128.672L97.6553 127.027L100.217 125.452L104.486 126.955L106.906 125.524L105.269 122.59ZM104.273 130.891C104.344 131.034 104.486 131.177 104.558 131.248C104.629 131.32 104.771 131.392 104.913 131.392C105.056 131.392 105.198 131.392 105.411 131.32C105.625 131.248 105.838 131.105 106.052 130.962L109.112 129.102L108.044 127.313L104.985 129.173C104.7 129.316 104.486 129.459 104.344 129.603C104.202 129.746 104.059 129.889 103.988 130.032C103.917 130.175 103.917 130.318 103.917 130.461C104.131 130.533 104.202 130.676 104.273 130.891Z" stroke="#F9F9F9"></path>
<path d="M95.3072 128.028L98.2958 137.116L89.1164 140.121L88.476 138.189L95.1649 135.971L94.6668 134.468L88.3337 136.544L87.6933 134.612L94.0263 132.536L93.4571 130.747L86.6971 132.966L86.0566 131.034L95.3072 128.028Z" stroke="#F9F9F9"></path>
<path d="M82.8542 131.75L83.8504 141.267L74.2441 142.269L74.0307 140.265L81.0041 139.55L80.8618 137.975L74.2441 138.619L74.0307 136.616L80.6483 135.972L80.4349 134.111L73.3902 134.827L73.1768 132.823L82.8542 131.75Z" stroke="#F9F9F9"></path>
<path d="M67.2712 132.394L69.8329 132.68L68.6944 142.197L62.2902 141.41C61.5786 141.338 61.0093 141.195 60.5824 140.98C60.0843 140.766 59.7285 140.551 59.515 140.265C59.2304 139.979 59.0881 139.621 58.9458 139.263C58.8746 138.905 58.8035 138.476 58.8746 137.975C58.9458 137.546 59.0169 137.26 59.1592 136.973C59.3016 136.687 59.515 136.472 59.7285 136.258C59.942 136.043 60.1555 135.9 60.4401 135.757C60.7247 135.614 61.0093 135.542 61.294 135.471L58.6611 131.32L61.6498 131.678L64.1403 135.542L66.9155 135.9L67.2712 132.394ZM61.4363 138.333C61.4363 138.548 61.4363 138.691 61.4363 138.834C61.4363 138.977 61.5075 139.12 61.6498 139.192C61.7921 139.263 61.9344 139.335 62.0767 139.406C62.2902 139.478 62.5037 139.549 62.7883 139.549L66.275 139.979L66.4885 137.904L63.0018 137.474C62.7171 137.474 62.4325 137.403 62.219 137.474C62.0056 137.474 61.8632 137.546 61.7209 137.617C61.5786 137.689 61.5075 137.76 61.4363 137.904C61.3651 138.047 61.5075 138.118 61.4363 138.333Z" stroke="#F9F9F9"></path>
<path d="M49.3386 131.964L48.4135 134.326L45.9941 133.324L46.9192 130.962L49.3386 131.964Z" stroke="#F9F9F9"></path>
<path d="M28.6313 123.664C28.7025 123.879 28.8448 124.093 29.0582 124.308C29.2006 124.594 29.414 124.88 29.6987 125.167C29.9121 125.453 30.1968 125.811 30.5526 126.097C30.8372 126.383 31.193 126.741 31.5488 126.956C31.8334 127.17 32.118 127.385 32.3315 127.528C32.545 127.671 32.7585 127.743 32.9008 127.814C33.0431 127.886 33.1854 127.957 33.3277 127.957C33.47 127.957 33.5412 127.957 33.6124 127.957C33.6835 127.957 33.7547 127.957 33.7547 127.886C33.7547 127.814 33.8258 127.814 33.8258 127.814C33.897 127.671 33.897 127.528 33.897 127.385C33.8258 127.242 33.7547 127.027 33.6124 126.812C33.47 126.598 33.2566 126.383 33.0431 126.097C32.8296 125.882 32.6161 125.596 32.3315 125.31C32.118 125.024 31.8334 124.737 31.6199 124.451C31.3353 124.165 31.1218 123.879 30.9084 123.521C30.6949 123.235 30.4814 122.877 30.3391 122.591C30.1968 122.304 30.0545 121.947 29.9833 121.66C29.9121 121.374 29.9121 121.016 29.9833 120.73C30.0545 120.444 30.1968 120.158 30.4102 119.8C30.6949 119.442 30.9795 119.156 31.3353 119.013C31.6911 118.87 31.9757 118.727 32.3315 118.727C32.6873 118.727 33.0431 118.727 33.3989 118.87C33.7547 118.941 34.1105 119.084 34.4662 119.299C34.822 119.514 35.1778 119.657 35.5336 119.871C35.8894 120.086 36.174 120.301 36.4587 120.515C37.2414 121.088 37.8818 121.66 38.4511 122.304C39.0204 122.877 39.4473 123.521 39.8031 124.022L38.4511 125.882C38.1665 125.238 37.7395 124.594 37.1703 123.95C36.601 123.306 35.9606 122.734 35.249 122.161C34.822 121.803 34.4662 121.589 34.1105 121.446C33.7547 121.303 33.5412 121.159 33.3277 121.159C33.1142 121.088 32.9719 121.088 32.8296 121.159C32.6873 121.231 32.6161 121.231 32.545 121.374C32.4738 121.517 32.4027 121.66 32.4738 121.803C32.545 121.947 32.6161 122.161 32.7585 122.376C32.9008 122.591 33.1142 122.805 33.3277 123.092C33.5412 123.306 33.7547 123.592 34.0393 123.879C34.2528 124.165 34.5374 124.451 34.822 124.737C35.1067 125.024 35.3201 125.31 35.5336 125.668C35.7471 125.954 35.9606 126.312 36.1029 126.598C36.2452 126.884 36.3875 127.242 36.4587 127.528C36.5298 127.814 36.5298 128.172 36.4587 128.458C36.3875 128.744 36.2452 129.031 36.0317 129.317C35.7471 129.675 35.5336 129.889 35.1778 130.032C34.8932 130.176 34.5374 130.247 34.2528 130.319C33.897 130.319 33.6124 130.319 33.2566 130.247C32.9008 130.176 32.545 130.032 32.2604 129.889C31.9757 129.746 31.6199 129.532 31.2641 129.317C30.9795 129.102 30.6237 128.888 30.4102 128.744C30.1256 128.53 29.841 128.315 29.5563 128.029C29.2717 127.743 28.9871 127.456 28.7025 127.242C28.4178 126.956 28.2043 126.669 27.9197 126.383C27.6351 126.097 27.4928 125.811 27.2793 125.596L28.6313 123.664Z" stroke="#F9F9F9"></path>
<path d="M21.0897 108.351C21.5878 108.279 22.0859 108.279 22.6552 108.422C23.2244 108.565 23.7937 108.852 24.363 109.281C24.9322 109.71 25.5727 110.283 26.2131 110.998C26.8535 111.714 27.2805 112.429 27.6362 113.073C27.992 113.717 28.1343 114.361 28.2055 114.934C28.2767 115.506 28.2055 116.007 28.0632 116.437C27.9209 116.866 27.6362 117.295 27.2805 117.581L22.4417 121.732L20.8051 119.8L24.9322 116.293C25.1457 116.079 25.3592 115.864 25.5727 115.578C25.7861 115.292 25.8573 115.077 25.8573 114.719C25.8573 114.361 25.7861 114.075 25.6438 113.646C25.5015 113.288 25.1457 112.787 24.7899 112.286C24.363 111.785 24.0072 111.428 23.6514 111.213C23.2956 110.998 22.9398 110.855 22.6552 110.855C22.3705 110.855 22.0859 110.855 21.8013 110.998C21.5167 111.141 21.3032 111.285 21.0185 111.499L16.8914 115.005L15.1836 113.002L20.0223 108.852C20.2358 108.637 20.6628 108.422 21.0897 108.351Z" stroke="#F9F9F9"></path>
<path d="M13.0484 95.1842C13.4042 95.0411 13.6889 94.8979 13.9735 94.8979C14.2581 94.8979 14.5428 94.898 14.7562 94.9695C15.0409 95.0411 15.2543 95.1842 15.4678 95.3273C15.6813 95.4704 15.8948 95.6851 16.1082 95.8997C16.3217 96.1144 16.464 96.4006 16.6775 96.6869C16.8198 96.9731 17.0333 97.2593 17.1756 97.6171L20.3066 103.843L11.7676 108.207L8.7078 102.125C8.56549 101.91 8.49433 101.624 8.35202 101.338C8.28086 101.052 8.13854 100.837 8.13854 100.551C8.06738 100.265 8.06738 100.05 8.06738 99.8354C8.06738 99.6207 8.13854 99.3345 8.2097 99.1198C8.28086 98.9051 8.42317 98.6904 8.63665 98.4758C8.85012 98.2611 9.06359 98.118 9.34823 97.9749C9.91749 97.6887 10.4156 97.6171 10.8425 97.6887C11.2695 97.8318 11.7676 98.118 12.1234 98.6904C11.9099 98.2611 11.8388 97.9033 11.7676 97.5455C11.6964 97.1878 11.6964 96.9015 11.7676 96.6153C11.8388 96.3291 11.9811 96.1144 12.1945 95.8997C12.4792 95.542 12.7638 95.3273 13.0484 95.1842ZM10.8425 99.9069C10.7002 99.9785 10.6291 100.05 10.5579 100.122C10.4868 100.193 10.4156 100.336 10.4156 100.408C10.4156 100.551 10.4156 100.694 10.4156 100.837C10.4156 100.98 10.4868 101.195 10.6291 101.41L12.3369 104.844L13.9023 104.057L12.1945 100.622C12.0522 100.408 11.9811 100.193 11.8388 100.05C11.6964 99.9069 11.6253 99.8354 11.483 99.7638C11.3406 99.6922 11.2695 99.6922 11.1272 99.6922C11.056 99.8353 10.9849 99.9069 10.8425 99.9069ZM13.9735 97.6887C13.76 97.7602 13.6177 97.9033 13.5465 98.0464C13.4754 98.1896 13.4042 98.3327 13.4042 98.4758C13.4042 98.6189 13.4754 98.8336 13.5465 99.1198C13.6177 99.406 13.76 99.6207 13.9023 99.9069L15.6101 103.27L17.3891 102.34L15.6813 98.9767C15.539 98.6904 15.3967 98.4042 15.2543 98.1896C15.112 97.9749 14.9697 97.8318 14.8274 97.6887C14.6851 97.5455 14.5428 97.5455 14.4004 97.5455C14.3293 97.5455 14.187 97.5455 13.9735 97.6887Z" stroke="#F9F9F9"></path>
<path d="M11.9097 81.8033C12.1231 82.0895 12.2654 82.4473 12.4078 82.7335C12.5501 83.0913 12.6924 83.4491 12.8347 83.8069C12.977 84.1646 13.1193 84.594 13.1905 85.0233C13.404 85.9536 13.5463 86.8838 13.5463 87.7425C13.5463 88.6012 13.404 89.3883 13.1193 90.0323C12.8347 90.6763 12.4789 91.2487 11.9097 91.7496C11.4116 92.2505 10.7 92.5368 9.91723 92.7514C9.1345 92.9661 8.35176 92.9661 7.64018 92.823C6.9286 92.6799 6.35933 92.3221 5.79007 91.8212C5.22081 91.3203 4.79386 90.7479 4.36691 89.9607C3.93996 89.2452 3.65533 88.3865 3.44186 87.3847C3.29954 86.9554 3.22838 86.526 3.22838 86.0967C3.15723 85.8104 3.15723 85.3811 3.15723 85.0233C3.15723 84.6655 3.15723 84.3078 3.15723 83.95C3.15723 83.5922 3.22838 83.2344 3.29954 82.8766L5.5766 82.3042C5.50544 82.5904 5.43428 82.8766 5.36312 83.2344C5.29197 83.5206 5.22081 83.8784 5.22081 84.2362C5.22081 84.594 5.22081 85.0233 5.22081 85.4527C5.22081 85.882 5.36312 86.3829 5.43428 86.8838C5.64776 87.6709 5.86123 88.3149 6.14586 88.8158C6.43049 89.3167 6.78628 89.6745 7.07091 89.8892C7.35555 90.1038 7.78249 90.247 8.13828 90.3185C8.49407 90.3901 8.92102 90.3185 9.27681 90.247C9.49029 90.1754 9.77492 90.1038 9.98839 89.9607C10.2019 89.8176 10.4153 89.6745 10.6288 89.5314C10.8423 89.3883 10.9846 89.1736 11.1269 88.8874C11.2692 88.6727 11.3404 88.3149 11.4116 88.0287C11.4827 87.6709 11.4827 87.3131 11.4827 86.8838C11.4827 86.4545 11.4116 85.9536 11.2692 85.4527C11.1269 84.9518 10.9846 84.4509 10.8423 84.0931C10.7 83.6638 10.4865 83.306 10.273 83.0197C10.0595 82.7335 9.91723 82.4473 9.70376 82.1611C9.49029 81.8748 9.27681 81.6602 9.06334 81.4455L11.3404 80.873C11.4827 81.1593 11.6962 81.5171 11.9097 81.8033Z" stroke="#F9F9F9"></path>
<path d="M6.64427 65.2734C7.49817 65.2734 8.20975 65.4165 8.85017 65.7028C9.49059 65.989 9.9887 66.4183 10.4156 66.9908C10.8426 67.5632 11.1984 68.2073 11.4119 68.9944C11.6253 69.7815 11.7676 70.7117 11.7676 71.7135C11.7676 72.7153 11.6965 73.6455 11.483 74.4327C11.2695 75.2198 10.9849 75.9354 10.558 76.5078C10.131 77.0803 9.63291 77.5096 8.99249 77.8674C8.35207 78.1536 7.64049 78.3683 6.85775 78.3683C6.07501 78.3683 5.29227 78.2252 4.65185 77.9389C4.01143 77.6527 3.51332 77.2234 3.08638 76.6509C2.65943 76.0785 2.30364 75.4345 2.09016 74.5758C1.87669 73.7887 1.73438 72.8584 1.73438 71.8566C1.73438 70.8548 1.80553 69.9246 2.01901 69.1375C2.23248 68.3504 2.51711 67.6348 2.94406 67.0623C3.37101 66.4899 3.86911 66.0606 4.50954 65.7028C5.14996 65.345 5.86154 65.2734 6.64427 65.2734ZM6.71543 67.921C6.35964 67.921 6.00385 67.9926 5.64806 68.1357C5.29227 68.2788 5.00764 68.4935 4.72301 68.7797C4.43838 69.0659 4.2249 69.4953 4.08259 69.9962C3.94027 70.4971 3.79796 71.0695 3.79796 71.8566C3.79796 72.3575 3.86911 72.8584 3.94027 73.2162C4.01143 73.574 4.15375 73.9318 4.29606 74.218C4.43838 74.5042 4.65185 74.7189 4.79417 74.9336C5.00764 75.1482 5.22112 75.2913 5.43459 75.3629C5.64806 75.506 5.86154 75.5776 6.14617 75.5776C6.35964 75.6491 6.64427 75.6491 6.85775 75.6491C7.07122 75.6491 7.35585 75.6491 7.56933 75.5776C7.7828 75.506 8.06743 75.4345 8.28091 75.2913C8.49438 75.1482 8.70786 75.0051 8.92133 74.7904C9.1348 74.5758 9.27712 74.3611 9.41944 74.0749C9.56175 73.7887 9.63291 73.4309 9.70407 73.0731C9.77523 72.6438 9.84638 72.2144 9.77523 71.7135C9.77523 70.9264 9.63291 70.2824 9.49059 69.7815C9.34828 69.2806 9.06365 68.9228 8.77901 68.6366C8.49438 68.3504 8.13859 68.1357 7.7828 68.0641C7.42701 67.921 7.07122 67.921 6.71543 67.921Z" stroke="#F9F9F9"></path>
<path d="M14.2581 53.3237L6.28837 57.9748L12.6214 59.6206L11.981 62.1251L2.73047 59.6922L3.44205 56.9731L11.4117 52.3934L5.00752 50.7476L5.7191 48.2432L14.9696 50.6761L14.2581 53.3237Z" stroke="#F9F9F9"></path>
<path d="M12.3367 38.9405L18.9543 42.4467L17.7447 44.7365L11.127 41.2303L9.27687 44.8081L7.42676 43.8779L12.4078 34.3608L14.2579 35.3626L12.3367 38.9405Z" stroke="#F9F9F9"></path>
<path d="M23.9356 34.7192L22.299 36.7228L14.9697 30.5689L19.0969 25.56C19.5238 24.9875 19.9508 24.6298 20.3777 24.3435C20.8047 24.0573 21.2316 23.9142 21.5874 23.8426C22.0144 23.7711 22.3702 23.8426 22.7259 23.9142C23.0817 24.0573 23.4375 24.272 23.7933 24.5582C24.0779 24.8444 24.3626 25.0591 24.5049 25.3453C24.6472 25.6315 24.7895 25.9178 24.7895 26.204C24.8607 26.4902 24.8607 26.7764 24.7895 27.0627C24.7184 27.3489 24.6472 27.6351 24.5761 27.9213H29.486L27.5647 30.3543H23.0106L21.2316 32.501L23.9356 34.7192ZM22.1567 26.5618C22.0144 26.4187 21.8721 26.3471 21.7297 26.3471C21.5874 26.2756 21.4451 26.2756 21.3028 26.3471C21.1605 26.4187 21.0182 26.4902 20.8758 26.6333C20.7335 26.7764 20.52 26.9196 20.3777 27.2058L18.1007 29.8534L19.6662 31.1414L21.9432 28.4222C22.1567 28.2076 22.299 27.9929 22.3702 27.7782C22.4413 27.5636 22.5125 27.4205 22.5125 27.2773C22.5125 27.1342 22.5125 26.9911 22.4413 26.848C22.3702 26.7049 22.299 26.7049 22.1567 26.5618Z" stroke="#F9F9F9"></path>
<path d="M36.5302 20.1214L32.2608 23.3414L32.6166 25.345L30.3395 27.0624L28.5605 16.4005L30.8376 14.6831L40.5862 19.2627L38.3092 21.0516L36.5302 20.1214ZM31.905 21.3379L34.6801 19.1912L31.1934 17.4738L31.905 21.3379Z" stroke="#F9F9F9"></path>
<path d="M51.1175 14.1108C50.8329 14.3255 50.5483 14.6117 50.2636 14.8264C49.979 15.0411 49.6232 15.2557 49.2674 15.4704C48.9116 15.6851 48.5558 15.8998 48.1289 16.0429C47.275 16.4722 46.3499 16.6869 45.5672 16.9015C44.7133 17.0447 43.9306 17.0447 43.219 16.9015C42.5074 16.7584 41.867 16.4722 41.2977 16.0429C40.7285 15.6135 40.3015 14.9695 39.9457 14.254C39.5899 13.4668 39.4476 12.7513 39.5188 12.0357C39.5899 11.3201 39.7322 10.6761 40.1592 10.0321C40.515 9.38811 41.0131 8.81565 41.7247 8.31476C42.4362 7.81386 43.1478 7.31297 44.0729 6.88363C44.4998 6.66896 44.8556 6.52584 45.2826 6.38273C45.6384 6.23962 46.0653 6.16806 46.4211 6.09651C46.7769 6.02495 47.1327 5.95339 47.4885 5.95339C47.8443 5.88184 48.2 5.88184 48.5558 5.88184L49.4809 8.02853C49.1963 8.02853 48.8405 7.95698 48.5558 7.95698C48.2 7.95698 47.9154 7.95698 47.4885 8.02853C47.1327 8.10009 46.7057 8.17165 46.3499 8.2432C45.923 8.38631 45.496 8.52943 44.9979 8.7441C44.2864 9.10188 43.6459 9.45966 43.2901 9.81745C42.8632 10.1752 42.5786 10.6046 42.3651 10.9623C42.2228 11.3201 42.0805 11.7495 42.1516 12.1073C42.1516 12.465 42.2939 12.8228 42.4362 13.1806C42.5074 13.3953 42.6497 13.6099 42.792 13.8246C42.9344 14.0393 43.1478 14.1824 43.3613 14.3255C43.5748 14.4686 43.7882 14.6117 44.0729 14.6833C44.3575 14.7548 44.6421 14.8264 44.9979 14.8264C45.3537 14.8264 45.7095 14.7548 46.1365 14.6833C46.5634 14.6117 46.9904 14.3971 47.4885 14.1824C47.9866 13.9677 48.4135 13.7531 48.7693 13.4668C49.1251 13.1806 49.4097 12.9659 49.6944 12.7513C49.979 12.5366 50.1925 12.2504 50.4059 12.0357C50.6194 11.821 50.8329 11.5348 50.9752 11.3201L51.9003 13.4668C51.6868 13.6099 51.4022 13.8962 51.1175 14.1108Z" stroke="#F9F9F9"></path>
<path d="M58.9453 4.66526L60.5108 12.0356L57.9491 12.5365L56.3836 5.16616L52.4699 6.02484L52.043 3.9497L62.432 1.73145L62.9301 3.80658L58.9453 4.66526Z" stroke="#F9F9F9"></path>
<path d="M72.8203 7.31307L72.8915 4.80859L75.5243 4.88015L75.4532 7.38463L72.8203 7.31307Z" stroke="#F9F9F9"></path>
<path d="M72.0387 75.6496C74.2002 75.6496 75.9524 73.8875 75.9524 71.7139C75.9524 69.5404 74.2002 67.7783 72.0387 67.7783C69.8772 67.7783 68.125 69.5404 68.125 71.7139C68.125 73.8875 69.8772 75.6496 72.0387 75.6496Z" fill="#efefef"></path>
</svg>
