<svg width="144" height="144" fill="none" xmlns="http://www.w3.org/2000/svg"><path d="M99.007 10.032c-.143.43-.356.859-.64 1.217-.285.357-.57.572-.997.787-.356.143-.854.286-1.352.286-.498 0-1.138-.143-1.779-.358l-4.056-1.36-.996 2.863-2.42-.859 3.06-9.087 6.476 2.218a7 7 0 0 1 1.636.787c.427.286.712.644.925 1.002.214.357.285.787.285 1.216.071.358 0 .787-.142 1.288Zm-2.49-.859c.07-.214.07-.429.07-.572 0-.143-.07-.358-.142-.5-.071-.144-.285-.287-.427-.43-.213-.143-.498-.215-.783-.358l-3.558-1.216-.782 2.36 3.558 1.217c.355.143.569.215.853.215h.57c.142-.072.284-.143.427-.286.142-.143.142-.215.213-.43ZM101.782 18.69l-2.206-1.36 5.052-8.157 5.48 3.435c.569.358 1.067.716 1.423 1.145.356.358.569.787.711 1.145.143.358.143.787.071 1.145-.071.358-.213.787-.498 1.145-.213.358-.427.644-.711.787-.285.143-.498.358-.783.43-.285.07-.569.142-.854.142-.285 0-.569-.071-.854-.143l.641 4.866-2.562-1.574-.569-4.508-2.42-1.503-1.921 3.005Zm7.756-2.862.214-.43c0-.142 0-.285-.071-.429-.072-.143-.143-.286-.285-.429-.142-.143-.356-.286-.64-.43l-2.989-1.86-1.067 1.718 2.988 1.86c.285.143.498.286.641.358.213.071.355.143.498.071a.545.545 0 0 0 .356-.143c.142 0 .213-.143.355-.286ZM123.13 30.426c-.569.572-1.209 1.002-1.85 1.216a4.965 4.965 0 0 1-2.063.215c-.712-.072-1.424-.358-2.135-.787-.712-.43-1.423-1.002-2.135-1.718-.712-.715-1.281-1.43-1.637-2.146-.355-.716-.64-1.431-.782-2.147-.071-.716 0-1.36.213-2.075.214-.644.641-1.288 1.21-1.86.569-.573 1.21-1.002 1.85-1.217a4.01 4.01 0 0 1 2.064-.143c.711.143 1.423.358 2.134.787.712.43 1.423 1.002 2.135 1.717.712.716 1.281 1.431 1.637 2.147a5.1 5.1 0 0 1 .711 2.147c.071.715 0 1.36-.213 2.003-.143.716-.498 1.288-1.139 1.86Zm-1.779-1.86c.285-.287.498-.573.641-.86.142-.357.284-.715.284-1.073 0-.429-.142-.858-.355-1.36-.214-.5-.641-1.001-1.139-1.573-.356-.358-.712-.645-1.067-.93-.356-.215-.641-.358-.925-.502-.285-.071-.57-.143-.854-.143-.285 0-.498 0-.783.072-.214.071-.427.143-.64.286-.214.143-.356.286-.57.43-.142.142-.356.357-.427.572-.142.215-.213.43-.355.644-.072.214-.143.5-.143.787 0 .286.071.572.143.859.071.286.284.644.498 1.001.213.358.498.716.854 1.074.569.572 1.067.93 1.494 1.216.427.287.925.358 1.352.358a2.93 2.93 0 0 0 1.138-.215 3.33 3.33 0 0 0 .854-.644ZM128.111 40.515c-.569.358-1.067.573-1.565.644-.499.072-.997 0-1.424-.143-.427-.215-.925-.5-1.352-.859a7.039 7.039 0 0 1-1.209-1.574c-.214-.286-.356-.644-.498-.93-.143-.358-.285-.644-.427-1.002-.143-.358-.285-.644-.356-.859-.071-.286-.214-.5-.214-.715l1.922-1.217c.071.215.071.43.142.644.071.215.142.501.213.788.072.286.214.572.356.858.143.286.356.644.57 1.002.213.358.498.644.711.859.214.214.498.357.712.357.213.072.498.072.711 0 .214-.071.498-.143.712-.357l4.767-3.006 1.352 2.218-5.123 3.292ZM126.901 45.738l8.895-3.434 3.416 9.087-1.922.716-2.49-6.583-1.423.572 2.348 6.226-1.921.715-2.349-6.225-1.707.644 2.561 6.654-1.921.716-3.487-9.088ZM132.807 67.492c-.142-.287-.284-.644-.426-1.002-.143-.358-.214-.716-.356-1.145a3.745 3.745 0 0 1-.214-1.288 11.81 11.81 0 0 1-.071-2.72c.071-.858.285-1.574.641-2.218a4.795 4.795 0 0 1 1.352-1.574c.569-.43 1.28-.715 2.134-.787.854-.071 1.566-.071 2.277.143.641.215 1.281.644 1.779 1.145s.925 1.217 1.21 2.004c.285.787.569 1.646.712 2.647.071.43.071.859.142 1.288v1.145c0 .358-.071.716-.142 1.074l-.214 1.073-2.277.358c.071-.287.213-.573.285-.859.071-.286.213-.644.213-1.002.071-.358.071-.787.142-1.216 0-.43 0-.93-.071-1.431-.142-.788-.284-1.431-.569-2.004-.213-.5-.498-.93-.854-1.216-.356-.287-.64-.43-1.067-.501a3.05 3.05 0 0 0-1.139 0c-.284.071-.498.071-.711.214-.214.072-.427.215-.641.358-.213.143-.356.358-.498.573-.142.214-.285.5-.356.858-.071.358-.142.716-.142 1.145 0 .43 0 .93.071 1.431s.142 1.002.285 1.431c.142.43.284.788.427 1.145.142.358.356.644.498.93.213.287.356.502.569.788l-2.277.358a8.75 8.75 0 0 1-.712-1.145ZM139.71 77.653l-7.472-.501.143-2.576 7.471.5.285-4.078 2.063.143-.711 10.734-2.064-.144.285-4.078ZM133.305 90.318l2.348.788-.782 2.504-2.349-.787.783-2.505ZM120.568 108.78c.071-.358.213-.716.356-1.074.142-.357.284-.715.498-1.073.213-.358.427-.715.64-1.145.498-.787 1.139-1.502 1.708-2.075.64-.572 1.281-1.002 1.921-1.288.641-.286 1.352-.358 2.064-.286.712.071 1.423.358 2.135.787a4.314 4.314 0 0 1 1.565 1.646c.356.644.569 1.288.569 2.003 0 .716-.071 1.503-.355 2.29-.285.787-.641 1.646-1.21 2.433-.285.358-.498.716-.783 1.073-.284.287-.498.573-.783.859-.284.286-.569.501-.782.716l-.854.644-1.921-1.288c.284-.143.569-.287.782-.501.285-.143.57-.358.854-.573.285-.214.569-.501.854-.858.285-.287.569-.716.854-1.145.427-.716.712-1.288.925-1.861.142-.572.214-1.002.142-1.431-.071-.429-.213-.787-.427-1.073a3.033 3.033 0 0 0-.853-.787c-.214-.143-.427-.287-.712-.358-.285-.072-.498-.143-.712-.143-.284 0-.498 0-.782.071-.285.072-.57.215-.854.358-.285.215-.57.429-.854.716-.285.286-.569.715-.854 1.145-.285.429-.498.858-.712 1.288-.142.357-.284.787-.427 1.144-.142.358-.142.716-.213 1.002-.071.286-.071.644-.071.93l-1.922-1.288c0-.143.072-.5.214-.858ZM113.381 118.655l3.843-3.721-.641-1.932 2.064-2.004 3.06 10.376-2.064 2.003-10.247-3.434 2.064-2.004 1.921.716Zm4.483-1.789-2.49 2.433 3.7 1.359-1.21-3.792ZM105.269 122.59l2.206-1.36 4.91 8.229-5.55 3.364a6.364 6.364 0 0 1-1.637.715 2.944 2.944 0 0 1-1.352.072c-.427-.072-.783-.215-1.067-.501-.285-.286-.57-.573-.854-1.002a3.806 3.806 0 0 1-.427-1.002 2.057 2.057 0 0 1 0-.93c.071-.286.142-.572.284-.787.143-.286.285-.501.499-.716l-4.626-1.645 2.562-1.575 4.269 1.503 2.42-1.431-1.637-2.934Zm-.996 8.301c.071.143.213.286.285.357a.538.538 0 0 0 .355.144c.143 0 .285 0 .498-.072.214-.072.427-.215.641-.358l3.06-1.86-1.068-1.789-3.059 1.86c-.285.143-.499.286-.641.43-.142.143-.285.286-.356.429-.071.143-.071.286-.071.429.214.072.285.215.356.43ZM95.307 128.028l2.989 9.088-9.18 3.005-.64-1.932 6.689-2.218-.498-1.503-6.333 2.076-.64-1.932 6.332-2.076-.569-1.789-6.76 2.219-.64-1.932 9.25-3.006ZM82.854 131.75l.996 9.517-9.606 1.002-.213-2.004 6.973-.715-.142-1.575-6.618.644-.213-2.003 6.617-.644-.213-1.861-7.045.716-.213-2.004 9.677-1.073ZM67.271 132.394l2.562.286-1.139 9.517-6.404-.787c-.711-.072-1.28-.215-1.708-.43-.498-.214-.854-.429-1.067-.715-.285-.286-.427-.644-.57-1.002-.07-.358-.142-.787-.07-1.288.07-.429.142-.715.284-1.002.143-.286.356-.501.57-.715.213-.215.427-.358.711-.501.285-.143.57-.215.854-.286l-2.633-4.151 2.989.358 2.49 3.864 2.775.358.356-3.506Zm-5.835 5.939v.501c0 .143.072.286.214.358l.427.214c.213.072.427.143.711.143l3.487.43.213-2.075-3.486-.43c-.285 0-.57-.071-.783 0-.213 0-.356.072-.498.143a.557.557 0 0 0-.285.287c-.07.143.072.214 0 .429ZM49.339 131.964l-.925 2.362-2.42-1.002.925-2.362 2.42 1.002ZM28.631 123.664c.072.215.214.429.427.644.143.286.356.572.64.859.214.286.499.644.855.93.284.286.64.644.996.859.284.214.569.429.782.572.214.143.427.215.57.286.142.072.284.143.427.143h.284c.072 0 .143 0 .143-.071 0-.072.07-.072.07-.072.072-.143.072-.286.072-.429-.071-.143-.142-.358-.285-.573-.142-.214-.355-.429-.569-.715-.213-.215-.427-.501-.712-.787-.213-.286-.498-.573-.711-.859a4.575 4.575 0 0 1-.712-.93 6.534 6.534 0 0 1-.569-.93 4.996 4.996 0 0 1-.356-.931 2.051 2.051 0 0 1 0-.93c.072-.286.214-.572.427-.93.285-.358.57-.644.925-.787.356-.143.64-.286.996-.286s.712 0 1.068.143c.356.071.712.214 1.067.429.356.215.712.358 1.068.572.355.215.64.43.925.644a12.256 12.256 0 0 1 1.992 1.789c.57.573.996 1.217 1.352 1.718l-1.352 1.86c-.285-.644-.712-1.288-1.28-1.932-.57-.644-1.21-1.216-1.922-1.789-.427-.358-.783-.572-1.139-.715-.355-.143-.569-.287-.782-.287-.214-.071-.356-.071-.498 0-.143.072-.214.072-.285.215-.071.143-.142.286-.071.429.071.144.142.358.285.573.142.215.355.429.569.716.213.214.427.5.711.787.214.286.498.572.783.858.285.287.498.573.712.931.213.286.427.644.569.93.142.286.285.644.356.93.07.286.07.644 0 .93a2.425 2.425 0 0 1-.427.859c-.285.358-.498.572-.854.715-.285.144-.64.215-.925.287-.356 0-.64 0-.996-.072a4.08 4.08 0 0 1-.997-.358c-.284-.143-.64-.357-.996-.572-.284-.215-.64-.429-.854-.573a7.502 7.502 0 0 1-.854-.715c-.284-.286-.569-.573-.854-.787-.284-.286-.498-.573-.782-.859-.285-.286-.427-.572-.64-.787l1.351-1.932ZM21.09 108.351a3.904 3.904 0 0 1 1.565.071c.57.143 1.139.43 1.708.859.57.429 1.21 1.002 1.85 1.717.64.716 1.067 1.431 1.423 2.075.356.644.498 1.288.57 1.861.07.572 0 1.073-.143 1.503a2.541 2.541 0 0 1-.782 1.144l-4.84 4.151-1.636-1.932 4.127-3.507c.214-.214.427-.429.64-.715.214-.286.285-.501.285-.859s-.07-.644-.213-1.073c-.142-.358-.498-.859-.854-1.36-.427-.501-.783-.858-1.139-1.073-.355-.215-.711-.358-.996-.358-.285 0-.57 0-.854.143a4.826 4.826 0 0 0-.782.501l-4.128 3.506-1.707-2.003 4.838-4.15c.214-.215.64-.43 1.068-.501ZM13.048 95.184c.356-.143.64-.286.925-.286.285 0 .57 0 .783.072.285.071.498.214.712.357.213.143.427.358.64.573.214.214.356.5.57.787.142.286.355.572.498.93l3.13 6.226-8.538 4.364-3.06-6.082c-.143-.215-.214-.501-.356-.787-.071-.286-.213-.501-.213-.787-.072-.286-.072-.501-.072-.716 0-.214.072-.5.143-.715.07-.215.213-.43.427-.644.213-.215.427-.358.711-.501.57-.286 1.068-.358 1.494-.286.428.143.926.429 1.281 1.001-.213-.429-.284-.787-.355-1.144-.072-.358-.072-.645 0-.93.07-.287.213-.502.426-.716.285-.358.57-.573.854-.716Zm-2.206 4.723a.977.977 0 0 0-.284.215.54.54 0 0 0-.142.286v.429c0 .143.07.358.213.573l1.708 3.434 1.565-.787-1.707-3.435c-.143-.214-.214-.429-.356-.572-.143-.143-.214-.215-.356-.286-.142-.072-.213-.072-.356-.072-.071.143-.142.215-.285.215Zm3.131-2.218a.73.73 0 0 0-.427.357c-.07.144-.142.287-.142.43 0 .143.071.358.143.644.07.286.213.5.355.787l1.708 3.363 1.78-.93-1.709-3.363a7.782 7.782 0 0 0-.427-.787c-.142-.215-.284-.358-.427-.501-.142-.143-.284-.143-.427-.143-.07 0-.213 0-.427.143ZM11.91 81.803c.213.287.355.644.498.93l.427 1.074c.142.358.284.787.355 1.216.214.93.356 1.86.356 2.72 0 .858-.142 1.645-.427 2.29-.284.643-.64 1.216-1.21 1.717-.497.5-1.209.787-1.992 1.001a4.931 4.931 0 0 1-2.277.072c-.711-.143-1.28-.5-1.85-1.002-.57-.5-.996-1.073-1.423-1.86-.427-.716-.712-1.575-.925-2.576a4.072 4.072 0 0 1-.214-1.288c-.07-.287-.07-.716-.07-1.074V83.95c0-.358.07-.716.142-1.073l2.277-.573c-.072.286-.143.573-.214.93a4.245 4.245 0 0 0-.142 1.002v1.217c0 .429.142.93.213 1.43.214.788.427 1.432.712 1.933.284.5.64.858.925 1.073.285.215.711.358 1.067.43.356.071.783 0 1.139-.072.213-.072.498-.143.711-.286l.64-.43c.214-.143.357-.357.499-.644.142-.214.213-.572.285-.858.07-.358.07-.716.07-1.145 0-.43-.07-.93-.213-1.431-.142-.501-.284-1.002-.427-1.36a3.8 3.8 0 0 0-.569-1.073c-.213-.286-.356-.573-.57-.859-.213-.286-.426-.5-.64-.716l2.277-.572c.143.286.356.644.57.93ZM6.644 65.273c.854 0 1.566.144 2.206.43.64.286 1.139.715 1.566 1.288.427.572.782 1.216.996 2.003.213.787.356 1.718.356 2.72 0 1.001-.072 1.931-.285 2.719-.213.787-.498 1.502-.925 2.075a4.801 4.801 0 0 1-1.566 1.36c-.64.286-1.352.5-2.134.5-.783 0-1.566-.143-2.206-.43-.64-.285-1.139-.715-1.566-1.287a5.626 5.626 0 0 1-.996-2.075 10.485 10.485 0 0 1-.356-2.72c0-1.001.072-1.931.285-2.718.213-.788.498-1.503.925-2.076a4.801 4.801 0 0 1 1.566-1.36c.64-.357 1.352-.429 2.134-.429Zm.071 2.648c-.355 0-.711.072-1.067.215-.356.143-.64.358-.925.644-.285.286-.498.715-.64 1.216-.143.501-.285 1.074-.285 1.86 0 .502.071 1.002.142 1.36.071.358.214.716.356 1.002.142.286.356.5.498.716.214.214.427.357.64.429.214.143.428.215.712.215.214.071.498.071.712.071.213 0 .498 0 .711-.071.214-.072.498-.144.712-.287.213-.143.427-.286.64-.5a2.57 2.57 0 0 0 .498-.716c.143-.286.214-.644.285-1.002.071-.43.142-.859.071-1.36a6.93 6.93 0 0 0-.284-1.931c-.143-.501-.427-.86-.712-1.145-.285-.287-.64-.501-.996-.573-.356-.143-.712-.143-1.068-.143ZM14.258 53.324l-7.97 4.65 6.333 1.647-.64 2.504-9.25-2.433.711-2.719 7.97-4.58-6.404-1.645.711-2.505 9.25 2.433-.71 2.648ZM12.337 38.94l6.617 3.507-1.21 2.29-6.617-3.507-1.85 3.578-1.85-.93 4.98-9.517 1.85 1.002-1.92 3.578ZM23.936 34.72l-1.637 2.003-7.33-6.154 4.128-5.009c.427-.572.854-.93 1.28-1.216a3.35 3.35 0 0 1 1.21-.501c.427-.072.783 0 1.139.071.356.143.712.358 1.067.644.285.286.57.501.712.787.142.287.285.573.285.859.07.286.07.572 0 .859l-.214.858h4.91l-1.921 2.433H23.01l-1.78 2.147 2.705 2.218Zm-1.78-8.158c-.142-.143-.284-.215-.426-.215a.452.452 0 0 0-.427 0c-.143.072-.285.143-.427.286-.143.143-.356.287-.498.573L18.1 29.853l1.565 1.288 2.277-2.719c.214-.214.356-.43.427-.644.071-.214.142-.357.142-.5 0-.144 0-.287-.07-.43-.072-.143-.143-.143-.285-.286ZM36.53 20.121l-4.27 3.22.357 2.004-2.277 1.717L28.56 16.4l2.278-1.717 9.748 4.58-2.277 1.789-1.779-.93Zm-4.625 1.217 2.775-2.147-3.487-1.717.712 3.864ZM51.117 14.11c-.284.216-.569.502-.853.716-.285.215-.64.43-.997.644-.355.215-.711.43-1.138.573-.854.43-1.78.644-2.562.858-.854.144-1.636.144-2.348 0a4.682 4.682 0 0 1-1.921-.858c-.57-.43-.997-1.073-1.352-1.789-.356-.787-.498-1.503-.427-2.218.07-.716.213-1.36.64-2.004a5.067 5.067 0 0 1 1.566-1.717c.711-.501 1.423-1.002 2.348-1.431a8.648 8.648 0 0 1 1.21-.501c.355-.143.782-.215 1.138-.286.356-.072.712-.144 1.068-.144.355-.071.711-.071 1.067-.071l.925 2.147c-.285 0-.64-.072-.925-.072-.356 0-.64 0-1.067.072-.356.071-.783.143-1.14.214-.426.143-.853.286-1.351.501-.712.358-1.352.716-1.708 1.073-.427.358-.711.788-.925 1.145-.142.358-.285.787-.213 1.145 0 .358.142.716.284 1.074.071.214.214.429.356.644.142.214.356.357.57.5.213.144.426.287.71.358.285.072.57.143.926.143.356 0 .712-.071 1.139-.143.426-.071.853-.286 1.352-.5.498-.215.925-.43 1.28-.716.356-.286.64-.501.925-.716.285-.214.498-.5.712-.715.213-.215.427-.501.57-.716l.924 2.147c-.213.143-.498.43-.782.644ZM58.945 4.665l1.566 7.37-2.562.502-1.565-7.37-3.914.858-.427-2.075L62.432 1.73l.498 2.076-3.985.858ZM72.82 7.313l.072-2.504 2.632.071-.07 2.505-2.634-.072Z" stroke="#F9F9F9"/><path d="M72.039 75.65c2.161 0 3.913-1.763 3.913-3.936 0-2.174-1.752-3.936-3.913-3.936-2.162 0-3.914 1.762-3.914 3.936s1.752 3.936 3.914 3.936Z" fill="#efefef"/></svg>