<svg width="20" height="20" fill="none" xmlns="http://www.w3.org/2000/svg"><path fill-rule="evenodd" clip-rule="evenodd" d="M1.875 9.219c0-3.538 3.638-6.406 8.125-6.406s8.125 2.868 8.125 6.406-3.638 6.406-8.125 6.406c-.492 0-.975-.034-1.443-.1-.469.33-3.178 2.232-3.433 2.268 0 0-.105.04-.194-.012-.09-.052-.073-.19-.073-.19.027-.183.702-2.515.826-2.944-2.287-1.134-3.808-3.14-3.808-5.428Zm3.164 1.788c0 .247.21.448.469.448a.46.46 0 0 0 .469-.448V8.223h.731a.46.46 0 0 0 0-.918h-2.4a.46.46 0 0 0 0 .918h.731v2.784Zm4.189.235c.045.128.195.207.39.207a.717.717 0 0 0 .298-.065c.13-.06.253-.223.11-.666l-1.12-2.95c-.08-.225-.319-.456-.625-.463-.305.007-.545.238-.624.462L6.535 10.72c-.142.442-.018.606.111.665a.716.716 0 0 0 .298.065c.196 0 .345-.08.39-.207l.233-.608h1.429l.232.608Zm-.947-2.768.468 1.33h-.936l.468-1.33Zm2.051 2.483c0 .237.201.43.45.43h1.503a.44.44 0 0 0 .45-.43.44.44 0 0 0-.45-.43h-.996V7.773a.474.474 0 0 0-.479-.468.474.474 0 0 0-.478.468v3.184Zm2.585.023a.47.47 0 0 0 .937 0V9.957l.163-.162 1.1 1.456a.467.467 0 0 0 .778-.044.464.464 0 0 0 .05-.356.465.465 0 0 0-.08-.165L14.71 9.159l1.068-1.068a.365.365 0 0 0 .103-.286.462.462 0 0 0-.137-.297.462.462 0 0 0-.323-.138c-.1 0-.193.037-.26.104l-1.308 1.308V7.773a.47.47 0 0 0-.937 0v3.207Z" fill="#1b1b1b"/></svg>