<svg width="20" height="20" viewBox="0 0 20 20" fill="none" xmlns="http://www.w3.org/2000/svg">
<path fill-rule="evenodd" clip-rule="evenodd" d="M1.875 9.21875C1.875 5.6807 5.51266 2.8125 10 2.8125C14.4873 2.8125 18.125 5.6807 18.125 9.21875C18.125 12.7569 14.4873 15.625 10 15.625C9.5075 15.625 9.02523 15.5905 8.55688 15.5242C8.08805 15.8546 5.37937 17.7573 5.12375 17.793C5.12375 17.793 5.01891 17.8338 4.92977 17.7813C4.84063 17.7288 4.8568 17.5911 4.8568 17.5911C4.88367 17.4079 5.55898 15.0759 5.68344 14.6466C3.39578 13.5133 1.875 11.5062 1.875 9.21875ZM5.03906 11.0074C5.03906 11.2543 5.2493 11.4551 5.50781 11.4551C5.76633 11.4551 5.97656 11.2543 5.97656 11.0074V8.22266H6.70797C6.96156 8.22266 7.16797 8.01672 7.16797 7.76367C7.16797 7.51062 6.96164 7.30469 6.70797 7.30469H4.30766C4.05406 7.30469 3.84766 7.51062 3.84766 7.76367C3.84766 8.01672 4.05398 8.22266 4.30766 8.22266H5.03906V11.0074ZM9.22805 11.242C9.27313 11.3696 9.42266 11.449 9.61812 11.449C9.72093 11.4491 9.82255 11.427 9.91609 11.3844C10.0453 11.3249 10.1695 11.1609 10.0269 10.7178L8.90609 7.76789C8.82695 7.54297 8.58703 7.31164 8.28086 7.30477C7.97555 7.31172 7.73562 7.54297 7.65664 7.76742L6.53539 10.7187C6.39305 11.1608 6.51727 11.3247 6.64648 11.3843C6.74 11.427 6.84164 11.4491 6.94445 11.449C7.13992 11.449 7.28937 11.3697 7.3343 11.2423L7.56656 10.6342L8.99594 10.6343L9.22805 11.242ZM8.28125 8.47391L8.74945 9.80398H7.81305L8.28125 8.47391ZM10.332 10.957C10.332 11.1939 10.5335 11.3867 10.7812 11.3867H12.2852C12.5329 11.3867 12.7344 11.1939 12.7344 10.957C12.7344 10.7202 12.5329 10.5273 12.2852 10.5273H11.2891V7.77344C11.2891 7.51492 11.0744 7.30469 10.8105 7.30469C10.5467 7.30469 10.332 7.51492 10.332 7.77344V10.957ZM12.9167 10.9802C12.9167 11.2387 13.127 11.449 13.3855 11.449C13.5098 11.4488 13.629 11.3994 13.7169 11.3114C13.8048 11.2235 13.8542 11.1043 13.8544 10.98V9.95727L14.017 9.79461L15.1163 11.2512C15.1599 11.3093 15.2164 11.3564 15.2814 11.3888C15.3465 11.4212 15.4182 11.4378 15.4908 11.4375C15.5926 11.4377 15.6917 11.4045 15.7727 11.3429C15.822 11.306 15.8634 11.2596 15.8947 11.2065C15.9259 11.1535 15.9463 11.0947 15.9546 11.0337C15.9634 10.9728 15.9599 10.9107 15.9445 10.8511C15.929 10.7915 15.9019 10.7355 15.8646 10.6865L14.7108 9.15789L15.779 8.08984C15.8524 8.01633 15.8892 7.915 15.8824 7.80445C15.8757 7.69484 15.8267 7.5893 15.7446 7.50727C15.6566 7.4193 15.5391 7.36883 15.422 7.36883C15.3217 7.36883 15.2293 7.40586 15.162 7.47312L13.8542 8.78094V7.77344C13.8542 7.51492 13.644 7.30469 13.3855 7.30469C13.127 7.30469 12.9167 7.51492 12.9167 7.77344V10.9802Z" fill="#1b1b1b"></path>
</svg>
